<svg width="170" height="16" viewBox="0 0 170 16" fill="none" xmlns="http://www.w3.org/2000/svg">
<path fill-rule="evenodd" clip-rule="evenodd" d="M0 0H10.0917V9.72376H0V0Z" fill="#C51F3F"/>
<path d="M22.4771 11.6685H12.3854V15.558H22.4771V11.6685Z" fill="#C51F3F"/>
<path d="M32.4771 0H12.3854V3.8895H32.4771V0Z" fill="#C51F3F"/>
<path fill-rule="evenodd" clip-rule="evenodd" d="M32.2019 9.72373H12.3854V5.83423H32.5689V9.72373H32.2019Z" fill="#C51F3F"/>
<path d="M58.8991 15.7348H54.9541L53.8532 12.2872H48.1651L47.0642 15.7348H43.1193L48.9908 0.265137H53.211L58.8991 15.7348ZM52.9358 9.6353L51.2844 4.41983C51.1927 4.06624 51.1009 3.53586 51.0092 3.00547H50.9174C50.9174 3.44746 50.8257 3.88945 50.6422 4.33144L48.8991 9.54691H52.9358V9.6353Z" fill="#231F20"/>
<path d="M64.4955 10.4309V15.7348H60.9175V0.265137H66.6056C70.6422 0.265137 72.6606 1.94469 72.6606 5.21541C72.6606 6.80657 72.1101 8.04414 70.9175 9.01652C69.7248 9.98889 68.1652 10.4309 66.2386 10.4309H64.4955ZM64.4955 2.91707V7.77895H65.9634C67.89 7.77895 68.8074 6.98337 68.8074 5.30381C68.8074 3.71265 67.7982 2.91707 65.8716 2.91707H64.4955Z" fill="#231F20"/>
<path d="M89.0826 15.7348H85.1376L84.0367 12.2872H78.3486L77.2477 15.7348H73.3027L79.1743 0.265137H83.4862L89.0826 15.7348ZM83.211 9.6353L81.4679 4.41983C81.3761 4.06624 81.2844 3.53586 81.1926 3.00547H81.1009C81.1009 3.44746 81.0092 3.88945 80.8257 4.33144L79.0826 9.54691H83.211V9.6353Z" fill="#231F20"/>
<path d="M109.725 14.674C108.073 15.558 106.33 16 104.312 16C102.018 16 100.183 15.2928 98.7156 13.8785C97.3394 12.4641 96.6055 10.6077 96.6055 8.22099C96.6055 5.83425 97.4312 3.8895 98.9908 2.29834C100.55 0.79558 102.569 0 104.954 0C106.697 0 108.165 0.265193 109.358 0.79558V2.82873C108.073 2.03315 106.514 1.67956 104.771 1.67956C102.936 1.67956 101.468 2.29834 100.367 3.44751C99.1743 4.68508 98.6238 6.18785 98.6238 8.1326C98.6238 10.0773 99.1743 11.6685 100.183 12.7293C101.284 13.8785 102.661 14.4088 104.495 14.4088C105.78 14.4088 106.881 14.1436 107.798 13.7017V9.37017H104.312V7.69061H109.725V14.674Z" fill="#231F20"/>
<path d="M124.954 15.7348H122.752L120.092 11.4033C119.817 10.9613 119.633 10.6961 119.358 10.3425C119.083 10.0773 118.899 9.8121 118.624 9.6353C118.349 9.45851 118.165 9.28171 117.798 9.28171C117.523 9.19331 117.248 9.19331 116.881 9.19331H115.321V15.7348H113.395V0.265137H118.165C118.899 0.265137 119.541 0.353535 120.092 0.53033C120.642 0.707126 121.193 0.972319 121.651 1.32591C122.11 1.6795 122.385 2.12149 122.661 2.65188C122.936 3.18226 123.028 3.80105 123.028 4.41983C123.028 4.95022 122.936 5.48061 122.752 5.9226C122.569 6.36458 122.385 6.80657 122.018 7.16016C121.743 7.51376 121.376 7.77895 120.917 8.04414C120.459 8.30934 120 8.48613 119.45 8.66293C119.725 8.75132 119.908 8.92812 120.184 9.01652C120.367 9.19331 120.551 9.37011 120.734 9.54691C120.917 9.7237 121.101 9.98889 121.284 10.2541C121.468 10.5193 121.651 10.7845 121.835 11.1381L124.954 15.7348ZM115.321 1.8563V7.51376H117.89C118.349 7.51376 118.807 7.42536 119.174 7.33696C119.541 7.24856 119.908 6.98337 120.184 6.71818C120.459 6.45298 120.734 6.18779 120.826 5.7458C121.009 5.39221 121.101 4.95022 121.101 4.50823C121.101 3.71265 120.826 3.00547 120.275 2.56348C119.725 2.12149 118.899 1.8563 117.89 1.8563H115.321Z" fill="#231F20"/>
<path d="M133.67 16C131.376 16 129.541 15.2928 128.165 13.7901C126.789 12.3757 126.147 10.4309 126.147 8.1326C126.147 5.65746 126.881 3.62431 128.257 2.20994C129.633 0.707182 131.56 0 133.945 0C136.147 0 137.982 0.707182 139.266 2.12155C140.642 3.53591 141.284 5.48066 141.284 7.77901C141.284 10.3425 140.55 12.2873 139.174 13.7901C137.798 15.2928 135.963 16 133.67 16ZM133.761 1.67956C132.11 1.67956 130.734 2.29834 129.633 3.44751C128.624 4.59668 128.073 6.18785 128.073 8.0442C128.073 9.98895 128.624 11.4917 129.633 12.6409C130.642 13.7901 132.018 14.4088 133.67 14.4088C135.413 14.4088 136.789 13.8785 137.798 12.7293C138.807 11.5801 139.358 10.0773 139.358 8.0442C139.358 6.01105 138.899 4.41989 137.89 3.27072C136.881 2.20994 135.505 1.67956 133.761 1.67956Z" fill="#231F20"/>
<path d="M156.239 9.45851C156.239 13.79 154.22 15.9999 150.092 15.9999C146.239 15.9999 144.22 13.8784 144.22 9.7237V0.265137H146.147V9.6353C146.147 12.8176 147.523 14.4088 150.275 14.4088C152.936 14.4088 154.312 12.906 154.312 9.8121V0.265137H156.239V9.45851Z" fill="#231F20"/>
<path d="M162.11 9.9005V15.7348H160.183V0.265137H164.587C166.33 0.265137 167.615 0.707126 168.624 1.50271C169.541 2.29829 170 3.44746 170 4.95022C170 6.45298 169.45 7.60215 168.44 8.57453C167.431 9.5469 165.963 9.98889 164.22 9.98889H162.11V9.9005ZM162.11 1.8563V8.22094H164.037C165.321 8.22094 166.33 7.95574 166.972 7.33696C167.615 6.80657 167.982 5.9226 167.982 4.95022C167.982 2.91707 166.697 1.8563 164.22 1.8563H162.11Z" fill="#231F20"/>
</svg>
