<svg width="7" height="10" viewBox="0 0 7 10" fill="none" xmlns="http://www.w3.org/2000/svg">
<path d="M4.00069 -7.66309e-07L2.25485 -6.16425e-07C2.01381 -5.95731e-07 1.81835 0.203552 1.81835 0.454573L1.81835 6.36362L0.509788 6.36362C0.333253 6.36362 0.174102 6.47445 0.106501 6.64421C0.0390932 6.81397 0.07637 7.00947 0.201142 7.13961L2.81922 9.86504C2.90035 9.95132 3.0116 10 3.12787 10C3.24395 10 3.3552 9.95132 3.43632 9.86504L6.05537 7.13961C6.18014 7.00947 6.21742 6.81397 6.14982 6.64421C6.08222 6.47445 5.92326 6.36362 5.74672 6.36362L4.4372 6.36362L4.4372 0.454573C4.4372 0.203551 4.24174 -7.87003e-07 4.00069 -7.66309e-07Z" fill="#05AB6F"/>
</svg>
