<svg width="7" height="10" viewBox="0 0 7 10" fill="none" xmlns="http://www.w3.org/2000/svg">
<path d="M3.43636 0.134965C3.35505 0.0486767 3.24399 1.206e-06 3.12772 1.21599e-06C3.01164 1.22595e-06 2.90039 0.0486768 2.81908 0.134965L0.201226 2.86039C0.0764554 2.99053 0.0389861 3.18603 0.106586 3.35579C0.174186 3.52556 0.333335 3.63638 0.509868 3.63638L1.81841 3.63638L1.81841 9.54543C1.81841 9.79645 2.01387 10 2.25491 10L4.00073 10C4.24177 10 4.43723 9.79645 4.43723 9.54543L4.43723 3.63638L5.74674 3.63638C5.92308 3.63638 6.08223 3.52556 6.14983 3.35579C6.21743 3.18603 6.18015 2.99053 6.05519 2.86039L3.43636 0.134965Z" fill="#C20202"/>
</svg>
