<svg width="15" height="15" viewBox="0 0 15 15" fill="none" xmlns="http://www.w3.org/2000/svg">
<path d="M7.26562 0.109375C3.25195 0.109375 0 3.36133 0 7.375C0 11.418 3.25195 14.6406 7.26562 14.6406C11.25 14.6406 14.5312 11.418 14.5312 7.375C14.5312 3.36133 11.2793 0.109375 7.26562 0.109375ZM6.85547 13.2344C5.71289 13.1465 4.59961 12.7363 3.63281 12.0039L7.26562 8.37109L8.52539 9.63086C7.64648 10.6855 7.08984 11.916 6.85547 13.2344ZM9.52148 10.6562L10.8691 12.0039C10.1074 12.5898 9.22852 12.9707 8.32031 13.1465C8.52539 12.2383 8.93555 11.3887 9.52148 10.6562ZM10.5176 9.66016C11.25 9.07422 12.0996 8.66406 13.0078 8.45898C12.832 9.39648 12.4512 10.2461 11.8652 11.0078L10.5176 9.66016ZM13.0957 6.99414C11.7773 7.22852 10.5469 7.78516 9.49219 8.66406L8.23242 7.4043L11.8652 3.77148C12.5977 4.70898 13.0078 5.79297 13.0957 6.99414ZM4.07227 5.17773C3.31055 5.79297 2.43164 6.20312 1.46484 6.4375C1.64062 5.4707 2.02148 4.5625 2.63672 3.77148L4.07227 5.17773ZM3.63281 2.77539C4.42383 2.16016 5.33203 1.7793 6.29883 1.60352C6.06445 2.57031 5.6543 3.44922 5.03906 4.18164L3.63281 2.77539ZM7.73438 1.54492C8.90625 1.66211 9.96094 2.07227 10.8691 2.77539L7.26562 6.4082L6.06445 5.20703C6.94336 4.15234 7.5293 2.89258 7.73438 1.54492ZM1.40625 7.87305C2.75391 7.66797 4.01367 7.08203 5.06836 6.20312L6.26953 7.4043L2.63672 11.0078C1.93359 10.0996 1.52344 9.01562 1.40625 7.87305Z" fill="#C7C6CC"/>
</svg>
