<svg width="23" height="19" viewBox="0 0 23 19" fill="none" xmlns="http://www.w3.org/2000/svg">
<path fill-rule="evenodd" clip-rule="evenodd" d="M19.4403 4.83836C19.2403 4.64936 19.0503 4.45936 18.8603 4.26936L17.8703 3.27436C17.0003 2.40036 16.1102 1.49636 15.2002 0.626363C14.9281 0.366174 14.5955 0.178108 14.2322 0.0792602C13.8689 -0.0195878 13.4867 -0.0260834 13.1203 0.0603631C12.7469 0.145613 12.4002 0.321354 12.1107 0.572114C11.8213 0.822874 11.5978 1.14096 11.4602 1.49836C11.3698 1.74605 11.3127 2.00464 11.2903 2.26736L11.2603 2.43736C10.944 2.42898 10.6292 2.48503 10.3352 2.6021C10.0413 2.71917 9.77427 2.89482 9.55032 3.11836C9.31683 3.35173 9.13206 3.62918 9.00674 3.93458C8.88142 4.23999 8.81807 4.56725 8.82034 4.89736C8.30192 4.87844 7.79195 5.03329 7.37161 5.33731C6.95127 5.64133 6.64461 6.07709 6.50027 6.57536C6.41027 6.48536 6.30034 6.38036 6.19034 6.26436C5.40034 5.47636 4.22029 4.28436 3.89029 3.97436C3.45841 3.58498 2.89607 3.37188 2.3146 3.37725C1.73313 3.38262 1.17488 3.60606 0.750272 4.00336C0.517388 4.21517 0.330598 4.47267 0.201566 4.75981C0.072533 5.04695 0.00402229 5.35759 0.000271569 5.67236C-0.00462084 6.00091 0.0566364 6.32708 0.180325 6.63149C0.304014 6.93591 0.48758 7.21234 0.720242 7.44436C2.70024 9.40236 5.61034 12.3174 7.94034 14.6584C8.70034 15.4134 9.4103 16.1234 10.0303 16.7434C10.8312 17.5694 11.819 18.1908 12.9103 18.5554C14.0772 18.9639 15.3275 19.0748 16.5481 18.878C17.7687 18.6812 18.9209 18.1829 19.9003 17.4284C20.0203 17.3454 20.1303 17.2584 20.2403 17.1734L20.3903 17.0574L20.9903 16.4574V16.4494L21.0802 16.3494L21.2603 16.1224C22.1141 15.0452 22.657 13.7549 22.8302 12.3914C22.9874 11.3085 22.8982 10.2042 22.5692 9.16066C22.2403 8.11711 21.6801 7.16126 20.9303 6.36436C20.4503 5.83536 19.9303 5.32836 19.4403 4.83836ZM8.91031 10.7314C9.13421 10.9539 9.40169 11.1277 9.69595 11.242C9.99021 11.3562 10.3049 11.4085 10.6203 11.3954C10.9361 11.3834 11.2462 11.3071 11.5316 11.1713C11.8171 11.0355 12.0718 10.8429 12.2803 10.6054C12.3293 10.5401 12.3926 10.487 12.4655 10.4502C12.5383 10.4134 12.6186 10.394 12.7002 10.3934C13.2119 10.352 13.7044 10.1799 14.1303 9.89336V9.90636C14.1403 10.1954 14.1503 10.4934 14.1803 10.7934C14.287 11.906 14.7786 12.9464 15.5703 13.7354C15.7403 13.9104 15.9203 14.0924 16.1303 14.2934C16.1868 14.3587 16.2563 14.4117 16.3343 14.4489C16.4122 14.4862 16.4969 14.507 16.5833 14.51C16.6696 14.513 16.7557 14.4982 16.8361 14.4664C16.9164 14.4346 16.9894 14.3866 17.0503 14.3254C17.1099 14.2649 17.1565 14.1929 17.1874 14.1139C17.2183 14.0348 17.2327 13.9503 17.2299 13.8654C17.2271 13.7806 17.2071 13.6972 17.171 13.6204C17.135 13.5435 17.0837 13.4748 17.0203 13.4184C16.9203 13.3104 16.8202 13.2044 16.7202 13.1014C16.4864 12.8674 16.2662 12.6203 16.0603 12.3614C15.6556 11.8003 15.4215 11.1343 15.386 10.4434C15.3505 9.75244 15.5152 9.06598 15.8603 8.46636C15.9988 8.24807 16.1491 8.03743 16.3103 7.83536C16.3602 7.77862 16.4068 7.7192 16.4502 7.65736C16.5117 7.59929 16.5609 7.52944 16.5948 7.45197C16.6286 7.37451 16.6466 7.29103 16.6475 7.20649C16.6484 7.12194 16.6323 7.03808 16.6001 6.95989C16.568 6.8817 16.5204 6.81078 16.4602 6.75136C16.3951 6.69318 16.3189 6.64886 16.2361 6.62111C16.1533 6.59336 16.0658 6.58277 15.9788 6.58997C15.8918 6.59718 15.8071 6.62203 15.73 6.66302C15.6529 6.704 15.5849 6.76026 15.5303 6.82836C15.2903 7.06436 15.0603 7.30136 14.8203 7.53836C14.4903 7.87336 14.1403 8.22136 13.8003 8.56036C13.4641 8.91275 13.0094 9.12818 12.5237 9.16511C12.0381 9.20204 11.5559 9.05786 11.1703 8.76036C11.1125 8.73035 11.0614 8.68891 11.0202 8.63854C10.9789 8.58816 10.9484 8.52993 10.9303 8.46736C10.9388 8.403 10.96 8.34096 10.9926 8.28483C11.0252 8.22871 11.0686 8.1796 11.1203 8.14036C12.6303 6.62536 13.8902 5.36336 15.2002 4.05936C15.3043 3.93688 15.4338 3.83849 15.5797 3.77102C15.7256 3.70354 15.8846 3.66859 16.0453 3.66859C16.2061 3.66859 16.3649 3.70354 16.5108 3.77102C16.6567 3.83849 16.7862 3.93688 16.8903 4.05936C17.1403 4.30136 17.3803 4.54236 17.6203 4.78336C18.3303 5.49236 19.0703 6.22636 19.7903 6.95636C20.53 7.67518 21.0784 8.56739 21.3858 9.55199C21.6931 10.5366 21.7498 11.5824 21.5503 12.5944C21.3489 13.7136 20.836 14.7534 20.0703 15.5944C19.4939 16.2543 18.784 16.7845 17.9877 17.1501C17.1913 17.5157 16.3265 17.7084 15.4502 17.7154C14.0971 17.76 12.7698 17.3385 11.6903 16.5214C11.2725 16.1934 10.8782 15.8365 10.5103 15.4534C8.44028 13.3944 5.23028 10.1774 2.88028 7.82936L1.63028 6.57536C1.4415 6.41886 1.31038 6.20376 1.25784 5.96424C1.2053 5.72472 1.23431 5.47452 1.34024 5.25336C1.3923 5.13559 1.46715 5.02923 1.56033 4.94036C1.71884 4.78396 1.92104 4.67935 2.14029 4.64036C2.31684 4.61039 2.49806 4.62326 2.66861 4.67791C2.83915 4.73255 2.99401 4.82736 3.12027 4.95436C3.46027 5.28136 4.70034 6.52536 5.44034 7.26836C5.68034 7.50936 5.87025 7.70336 5.98025 7.80936C6.27025 8.10936 6.57026 8.40036 6.86026 8.69736C7.53026 9.36536 8.22031 10.0574 8.91031 10.7314ZM10.1002 7.05336L10.2803 7.24336C10.2103 7.31936 10.1303 7.39736 10.0503 7.48036C9.81339 7.74892 9.68264 8.09473 9.68264 8.45286C9.68264 8.81099 9.81339 9.15681 10.0503 9.42536C10.2978 9.69405 10.5927 9.91475 10.9203 10.0764C10.7371 10.1561 10.534 10.1787 10.3378 10.1412C10.1416 10.1038 9.96129 10.008 9.82034 9.86636C9.03034 9.10436 8.40025 8.47236 7.85025 7.87736C7.688 7.67191 7.60928 7.41282 7.62967 7.15183C7.65006 6.89083 7.76805 6.64713 7.96023 6.46936C7.96399 6.46031 7.9712 6.45312 7.98025 6.44936C8.16999 6.26246 8.42241 6.15272 8.6885 6.14144C8.9546 6.13017 9.21545 6.21817 9.42032 6.38836C9.65032 6.59836 9.87025 6.81936 10.1002 7.05336ZM12.7102 2.94336C12.5544 2.71895 12.4913 2.44298 12.5342 2.17313C12.5771 1.90328 12.7226 1.66043 12.9403 1.49536C13.1476 1.32501 13.4107 1.23782 13.6787 1.25076C13.9467 1.26369 14.2004 1.37583 14.3903 1.56536C14.6303 1.79536 14.8703 2.03836 15.1103 2.27336C15.2003 2.36236 15.2803 2.45136 15.3703 2.53936C14.9117 2.69993 14.5021 2.97537 14.1803 3.33936C14.1103 3.40736 14.0403 3.47736 13.9803 3.54636C13.8603 3.66636 13.7503 3.78136 13.6303 3.88936C13.5603 3.81836 13.4903 3.74936 13.4103 3.68136C13.1594 3.45261 12.9254 3.20597 12.7102 2.94336ZM10.4403 5.61336C10.2257 5.41817 10.0968 5.14608 10.0818 4.85633C10.0668 4.56659 10.1669 4.28266 10.3603 4.06636C10.4533 3.95596 10.5678 3.86568 10.6969 3.80105C10.826 3.73642 10.967 3.69879 11.1111 3.69046C11.2552 3.68213 11.3996 3.70328 11.5353 3.7526C11.671 3.80193 11.7952 3.87841 11.9003 3.97736C12.1285 4.17552 12.3455 4.38618 12.5503 4.60836C12.6003 4.66636 12.6602 4.72636 12.7202 4.78636L11.1703 6.33836L11.0802 6.24836L10.8703 6.04836C10.7303 5.90636 10.5803 5.75836 10.4403 5.61336Z" fill="black"/>
</svg>
