<svg width="27" height="16" viewBox="0 0 27 16" fill="none" xmlns="http://www.w3.org/2000/svg">
<path fill-rule="evenodd" clip-rule="evenodd" d="M24.1255 4.08028C23.9596 3.92089 23.802 3.76066 23.6444 3.60043L22.8232 2.76133C22.1015 2.02427 21.3632 1.26192 20.6084 0.528233C20.3827 0.308811 20.1068 0.150213 19.8055 0.0668528C19.5041 -0.0165072 19.187 -0.0219851 18.8831 0.0509166C18.5734 0.122809 18.2858 0.271014 18.0457 0.482484C17.8056 0.693954 17.6203 0.9622 17.5061 1.2636C17.4311 1.47248 17.3838 1.69055 17.3652 1.91211L17.3403 2.05548C17.0779 2.0484 16.8168 2.09567 16.573 2.1944C16.3291 2.29313 16.1076 2.44126 15.9219 2.62977C15.7282 2.82658 15.5749 3.06055 15.471 3.3181C15.367 3.57566 15.3145 3.85165 15.3164 4.13003C14.8863 4.11407 14.4633 4.24466 14.1147 4.50104C13.766 4.75743 13.5116 5.12491 13.3919 5.54511C13.3172 5.46922 13.2261 5.38067 13.1348 5.28284C12.4795 4.61831 11.5007 3.61308 11.2269 3.35165C10.8687 3.02327 10.4023 2.84357 9.91993 2.8481C9.4376 2.85263 8.97454 3.04106 8.62233 3.37611C8.42916 3.55473 8.27422 3.77188 8.16719 4.01403C8.06015 4.25618 8.00333 4.51814 8.00021 4.7836C7.99616 5.06067 8.04697 5.33573 8.14957 5.59245C8.25217 5.84917 8.40443 6.08229 8.59742 6.27795C10.2398 7.92917 12.6537 10.3874 14.5864 12.3616C15.2168 12.9983 15.8057 13.5971 16.32 14.1199C16.9844 14.8165 17.8037 15.3406 18.709 15.648C19.6769 15.9926 20.714 16.0861 21.7265 15.9201C22.7389 15.7542 23.6947 15.334 24.5071 14.6976C24.6066 14.6276 24.6978 14.5542 24.7891 14.4826L24.9135 14.3847L25.4112 13.8788V13.872L25.4858 13.7877L25.6352 13.5962C26.3434 12.6878 26.7937 11.5998 26.9374 10.4498C27.0678 9.53667 26.9938 8.60537 26.7209 7.72533C26.4481 6.84529 25.9834 6.03921 25.3615 5.36717C24.9633 4.92106 24.532 4.4935 24.1255 4.08028Z" fill="#0563AB"/>
<path fill-rule="evenodd" clip-rule="evenodd" d="M24.1256 4.08026C23.9597 3.92088 23.802 3.76065 23.6444 3.60042L22.8232 2.76132C22.1015 2.02426 21.3633 1.26191 20.6084 0.528221C20.3827 0.3088 20.1068 0.150201 19.8055 0.0668413C19.5041 -0.0165187 19.1871 -0.0219966 18.8831 0.0509051C18.5734 0.122797 18.2858 0.271003 18.0457 0.482473C17.8056 0.693942 17.6203 0.962189 17.5061 1.26359C17.4311 1.47247 17.3838 1.69054 17.3652 1.9121L17.3403 2.05546C17.0779 2.04839 16.8168 2.09566 16.573 2.19439C16.3291 2.29312 16.1077 2.44125 15.9219 2.62976C15.7282 2.82656 15.5749 3.06054 15.471 3.31809C15.367 3.57564 15.3145 3.85163 15.3164 4.13002C14.8864 4.11406 14.4633 4.24465 14.1147 4.50103C13.766 4.75742 13.5116 5.1249 13.3919 5.5451C13.3173 5.4692 13.2261 5.38066 13.1348 5.28283C12.4795 4.6183 11.5007 3.61307 11.227 3.35164C10.8687 3.02326 10.4023 2.84356 9.91994 2.84809C9.43761 2.85262 8.97455 3.04105 8.62234 3.3761C8.42917 3.55472 8.27423 3.77187 8.1672 4.01402C8.06017 4.25617 8.00334 4.51813 8.00023 4.78359C7.99617 5.06066 8.04698 5.33572 8.14958 5.59244C8.25218 5.84915 8.40444 6.08227 8.59743 6.27794C10.2398 7.92915 12.6537 10.3874 14.5864 12.3616C15.2168 12.9983 15.8057 13.5971 16.32 14.1199C16.9844 14.8165 17.8037 15.3406 18.709 15.648C19.6769 15.9925 20.714 16.0861 21.7265 15.9201C22.739 15.7542 23.6947 15.334 24.5071 14.6976C24.6066 14.6276 24.6978 14.5542 24.7891 14.4826L24.9135 14.3847L25.4112 13.8787V13.872L25.4858 13.7877L25.6352 13.5962C26.3434 12.6878 26.7937 11.5998 26.9374 10.4498C27.0678 9.53666 26.9938 8.60536 26.7209 7.72532C26.4481 6.84528 25.9834 6.0392 25.3615 5.36716C24.9633 4.92105 24.532 4.49349 24.1256 4.08026ZM15.391 9.04992C15.5767 9.23757 15.7986 9.38417 16.0427 9.48053C16.2868 9.57689 16.5478 9.62093 16.8094 9.60988C17.0714 9.59978 17.3286 9.53549 17.5654 9.42094C17.8021 9.3064 18.0134 9.144 18.1864 8.94366C18.227 8.88861 18.2796 8.84383 18.34 8.81282C18.4004 8.78181 18.467 8.7654 18.5347 8.76488C18.9591 8.73003 19.3676 8.58483 19.7209 8.34322V8.35419C19.7292 8.5979 19.7375 8.84921 19.7624 9.1022C19.8509 10.0405 20.2587 10.9179 20.9154 11.5832C21.0564 11.7308 21.2057 11.8843 21.3799 12.0538C21.4268 12.1089 21.4844 12.1536 21.5491 12.185C21.6138 12.2164 21.684 12.234 21.7557 12.2365C21.8273 12.239 21.8987 12.2265 21.9654 12.1997C22.032 12.1729 22.0925 12.1324 22.1431 12.0808C22.1925 12.0298 22.2312 11.9691 22.2568 11.9024C22.2824 11.8357 22.2943 11.7645 22.292 11.6929C22.2897 11.6214 22.2731 11.5511 22.2432 11.4862C22.2133 11.4214 22.1708 11.3635 22.1181 11.3159C22.0352 11.2248 21.9522 11.1354 21.8693 11.0486C21.6753 10.8513 21.4926 10.6429 21.3219 10.4245C20.9862 9.95133 20.792 9.38969 20.7625 8.80703C20.7331 8.22438 20.8697 7.64547 21.1559 7.13981C21.2708 6.95573 21.3955 6.77809 21.5292 6.60768C21.5706 6.55983 21.6093 6.50972 21.6453 6.45757C21.6962 6.40859 21.7371 6.34969 21.7652 6.28436C21.7933 6.21904 21.8081 6.14863 21.8089 6.07734C21.8097 6.00604 21.7963 5.93532 21.7696 5.86938C21.743 5.80344 21.7035 5.74364 21.6536 5.69353C21.5996 5.64446 21.5364 5.60708 21.4677 5.58368C21.399 5.56028 21.3264 5.55135 21.2542 5.55742C21.1821 5.5635 21.1118 5.58446 21.0479 5.61902C20.9839 5.65359 20.9275 5.70103 20.8822 5.75846C20.6831 5.95748 20.4924 6.15735 20.2933 6.35722C20.0196 6.63973 19.7292 6.9332 19.4472 7.21908C19.1683 7.51626 18.7911 7.69793 18.3883 7.72908C17.9854 7.76022 17.5855 7.63863 17.2657 7.38774C17.2177 7.36244 17.1753 7.32749 17.1411 7.28501C17.1069 7.24253 17.0816 7.19341 17.0666 7.14065C17.0736 7.08638 17.0912 7.03406 17.1182 6.98673C17.1453 6.93939 17.1812 6.89798 17.2241 6.86489C18.4767 5.58727 19.5218 4.52301 20.6084 3.42332C20.6948 3.32003 20.8022 3.23706 20.9232 3.18015C21.0443 3.12325 21.1761 3.09378 21.3094 3.09378C21.4428 3.09378 21.5745 3.12325 21.6955 3.18015C21.8165 3.23706 21.924 3.32003 22.0103 3.42332C22.2177 3.6274 22.4167 3.83064 22.6158 4.03388C23.2048 4.63179 23.8186 5.25079 24.4159 5.86641C25.0295 6.47259 25.4843 7.22501 25.7393 8.05534C25.9942 8.88566 26.0412 9.76759 25.8758 10.621C25.7087 11.5649 25.2832 12.4418 24.6481 13.151C24.17 13.7075 23.5812 14.1547 22.9206 14.463C22.26 14.7713 21.5426 14.9337 20.8158 14.9396C19.6934 14.9773 18.5924 14.6218 17.697 13.9327C17.3505 13.6561 17.0233 13.3551 16.7182 13.0321C15.0011 11.2957 12.3385 8.58272 10.3892 6.60262L9.3523 5.5451C9.19571 5.41312 9.08695 5.23172 9.04336 5.02974C8.99978 4.82775 9.02385 4.61674 9.11171 4.43024C9.15489 4.33092 9.21698 4.24122 9.29428 4.16628C9.42576 4.03439 9.59349 3.94617 9.77534 3.91329C9.9218 3.88801 10.0721 3.89887 10.2136 3.94495C10.355 3.99103 10.4835 4.07099 10.5882 4.17809C10.8703 4.45385 11.8989 5.50294 12.5127 6.12952C12.7118 6.33276 12.8693 6.49636 12.9606 6.58575C13.2011 6.83875 13.45 7.08415 13.6905 7.33462C14.2463 7.89795 14.8187 8.48152 15.391 9.04992ZM16.378 5.94821L16.5274 6.10844C16.4693 6.17253 16.403 6.23831 16.3366 6.3083C16.1401 6.53478 16.0317 6.82641 16.0317 7.12843C16.0317 7.43044 16.1401 7.72207 16.3366 7.94855C16.5419 8.17514 16.7866 8.36126 17.0583 8.49755C16.9063 8.56477 16.7379 8.58384 16.5751 8.55224C16.4123 8.52065 16.2628 8.43987 16.1459 8.32045C15.4906 7.67785 14.9679 7.14487 14.5117 6.6431C14.3771 6.46984 14.3118 6.25135 14.3287 6.03124C14.3456 5.81114 14.4435 5.60562 14.6029 5.45571C14.606 5.44808 14.612 5.44201 14.6195 5.43884C14.7769 5.28122 14.9863 5.18868 15.207 5.17917C15.4277 5.16967 15.6441 5.24388 15.8141 5.3874C16.0048 5.5645 16.1873 5.75087 16.378 5.94821ZM18.543 2.48218C18.4137 2.29293 18.3614 2.0602 18.397 1.83263C18.4325 1.60506 18.5533 1.40027 18.7339 1.26106C18.9058 1.1174 19.1241 1.04387 19.3464 1.05478C19.5687 1.06569 19.7791 1.16026 19.9366 1.32009C20.1357 1.51406 20.3347 1.71898 20.5338 1.91716C20.6085 1.99222 20.6748 2.06727 20.7495 2.14148C20.3691 2.27689 20.0293 2.50917 19.7624 2.81613C19.7044 2.87348 19.6462 2.93251 19.5965 2.9907C19.4969 3.0919 19.4057 3.18888 19.3062 3.27996C19.2481 3.22008 19.1901 3.16189 19.1237 3.10455C18.9156 2.91164 18.7215 2.70364 18.543 2.48218ZM16.6601 4.73383C16.4821 4.56922 16.3752 4.33976 16.3628 4.09542C16.3503 3.85107 16.4333 3.61163 16.5937 3.42923C16.6709 3.33612 16.7659 3.25999 16.873 3.20548C16.9801 3.15098 17.097 3.11924 17.2165 3.11222C17.3361 3.1052 17.4559 3.12303 17.5684 3.16463C17.681 3.20623 17.784 3.27072 17.8712 3.35417C18.0604 3.52128 18.3814 3.84904 18.5513 4.03641C18.5015 3.98581 18.5928 4.08532 18.5513 4.03641L17.2657 5.34524L17.1909 5.26934L17.0168 5.10067C16.9006 4.98092 16.7763 4.85611 16.6601 4.73383Z" fill="white"/>
<path fill-rule="evenodd" clip-rule="evenodd" d="M4.00039 5H2.00039V7L0 7V9H2.00039V11H4.00039V9H6V7L4.00039 7V5Z" fill="#0563AB"/>
</svg>
