<svg width="18" height="15" viewBox="0 0 18 15" fill="none" xmlns="http://www.w3.org/2000/svg">
<path fill-rule="evenodd" clip-rule="evenodd" d="M16.7891 13.4825C16.7757 13.4931 16.7623 13.5036 16.7489 13.5142C16.7391 13.5219 16.7294 13.5296 16.7196 13.5373C16.6511 13.5912 16.5814 13.6453 16.5071 13.6976C16.5071 13.6976 16.5071 13.6976 16.5071 13.6976C16.4055 13.7771 16.3018 13.8533 16.1959 13.926C16.3018 13.8533 16.4055 13.7771 16.5071 13.6976M15.0957 14.5265C14.6574 14.7103 14.1981 14.8428 13.7265 14.9201C12.714 15.0861 11.6769 14.9926 10.709 14.648C9.80373 14.3406 8.98441 13.8165 8.32003 13.1199L8.31014 13.1099C7.7982 12.5894 7.2128 11.9942 6.58642 11.3616C4.65371 9.38742 2.23982 6.92916 0.597433 5.27794C0.404443 5.08228 0.252177 4.84916 0.149578 4.59244C0.0469793 4.33573 -0.00383294 4.06066 0.000225264 3.78359C0.00333645 3.51813 0.0601654 3.25617 0.167196 3.01402C0.234093 2.86267 0.319707 2.72109 0.421673 2.59258C0.319711 2.72109 0.234102 2.86267 0.167208 3.01401C0.0601768 3.25616 0.00334784 3.51812 0.000236655 3.78358C-0.00382155 4.06065 0.0469907 4.33571 0.149589 4.59243C0.252188 4.84914 0.404454 5.08227 0.597445 5.27793C2.23983 6.92914 4.65372 9.38741 6.58644 11.3616C7.21289 11.9943 7.79836 12.5895 8.31035 13.1101L8.32004 13.1199C8.98442 13.8165 9.80374 14.3406 10.709 14.648C11.6769 14.9925 12.714 15.0861 13.7265 14.9201C14.1981 14.8428 14.6574 14.7103 15.0957 14.5265ZM5.39191 4.54509C5.39191 4.54509 5.39192 4.54509 5.39192 4.54509C5.43682 4.38752 5.50065 4.23735 5.58129 4.09768C5.50065 4.23735 5.43681 4.38751 5.39191 4.54509ZM7.31638 3.13001C7.31638 3.13001 7.31639 3.13001 7.31639 3.13001C7.31451 2.85162 7.36706 2.57564 7.47101 2.31808C7.50999 2.2215 7.55591 2.12823 7.60829 2.039C7.5559 2.12824 7.50998 2.22151 7.471 2.31809C7.36705 2.57564 7.3145 2.85163 7.31638 3.13001ZM9.3652 0.912091C9.38379 0.690532 9.43114 0.47246 9.50615 0.263582C9.50615 0.263587 9.50614 0.263589 9.50614 0.263594C9.43113 0.472472 9.38378 0.690543 9.36519 0.912102L9.3652 0.912091ZM8.0427 8.48052C7.79861 8.38416 7.57674 8.23756 7.39102 8.04991C6.92274 7.58487 6.45445 7.10967 5.99525 6.64371C5.89319 6.54015 5.79158 6.43704 5.69052 6.33461C5.58056 6.22011 5.46886 6.10667 5.35701 5.99308C5.22419 5.85819 5.09116 5.72309 4.96057 5.58574C4.89888 5.52531 4.8069 5.43096 4.69227 5.31337C4.63734 5.25703 4.5772 5.19535 4.51271 5.12951C3.89889 4.50293 2.87027 3.45384 2.58824 3.17808C2.48351 3.07098 2.35506 2.99102 2.21359 2.94494C2.07213 2.89886 1.92181 2.888 1.77536 2.91328C1.5935 2.94616 1.42577 3.03438 1.29429 3.16627C1.21699 3.24121 1.15491 3.33091 1.11172 3.43023C1.02386 3.61673 0.999793 3.82774 1.04338 4.02973C1.08696 4.23172 1.19572 4.41311 1.35231 4.54509L2.38917 5.60261C3.03352 6.25714 3.75582 6.99176 4.49615 7.7447C5.99546 9.26957 7.56871 10.8696 8.71818 12.032C9.02335 12.3551 9.35046 12.6561 9.69702 12.9327C10.5924 13.6218 11.6934 13.9773 12.8158 13.9396C13.5426 13.9337 14.2601 13.7713 14.9206 13.463C15.5812 13.1547 16.17 12.7075 16.6481 12.151C17.2832 11.4418 17.7087 10.5649 17.8758 9.62101C18.0412 8.76758 17.9942 7.88565 17.7393 7.05533C17.4843 6.225 17.0295 5.47258 16.4159 4.8664C15.9599 4.39639 15.4942 3.92443 15.0374 3.46137C14.8958 3.31791 14.7551 3.1753 14.6158 3.03387L14.6147 3.03269C14.416 2.82984 14.2173 2.627 14.0103 2.42331C13.924 2.32002 13.8165 2.23705 13.6955 2.18014C13.5745 2.12324 13.4428 2.09377 13.3094 2.09377C13.1761 2.09377 13.0443 2.12324 12.9232 2.18014C12.8022 2.23705 12.6948 2.32002 12.6084 2.42331C11.5218 3.523 10.4767 4.58726 9.22416 5.86488C9.18126 5.89797 9.14529 5.93938 9.11824 5.98672C9.09119 6.03405 9.07364 6.08637 9.0666 6.14064C9.08156 6.1934 9.1069 6.24252 9.14112 6.285C9.17535 6.32748 9.21774 6.36243 9.26567 6.38773C9.58554 6.63862 9.98546 6.76021 10.3883 6.72907C10.7911 6.69792 11.1684 6.51625 11.4472 6.21907C11.4823 6.18352 11.5175 6.14784 11.5528 6.11209C11.8012 5.86036 12.0536 5.60458 12.2933 5.35721C12.3882 5.26198 12.4811 5.16676 12.574 5.07162C12.6761 4.96708 12.778 4.86265 12.8822 4.75845C12.9276 4.70102 12.9839 4.65358 13.0479 4.61901C13.1118 4.58445 13.1821 4.56349 13.2542 4.55742C13.3264 4.55134 13.399 4.56027 13.4677 4.58367C13.5364 4.60707 13.5996 4.64445 13.6536 4.69352C13.7035 4.74363 13.743 4.80343 13.7696 4.86937C13.7963 4.93531 13.8097 5.00603 13.8089 5.07733C13.8082 5.14862 13.7933 5.21903 13.7652 5.28435C13.7371 5.34968 13.6963 5.40858 13.6453 5.45756C13.6093 5.50971 13.5706 5.55982 13.5293 5.60767C13.3955 5.77808 13.2708 5.95572 13.1559 6.1398C12.8697 6.64546 12.7331 7.22437 12.7625 7.80702C12.792 8.38968 12.9862 8.95132 13.3219 9.42451C13.4926 9.64289 13.6753 9.85125 13.8693 10.0486C13.9522 10.1354 14.0352 10.2248 14.1182 10.3159C14.1708 10.3635 14.2133 10.4214 14.2432 10.4862C14.2731 10.5511 14.2897 10.6214 14.292 10.6929C14.2943 10.7645 14.2824 10.8357 14.2568 10.9024C14.2312 10.9691 14.1925 11.0298 14.1431 11.0808C14.0925 11.1324 14.032 11.1729 13.9654 11.1997C13.8987 11.2265 13.8273 11.239 13.7557 11.2365C13.684 11.234 13.6138 11.2164 13.5491 11.185C13.4844 11.1536 13.4268 11.1089 13.3799 11.0538C13.2057 10.8843 13.0565 10.7308 12.9154 10.5832C12.2587 9.91792 11.8509 9.04046 11.7624 8.10219C11.7379 7.8525 11.7294 7.60445 11.7213 7.36372L11.7209 7.35418V7.34321C11.3676 7.58482 10.9591 7.73002 10.5347 7.76487C10.467 7.76539 10.4004 7.7818 10.34 7.81281C10.2796 7.84382 10.227 7.8886 10.1864 7.94365C10.0134 8.14399 9.80213 8.30639 9.56539 8.42093C9.32864 8.53548 9.07141 8.59976 8.80941 8.60987C8.54779 8.62092 8.28679 8.57688 8.0427 8.48052ZM8.52741 5.10843L8.37806 4.9482C8.18728 4.75086 8.00485 4.56449 7.81406 4.38739C7.64413 4.24387 7.42776 4.16966 7.20703 4.17916C6.98631 4.18867 6.77693 4.28121 6.61955 4.43884C6.61204 4.442 6.60606 4.44807 6.60294 4.4557C6.44353 4.60561 6.34565 4.81113 6.32874 5.03123C6.31183 5.25134 6.37713 5.46983 6.51171 5.64309C6.96793 6.14486 7.49058 6.67784 8.14588 7.32044C8.26279 7.43986 8.41232 7.52064 8.5751 7.55223C8.73789 7.58383 8.90634 7.56477 9.0583 7.49754C8.78656 7.36125 8.54192 7.17513 8.33665 6.94854C8.14012 6.72206 8.03166 6.43043 8.03166 6.12842C8.03166 5.8264 8.14012 5.53477 8.33665 5.30829C8.36188 5.28168 8.38711 5.25567 8.41189 5.23013C8.45227 5.18851 8.49143 5.14815 8.52741 5.10843ZM10.397 0.83262C10.3614 1.06019 10.4137 1.29292 10.543 1.48217C10.7215 1.70363 10.9156 1.91163 11.1237 2.10454C11.1901 2.16188 11.2481 2.22007 11.3062 2.27995C11.3828 2.20985 11.4545 2.13625 11.5288 2.05992C11.5511 2.03708 11.5736 2.014 11.5965 1.99069C11.6463 1.9325 11.7044 1.87347 11.7624 1.81612C12.0293 1.50916 12.3691 1.27689 12.7495 1.14147C12.7105 1.10267 12.6737 1.06364 12.6368 1.02449C12.6032 0.988774 12.5694 0.952962 12.5338 0.917151C12.4579 0.841587 12.382 0.765043 12.3061 0.688499C12.1829 0.564294 12.0598 0.44009 11.9366 0.320084C11.7791 0.160249 11.5687 0.0656826 11.3464 0.0547722C11.1241 0.0438618 10.9058 0.117387 10.7339 0.261052C10.5533 0.40026 10.4326 0.605051 10.397 0.83262ZM8.36277 3.09541C8.3752 3.33976 8.4821 3.56921 8.66016 3.73382C8.73414 3.81173 8.81147 3.89066 8.88788 3.96865C8.93141 4.01308 8.97464 4.05721 9.01678 4.10067L9.19094 4.26933L9.26567 4.34523L10.5513 3.0364C10.3814 2.84903 10.0604 2.52127 9.87118 2.35416C9.78398 2.27071 9.68097 2.20622 9.56843 2.16462C9.45588 2.12302 9.33612 2.10519 9.21656 2.11221C9.097 2.11923 8.98008 2.15097 8.873 2.20547C8.76591 2.25998 8.6709 2.33611 8.59373 2.42922C8.43333 2.61162 8.35034 2.85106 8.36277 3.09541Z" fill="#C7C6CC"/>
</svg>
