<svg width="12" height="12" viewBox="0 0 12 12" fill="none" xmlns="http://www.w3.org/2000/svg">
<path fill-rule="evenodd" clip-rule="evenodd" d="M3.17982 0.51282C3.17982 0.229598 2.95022 0 2.667 0C2.38378 0 2.15418 0.229598 2.15418 0.51282L1.61538 0.512821C0.723232 0.512821 0 1.23605 0 2.12821V9.69231C0 10.5845 0.723232 11.3077 1.61538 11.3077H10.3846C11.2768 11.3077 12 10.5845 12 9.69231V2.12821C12 1.23605 11.2768 0.512821 10.3846 0.512821L9.80802 0.51282C9.80802 0.229598 9.57843 0 9.2952 0C9.01198 0 8.78238 0.229598 8.78238 0.51282H3.17982ZM2.15671 1.53846C2.18244 1.79761 2.40108 2 2.667 2C2.93291 2 3.15156 1.79761 3.17729 1.53846H8.78491C8.81065 1.79761 9.02929 2 9.2952 2C9.56112 2 9.77976 1.79761 9.80549 1.53846H10.3846C10.7103 1.53846 10.9744 1.8025 10.9744 2.12821V3.07692H1.02564V2.12821C1.02564 1.8025 1.28968 1.53846 1.61538 1.53846H2.15671ZM1.02564 4.10256V9.69231C1.02564 10.018 1.28968 10.2821 1.61538 10.2821H10.3846C10.7103 10.2821 10.9744 10.018 10.9744 9.69231V4.10256H1.02564Z" fill="#808080"/>
</svg>
