<svg width="11" height="13" viewBox="0 0 11 13" fill="none" xmlns="http://www.w3.org/2000/svg">
<path d="M0 11.375V5H10.5V11.375C10.5 11.6875 10.3906 11.9531 10.1719 12.1719C9.95312 12.3906 9.6875 12.5 9.375 12.5H1.125C0.8125 12.5 0.546875 12.3906 0.328125 12.1719C0.109375 11.9531 0 11.6875 0 11.375ZM7.5 6.78125V7.71875C7.5 7.90625 7.59375 8 7.78125 8H8.71875C8.90625 8 9 7.90625 9 7.71875V6.78125C9 6.59375 8.90625 6.5 8.71875 6.5H7.78125C7.59375 6.5 7.5 6.59375 7.5 6.78125ZM7.5 9.78125V10.7188C7.5 10.9062 7.59375 11 7.78125 11H8.71875C8.90625 11 9 10.9062 9 10.7188V9.78125C9 9.59375 8.90625 9.5 8.71875 9.5H7.78125C7.59375 9.5 7.5 9.59375 7.5 9.78125ZM4.5 6.78125V7.71875C4.5 7.90625 4.59375 8 4.78125 8H5.71875C5.90625 8 6 7.90625 6 7.71875V6.78125C6 6.59375 5.90625 6.5 5.71875 6.5H4.78125C4.59375 6.5 4.5 6.59375 4.5 6.78125ZM4.5 9.78125V10.7188C4.5 10.9062 4.59375 11 4.78125 11H5.71875C5.90625 11 6 10.9062 6 10.7188V9.78125C6 9.59375 5.90625 9.5 5.71875 9.5H4.78125C4.59375 9.5 4.5 9.59375 4.5 9.78125ZM1.5 6.78125V7.71875C1.5 7.90625 1.59375 8 1.78125 8H2.71875C2.90625 8 3 7.90625 3 7.71875V6.78125C3 6.59375 2.90625 6.5 2.71875 6.5H1.78125C1.59375 6.5 1.5 6.59375 1.5 6.78125ZM1.5 9.78125V10.7188C1.5 10.9062 1.59375 11 1.78125 11H2.71875C2.90625 11 3 10.9062 3 10.7188V9.78125C3 9.59375 2.90625 9.5 2.71875 9.5H1.78125C1.59375 9.5 1.5 9.59375 1.5 9.78125ZM9.375 2C9.6875 2 9.95312 2.10938 10.1719 2.32812C10.3906 2.54687 10.5 2.8125 10.5 3.125V4.25H0V3.125C0 2.8125 0.109375 2.54687 0.328125 2.32812C0.546875 2.10938 0.8125 2 1.125 2H2.25V0.875C2.25 0.765625 2.28125 0.679688 2.34375 0.617188C2.42188 0.539063 2.51562 0.5 2.625 0.5H3.375C3.48438 0.5 3.57031 0.539063 3.63281 0.617188C3.71094 0.679688 3.75 0.765625 3.75 0.875V2H6.75V0.875C6.75 0.765625 6.78125 0.679688 6.84375 0.617188C6.92188 0.539063 7.01562 0.5 7.125 0.5H7.875C7.98438 0.5 8.07031 0.539063 8.13281 0.617188C8.21094 0.679688 8.25 0.765625 8.25 0.875V2H9.375Z" fill="#DEDEDE"/>
</svg>
