<svg width="16" height="16" viewBox="0 0 16 16" fill="none" xmlns="http://www.w3.org/2000/svg">
<path fill-rule="evenodd" clip-rule="evenodd" d="M4.23938 0.683761C4.23938 0.30613 3.93325 0 3.55562 0C3.17799 0 2.87186 0.30613 2.87186 0.683761V0.683763H2.15385C0.96431 0.683763 0 1.64807 0 2.83761V12.9231C0 14.1126 0.964309 15.0769 2.15385 15.0769H13.8462C15.0357 15.0769 16 14.1126 16 12.9231V2.83761C16 1.64807 15.0357 0.683763 13.8462 0.683763L13.077 0.683761C13.077 0.30613 12.7709 0 12.3932 0C12.0156 0 11.7095 0.30613 11.7095 0.683761H4.23938ZM2.87524 2.05128C2.90954 2.39681 3.20107 2.66667 3.55562 2.66667C3.91018 2.66667 4.2017 2.39681 4.23601 2.05128H11.7128C11.7472 2.39681 12.0387 2.66667 12.3932 2.66667C12.7478 2.66667 13.0393 2.39681 13.0736 2.05128H13.8462C14.2804 2.05128 14.6325 2.40333 14.6325 2.83761V4.10256H1.36752V2.83761C1.36752 2.40333 1.71957 2.05128 2.15385 2.05128H2.87524ZM1.36752 5.47009V12.9231C1.36752 13.3574 1.71957 13.7094 2.15385 13.7094H13.8462C14.2804 13.7094 14.6325 13.3574 14.6325 12.9231V5.47009H1.36752Z" fill="#A5A5A5"/>
</svg>
