<svg width="13" height="15" viewBox="0 0 13 15" fill="none" xmlns="http://www.w3.org/2000/svg">
<path d="M4.04688 8.625H2.95312C2.73438 8.625 2.625 8.51562 2.625 8.29688V7.20312C2.625 6.98438 2.73438 6.875 2.95312 6.875H4.04688C4.26562 6.875 4.375 6.98438 4.375 7.20312V8.29688C4.375 8.51562 4.26562 8.625 4.04688 8.625ZM7 8.29688C7 8.51562 6.89062 8.625 6.67188 8.625H5.57812C5.35938 8.625 5.25 8.51562 5.25 8.29688V7.20312C5.25 6.98438 5.35938 6.875 5.57812 6.875H6.67188C6.89062 6.875 7 6.98438 7 7.20312V8.29688ZM9.625 8.29688C9.625 8.51562 9.51562 8.625 9.29688 8.625H8.20312C7.98438 8.625 7.875 8.51562 7.875 8.29688V7.20312C7.875 6.98438 7.98438 6.875 8.20312 6.875H9.29688C9.51562 6.875 9.625 6.98438 9.625 7.20312V8.29688ZM7 10.9219C7 11.1406 6.89062 11.25 6.67188 11.25H5.57812C5.35938 11.25 5.25 11.1406 5.25 10.9219V9.82812C5.25 9.60938 5.35938 9.5 5.57812 9.5H6.67188C6.89062 9.5 7 9.60938 7 9.82812V10.9219ZM4.375 10.9219C4.375 11.1406 4.26562 11.25 4.04688 11.25H2.95312C2.73438 11.25 2.625 11.1406 2.625 10.9219V9.82812C2.625 9.60938 2.73438 9.5 2.95312 9.5H4.04688C4.26562 9.5 4.375 9.60938 4.375 9.82812V10.9219ZM9.625 10.9219C9.625 11.1406 9.51562 11.25 9.29688 11.25H8.20312C7.98438 11.25 7.875 11.1406 7.875 10.9219V9.82812C7.875 9.60938 7.98438 9.5 8.20312 9.5H9.29688C9.51562 9.5 9.625 9.60938 9.625 9.82812V10.9219ZM12.25 3.8125V13.4375C12.25 13.8021 12.1224 14.112 11.8672 14.3672C11.612 14.6224 11.3021 14.75 10.9375 14.75H1.3125C0.947917 14.75 0.638021 14.6224 0.382812 14.3672C0.127604 14.112 0 13.8021 0 13.4375V3.8125C0 3.44792 0.127604 3.13802 0.382812 2.88281C0.638021 2.6276 0.947917 2.5 1.3125 2.5H2.625V1.07812C2.625 0.859375 2.73438 0.75 2.95312 0.75H4.04688C4.26562 0.75 4.375 0.859375 4.375 1.07812V2.5H7.875V1.07812C7.875 0.859375 7.98438 0.75 8.20312 0.75H9.29688C9.51562 0.75 9.625 0.859375 9.625 1.07812V2.5H10.9375C11.3021 2.5 11.612 2.6276 11.8672 2.88281C12.1224 3.13802 12.25 3.44792 12.25 3.8125ZM10.9375 13.2734V5.125H1.3125V13.2734C1.3125 13.3828 1.36719 13.4375 1.47656 13.4375H10.7734C10.8828 13.4375 10.9375 13.3828 10.9375 13.2734Z" fill="black"/>
</svg>
