<svg width="8" height="12" viewBox="0 0 8 12" fill="none" xmlns="http://www.w3.org/2000/svg">
<path d="M7.42903 5.53176L1.64464 0.191706C1.51085 0.068097 1.33226 0 1.14183 0C0.951401 0 0.772809 0.068097 0.639023 0.191706L0.213043 0.584873C-0.0641453 0.841066 -0.0641453 1.25745 0.213043 1.51326L5.07034 5.99751L0.207653 10.4867C0.0738676 10.6104 0 10.7751 0 10.9508C0 11.1267 0.0738676 11.2915 0.207653 11.4152L0.633634 11.8083C0.767525 11.9319 0.946012 12 1.13644 12C1.32687 12 1.50546 11.9319 1.63925 11.8083L7.42903 6.46336C7.56313 6.33936 7.63679 6.1738 7.63636 5.99781C7.63679 5.82112 7.56313 5.65566 7.42903 5.53176Z" fill="#535353" fill-opacity="0.5"/>
</svg>
