<svg width="8" height="12" viewBox="0 0 8 12" fill="none" xmlns="http://www.w3.org/2000/svg">
<path d="M0.207693 5.53176L5.99208 0.191706C6.12587 0.068097 6.30446 0 6.49489 0C6.68532 0 6.86391 0.068097 6.9977 0.191706L7.42368 0.584873C7.70086 0.841066 7.70086 1.25745 7.42368 1.51326L2.56638 5.99751L7.42907 10.4867C7.56285 10.6104 7.63672 10.7751 7.63672 10.9508C7.63672 11.1267 7.56285 11.2915 7.42907 11.4152L7.00309 11.8083C6.86919 11.9319 6.69071 12 6.50028 12C6.30985 12 6.13126 11.9319 5.99747 11.8083L0.207693 6.46336C0.0735898 6.33936 -6.58035e-05 6.1738 0.000356674 5.99781C-6.58035e-05 5.82112 0.0735898 5.65566 0.207693 5.53176Z" fill="#535353" fill-opacity="0.5"/>
</svg>
