<svg width="16" height="16" viewBox="0 0 16 16" fill="none" xmlns="http://www.w3.org/2000/svg" data-inject-url="https://apa.az/site/assets/images/icons/clock.svg">
    <path d="M8 0.000244141C3.58873 0.000244141 0 3.58897 0 8.00024C0 12.4115 3.58873 16.0002 8 16.0002C12.4113 16.0002 16 12.4115 16 8.00024C16 3.58897 12.4113 0.000244141 8 0.000244141ZM8 14.2516C4.55291 14.2516 1.74863 11.4473 1.74863 8.00024C1.74863 4.55332 4.55291 1.74888 8 1.74888C11.4471 1.74888 14.2514 4.55332 14.2514 8.00024C14.2514 11.4473 11.4471 14.2516 8 14.2516Z" fill="white"></path>
    <path d="M8.69231 8.00975V4.65677C8.69231 4.28239 8.38892 3.979 8.01468 3.979C7.64033 3.979 7.33691 4.28239 7.33691 4.65677V8.22627C7.33691 8.23693 7.33954 8.24693 7.34006 8.25758C7.33114 8.44188 7.39463 8.629 7.53538 8.76977L10.0596 11.2937C10.3243 11.5585 10.7534 11.5585 11.018 11.2937C11.2825 11.029 11.2827 10.5999 11.018 10.3353L8.69231 8.00975Z" fill="white"></path>
</svg>