<svg width="14" height="15" viewBox="0 0 14 15" fill="none" xmlns="http://www.w3.org/2000/svg">
<path d="M9.16406 7.5L13.3438 11.7188C13.6562 12.0052 13.6562 12.2917 13.3438 12.5781L12.3672 13.5547C12.0807 13.8672 11.7943 13.8672 11.5078 13.5547L7.28906 9.375L3.07031 13.5547C2.78385 13.8672 2.4974 13.8672 2.21094 13.5547L1.23438 12.5781C0.921875 12.2917 0.921875 12.0052 1.23438 11.7188L5.41406 7.5L1.23438 3.28125C0.921875 2.99479 0.921875 2.70833 1.23438 2.42188L2.21094 1.44531C2.4974 1.13281 2.78385 1.13281 3.07031 1.44531L7.28906 5.625L11.5078 1.44531C11.7943 1.13281 12.0807 1.13281 12.3672 1.44531L13.3438 2.42188C13.6562 2.70833 13.6562 2.99479 13.3438 3.28125L9.16406 7.5Z" fill="#F6921E"/>
</svg>
