<svg width="12" height="13" viewBox="0 0 12 13" fill="none" xmlns="http://www.w3.org/2000/svg">
<path d="M10.5 0.5C10.9062 0.5 11.2578 0.648437 11.5547 0.945312C11.8516 1.24219 12 1.59375 12 2V8.75C12 9.15625 11.8516 9.50781 11.5547 9.80469C11.2578 10.1016 10.9062 10.25 10.5 10.25H7.125L4.19531 12.4531C4.10156 12.5156 4 12.5156 3.89062 12.4531C3.79688 12.4062 3.75 12.3281 3.75 12.2188V10.25H1.5C1.09375 10.25 0.742188 10.1016 0.445312 9.80469C0.148438 9.50781 0 9.15625 0 8.75V2C0 1.59375 0.148438 1.24219 0.445312 0.945312C0.742188 0.648437 1.09375 0.5 1.5 0.5H10.5ZM6.75 6.6875V6.3125C6.75 6.1875 6.6875 6.125 6.5625 6.125H3.1875C3.0625 6.125 3 6.1875 3 6.3125V6.6875C3 6.8125 3.0625 6.875 3.1875 6.875H6.5625C6.6875 6.875 6.75 6.8125 6.75 6.6875ZM9 4.4375V4.0625C9 3.9375 8.9375 3.875 8.8125 3.875H3.1875C3.0625 3.875 3 3.9375 3 4.0625V4.4375C3 4.5625 3.0625 4.625 3.1875 4.625H8.8125C8.9375 4.625 9 4.5625 9 4.4375Z" fill="#DEDEDE"/>
</svg>
