<svg width="15" height="16" viewBox="0 0 15 16" fill="none" xmlns="http://www.w3.org/2000/svg">
<path d="M13.125 0.875H1.875C0.820312 0.875 0 1.72461 0 2.75V11.1875C0 12.2422 0.820312 13.0625 1.875 13.0625H4.6875V15.5234C4.6875 15.7578 4.83398 15.875 5.03906 15.875C5.09766 15.875 5.15625 15.875 5.24414 15.8164L8.90625 13.0625H13.125C14.1504 13.0625 15 12.2422 15 11.1875V2.75C15 1.72461 14.1504 0.875 13.125 0.875ZM13.5938 11.1875C13.5938 11.4512 13.3594 11.6562 13.125 11.6562H8.4375L8.05664 11.9492L6.09375 13.4141V11.6562H1.875C1.61133 11.6562 1.40625 11.4512 1.40625 11.1875V2.75C1.40625 2.51562 1.61133 2.28125 1.875 2.28125H13.125C13.3594 2.28125 13.5938 2.51562 13.5938 2.75V11.1875ZM3.75 6.03125C3.22266 6.03125 2.8125 6.4707 2.8125 6.96875C2.8125 7.49609 3.22266 7.90625 3.75 7.90625C4.24805 7.90625 4.6875 7.49609 4.6875 6.96875C4.6875 6.4707 4.24805 6.03125 3.75 6.03125ZM7.5 6.03125C6.97266 6.03125 6.5625 6.4707 6.5625 6.96875C6.5625 7.49609 6.97266 7.90625 7.5 7.90625C7.99805 7.90625 8.4375 7.49609 8.4375 6.96875C8.4375 6.4707 7.99805 6.03125 7.5 6.03125ZM11.25 6.03125C10.7227 6.03125 10.3125 6.4707 10.3125 6.96875C10.3125 7.49609 10.7227 7.90625 11.25 7.90625C11.748 7.90625 12.1875 7.49609 12.1875 6.96875C12.1875 6.4707 11.748 6.03125 11.25 6.03125Z" fill="#C7C6CC"/>
</svg>
