<svg width="17" height="17" viewBox="0 0 17 17" fill="none" xmlns="http://www.w3.org/2000/svg">
<path d="M14.4375 0.3125C14.9961 0.3125 15.4795 0.516602 15.8877 0.924805C16.2959 1.33301 16.5 1.81641 16.5 2.375V11.6562C16.5 12.2148 16.2959 12.6982 15.8877 13.1064C15.4795 13.5146 14.9961 13.7188 14.4375 13.7188H9.79688L5.76855 16.748C5.7041 16.791 5.62891 16.8125 5.54297 16.8125C5.28516 16.8125 5.15625 16.6836 5.15625 16.4258V13.7188H2.0625C1.50391 13.7188 1.02051 13.5146 0.612305 13.1064C0.204102 12.6982 0 12.2148 0 11.6562V2.375C0 1.81641 0.204102 1.33301 0.612305 0.924805C1.02051 0.516602 1.50391 0.3125 2.0625 0.3125H14.4375ZM15.4688 11.6562V2.375C15.4688 2.0957 15.3613 1.85938 15.1465 1.66602C14.9531 1.45117 14.7168 1.34375 14.4375 1.34375H2.0625C1.7832 1.34375 1.53613 1.45117 1.32129 1.66602C1.12793 1.85938 1.03125 2.0957 1.03125 2.375V11.6562C1.03125 11.9355 1.12793 12.1826 1.32129 12.3975C1.53613 12.5908 1.7832 12.6875 2.0625 12.6875H6.1875V15.1367L9.18457 12.8809L9.44238 12.6875H14.4375C14.7168 12.6875 14.9531 12.5908 15.1465 12.3975C15.3613 12.1826 15.4688 11.9355 15.4688 11.6562ZM9.02344 8.04688C9.19531 8.04688 9.28125 8.13281 9.28125 8.30469V8.82031C9.28125 8.99219 9.19531 9.07812 9.02344 9.07812H4.38281C4.21094 9.07812 4.125 8.99219 4.125 8.82031V8.30469C4.125 8.13281 4.21094 8.04688 4.38281 8.04688H9.02344ZM12.1172 4.95312C12.2891 4.95312 12.375 5.03906 12.375 5.21094V5.72656C12.375 5.89844 12.2891 5.98438 12.1172 5.98438H4.38281C4.21094 5.98438 4.125 5.89844 4.125 5.72656V5.21094C4.125 5.03906 4.21094 4.95312 4.38281 4.95312H12.1172Z" fill="black"/>
</svg>
