<svg width="17" height="15" viewBox="0 0 17 15" fill="none" xmlns="http://www.w3.org/2000/svg">
<path d="M1.2985 6.93333C1.05283 7.21671 0.90316 7.59075 0.90316 8C0.90316 8.88213 1.59785 9.6 2.45149 9.6H5.45663C5.15901 10.5333 5.03204 11.7717 5.03204 12.3026V12.8356C5.03204 14.0117 5.95829 14.9689 7.09649 14.9689H7.6126C7.84932 14.9689 8.05576 14.8025 8.11322 14.565L8.39433 13.4027C8.7883 11.7749 10.039 9.97902 11.3334 9.65262C11.5602 10.2457 12.12 10.6667 12.7737 10.6667H15.8704C16.1553 10.6667 16.3865 10.4277 16.3865 10.1333V0.533333C16.3865 0.238933 16.1553 0 15.8704 0H12.7737C12.1582 0 11.6255 0.372977 11.3761 0.912L9.60272 0.301155C9.02295 0.101333 8.41876 0 7.80734 0H3.48371C2.63007 0 1.93538 0.717866 1.93538 1.6C1.93538 1.808 1.97392 2.00711 2.04411 2.18951C1.38762 2.37475 0.90316 2.99662 0.90316 3.73333C0.90316 4.14258 1.05283 4.51662 1.2985 4.8C1.05283 5.08338 0.90316 5.45742 0.90316 5.86667C0.90316 6.27591 1.05283 6.64995 1.2985 6.93333ZM12.2576 1.6C12.2576 1.30595 12.4892 1.06667 12.7737 1.06667H15.3543V9.6H12.7737C12.4892 9.6 12.2576 9.36071 12.2576 9.06667V1.6ZM3.48371 6.4H2.45149C2.16694 6.4 1.93538 6.16071 1.93538 5.86667C1.93538 5.57262 2.16694 5.33333 2.45149 5.33333H3.48371C3.76861 5.33333 3.99982 5.0944 3.99982 4.8C3.99982 4.5056 3.76861 4.26667 3.48371 4.26667H2.45149C2.16694 4.26667 1.93538 4.02738 1.93538 3.73333C1.93538 3.43929 2.16694 3.2 2.45149 3.2H3.48371C3.76861 3.2 3.99982 2.96107 3.99982 2.66667C3.99982 2.37227 3.76861 2.13333 3.48371 2.13333C3.19916 2.13333 2.9676 1.89404 2.9676 1.6C2.9676 1.30595 3.19916 1.06667 3.48371 1.06667H7.80734C8.30762 1.06667 8.80206 1.14951 9.27654 1.31307L11.2254 1.98435V8.58382C10.4158 8.74275 9.62336 9.27253 8.90803 10.1397C8.20956 10.9867 7.64322 12.1095 7.39308 13.1438L7.20969 13.9022H7.09649C6.52739 13.9022 6.06427 13.4236 6.06427 12.8356V12.3026C6.06427 11.5865 6.28103 10.213 6.55835 9.6H7.6126C7.89749 9.6 8.12871 9.36107 8.12871 9.06667C8.12871 8.77227 7.89749 8.53333 7.6126 8.53333H2.45149C2.16694 8.53333 1.93538 8.29404 1.93538 8C1.93538 7.70595 2.16694 7.46667 2.45149 7.46667H3.48371C3.76861 7.46667 3.99982 7.22773 3.99982 6.93333C3.99982 6.63893 3.76861 6.4 3.48371 6.4Z" fill="#E33E3E"/>
</svg>
