<svg xmlns="http://www.w3.org/2000/svg" width="371" height="198" viewBox="0 0 371 198" fill="none">


    <path d="M200.848 14.9781C201.502 15.1499 202.155 15.2931 202.809 15.4076C202.155 15.2358 201.502 15.0926 200.848 14.9781Z" fill="#A44A4F"/>
    <path d="M147.033 90.6058C147.033 92.324 147.744 93.8131 147.744 93.8131L151.269 90.2336C149.62 89.6608 147.033 90.6058 147.033 90.6058Z" fill="#E4871B"/>
    <path d="M178.589 182.384C178.617 182.327 178.674 182.27 178.702 182.212C179.498 180.867 179.157 178.518 178.333 177.201L171.908 176.313C169.207 178.719 166.563 181.468 164.431 184.389C163.18 186.107 162.015 187.94 161.446 190.001C161.446 190.03 161.446 190.03 161.418 190.059C161.076 191.261 161.275 192.407 161.787 193.381C161.73 193.667 161.702 194.039 161.702 194.411C161.759 195.356 162.043 196.13 162.384 196.101C162.669 196.101 162.868 195.5 162.896 194.755C163.351 195.156 163.891 195.442 164.46 195.643C164.545 196.502 164.801 197.16 165.113 197.132C165.369 197.132 165.568 196.588 165.625 195.872C166.194 195.9 166.791 195.843 167.416 195.643C167.53 195.614 167.615 195.557 167.729 195.528C167.843 196.187 168.07 196.645 168.326 196.616C168.639 196.588 168.838 195.9 168.838 195.041C169.634 194.641 170.401 194.154 171.083 193.552C171.197 194.125 171.425 194.526 171.652 194.526C171.993 194.497 172.221 193.724 172.164 192.779C172.164 192.693 172.164 192.579 172.135 192.493C172.476 192.092 172.789 191.691 173.073 191.233C173.5 190.517 173.87 189.772 174.211 189.028C174.324 189.314 174.467 189.486 174.637 189.486C174.978 189.457 175.206 188.684 175.149 187.739C175.149 187.539 175.12 187.367 175.092 187.195C175.319 186.766 175.547 186.336 175.831 185.935C176.002 185.677 176.172 185.448 176.371 185.219C176.599 185.592 176.855 185.792 177.054 185.735C177.309 185.649 177.366 185.019 177.167 184.274C177.366 184.017 177.594 183.787 177.793 183.53C178.077 184.045 178.39 184.332 178.589 184.274C178.901 184.131 178.901 183.329 178.589 182.384C178.589 182.413 178.589 182.413 178.589 182.384Z" fill="#065999"/>
    <path d="M196.414 120.903C190.529 118.583 182.74 114.689 176.428 114.689L172.932 123.68C172.249 125.456 171.908 127.346 171.965 129.236C171.994 130.152 172.022 131.24 172.05 132.5C173.813 135.793 177.082 138.256 180.721 138.972C184.332 139.688 188.255 138.657 191.098 136.309C190.813 134.877 190.359 133.503 189.705 132.185C192.036 128.577 194.68 124.855 196.414 120.903Z" fill="#ECB697"/>
    <path d="M192.349 128.148C193.856 125.8 195.334 123.394 196.443 120.903C190.558 118.583 182.769 114.689 176.458 114.689L174.752 119.099C179.215 124.167 185.64 127.46 192.349 128.148Z" fill="#E59F86"/>
    <path d="M183.363 132.185C182.027 132.901 180.521 133.302 179.014 133.359C178.189 133.388 177.763 134.362 178.303 134.963C178.616 135.307 179.014 135.622 179.412 135.822C180.35 136.309 181.544 136.309 182.482 135.822C183.335 135.364 183.96 134.591 184.501 133.789C184.557 133.703 184.614 133.646 184.643 133.56C185.155 132.729 184.245 131.727 183.363 132.185Z" fill="#E59F86"/>
    <path d="M176.684 143.239C179.782 144.957 183.507 145.387 186.975 144.699C188.482 144.413 189.931 143.897 191.325 143.21C191.609 140.891 191.58 138.543 191.125 136.28C188.283 138.628 184.359 139.659 180.749 138.943C177.11 138.228 173.841 135.765 172.078 132.472C172.135 134.505 172.163 136.939 172.22 139.573C173.528 141.034 174.978 142.294 176.684 143.239Z" fill="white"/>
    <path d="M186.946 144.699C183.478 145.387 179.754 144.928 176.655 143.239C174.978 142.294 173.499 141.034 172.192 139.631C172.22 141.635 172.277 143.754 172.305 145.931C172.305 146.847 172.334 147.763 172.334 148.708C172.334 148.737 172.334 148.737 172.334 148.766C172.362 151.572 172.391 154.407 172.391 157.185C172.419 165.432 172.305 172.992 171.879 176.313C173.727 180.122 178.304 177.201 178.304 177.201C178.958 171.989 181.573 166.52 183.99 161.881C184.302 161.308 184.587 160.707 184.899 160.134C185.155 159.647 185.411 159.16 185.667 158.674C185.866 158.301 186.037 157.929 186.236 157.557C186.321 157.414 186.378 157.27 186.463 157.127C186.662 156.726 186.889 156.297 187.088 155.867C187.117 155.781 187.174 155.696 187.202 155.638C188.481 153.004 189.647 150.341 190.471 147.534C190.869 146.131 191.182 144.671 191.353 143.21C189.931 143.897 188.481 144.413 186.946 144.699Z" fill="#C9C6C0"/>
    <path d="M162.841 155.953C162.13 154.521 161.163 153.147 160.083 152.145L152.976 153.605C152.976 156.669 150.901 159.533 149.28 162.139C147.887 164.372 146.579 166.921 146.608 169.498C146.636 170.357 147.12 171.102 147.859 171.474C147.887 171.531 147.916 171.617 147.944 171.674C148.314 172.562 148.854 173.163 149.166 173.02C149.394 172.934 149.422 172.419 149.252 171.818C149.792 171.875 150.36 171.875 150.929 171.789C151.299 172.591 151.81 173.135 152.095 173.02C152.351 172.906 152.351 172.247 152.095 171.503C152.237 171.445 152.407 171.388 152.55 171.331C153.033 171.102 153.488 170.815 153.914 170.472C154.255 171.13 154.682 171.531 154.938 171.417C155.222 171.302 155.193 170.5 154.824 169.641C155.421 169.011 155.961 168.267 156.416 167.522C156.729 168.066 157.098 168.381 157.326 168.295C157.638 168.152 157.581 167.35 157.183 166.463C157.155 166.405 157.127 166.348 157.098 166.291C157.638 165.26 158.15 164.229 158.719 163.227C159.031 163.685 159.344 163.943 159.543 163.857C159.856 163.714 159.799 162.912 159.429 162.053C159.77 161.537 160.14 161.05 160.51 160.564C160.851 161.136 161.22 161.48 161.448 161.365C161.732 161.251 161.704 160.449 161.334 159.59C161.533 159.39 161.732 159.189 161.931 158.989C162.244 159.533 162.613 159.848 162.841 159.762C163.125 159.647 163.097 158.874 162.756 158.044C163.154 157.442 163.182 156.64 162.841 155.953Z" fill="#065999"/>
    <path d="M151.043 116.922C154.455 116.436 157.696 114.975 160.311 112.741C159.572 111.825 158.748 110.966 157.838 110.193C160.738 109.248 163.95 107.931 166.537 106.298C166.366 102.404 164.689 98.1371 162.187 95.1876C159.686 92.2094 155.876 89.4604 152.01 89.4604L142.6 99.0535C139.331 102.375 138.165 107.272 139.586 111.739L140.724 115.319C143.908 116.836 147.547 117.409 151.043 116.922Z" fill="#ECB697"/>
    <path d="M162.188 95.159C159.686 92.1808 155.877 89.4317 152.01 89.4317L149.111 92.3813C151.669 92.7249 154.114 93.7272 156.133 95.3308C158.322 97.0776 159.999 99.483 160.909 102.146C161.221 103.091 160.966 104.151 160.198 104.809C159.828 105.124 159.459 105.411 159.061 105.697C158.265 106.27 157.213 106.212 156.388 105.697C156.275 105.64 156.189 105.582 156.076 105.525C155.536 105.267 154.882 105.153 154.342 105.411C153.46 105.812 153.148 106.871 152.721 107.759C151.954 109.362 150.475 110.622 148.798 111.166C147.974 111.424 147.917 112.598 148.713 112.913C149.537 113.228 150.418 113.371 151.271 113.2C152.949 112.856 154.427 111.625 155.024 110.021C156.36 110.479 157.867 110.193 157.867 110.193C160.767 109.248 163.979 107.931 166.566 106.298C166.395 102.404 164.69 98.1371 162.188 95.159Z" fill="#E59F86"/>
    <path d="M144.191 111.138C142.997 109.534 142.173 107.673 141.775 105.726C141.69 105.267 141.036 105.267 140.922 105.726C140.723 106.642 140.609 107.558 140.695 108.446C140.78 109.42 141.007 110.393 141.633 111.138C142.116 111.711 143.083 111.968 143.907 111.854C144.248 111.768 144.39 111.396 144.191 111.138Z" fill="#E59F86"/>
    <path d="M163.236 118.039C162.554 116.121 161.559 114.316 160.308 112.741C157.693 114.975 154.452 116.464 151.04 116.922C147.544 117.409 143.905 116.836 140.721 115.29L142.597 121.132C145.582 122.02 148.596 122.65 151.694 122.621C155.959 122.621 160.394 121.132 163.236 118.039Z" fill="white"/>
    <path d="M151.693 122.65C148.594 122.678 145.581 122.048 142.596 121.16L144.614 127.432L148.679 140.175L152.972 153.605C157.464 155.724 160.079 152.145 160.079 152.145C158.459 148.307 159.255 143.525 160.421 139.373C160.563 138.858 160.733 138.342 160.876 137.827C160.961 137.54 161.046 137.283 161.131 136.996C161.131 136.968 161.131 136.968 161.16 136.939C162.524 132.758 164.173 128.634 164.259 124.253C164.287 122.134 163.946 120.015 163.235 118.011C160.392 121.132 155.957 122.621 151.693 122.65Z" fill="#C9C6C0"/>
    <path d="M205.37 74.856C207.901 80.6692 208.071 87.2268 206.337 93.2976C205.797 95.159 205.797 97.1349 206.337 98.9962C206.337 99.0248 206.365 99.0535 206.365 99.0821C207.218 102.003 206.735 105.153 205.058 107.673C203.523 109.992 202.016 112.283 200.452 114.631C199.258 116.436 198.576 118.555 198.548 120.702C198.519 121.705 198.491 122.735 198.519 123.738C190.133 124.855 181.291 122.02 174.895 116.436C177.084 110.307 178.875 103.406 179.585 96.9344C175.321 101.23 170.431 104.924 165.2 107.959C165.513 103.177 163.608 98.2803 160.112 95.0444C156.615 91.7799 151.753 90.6059 147.006 90.6059L152.493 87.3986C153.857 86.5968 155.108 85.5659 156.132 84.3346L158.576 81.4423C159.287 80.5832 159.856 79.6383 160.225 78.5787L160.908 76.6887C161.732 74.4265 163.409 72.5652 165.542 71.477L167.731 70.3888C174.013 70.3888 180.097 76.4024 186.266 77.5192C192.492 78.6933 200.026 78.1778 205.37 74.856Z" fill="#F6921E"/>
    <path d="M180.666 109.362V109.334C180.666 108.102 181.235 106.957 182.201 106.212C183.339 105.353 184.476 104.408 185.471 103.378C187.12 101.659 186.864 98.853 184.959 97.4499C184.561 97.1635 184.163 96.8771 183.793 96.5908C182.941 95.9608 183.083 94.6149 184.078 94.214C187.916 92.6963 191.754 91.1499 195.62 89.6322C196.757 89.1741 196.473 87.4845 195.25 87.4273C193.061 87.2841 190.844 87.5991 188.769 88.3436C186.267 89.2313 183.793 90.5199 181.889 92.3527C181.178 93.0399 179.984 92.5817 179.842 91.6081C179.671 90.2909 179.444 88.9736 179.074 87.685C178.449 85.48 177.369 83.3609 175.72 81.786C174.782 80.8982 173.616 80.1251 172.365 79.6669C171.313 79.2946 170.432 80.526 171.086 81.4423C173.332 84.535 175.265 87.7995 177.027 91.1786C177.283 91.694 176.686 92.1808 176.231 91.8372C173.9 90.0045 171.114 88.7445 168.214 88.1145C167.674 88 167.39 88.7159 167.845 89.0022C169.551 90.1477 171.029 91.7513 172.138 93.4981C172.848 94.6149 172.678 96.0753 171.683 96.9631C169.465 98.9389 167.049 100.657 164.49 102.146C165.087 104.036 165.343 106.041 165.201 108.017C170.432 104.981 175.322 101.287 179.586 96.9917C178.904 103.463 177.084 110.365 174.895 116.493C175.123 116.693 175.379 116.894 175.634 117.094C176.686 115.347 177.937 113.715 179.415 112.283C180.183 111.482 180.638 110.451 180.666 109.362Z" fill="#E4871B"/>
    <path d="M187.432 84.3918C191.156 85.0218 195.079 85.0505 198.633 83.7618C201.788 82.6164 204.489 80.3828 206.365 77.6051C206.081 76.6888 205.768 75.7724 205.37 74.856C199.997 78.1778 192.492 78.6933 186.295 77.5478C180.097 76.4024 174.042 70.4175 167.759 70.4175L165.57 71.5056C165.513 71.5343 165.485 71.5629 165.428 71.5915C170.971 78.2924 178.903 82.9314 187.432 84.3918Z" fill="#E4871B"/>
    <path d="M150.702 63.4016C150.73 65.7784 150.702 68.1552 150.73 70.5034C150.73 70.8756 150.474 71.2193 150.076 71.2765C150.076 71.2765 150.076 71.2765 150.048 71.2765C149.65 71.3338 149.252 71.0761 149.167 70.6752C148.854 69.272 148.484 67.8975 148.172 66.4943C148.058 68.3557 147.916 70.217 147.802 72.0497C147.774 72.5652 147.376 72.9661 146.892 73.052C146.892 73.052 146.892 73.052 146.864 73.052C146.267 73.1379 145.727 72.7083 145.67 72.107C145.499 70.3315 145.3 68.5275 145.158 66.752C144.362 68.8711 143.765 71.1333 143.509 73.367C143.453 73.9397 142.941 74.3406 142.372 74.2833C142.372 74.2833 142.372 74.2833 142.344 74.2833C141.804 74.226 141.377 73.7679 141.377 73.1951C141.463 70.8756 141.662 68.4702 142.088 66.208C140.667 68.1838 139.558 70.6465 139.018 73.1092C138.875 73.7392 138.222 74.1115 137.625 73.8538C137.625 73.8538 137.625 73.8538 137.596 73.8538C137.17 73.682 136.914 73.2238 136.971 72.7656C137.426 69.5011 138.449 66.2939 140.013 63.373C143.225 62.9148 147.433 62.9434 150.702 63.4016Z" fill="#E59F86"/>
    <path d="M159.941 38.0015L147.688 53.7513C146.835 54.8681 145.641 55.6699 144.305 56.0994C144.277 56.0994 144.277 56.0994 144.248 56.1281C142.599 56.6435 141.235 57.7603 140.325 59.2494C139.131 61.2539 137.738 63.1725 136.317 65.0052C135.919 65.5207 135.919 66.2366 136.345 66.752L136.373 66.7807C136.8 67.2675 137.511 67.382 138.051 67.067C139.472 66.2079 140.808 65.2057 141.86 63.9171C144.078 65.0625 146.665 65.3489 149.11 64.8621C151.554 64.3752 153.829 63.0294 155.449 61.1394L163.381 55.0972L159.941 38.0015Z" fill="#ECB697"/>
    <path d="M159.94 38.0015L157.182 41.5523C156.699 47.3082 157.182 53.1213 158.575 58.734L163.408 55.0399L159.94 38.0015Z" fill="#E59F86"/>
    <path d="M211.255 62.2848L215.349 71.792L207.559 95.5598L205.029 101.717C204.66 102.604 204.461 103.549 204.489 104.523C204.517 106.298 204.546 108.102 204.574 109.878C204.603 111.195 205.683 112.226 206.991 112.197C208.043 112.169 209.094 112.111 210.061 112.054C210.317 112.283 210.544 112.541 210.772 112.77C211.34 113.371 212.165 113.572 212.961 113.343C215.434 112.598 217.794 111.481 219.954 110.021C220.551 109.62 220.921 108.933 220.921 108.188C220.921 107.816 220.921 107.472 220.921 107.1C220.921 106.27 220.239 105.554 219.443 105.497H219.386C219.386 104.322 219.357 103.234 218.988 102.118C223.764 93.1544 227.46 83.5041 229.876 73.596C230.445 71.2765 230.246 68.8425 229.336 66.6375C225.754 58.0753 223.195 55.0113 223.195 55.0113L211.255 62.2848Z" fill="#ECB697"/>
    <path d="M225.413 58.5621C223.991 56.0708 223.138 55.0399 223.138 55.0399L211.227 62.2848L213.814 68.2697C218.334 65.9502 222.342 62.5998 225.413 58.5621Z" fill="#E59F86"/>
    <path d="M210.063 112.054L207.419 108.246C206.367 110.823 210.063 112.054 210.063 112.054Z" fill="#E59F86"/>
    <path d="M211.909 106.757C212.45 108.475 213.189 110.107 214.042 111.682C213.217 111.252 212.535 110.565 212.108 109.735C211.71 108.904 211.767 107.673 211.909 106.757Z" fill="#E59F86"/>
    <path d="M223.168 53.1213L215.634 39.4619C213.9 36.3406 211.085 33.9924 207.702 32.8756L180.553 24.0557C176.459 22.7098 172.621 20.5908 168.385 19.789C164.149 18.9871 159.174 19.9321 156.786 23.5116C155.308 25.7452 155.052 28.6375 155.592 31.272C156.132 33.9065 157.355 36.3406 158.606 38.7174C158.606 38.7174 158.577 50.9736 165.571 63.2584C166.196 64.3466 166.281 65.6639 165.827 66.8093L165.798 66.8666C165.173 68.3843 165.542 70.1311 166.708 71.2765C170.404 74.8847 174.924 77.6623 179.785 79.3232C185.556 81.2705 191.839 81.6714 197.781 80.44C199.572 80.0678 201.363 79.5523 202.926 78.636C204.035 78.006 205.03 77.0037 205.769 75.8869C206.338 75.0278 206.395 73.911 205.94 72.9947V72.966C205.656 72.3933 205.57 71.7061 205.684 71.0761C206.707 65.8643 206.821 59.6217 205.968 54.4958L209.124 62.2275C214.668 60.9675 219.699 57.6744 223.168 53.1213Z" fill="#0563AB"/>
    <path d="M223.167 53.1213C219.727 57.6744 214.667 60.9675 209.123 62.2562L210.857 66.4657C210.857 66.4657 221.006 62.5998 225.1 56.6435L223.167 53.1213Z" fill="white"/>
    <path d="M190.958 63.1439C184.078 57.1876 174.213 54.4385 167.646 48.0813C166.85 47.3082 165.542 48.11 165.912 49.1409C166.708 51.5463 168.272 53.694 170.205 55.2976C173.133 57.6744 176.687 59.0776 180.183 60.4521C183.311 61.6834 186.58 63.3443 189.821 64.8907C190.929 65.4061 191.896 63.9457 190.958 63.1439Z" fill="#065999"/>
    <path d="M185.129 65.8357C181.774 65.0625 178.505 63.8884 175.406 62.3993C174.354 61.8839 173.388 63.2298 174.184 64.0889C175.804 65.807 177.936 67.1243 180.068 67.6397C181.632 68.012 183.309 68.0693 184.987 67.9261C186.181 67.8115 186.294 66.0934 185.129 65.8357Z" fill="#065999"/>
    <path d="M159.229 29.3534C159.514 28.3798 158.178 27.7784 157.637 28.6375C157.182 29.3534 156.813 30.1552 156.614 31.0143C156.358 32.0738 156.301 33.162 156.443 34.2502C157.04 35.7965 157.808 37.2856 158.576 38.746C158.064 35.596 158.348 32.3888 159.229 29.3534Z" fill="#065999"/>
    <path d="M201.96 38.8319C202.102 38.0587 201.164 37.5719 200.596 38.1446C199.657 39.1469 198.947 40.4069 198.776 41.6955C198.577 43.1559 198.89 44.6737 199.601 45.9623C200.141 46.9073 199.942 48.11 199.146 48.8831C198.776 49.2268 198.406 49.599 198.065 49.9713C196.871 51.1454 196.331 52.8636 196.644 54.5244C196.985 56.3285 197.156 58.1326 197.127 59.9366C197.099 61.4544 197.724 62.9148 198.861 63.9171C199.259 64.2607 199.629 64.6043 199.999 64.9766C200.965 65.9216 201.79 67.0957 202.102 68.4129C202.273 69.1861 202.273 70.0165 202.045 70.7897C201.818 71.6201 202.159 72.4792 202.785 73.0233C203.268 73.4242 203.666 73.9683 203.95 74.4838C204.405 75.3142 204.632 76.2305 204.689 77.1755C205.059 76.7746 205.4 76.3451 205.713 75.8869C206.281 75.0278 206.338 73.911 205.883 72.9947V72.966C205.599 72.3933 205.514 71.7061 205.627 71.0761C206.651 65.8643 206.765 59.6217 205.912 54.4958C202.614 50.229 201.05 44.2441 201.96 38.8319Z" fill="#065999"/>
    <path d="M185.271 50.9736C185.811 51.2886 186.352 50.5727 185.925 50.1431C182.969 47.1077 179.33 44.7023 175.89 42.2109C171.824 39.2328 167.759 35.8251 165.542 31.3293C165.286 30.8424 164.575 30.9856 164.547 31.5297C164.376 34.8801 165.854 38.4024 168.1 40.8364C170.801 43.7287 174.383 45.59 177.937 47.2795C180.296 48.425 182.912 49.5704 185.271 50.9736Z" fill="#065999"/>
    <path d="M177.396 32.0738C177.794 35.6247 179.272 38.9751 180.893 42.1537C183.025 41.2373 185.129 40.1205 187.09 38.8892C188.881 37.7724 190.672 36.4551 191.554 34.5365C192.577 32.3602 192.236 29.7829 191.241 27.5493L180.552 24.0844C180.04 23.9126 179.557 23.7407 179.045 23.5689C177.51 26.0316 177.055 29.1529 177.396 32.0738Z" fill="white"/>
    <path d="M190.358 28.6375C190.045 27.177 189.96 25.688 190.074 24.1703C186.065 24.8862 181.431 25.058 177.395 24.6284C178.105 26.232 178.56 27.9502 178.674 29.697C178.702 29.9261 178.731 30.1265 178.759 30.327C179.527 33.8492 181.829 38.746 181.829 38.746C188.994 35.0519 189.846 32.1024 189.846 32.1024C190.415 31.0715 190.614 29.8402 190.358 28.6375Z" fill="#ECB697"/>
    <path d="M183.194 30.2984C185.269 30.4129 187.231 29.2102 188.539 27.6066C189.136 26.8907 189.619 26.0889 190.017 25.2298C190.017 24.8575 190.045 24.5139 190.074 24.1416C186.065 24.8575 181.431 25.0293 177.395 24.5998C177.764 25.4303 178.077 26.318 178.276 27.2057C178.39 27.3775 178.503 27.5207 178.645 27.6925C179.783 29.0957 181.403 30.1838 183.194 30.2984Z" fill="#E59F86"/>
    <path d="M173.897 19.6458C172.902 20.104 171.68 19.6745 170.941 18.8726C170.202 18.0708 169.832 16.9827 169.605 15.9231C169.434 15.1786 169.349 14.2909 169.861 13.7182C170.401 13.1168 171.396 13.1741 172.05 13.6036C172.732 14.0332 173.158 14.7491 173.556 15.4363C174.182 16.5531 173.727 18.3572 173.897 19.6458Z" fill="#E59F86"/>
    <path d="M191.523 22.3662C192.319 23.1108 193.627 23.0821 194.594 22.5667C195.56 22.0512 196.214 21.1063 196.783 20.1613C197.181 19.5026 197.522 18.7008 197.209 17.9849C196.896 17.2404 195.93 16.9827 195.162 17.2118C194.395 17.4122 193.769 17.9563 193.172 18.5004C192.206 19.3595 192.092 21.2208 191.523 22.3662Z" fill="#E59F86"/>
    <path d="M191.865 22.9676C194.14 19.5599 195.675 15.5509 195.476 11.4559C195.277 7.36097 193.173 3.23739 189.563 1.31877C187.374 0.144695 184.787 -0.141665 182.313 0.0587874C179.499 0.287876 176.627 1.23286 174.637 3.26602C172.704 5.24191 171.823 8.07687 171.738 10.8546C171.652 13.6323 172.335 16.3813 173.216 19.0158C179.214 20.3904 185.867 21.5644 191.865 22.9676Z" fill="#514443"/>
    <path d="M191.296 10.1673C191.949 11.0264 192.575 11.8855 193.229 12.7159C193.883 13.5177 194.195 14.5486 194.11 15.6081C193.797 18.5863 193.001 21.5072 191.495 23.5976C189.704 26.0889 186.832 27.7785 183.79 28.0075C180.749 28.2366 177.621 26.948 175.688 24.5712C174.295 22.8531 173.556 20.6481 173.243 18.4145C172.987 16.639 172.987 14.7491 173.044 12.945C173.073 12.0573 173.385 11.1982 173.954 10.5109C174.466 9.88094 175.006 9.27959 175.518 8.64959C176.484 7.50415 178.105 7.13189 179.469 7.79051C180.436 8.24869 181.374 8.82141 182.255 9.4514C183.108 10.0814 184.217 10.2246 185.212 9.88094C186.008 9.62322 186.832 9.33686 187.657 9.0505C188.964 8.59232 190.443 9.0505 191.296 10.1673Z" fill="#ECB697"/>
    <path d="M179.584 12.7159C179.982 12.7159 180.294 12.315 180.181 11.9427C180.01 11.3414 179.584 10.7973 178.987 10.5396C178.162 10.1673 177.195 10.3105 176.428 10.7687C176.03 10.9977 175.66 11.3127 175.376 11.6564C175.006 12.0573 175.291 12.7159 175.831 12.7159C177.053 12.7159 178.361 12.7159 179.584 12.7159Z" fill="#514443"/>
    <path d="M178.615 15.0068C178.615 15.5795 178.16 16.0377 177.592 16.0377C177.023 16.0377 176.568 15.5795 176.568 15.0068C176.568 14.4341 177.023 13.9759 177.592 13.9759C178.16 13.9473 178.615 14.4341 178.615 15.0068Z" fill="#353535"/>
    <path d="M186.235 13.9472C185.866 13.8041 185.723 13.3172 185.979 13.0023C186.349 12.5154 186.974 12.1718 187.6 12.1718C188.481 12.1432 189.334 12.63 189.903 13.3459C190.187 13.7182 190.414 14.1477 190.556 14.5772C190.727 15.0927 190.244 15.5795 189.732 15.379C188.538 14.8922 187.344 14.4054 186.235 13.9472Z" fill="#514443"/>
    <path d="M186.235 16.4099C186.008 16.954 186.264 17.5554 186.804 17.7558C187.344 17.9849 187.941 17.7272 188.14 17.1831C188.368 16.639 188.112 16.0377 187.572 15.8372C187.06 15.6368 186.463 15.8945 186.235 16.4099Z" fill="#353535"/>
    <path d="M184.501 19.6426C182.767 20.3013 180.976 20.7594 179.156 20.9599C179.611 19.9863 180.293 19.0127 181.345 18.7836C182.369 18.5831 183.705 18.9554 184.501 19.6426Z" fill="#E59F86"/>
    <path d="M186.577 24.3443C183.962 24.917 181.261 25.0888 178.617 24.8597C179.442 23.657 180.835 22.6834 182.256 22.5402C183.706 22.397 185.554 23.342 186.577 24.3443Z" fill="white"/>
    <path d="M194.675 182.193C202.171 181.264 207.499 174.39 206.576 166.839C205.653 159.289 198.829 153.922 191.333 154.852C183.838 155.782 178.51 162.656 179.433 170.206C180.356 177.756 187.18 183.123 194.675 182.193Z" fill="#0563AB"/>
    <path d="M199.74 156.555C200.877 158.559 201.531 160.879 201.531 163.341C201.531 170.93 195.419 177.115 187.857 177.115C185.412 177.115 183.109 176.457 181.119 175.311C183.479 179.463 187.914 182.27 193.002 182.27C200.536 182.27 206.677 176.113 206.677 168.496C206.677 163.399 203.891 158.931 199.74 156.555Z" fill="#065999"/>
    <path d="M187.912 157.414C187.06 157.843 186.32 158.588 186.093 159.504C185.865 160.42 186.235 161.537 187.116 161.938C187.827 162.253 188.652 162.081 189.362 161.824C190.13 161.537 190.869 161.194 191.466 160.621C192.461 159.676 192.944 157.729 191.58 156.784C190.613 156.154 188.794 156.955 187.912 157.414Z" fill="white"/>
    <path d="M182.341 172.047C182.653 173.02 183.364 174.051 184.359 174.023C184.956 173.994 185.496 173.564 185.809 173.049C186.122 172.533 186.264 171.903 186.377 171.302C186.633 170.013 186.918 168.696 187.173 167.408C187.429 166.205 187.628 164.802 186.889 163.828C186.434 163.255 185.667 162.94 184.928 163.026C181.459 163.542 181.545 169.67 182.341 172.047Z" fill="white"/>


</svg>