<svg width="16" height="16" viewBox="0 0 16 16" fill="none" xmlns="http://www.w3.org/2000/svg">
<path d="M15.5 13.5004H8.5C8.224 13.5004 8 13.2764 8 13.0004C8 12.7244 8 3.27637 8 3.00037C8 2.72437 8.224 2.50037 8.5 2.50037H15.5C15.776 2.50037 16 2.72437 16 3.00037V13.0004C16 13.2764 15.776 13.5004 15.5 13.5004Z" fill="#ECEFF1"/>
<path d="M10.5 5.50037H8.5C8.224 5.50037 8 5.27637 8 5.00037C8 4.72437 8.224 4.50037 8.5 4.50037H10.5C10.776 4.50037 11 4.72437 11 5.00037C11 5.27637 10.776 5.50037 10.5 5.50037Z" fill="#388E3C"/>
<path d="M10.5 7.50037H8.5C8.224 7.50037 8 7.27637 8 7.00037C8 6.72437 8.224 6.50037 8.5 6.50037H10.5C10.776 6.50037 11 6.72437 11 7.00037C11 7.27637 10.776 7.50037 10.5 7.50037Z" fill="#388E3C"/>
<path d="M10.5 9.50037H8.5C8.224 9.50037 8 9.27637 8 9.00037C8 8.72437 8.224 8.50037 8.5 8.50037H10.5C10.776 8.50037 11 8.72437 11 9.00037C11 9.27637 10.776 9.50037 10.5 9.50037Z" fill="#388E3C"/>
<path d="M10.5 11.5004H8.5C8.224 11.5004 8 11.2764 8 11.0004C8 10.7244 8.224 10.5004 8.5 10.5004H10.5C10.776 10.5004 11 10.7244 11 11.0004C11 11.2764 10.776 11.5004 10.5 11.5004Z" fill="#388E3C"/>
<path d="M13.5 5.50037H12.5C12.224 5.50037 12 5.27637 12 5.00037C12 4.72437 12.224 4.50037 12.5 4.50037H13.5C13.776 4.50037 14 4.72437 14 5.00037C14 5.27637 13.776 5.50037 13.5 5.50037Z" fill="#388E3C"/>
<path d="M13.5 7.50037H12.5C12.224 7.50037 12 7.27637 12 7.00037C12 6.72437 12.224 6.50037 12.5 6.50037H13.5C13.776 6.50037 14 6.72437 14 7.00037C14 7.27637 13.776 7.50037 13.5 7.50037Z" fill="#388E3C"/>
<path d="M13.5 9.50037H12.5C12.224 9.50037 12 9.27637 12 9.00037C12 8.72437 12.224 8.50037 12.5 8.50037H13.5C13.776 8.50037 14 8.72437 14 9.00037C14 9.27637 13.776 9.50037 13.5 9.50037Z" fill="#388E3C"/>
<path d="M13.5 11.5004H12.5C12.224 11.5004 12 11.2764 12 11.0004C12 10.7244 12.224 10.5004 12.5 10.5004H13.5C13.776 10.5004 14 10.7244 14 11.0004C14 11.2764 13.776 11.5004 13.5 11.5004Z" fill="#388E3C"/>
<path d="M8.819 0.615308C8.705 0.520308 8.552 0.479308 8.408 0.509308L0.408 2.00931C0.171 2.05331 0 2.25931 0 2.50031V13.5003C0 13.7403 0.171 13.9473 0.408 13.9913L8.408 15.4913C8.438 15.4973 8.469 15.5003 8.5 15.5003C8.616 15.5003 8.729 15.4603 8.819 15.3853C8.934 15.2903 9 15.1483 9 15.0003V1.00031C9 0.851308 8.934 0.710308 8.819 0.615308Z" fill="#2E7D32"/>
<path d="M6.87651 9.67125L5.29551 7.86425L6.89451 5.80825C7.06451 5.59025 7.02451 5.27625 6.80751 5.10625C6.59051 4.93625 6.27651 4.97625 6.10551 5.19325L4.62451 7.09725L3.37651 5.67125C3.19351 5.46125 2.87751 5.44225 2.67151 5.62425C2.46351 5.80625 2.44251 6.12225 2.62451 6.32925L3.99951 7.90125L2.60551 9.69325C2.43551 9.91125 2.47551 10.2252 2.69251 10.3952C2.78451 10.4662 2.89351 10.5002 3.00051 10.5002C3.14951 10.5002 3.29651 10.4342 3.39551 10.3072L4.67051 8.66725L6.12451 10.3282C6.22351 10.4422 6.36151 10.5002 6.50051 10.5002C6.61751 10.5002 6.73451 10.4592 6.82951 10.3762C7.03751 10.1942 7.05851 9.87825 6.87651 9.67125Z" fill="#FAFAFA"/>
</svg>
