<svg width="54" height="49" viewBox="0 0 54 49" fill="none" xmlns="http://www.w3.org/2000/svg">
<path fill-rule="evenodd" clip-rule="evenodd" d="M8.31988 48.6035H45.6986C48.5874 48.6035 51.2653 47.1029 52.7765 44.6393C54.2841 42.1793 54.4071 39.1113 53.0963 36.5352L34.4351 4.58975C33.0293 1.77826 30.1546 0 27.0092 0C23.8857 0 21.0261 1.75761 19.6116 4.54072L19.6114 4.5406L6.36933 27.2117C6.20415 27.4893 6.20064 27.8338 6.3623 28.1149C6.52044 28.396 6.81917 28.5718 7.14249 28.5718C7.46581 28.5718 7.76453 28.3996 7.92619 28.1184L21.1683 5.44731L21.1677 5.44695C21.1778 5.42992 21.1874 5.41245 21.1965 5.39454C22.3035 3.18401 24.5667 1.79232 27.0409 1.80287C29.515 1.81341 31.7677 3.22618 32.8536 5.44725L51.5148 37.3927C52.5234 39.41 52.4145 41.8033 51.2302 43.7186C50.0458 45.6374 47.9513 46.8042 45.6986 46.8042H8.31988C6.06717 46.8042 3.97262 45.6374 2.78828 43.7186C1.60992 41.8129 1.4996 39.4341 2.49194 37.4233L4.29585 34.3354C4.54185 33.9067 4.39776 33.3549 3.96901 33.1054C3.54026 32.8559 2.99202 33 2.73899 33.4287L0.922064 36.5354L0.925025 36.5371C0.915395 36.5537 0.906231 36.5706 0.897557 36.588C-0.392211 39.1605 -0.255152 42.218 1.25954 44.6675C2.77071 47.1135 5.44513 48.6035 8.31988 48.6035ZM4.55637 30.3184C4.43688 30.5258 4.40174 30.7718 4.45797 31.0037L4.52123 31.1654C4.54583 31.2181 4.57746 31.2708 4.61963 31.3165C4.64774 31.3657 4.6864 31.4079 4.73209 31.443C4.77775 31.4817 4.82693 31.5168 4.87611 31.5519L4.87613 31.5519L4.87618 31.552C5.08352 31.668 5.32953 31.7031 5.56148 31.6469C5.85317 31.5766 6.09214 31.3587 6.19055 31.074C6.28895 30.7858 6.23272 30.4696 6.04294 30.2306C5.97266 30.1392 5.8848 30.0584 5.78639 29.9986C5.57905 29.8756 5.33304 29.8405 5.1011 29.9002C4.86915 29.96 4.67234 30.1111 4.55637 30.3184Z" fill="#F6921E"/>
<path d="M26.998 36C25.3429 36 24 37.3438 24 39C24 40.6563 25.3429 42 26.998 42C28.6571 42 30 40.6563 30 39C29.9961 37.3438 28.6532 36 26.998 36Z" fill="#0563AB"/>
<path d="M26.998 9C25.3429 9 24 10.2359 24 11.7591V29.2409C24 30.7641 25.3429 32 26.998 32C28.6571 32 30 30.7641 30 29.2409V11.7591C29.9961 10.2359 28.6532 9 26.998 9Z" fill="#0563AB"/>
</svg>
