<svg width="14" height="9" viewBox="0 0 14 9" fill="none" xmlns="http://www.w3.org/2000/svg">
<path fill-rule="evenodd" clip-rule="evenodd" d="M3.03404 6.54576C2.21499 5.8944 1.58417 5.13739 1.19797 4.57749C1.60527 3.97605 2.2949 3.17404 3.15633 2.48826C4.166 1.68447 5.34329 1.09422 6.52431 1.09422C7.70289 1.09422 8.85203 1.68217 9.8547 2.4869C10.6976 3.16344 11.3947 3.9596 11.863 4.57874C11.4136 5.16829 10.7766 5.9201 9.97277 6.56177C9.01586 7.32562 7.85764 7.90578 6.52431 7.90578C5.19074 7.90578 4.00152 7.31517 3.03404 6.54576ZM6.52431 0C4.99166 0 3.57701 0.754736 2.47482 1.63218C1.36797 2.51333 0.507371 3.57254 0.0758664 4.30411C-0.027345 4.4791 -0.0250991 4.69686 0.0816991 4.86968C0.484672 5.52177 1.26938 6.54045 2.35296 7.40218C3.43647 8.26386 4.85971 9 6.52431 9C8.18916 9 9.58185 8.27392 10.6554 7.41695C11.7282 6.5606 12.5174 5.546 12.9848 4.90415C13.1225 4.71504 13.1248 4.4593 12.9904 4.26781C12.4986 3.56686 11.6386 2.51555 10.5396 1.63354C9.44751 0.757035 8.05942 0 6.52431 0ZM4.84174 4.54102C4.84174 3.62698 5.58271 2.88601 6.49675 2.88601C7.41079 2.88601 8.15177 3.62698 8.15177 4.54102C8.15177 5.45506 7.41079 6.19604 6.49675 6.19604C5.58271 6.19604 4.84174 5.45506 4.84174 4.54102ZM6.49675 1.79178C4.97839 1.79178 3.74751 3.02266 3.74751 4.54102C3.74751 6.05939 4.97839 7.29026 6.49675 7.29026C8.01512 7.29026 9.24599 6.05939 9.24599 4.54102C9.24599 3.02266 8.01512 1.79178 6.49675 1.79178Z" fill="white"/>
</svg>
