<svg width="14" height="9" viewBox="0 0 14 9" fill="none" xmlns="http://www.w3.org/2000/svg">
<path fill-rule="evenodd" clip-rule="evenodd" d="M1.19797 4.57749C1.58417 5.13739 2.21499 5.8944 3.03404 6.54576C4.00152 7.31517 5.19074 7.90578 6.52431 7.90578C7.85764 7.90578 9.01586 7.32562 9.97277 6.56177C10.7766 5.9201 11.4136 5.16829 11.863 4.57874C11.3947 3.9596 10.6976 3.16344 9.8547 2.4869C8.85203 1.68217 7.70289 1.09422 6.52431 1.09422C5.34329 1.09422 4.166 1.68447 3.15633 2.48826C2.2949 3.17404 1.60527 3.97605 1.19797 4.57749ZM2.47482 1.63218C3.57701 0.754736 4.99166 0 6.52431 0C8.05942 0 9.44751 0.757035 10.5396 1.63354C11.6386 2.51555 12.4986 3.56686 12.9904 4.26781C13.1248 4.4593 13.1225 4.71504 12.9848 4.90415C12.5174 5.546 11.7282 6.5606 10.6554 7.41695C9.58185 8.27392 8.18916 9 6.52431 9C4.85971 9 3.43647 8.26386 2.35296 7.40218C1.26938 6.54045 0.484672 5.52177 0.0816991 4.86968C-0.0250991 4.69686 -0.027345 4.4791 0.0758664 4.30411C0.507371 3.57254 1.36797 2.51333 2.47482 1.63218Z" fill="#808080"/>
<path fill-rule="evenodd" clip-rule="evenodd" d="M6.4968 2.88524C5.58276 2.88524 4.84178 3.62622 4.84178 4.54026C4.84178 5.45429 5.58276 6.19527 6.4968 6.19527C7.41084 6.19527 8.15181 5.45429 8.15181 4.54026C8.15181 3.62622 7.41084 2.88524 6.4968 2.88524ZM3.74756 4.54026C3.74756 3.02189 4.97844 1.79102 6.4968 1.79102C8.01516 1.79102 9.24604 3.02189 9.24604 4.54026C9.24604 6.05862 8.01516 7.28949 6.4968 7.28949C4.97844 7.28949 3.74756 6.05862 3.74756 4.54026Z" fill="#808080"/>
</svg>
