<svg width="16" height="11" viewBox="0 0 16 11" fill="none" xmlns="http://www.w3.org/2000/svg">
<path fill-rule="evenodd" clip-rule="evenodd" d="M3.70863 8.00114C2.70747 7.20495 1.93639 6.27962 1.46432 5.59524C1.96218 4.86008 2.80514 3.87975 3.85811 3.04149C5.09226 2.059 6.53131 1.33751 7.97492 1.33751C9.41554 1.33751 10.8202 2.05619 12.0458 3.03984C13.0761 3.86679 13.9282 4.83998 14.5006 5.59677C13.9513 6.31741 13.1727 7.23637 12.1901 8.02071C11.0204 8.95439 9.6047 9.66353 7.97492 9.66353C6.34484 9.66353 4.89122 8.94161 3.70863 8.00114ZM7.97492 0C6.1015 0 4.37232 0.922543 3.02507 1.99508C1.67213 3.07214 0.620179 4.36685 0.0927344 5.26108C-0.0334248 5.47497 -0.0306797 5.74116 0.099864 5.9524C0.592434 6.74947 1.55161 7.99464 2.87612 9.04797C4.20053 10.1012 5.94022 11.001 7.97492 11.001C10.0099 11.001 11.7123 10.1135 13.0245 9.06602C14.3358 8.01928 15.3005 6.77908 15.8718 5.99453C16.0402 5.76338 16.0429 5.45078 15.8787 5.21671C15.2775 4.35991 14.2263 3.07486 12.883 1.99673C11.5481 0.925353 9.85133 0 7.97492 0ZM5.91815 5.55067C5.91815 4.4334 6.82387 3.52768 7.94114 3.52768C9.0584 3.52768 9.96412 4.4334 9.96412 5.55067C9.96412 6.66793 9.0584 7.57366 7.94114 7.57366C6.82387 7.57366 5.91815 6.66793 5.91815 5.55067ZM7.94114 2.19017C6.08518 2.19017 4.58064 3.69471 4.58064 5.55067C4.58064 7.40662 6.08518 8.91117 7.94114 8.91117C9.79709 8.91117 11.3016 7.40662 11.3016 5.55067C11.3016 3.69471 9.79709 2.19017 7.94114 2.19017Z" fill="#A5A5A5"/>
</svg>
