<svg width="19" height="19" viewBox="0 0 19 19" fill="none" xmlns="http://www.w3.org/2000/svg">
<g clip-path="url(#clip0_2780_7514)">
<path d="M15.6016 18.6747C11.538 19.1084 7.46203 19.1084 3.39841 18.6747C1.77806 18.5018 0.498222 17.2219 0.325287 15.6014C-0.108429 11.5378 -0.108429 7.46203 0.325287 3.39841C0.498222 1.77806 1.77806 0.498222 3.39841 0.325287C7.46203 -0.108429 11.5378 -0.108429 15.6014 0.325287C17.2219 0.498222 18.5018 1.77806 18.6747 3.39841C19.1084 7.46203 19.1084 11.5378 18.6747 15.6014C18.5018 17.2219 17.2221 18.5018 15.6016 18.6747Z" fill="url(#paint0_linear_2780_7514)"/>
<path d="M17.6414 4.08571C17.488 2.64787 16.3524 1.51212 14.9144 1.35861C11.3084 0.973888 7.6917 0.973888 4.08571 1.35861C2.64787 1.51212 1.51212 2.64787 1.35861 4.08571C0.973888 7.6917 0.973888 11.3084 1.35861 14.9143C1.51212 16.3522 2.64787 17.488 4.08571 17.6414C7.6917 18.0262 11.3084 18.0262 14.9143 17.6414C16.3522 17.488 17.488 16.3522 17.6414 14.9143C18.0262 11.3084 18.0262 7.6917 17.6414 4.08571Z" fill="url(#paint1_linear_2780_7514)"/>
<path d="M0.284668 15.2075C0.297714 15.3389 0.311195 15.4702 0.325256 15.6015C0.498192 17.2219 1.77803 18.5017 3.39852 18.6746C7.46214 19.1084 11.5379 19.1084 15.6016 18.6746C17.2221 18.5017 18.5017 17.2219 18.6747 15.6015C18.6887 15.4702 18.7022 15.3389 18.7154 15.2075H0.284668Z" fill="url(#paint2_linear_2780_7514)"/>
<path d="M12.7735 3.16431C11.1181 3.16431 9.77618 4.50633 9.77618 6.16176V8.40064H8.16309V11.1727L9.77618 12.6175V18.9991C11.7189 18.9897 13.6615 18.8817 15.6015 18.6747C17.222 18.5018 18.5017 17.2219 18.6746 15.6015C18.9973 12.5779 19.0798 9.5477 18.9222 6.52068L15.5658 3.16431H12.7735Z" fill="url(#paint3_linear_2780_7514)"/>
<path d="M9.77618 18.9991C10.8832 18.9938 11.9901 18.9562 13.0966 18.8867V11.1727H15.2997L15.5658 8.40064H13.0966V6.64041C13.0966 6.25163 13.4117 5.93649 13.8005 5.93649H15.5658V3.16431H12.7735C11.1181 3.16431 9.77618 4.50633 9.77618 6.16176V8.40064H8.16309V11.1727H9.77618V18.9991Z" fill="white"/>
</g>
<defs>
<linearGradient id="paint0_linear_2780_7514" x1="6.30837" y1="2.67136" x2="11.114" y2="12.9532" gradientUnits="userSpaceOnUse">
<stop stop-color="#3457A0"/>
<stop offset="1" stop-color="#3B5998"/>
</linearGradient>
<linearGradient id="paint1_linear_2780_7514" x1="13.1043" y1="11.9765" x2="-3.50485" y2="0.564428" gradientUnits="userSpaceOnUse">
<stop stop-color="#3457A0" stop-opacity="0"/>
<stop offset="1" stop-color="#1F3F77"/>
</linearGradient>
<linearGradient id="paint2_linear_2780_7514" x1="9.49998" y1="15.878" x2="9.49998" y2="18.4491" gradientUnits="userSpaceOnUse">
<stop stop-color="#3457A0" stop-opacity="0"/>
<stop offset="1" stop-color="#1F3F77"/>
</linearGradient>
<linearGradient id="paint3_linear_2780_7514" x1="21.812" y1="15.6909" x2="8.62438" y2="9.04128" gradientUnits="userSpaceOnUse">
<stop stop-color="#3457A0" stop-opacity="0"/>
<stop offset="0.3251" stop-color="#2A4C8D" stop-opacity="0.32549"/>
<stop offset="0.7045" stop-color="#22427D" stop-opacity="0.705882"/>
<stop offset="1" stop-color="#1F3F77"/>
</linearGradient>
<clipPath id="clip0_2780_7514">
<rect width="19" height="19" fill="white"/>
</clipPath>
</defs>
</svg>
