<svg width="16" height="15" viewBox="0 0 16 15" fill="none" xmlns="http://www.w3.org/2000/svg">
<path d="M15.1504 5.14844C14.1543 2.07227 11.3125 0.109375 8.26561 0.109375C7.50389 0.109375 6.74217 0.226562 6.00975 0.490234C2.20115 1.7207 0.0917774 5.82227 1.35154 9.63086C2.34764 12.707 5.18943 14.6406 8.23631 14.6406C8.99803 14.6406 9.75975 14.5527 10.4922 14.2891C14.3008 13.0586 16.4101 8.95703 15.1504 5.14844ZM12.9824 10.832L11.459 11.0078L10.1699 9.2207L10.873 7.02344L12.9531 6.37891L14.0957 7.43359C14.0957 8.3418 13.8906 9.2207 13.4804 10.041C13.334 10.334 13.1582 10.5684 12.9824 10.832ZM12.9824 3.91797L12.6601 5.4707L10.6094 6.11523L8.73436 4.76758V2.59961L10.1113 1.83789C11.2539 2.21875 12.25 2.95117 12.9824 3.91797ZM6.39061 1.83789L7.79686 2.59961V4.76758L5.89256 6.11523L3.84178 5.4707L3.54881 3.94727C4.25193 2.95117 5.24803 2.21875 6.39061 1.83789ZM5.07225 11.0078L3.49021 10.8027C3.08006 10.2168 2.40623 9.07422 2.40623 7.43359L3.54881 6.37891L5.62889 7.02344L6.33201 9.19141L5.07225 11.0078ZM6.4785 12.9707L5.80467 11.5645L7.09373 9.74805H9.40818L10.6972 11.5645L10.0234 12.9707C9.84764 13.0293 8.3535 13.5566 6.4785 12.9707Z" fill="#C7C6CC"/>
</svg>
