<svg width="17" height="12" viewBox="0 0 17 12" fill="none" xmlns="http://www.w3.org/2000/svg">
<path d="M11.7188 4.96875V7.78125H5.15625V4.96875H11.7188ZM12.4219 3.5625H4.45312C4.04297 3.5625 3.75 3.88477 3.75 4.26562V8.48438C3.75 8.89453 4.04297 9.1875 4.45312 9.1875H12.4219C12.8027 9.1875 13.125 8.89453 13.125 8.48438V4.26562C13.125 3.88477 12.8027 3.5625 12.4219 3.5625ZM16.6406 5.20312H16.875V2.15625C16.875 1.39453 16.2305 0.75 15.4688 0.75H1.40625C0.615234 0.75 0 1.39453 0 2.15625V5.20312H0.234375C0.878906 5.20312 1.40625 5.73047 1.40625 6.375C1.40625 7.04883 0.878906 7.54688 0.234375 7.54688H0V10.5938C0 11.3848 0.615234 12 1.40625 12H15.4688C16.2305 12 16.875 11.3848 16.875 10.5938V7.54688H16.6406C15.9668 7.54688 15.4688 7.04883 15.4688 6.375C15.4688 5.73047 15.9668 5.20312 16.6406 5.20312ZM15.4688 4.08984C14.6191 4.5293 14.0625 5.37891 14.0625 6.375C14.0625 7.40039 14.6191 8.25 15.4688 8.68945V10.5938H1.40625V8.68945C2.22656 8.25 2.8125 7.40039 2.8125 6.375C2.8125 5.37891 2.22656 4.5293 1.40625 4.08984V2.15625H15.4688V4.08984Z" fill="#C7C6CC"/>
</svg>
