<svg width="129" height="204" viewBox="0 0 129 204" fill="none" xmlns="http://www.w3.org/2000/svg">
<g clip-path="url(#clip0_1828_0)">
<path d="M43.8425 116.668C42.5956 116.366 32.0478 151.131 33.8676 176.543C35.0807 193.608 36.5635 204 36.5635 204H63.826L67.3644 173.56L72.7226 204H101.603C101.603 204 102.984 170.71 100.828 156.462C98.6709 142.214 86.7751 115.226 86.7751 115.226C86.7751 115.226 69.1168 122.434 43.8425 116.668Z" fill="#075E9F"/>
<path d="M63.152 162.396C62.9835 161.792 62.6466 161.222 62.5792 160.585C62.2759 156.663 61.1975 142.314 60.8605 134.872C60.6246 129.608 60.4898 124.311 60.1528 119.048C54.5588 118.981 50.279 117.036 43.674 115.528C42.4271 115.226 32.0478 151.165 33.8676 176.577C35.0807 193.641 36.5635 204.034 36.5635 204.034H63.826L67.3644 173.593L67.3981 173.861C67.4655 170.14 65.2751 169.403 63.152 162.396Z" fill="#0563AA"/>
<path d="M43.0337 50.5894C43.0337 51.8969 43.1685 53.2714 43.4381 54.5454C43.9773 57.3279 45.2578 59.9764 47.1113 62.122C50.2453 65.7427 55.2328 68.3242 60.0517 68.5924C64.2641 68.827 68.2406 67.1843 71.5431 64.6699C75.0478 61.9879 77.8448 58.4007 80.1364 54.6459C81.518 52.3662 82.6975 50.0195 83.7422 47.5721C76.9349 46.3988 72.2845 45.8624 72.2845 45.8624L71.7453 37.6487L59.9506 37.2129L58.6364 46.097C58.6364 46.097 56.3785 46.3317 56.4122 46.3317C57.7939 46.734 55.9741 46.3988 55.6034 46.4323C55.536 46.4323 55.4686 46.4658 55.4012 46.4658C55.3675 46.4658 55.3338 46.4658 55.3338 46.4658C53.1434 46.8011 48.2907 47.7062 43.1011 49.4495C43.0337 49.8518 43.0337 50.2206 43.0337 50.5894Z" fill="#ED9A7B"/>
<path d="M16.7821 98.0947C19.5117 95.3457 23.1512 93.8035 26.5548 92.0602C29.8574 90.384 32.3174 87.8696 34.3056 84.7518C36.2265 81.768 37.6755 78.5161 39.2594 75.3312C40.0682 73.722 40.8769 72.1463 41.8205 70.6042C42.8989 68.8274 44.1458 67.1846 45.3252 65.4749C46.5384 63.698 47.7516 61.8542 48.6277 59.8762C49.2343 58.4681 49.4365 57.0265 49.9083 55.585C50.6497 53.3388 51.7954 51.1932 53.0423 49.1817C53.4804 48.5112 54.087 47.539 54.8284 46.5332C51.4921 47.1031 44.011 48.5782 37.2374 51.7296C28.2061 55.8867 14.9961 70.6377 10.1771 90.1828C8.08776 98.5641 9.53682 104.967 12.5697 109.929C12.0979 105.604 13.6818 101.246 16.7821 98.0947Z" fill="#ED9A7B"/>
<path d="M119.766 84.2823C116.936 84.9863 114.105 85.9585 111.51 87.3331C106.624 89.9145 102.445 94.5745 100.794 99.8714C103.759 103.425 107.028 108.454 108.107 114.287C108.915 118.612 95.4694 138.09 95.7727 139.062C96.1097 140.034 97.3565 142.582 98.5023 143.722C100.76 145.968 98.2664 149.556 99.7155 150.058C100.76 150.394 102.614 148.08 103.658 145.801C104.636 143.722 104.737 143.119 102.715 139.733C102.209 138.861 119.025 130.01 125.158 118.78C128.966 111.84 129.27 96.3178 125.226 83.3101C123.406 83.4442 121.552 83.8129 119.766 84.2823Z" fill="#F7AE91"/>
<path d="M115.52 66.078C114.745 65.1393 113.937 64.2006 113.06 63.3289C106.624 56.5904 98.3676 51.5951 89.4036 48.9467C85.7641 47.8739 78.5862 46.5328 74.8119 46.2646C73.5987 53.4055 70.9365 55.484 64.5337 55.6517C60.1865 55.7522 55.9404 50.7235 55.5697 46.4323C38.4169 48.6114 18.7367 58.166 10.4804 78.6499C3.63949 95.6471 9.50312 104.699 12.098 109.258C11.8284 104.565 18.1638 106.107 21.4326 102.687C23.0501 101.011 20.152 93.3003 22.4099 92.6969C23.5556 92.3951 24.7688 92.2275 25.9483 92.261C26.5549 92.261 27.1614 92.261 27.8017 92.2945C28.1724 91.6576 28.6442 91.1882 29.3519 91.0877C29.5541 91.0541 29.6552 91.3894 29.453 91.4229C28.9138 91.49 28.5094 91.8587 28.2061 92.3281C29.5204 92.3951 30.8346 92.6298 32.0141 93.1997C33.8338 94.1049 35.1481 95.7812 36.1928 97.4239C37.7766 99.8712 38.7202 102.62 39.6301 105.369C41.1802 110.163 42.7978 115.393 46.9428 118.31C49.605 120.187 52.9749 120.858 56.2437 121.193C63.489 121.931 70.8691 121.394 77.9459 119.584C80.9788 118.813 84.0118 117.74 86.3707 115.729C92.2343 110.666 91.8973 101.715 94.7618 94.5407C99.3785 98.4296 103.557 102.989 106.152 108.387C111.173 102.251 120.777 100.575 128.158 103.626C129.135 90.3166 124.046 76.4037 115.52 66.078Z" fill="#F6921E"/>
<path d="M89.0666 94.1386C87.2469 94.1051 85.4271 94.1051 83.6074 93.904C77.8448 93.334 72.2845 91.6578 66.4545 91.8589C62.8487 91.993 59.5125 92.8647 56.0415 93.7028C53.3119 94.3733 50.5486 94.7085 47.7516 94.3062C44.5165 93.8704 41.5846 92.63 38.518 91.6242C35.384 90.585 31.9467 89.9815 28.9812 91.7919C28.8801 91.8589 28.779 91.7919 28.7453 91.6913C28.5431 91.8589 28.3746 92.0266 28.2398 92.2612C29.5541 92.3283 30.8683 92.5629 32.0478 93.1329C33.8675 94.038 35.1818 95.7143 36.2265 97.357C37.8103 99.8044 38.7539 102.553 39.6638 105.302C41.2139 110.097 42.8315 115.326 46.9765 118.243C49.6387 120.121 53.0086 120.791 56.2774 121.126C63.5227 121.864 70.9028 121.327 77.9796 119.517C81.0125 118.746 84.0455 117.673 86.4044 115.662C92.0995 110.734 91.931 102.084 94.5933 95.0103C94.2563 94.8427 93.8856 94.675 93.4812 94.5409C92.0658 94.1722 90.5494 94.1386 89.0666 94.1386Z" fill="#F5F5F5"/>
<path d="M84.3825 115.729C80.0016 117.036 75.4522 118.042 70.8691 118.176C66.96 118.277 62.7814 117.64 59.681 115.092C58.1983 113.852 57.0862 112.209 56.3448 110.432C55.6371 108.622 55.7045 106.577 55.7382 104.666C55.7719 102.252 55.9067 99.8381 55.6708 97.4243C55.5361 96.2844 55.3339 95.044 54.761 94.0047C52.4357 94.474 50.1105 94.6752 47.7516 94.3399C44.5165 93.9041 41.5846 92.6637 38.518 91.6579C35.384 90.6187 31.9467 90.0152 28.9812 91.8256C28.8801 91.8926 28.779 91.8256 28.7453 91.725C28.5431 91.8926 28.3746 92.0602 28.2398 92.2949C29.5541 92.362 30.8683 92.5966 32.0478 93.1666C33.8675 94.0717 35.1818 95.748 36.2265 97.3907C37.8103 99.8381 38.7539 102.587 39.6638 105.336C41.2139 110.13 42.8315 115.36 46.9765 118.277C49.6387 120.154 53.0086 120.825 56.2774 121.16C63.5227 121.898 70.9028 121.361 77.9796 119.551C81.0125 118.78 84.0455 117.707 86.4044 115.695C86.7414 115.427 87.0447 115.125 87.3143 114.824C86.337 115.125 85.3597 115.461 84.3825 115.729Z" fill="#F5F5F5"/>
<path d="M56.1763 57.8643C59.1418 60.4458 63.6238 61.6527 67.5329 60.9822C70.8354 60.4458 73.6661 58.5013 75.7891 55.9869C77.9459 53.4055 79.4623 50.2877 80.4059 46.9687C78.3166 46.6334 76.3283 46.3652 74.8793 46.2646C73.6661 53.4055 71.0039 55.484 64.6011 55.6517C60.2539 55.7522 56.0078 50.7235 55.6371 46.4323C54.2555 46.5999 52.8401 46.8346 51.4247 47.1028C51.4247 51.1593 53.1434 55.1823 56.1763 57.8643Z" fill="white"/>
<path d="M126.742 97.8936C122.563 96.3515 117.947 96.9549 113.835 98.363C110.162 99.6369 106.691 101.581 103.658 103.995C103.658 105.839 104.838 108.152 106.186 108.32C111.207 102.185 120.811 100.509 128.191 103.559C129.27 102.721 129.27 100.039 128.259 98.5641C127.753 98.3294 127.248 98.0948 126.742 97.8936Z" fill="white"/>
<path d="M26.4875 85.288C26.5212 79.6893 29.3182 74.7611 31.0031 69.5647C31.8793 66.8492 32.4185 64.0331 32.25 61.1499C32.1152 59.1719 31.7445 57.0263 30.565 55.3836C30.4976 55.3166 30.4639 55.2495 30.3965 55.1489C22.5784 60.2112 14.8613 67.8885 10.5141 78.65C3.67319 95.6472 9.97492 105.369 12.5697 109.929C12.3002 105.235 18.1975 106.107 21.4663 102.687C23.0838 101.011 20.1857 93.3004 22.4436 92.697C23.5893 92.3953 24.8025 92.2276 25.982 92.2612C26.6896 92.2612 27.4647 92.2612 28.2061 92.2947C27.0266 90.1491 26.4875 87.7353 26.4875 85.288Z" fill="#FF9F30"/>
<path d="M76.7664 33.4583C74.6771 41.1356 68.2069 47.6059 63.489 46.7007C58.8048 45.7956 56.7829 38.8559 57.7265 30.944C59.2429 18.4391 64.1967 18.0033 68.9483 18.4726C77.2719 19.2772 79.0917 24.8424 76.7664 33.4583Z" fill="#F7AE91"/>
<path d="M66.7578 23.4007C68.8809 23.87 72.5877 22.7637 74.2727 24.3394C75.8229 25.781 75.6544 30.7092 76.1261 32.1507C76.7664 33.9611 77.8448 32.1507 77.8111 31.9831C81.0462 20.4505 74.9804 18.3049 69.7233 17.6344C66.7578 17.2321 59.8158 17.165 59.2429 24.0712C61.3323 21.2551 63.8934 22.7637 66.7578 23.4007Z" fill="#984C34"/>
<path d="M42.5619 91.222C40.4389 89.814 32.8566 83.3772 32.5533 82.2373C21.8033 88.4394 9.60421 105.001 12.6371 109.627C12.7045 109.728 12.7719 109.828 12.8393 109.929C12.873 109.963 12.9067 110.03 12.9404 110.063C14.8613 112.712 17.1191 115.025 19.6802 117.103C22.3425 119.282 25.308 121.059 28.779 121.395C30.9357 121.596 33.1262 121.361 35.2492 120.959C37.7766 120.489 40.3041 119.752 42.4945 118.411C46.6058 115.93 48.1896 111.438 50.0094 107.247C51.4247 103.995 52.1324 98.6646 53.1771 93.6693C49.268 93.5352 45.8307 93.3676 42.5619 91.222Z" fill="#FF9F30"/>
<path d="M44.1795 97.9602C46.8417 98.8989 49.4365 99.4353 52.2673 99.1C52.402 99.1 52.5368 99.0665 52.6716 99.033C53.7837 98.3625 54.1881 96.4515 53.5141 94.6747C49.605 94.5071 46.2014 93.9036 42.9326 91.758C40.8096 90.35 33.1599 84.349 32.8903 83.2091C31.5423 83.1086 30.127 83.8461 29.0149 85.8912C30.8683 90.5176 39.5964 96.3845 44.1795 97.9602Z" fill="white"/>
<path d="M32.8903 83.243C36.058 90.9203 46.6395 94.2728 51.6944 94.9433C52.4694 95.0439 52.5705 95.1109 53.3456 95.1444C56.0753 81.7344 57.221 66.1117 57.2547 64.9048C57.2884 63.3627 57.9961 59.8426 57.9961 59.8426C57.9961 59.8426 60.2202 58.468 61.3323 57.4958C62.6129 56.3895 63.6238 54.8138 63.3879 53.104C63.1858 51.4278 63.1184 49.2151 60.8268 49.0475C59.7821 48.9804 58.4679 48.9469 58.5353 48.6117C58.7375 47.4718 60.1191 44.6222 60.8942 44.0187C61.1638 43.7841 61.6356 43.08 61.2986 42.9459C59.5126 42.2754 58.2657 43.8846 56.9851 45.1921C56.9851 45.1921 53.6826 49.6174 52.6379 51.696C52.1662 52.6682 52.0314 56.8923 52.0314 56.8923C52.0314 56.8923 35.6536 76.9403 32.8903 83.243Z" fill="#F7AE91"/>
<path d="M78.2777 33.7966C78.8631 31.6909 78.5525 29.7677 77.5839 29.5012C76.6153 29.2346 75.3554 30.7256 74.7699 32.8313C74.1844 34.937 74.495 36.8601 75.4637 37.1267C76.4323 37.3932 77.6922 35.9023 78.2777 33.7966Z" fill="#F7AE91"/>
<path d="M2.89899 19.0421C3.00008 19.0085 3.06748 18.975 3.16858 18.908C4.98833 18.1369 7.01027 18.1369 8.96482 18.1369C10.9194 18.1369 12.975 18.0363 14.6937 17.0976C15.1317 16.8629 15.6035 16.5277 15.772 16.0248C16.2101 14.7844 14.6937 13.7786 13.4468 13.4769C11.8292 13.0746 10.1106 12.974 8.52673 12.3706C6.94287 11.7671 5.46012 10.5602 5.19052 8.88397C4.75244 6.47017 6.90918 4.39161 9.03222 3.18471C15.3339 -0.335419 23.051 -0.637144 30.1278 0.804433C31.3073 1.03911 32.5205 1.34083 33.4977 2.07839C34.475 2.81594 35.1153 4.08989 34.812 5.29679C34.4076 6.80542 32.6216 7.64355 32.3183 9.1857C31.9813 10.9961 33.9021 12.4041 35.6882 12.7394C37.4742 13.0411 39.3951 12.7729 41.0126 13.5775C43.4053 14.7509 44.2477 18.0363 43.2705 20.5507C42.2932 23.0651 39.9343 24.7749 37.4068 25.5459C33.1607 26.8869 28.4429 26.317 24.062 26.4176C23.5902 26.4176 23.0847 26.4511 22.6466 26.6858C21.7031 27.2222 21.6694 28.5632 21.1639 29.5354C20.254 31.2787 18.0299 31.7145 16.109 31.7481C11.4922 31.7816 6.87548 30.34 3.06748 27.6915C1.61842 26.6858 0.203063 25.3448 0.0345677 23.568C-0.167627 21.6235 1.21403 19.8802 2.89899 19.0421Z" fill="#8ECFFF"/>
<path d="M43.337 34.1956C46.4637 34.1956 48.9984 32.8448 48.9984 31.1784C48.9984 29.512 46.4637 28.1611 43.337 28.1611C40.2103 28.1611 37.6755 29.512 37.6755 31.1784C37.6755 32.8448 40.2103 34.1956 43.337 34.1956Z" fill="#8ECFFF"/>
<path d="M50.0094 39.1238C51.2564 39.1238 52.2672 38.4334 52.2672 37.5817C52.2672 36.73 51.2564 36.0396 50.0094 36.0396C48.7624 36.0396 47.7516 36.73 47.7516 37.5817C47.7516 38.4334 48.7624 39.1238 50.0094 39.1238Z" fill="#8ECFFF"/>
<path d="M20.3543 18.506C20.2532 18.2378 20.1521 17.9026 20.0847 17.4668C20.0173 17.0309 19.9836 16.6286 19.9836 16.1928C19.9836 15.6564 20.051 15.1871 20.2195 14.7512C20.388 14.3154 20.5901 13.9131 20.8934 13.5108C21.163 13.142 21.4663 12.7397 21.837 12.4045C22.2077 12.0357 22.5784 11.7004 22.9491 11.3317C23.2524 11.0299 23.5557 10.7282 23.859 10.4265C24.1622 10.1248 24.3981 9.78952 24.634 9.45427C24.8699 9.11902 25.0384 8.75025 25.1732 8.34794C25.308 7.94564 25.3754 7.54334 25.3754 7.07399C25.3754 6.53759 25.2743 6.06824 25.0721 5.63241C24.8699 5.23011 24.6003 4.86134 24.2633 4.59314C23.9264 4.29141 23.522 4.09026 23.0502 3.92264C22.5784 3.78854 22.0729 3.68796 21.5337 3.68796C20.5901 3.68796 19.714 3.85559 18.9389 4.19084C18.1301 4.52609 17.3887 5.02896 16.7148 5.69946V3.48681C17.4898 2.95041 18.2986 2.54811 19.1074 2.31343C19.9162 2.04523 20.7923 1.91113 21.7359 1.91113C22.511 1.91113 23.2524 2.01171 23.9264 2.24638C24.6003 2.44753 25.2069 2.78278 25.7124 3.18509C26.2179 3.58739 26.6223 4.12379 26.8919 4.72724C27.1952 5.33069 27.33 6.03471 27.33 6.83932C27.33 7.40924 27.2626 7.94564 27.0941 8.44852C26.9256 8.9514 26.7234 9.38722 26.4538 9.82305C26.1842 10.2253 25.8809 10.6276 25.5439 10.9964C25.2069 11.3652 24.8699 11.7004 24.4992 12.0357C24.0611 12.4715 23.6568 12.8403 23.3198 13.1756C22.9828 13.5108 22.6795 13.8461 22.4773 14.1478C22.2414 14.4495 22.0729 14.7848 21.9381 15.0865C21.8033 15.4217 21.7696 15.757 21.7696 16.1593C21.7696 16.6286 21.8033 17.0645 21.9044 17.4668C22.0055 17.8691 22.1066 18.2043 22.2077 18.4725H20.3543V18.506ZM21.3315 25.0099C21.1293 25.0099 20.9271 24.9764 20.7586 24.9093C20.5901 24.8423 20.4216 24.7417 20.2869 24.6076C20.1521 24.4735 20.051 24.3059 19.9499 24.1382C19.8825 23.9706 19.8151 23.7695 19.8151 23.5683C19.8151 23.3336 19.8488 23.1325 19.9162 22.9649C19.9836 22.7972 20.1184 22.6296 20.2532 22.4955C20.3879 22.3614 20.5564 22.2608 20.7249 22.1938C20.8934 22.1267 21.0956 22.0932 21.2978 22.0932C21.5 22.0932 21.7022 22.1267 21.8707 22.1938C22.0392 22.2608 22.2077 22.3614 22.3425 22.4955C22.4773 22.6296 22.6121 22.7972 22.6795 22.9649C22.7469 23.1325 22.8143 23.3336 22.8143 23.5683C22.8143 23.7695 22.7806 23.9706 22.6795 24.1382C22.6121 24.3059 22.4773 24.4735 22.3425 24.6076C22.2077 24.7417 22.0392 24.8423 21.8707 24.9093C21.7359 24.9764 21.5337 25.0099 21.3315 25.0099Z" fill="white"/>
</g>
<defs>
<clipPath id="clip0_1828_0">
<rect width="129" height="204" fill="white"/>
</clipPath>
</defs>
</svg>
