<svg width="15" height="15" viewBox="0 0 15 15" fill="none" xmlns="http://www.w3.org/2000/svg">
<path d="M13.5938 4.09375H12.8027C13.0078 3.74219 13.125 3.36133 13.125 2.92188C13.125 1.51562 11.9531 0.34375 10.5469 0.34375C9.31641 0.34375 8.52539 0.988281 7.5293 2.36523C6.50391 0.988281 5.71289 0.34375 4.51172 0.34375C3.07617 0.34375 1.93359 1.51562 1.93359 2.92188C1.93359 3.36133 2.02148 3.74219 2.22656 4.09375H1.40625C0.615234 4.09375 0 4.73828 0 5.5V9.25C0 9.51367 0.205078 9.71875 0.46875 9.71875H0.9375V12.8828C0.9375 13.7324 1.61133 14.4062 2.46094 14.4062H12.5098C13.3594 14.4062 14.0625 13.7324 14.0625 12.8828V9.71875H14.5312C14.7656 9.71875 15 9.51367 15 9.25V5.5C15 4.73828 14.3555 4.09375 13.5938 4.09375ZM6.79688 13H2.46094C2.40234 13 2.34375 12.9414 2.34375 12.8828V9.71875H5.625V8.3125H1.40625V5.5H6.79688V13ZM4.48242 4.09375C3.83789 4.09375 3.31055 3.5957 3.31055 2.92188C3.31055 2.27734 3.83789 1.75 4.48242 1.75C5.12695 1.75 5.5957 1.98438 6.97266 4.00586L7.03125 4.09375H4.48242ZM8.05664 4.00586C9.43359 1.98438 9.90234 1.75 10.5469 1.75C11.1914 1.75 11.7188 2.27734 11.7188 2.92188C11.7188 3.5957 11.1914 4.09375 10.5469 4.09375H7.99805L8.05664 4.00586ZM13.5938 8.3125H9.375V9.71875H12.6562V12.8828C12.6562 12.9414 12.5977 13 12.5098 13H8.20312V5.5H13.5938V8.3125Z" fill="#C7C6CC"/>
</svg>
