<svg width="19" height="19" viewBox="0 0 19 19" fill="none" xmlns="http://www.w3.org/2000/svg">
<g clip-path="url(#clip0_2780_7501)">
<path d="M18.6747 3.39841C18.5018 1.77806 17.2221 0.498077 15.6016 0.325287C11.5378 -0.108429 7.46217 -0.108429 3.39855 0.325287C1.77806 0.498222 0.498222 1.77806 0.325287 3.39841C-0.108429 7.46203 -0.108429 11.5378 0.325287 15.6014C0.498222 17.2219 1.77806 18.5018 3.39841 18.6747C7.46203 19.1084 11.5378 19.1084 15.6016 18.6747C17.2221 18.5018 18.5018 17.2219 18.6747 15.6014C19.1084 11.5378 19.1084 7.46217 18.6747 3.39841Z" fill="url(#paint0_radial_2780_7501)"/>
<path d="M17.6414 4.08571C17.488 2.64787 16.3524 1.51212 14.9144 1.35861C11.3084 0.973888 7.6917 0.973888 4.08571 1.35861C2.64787 1.51212 1.51212 2.64787 1.35861 4.08571C0.973888 7.6917 0.973888 11.3084 1.35861 14.9143C1.51212 16.3522 2.64787 17.488 4.08571 17.6414C7.6917 18.0262 11.3084 18.0262 14.9143 17.6414C16.3522 17.488 17.488 16.3522 17.6414 14.9143C18.0262 11.3084 18.0262 7.6917 17.6414 4.08571Z" fill="url(#paint1_linear_2780_7501)"/>
<path d="M0.284668 15.2075C0.297714 15.3389 0.311195 15.4702 0.325256 15.6015C0.498192 17.2219 1.77803 18.5017 3.39852 18.6746C7.46214 19.1084 11.5379 19.1084 15.6016 18.6746C17.2221 18.5017 18.5017 17.2219 18.6747 15.6015C18.6887 15.4702 18.7022 15.3389 18.7154 15.2075H0.284668Z" fill="url(#paint2_linear_2780_7501)"/>
<path d="M18.6748 15.6014C18.9079 13.4179 19.0155 11.2309 18.9981 9.0442L14.6551 4.70124C14.1125 4.08184 13.32 3.69523 12.3888 3.66175C10.4738 3.59275 8.55264 3.59623 6.6373 3.66204C5.04652 3.71683 3.93411 4.78605 3.64883 6.35754C3.59853 6.63499 3.56838 6.91607 3.52881 7.19555V11.8026C3.5507 11.9519 3.58288 12.1005 3.59288 12.2507C3.65666 13.2065 4.0495 14.0253 4.67847 14.5792L9.09797 18.9985C11.2668 19.0137 13.4359 18.9059 15.6017 18.6747C17.2222 18.5017 18.5019 17.2219 18.6748 15.6014Z" fill="url(#paint3_linear_2780_7501)"/>
<path d="M18.6748 15.6015C18.502 17.2217 17.2219 18.5018 15.6017 18.6746C13.4362 18.9057 11.2667 19.0137 9.09813 18.9985L4.6853 14.5856C5.19686 15.0334 5.86367 15.3061 6.63746 15.3352C8.55236 15.4071 10.4739 15.4052 12.3888 15.3362C14.1208 15.2736 15.3741 13.9917 15.4282 12.2598C15.4859 10.4208 15.4859 8.5771 15.4282 6.73816C15.4035 5.93915 15.123 5.2361 14.658 4.7041L18.9982 9.0443C19.0153 11.2307 18.9078 13.418 18.6748 15.6015Z" fill="url(#paint4_linear_2780_7501)"/>
<path d="M11.742 7.44265C11.1856 6.83687 10.3873 6.45679 9.50005 6.45679C7.8194 6.45679 6.45679 7.8194 6.45679 9.50005C6.45679 10.3873 6.83687 11.1856 7.44265 11.742L14.4837 18.783C14.8564 18.7506 15.2291 18.7145 15.6015 18.6748C17.222 18.5018 18.5018 17.222 18.6748 15.6015C18.7145 15.2291 18.7506 14.8564 18.783 14.4837L11.742 7.44265Z" fill="url(#paint5_linear_2780_7501)"/>
<path d="M18.9631 11.5467L13.2964 5.88014C13.1642 5.70663 12.9559 5.59399 12.7209 5.59399C12.3211 5.59399 11.9968 5.91812 11.9968 6.31806C11.9968 6.55304 12.1095 6.76134 12.283 6.89355L18.8618 13.4725C18.9064 12.8308 18.9402 12.1887 18.9631 11.5467Z" fill="url(#paint6_linear_2780_7501)"/>
<path d="M3.52881 7.19555C3.56838 6.91607 3.59853 6.63499 3.64883 6.35754C3.93397 4.78605 5.04652 3.71683 6.6373 3.66204C8.55264 3.59623 10.4738 3.59275 12.3888 3.66175C14.1202 3.72408 15.3741 5.00609 15.4282 6.73806C15.4857 8.57715 15.4857 10.4207 15.4282 12.2598C15.3741 13.9918 14.1206 15.2736 12.389 15.3361C10.4739 15.4053 8.55235 15.407 6.63744 15.3351C4.90577 15.27 3.7087 13.9851 3.59288 12.2505C3.58288 12.1005 3.5507 11.9518 3.52881 11.8025C3.52881 10.2668 3.52881 8.73109 3.52881 7.19555ZM9.50168 14.3097C10.3781 14.3097 11.2554 14.3359 12.1306 14.3036C13.503 14.2527 14.3471 13.4337 14.3791 12.0627C14.4188 10.3543 14.4188 8.64368 14.3791 6.9352C14.3471 5.56447 13.5024 4.72632 12.1306 4.69719C10.3895 4.66037 8.64657 4.66066 6.90547 4.69719C5.54417 4.72574 4.69761 5.54693 4.66064 6.90258C4.61368 8.63252 4.61368 10.3655 4.66064 12.0954C4.69761 13.4509 5.54417 14.2531 6.90562 14.3036C7.76986 14.3358 8.63628 14.3097 9.50168 14.3097Z" fill="url(#paint7_linear_2780_7501)"/>
<path d="M3.52881 7.19555C3.56838 6.91607 3.59853 6.63499 3.64883 6.35754C3.93397 4.78605 5.04652 3.71683 6.6373 3.66204C8.55264 3.59623 10.4738 3.59275 12.3888 3.66175C14.1202 3.72408 15.3741 5.00609 15.4282 6.73806C15.4857 8.57715 15.4857 10.4207 15.4282 12.2598C15.3741 13.9918 14.1206 15.2736 12.389 15.3361C10.4739 15.4053 8.55235 15.407 6.63744 15.3351C4.90577 15.27 3.7087 13.9851 3.59288 12.2505C3.58288 12.1005 3.5507 11.9518 3.52881 11.8025C3.52881 10.2668 3.52881 8.73109 3.52881 7.19555ZM9.50168 14.3097C10.3781 14.3097 11.2554 14.3359 12.1306 14.3036C13.503 14.2527 14.3471 13.4337 14.3791 12.0627C14.4188 10.3543 14.4188 8.64368 14.3791 6.9352C14.3471 5.56447 13.5024 4.72632 12.1306 4.69719C10.3895 4.66037 8.64657 4.66066 6.90547 4.69719C5.54417 4.72574 4.69761 5.54693 4.66064 6.90258C4.61368 8.63252 4.61368 10.3655 4.66064 12.0954C4.69761 13.4509 5.54417 14.2531 6.90562 14.3036C7.76986 14.3358 8.63628 14.3097 9.50168 14.3097Z" fill="white"/>
<path d="M9.50005 6.45679C7.8194 6.45679 6.45679 7.81925 6.45679 9.4999C6.45679 11.1807 7.8194 12.5432 9.50005 12.5432C11.1808 12.5432 12.5433 11.1807 12.5433 9.4999C12.5433 7.81925 11.1808 6.45679 9.50005 6.45679ZM9.50005 11.4954C8.39793 11.4954 7.50455 10.602 7.50455 9.4999C7.50455 8.39778 8.39793 7.5044 9.50005 7.5044C10.6022 7.5044 11.4955 8.39778 11.4955 9.4999C11.4955 10.602 10.6022 11.4954 9.50005 11.4954Z" fill="white"/>
<path d="M13.4451 6.31806C13.4451 6.71786 13.1209 7.04198 12.7211 7.04198C12.3213 7.04198 11.9971 6.71786 11.9971 6.31806C11.9971 5.91812 12.3213 5.59399 12.7211 5.59399C13.1209 5.59399 13.4451 5.91812 13.4451 6.31806Z" fill="white"/>
</g>
<defs>
<radialGradient id="paint0_radial_2780_7501" cx="0" cy="0" r="1" gradientUnits="userSpaceOnUse" gradientTransform="translate(-6 27.5) rotate(-41.1859) scale(37.2055)">
<stop stop-color="#FAE100"/>
<stop offset="0.0544" stop-color="#FADC04"/>
<stop offset="0.1167" stop-color="#FBCE0E"/>
<stop offset="0.1829" stop-color="#FCB720"/>
<stop offset="0.2514" stop-color="#FE9838"/>
<stop offset="0.3054" stop-color="#FF7950"/>
<stop offset="0.645201" stop-color="#FF1C74"/>
<stop offset="1" stop-color="#6C1CD1"/>
</radialGradient>
<linearGradient id="paint1_linear_2780_7501" x1="7.28733" y1="8.2554" x2="-24.9009" y2="-9.8505" gradientUnits="userSpaceOnUse">
<stop stop-color="#A1B5D8" stop-opacity="0"/>
<stop offset="0.3094" stop-color="#90A2BD" stop-opacity="0.309804"/>
<stop offset="0.7554" stop-color="#7C8B9C" stop-opacity="0.756863"/>
<stop offset="1" stop-color="#748290"/>
</linearGradient>
<linearGradient id="paint2_linear_2780_7501" x1="9.49998" y1="16.7721" x2="9.49998" y2="19.7337" gradientUnits="userSpaceOnUse">
<stop stop-color="#FAE100" stop-opacity="0"/>
<stop offset="0.3068" stop-color="#FCA800" stop-opacity="0.305882"/>
<stop offset="0.6275" stop-color="#FE7300" stop-opacity="0.627451"/>
<stop offset="0.8685" stop-color="#FF5200" stop-opacity="0.866667"/>
<stop offset="1" stop-color="#FF4500"/>
</linearGradient>
<linearGradient id="paint3_linear_2780_7501" x1="8.41918" y1="8.39216" x2="3.71698" y2="3.68996" gradientUnits="userSpaceOnUse">
<stop stop-color="#833AB4" stop-opacity="0"/>
<stop offset="1" stop-color="#833AB4"/>
</linearGradient>
<linearGradient id="paint4_linear_2780_7501" x1="13.0218" y1="17.3778" x2="10.6748" y2="6.31361" gradientUnits="userSpaceOnUse">
<stop stop-color="#833AB4" stop-opacity="0"/>
<stop offset="1" stop-color="#833AB4"/>
</linearGradient>
<linearGradient id="paint5_linear_2780_7501" x1="13.9148" y1="13.9148" x2="4.48809" y2="4.48809" gradientUnits="userSpaceOnUse">
<stop stop-color="#833AB4" stop-opacity="0"/>
<stop offset="1" stop-color="#833AB4"/>
</linearGradient>
<linearGradient id="paint6_linear_2780_7501" x1="14.6138" y1="8.21098" x2="11.4966" y2="5.09376" gradientUnits="userSpaceOnUse">
<stop stop-color="#833AB4" stop-opacity="0"/>
<stop offset="1" stop-color="#833AB4"/>
</linearGradient>
<linearGradient id="paint7_linear_2780_7501" x1="13.2726" y1="5.75374" x2="5.58663" y2="13.4397" gradientUnits="userSpaceOnUse">
<stop stop-color="#833AB4"/>
<stop offset="0.0922" stop-color="#9C3495"/>
<stop offset="0.2927" stop-color="#DC2546"/>
<stop offset="0.392" stop-color="#FD1D1D"/>
<stop offset="0.5589" stop-color="#FC6831"/>
<stop offset="0.6887" stop-color="#FC9B40"/>
<stop offset="0.7521" stop-color="#FCAF45"/>
<stop offset="0.7806" stop-color="#FDB750"/>
<stop offset="0.8656" stop-color="#FECB6A"/>
<stop offset="0.9415" stop-color="#FFD87A"/>
<stop offset="1" stop-color="#FFDC80"/>
</linearGradient>
<clipPath id="clip0_2780_7501">
<rect width="19" height="19" fill="white"/>
</clipPath>
</defs>
</svg>
