<svg width="17" height="15" viewBox="0 0 17 15" fill="none" xmlns="http://www.w3.org/2000/svg">
<path d="M15.9911 8.03555C16.2367 7.75218 16.3864 7.37813 16.3864 6.96889C16.3864 6.08676 15.6917 5.36889 14.8381 5.36889H11.8329C12.1305 4.43555 12.2575 3.19716 12.2575 2.66631V2.13333C12.2575 0.957155 11.3313 0 10.1931 0H9.67695C9.44023 0 9.23379 0.1664 9.17633 0.403911L8.89522 1.56622C8.50125 3.19396 7.25055 4.98987 5.95614 5.31627C5.7294 4.7232 5.16959 4.30222 4.51585 4.30222H1.41919C1.13429 4.30222 0.903076 4.54116 0.903076 4.83556V14.4356C0.903076 14.73 1.13429 14.9689 1.41919 14.9689H4.51585C5.1314 14.9689 5.66402 14.5959 5.91348 14.0569L7.68683 14.6677C8.2666 14.8676 8.87079 14.9689 9.48221 14.9689H13.8058C14.6595 14.9689 15.3542 14.251 15.3542 13.3689C15.3542 13.1609 15.3156 12.9618 15.2454 12.7794C15.9019 12.5941 16.3864 11.9723 16.3864 11.2356C16.3864 10.8263 16.2367 10.4523 15.9911 10.1689C16.2367 9.88551 16.3864 9.51147 16.3864 9.10222C16.3864 8.69298 16.2367 8.31893 15.9911 8.03555ZM5.03196 13.3689C5.03196 13.6629 4.8004 13.9022 4.51585 13.9022H1.9353V5.36889H4.51585C4.8004 5.36889 5.03196 5.60818 5.03196 5.90222V13.3689ZM13.8058 8.56889H14.8381C15.1226 8.56889 15.3542 8.80818 15.3542 9.10222C15.3542 9.39627 15.1226 9.63555 14.8381 9.63555H13.8058C13.5209 9.63555 13.2897 9.87449 13.2897 10.1689C13.2897 10.4633 13.5209 10.7022 13.8058 10.7022H14.8381C15.1226 10.7022 15.3542 10.9415 15.3542 11.2356C15.3542 11.5296 15.1226 11.7689 14.8381 11.7689H13.8058C13.5209 11.7689 13.2897 12.0078 13.2897 12.3022C13.2897 12.5966 13.5209 12.8356 13.8058 12.8356C14.0904 12.8356 14.3219 13.0748 14.3219 13.3689C14.3219 13.6629 14.0904 13.9022 13.8058 13.9022H9.48221C8.98193 13.9022 8.48749 13.8194 8.01301 13.6558L6.06418 12.9845V6.38507C6.87379 6.22613 7.66619 5.69636 8.38152 4.82916C9.07999 3.98222 9.64633 2.85938 9.89647 1.82507L10.0799 1.06667H10.1931C10.7622 1.06667 11.2253 1.54524 11.2253 2.13333V2.66631C11.2253 3.3824 11.0085 4.75591 10.7312 5.36889H9.67695C9.39206 5.36889 9.16084 5.60782 9.16084 5.90222C9.16084 6.19662 9.39206 6.43555 9.67695 6.43555H14.8381C15.1226 6.43555 15.3542 6.67484 15.3542 6.96889C15.3542 7.26293 15.1226 7.50222 14.8381 7.50222H13.8058C13.5209 7.50222 13.2897 7.74116 13.2897 8.03555C13.2897 8.32996 13.5209 8.56889 13.8058 8.56889Z" fill="#05AB6F"/>
</svg>
