<svg width="25" height="24" viewBox="0 0 25 24" fill="none" xmlns="http://www.w3.org/2000/svg">
<rect x="0.945312" width="23.9997" height="23.9997" rx="11.9998" fill="#2E73AE"/>
<path fill-rule="evenodd" clip-rule="evenodd" d="M7.89258 8.10989C7.89258 7.4682 8.41327 6.94751 9.05496 6.94751C9.69624 6.94751 10.2169 7.4682 10.2173 8.10989C10.2173 8.75158 9.69665 9.28316 9.05496 9.28316C8.41327 9.28316 7.89258 8.75158 7.89258 8.10989ZM17.5696 16.6272V16.6268H17.572V13.0767C17.572 11.34 17.1981 10.0021 15.1678 10.0021C14.1917 10.0021 13.5367 10.5378 13.2693 11.0455H13.2411V10.1643H11.316V16.6268H13.3205V13.4268C13.3205 12.5842 13.4803 11.7695 14.5237 11.7695C15.5517 11.7695 15.5671 12.731 15.5671 13.4808V16.6272H17.5696ZM8.05159 10.1646H10.0585V16.627H8.05159V10.1646Z" fill="white"/>
</svg>
