<svg width="12" height="15" viewBox="0 0 12 15" fill="none" xmlns="http://www.w3.org/2000/svg">
<path d="M11.8125 9.0625C11.8125 10.6302 11.2565 11.9701 10.1445 13.082C9.03255 14.194 7.69271 14.75 6.125 14.75C4.55729 14.75 3.21745 14.194 2.10547 13.082C0.99349 11.9701 0.4375 10.6302 0.4375 9.0625C0.4375 7.65885 0.893229 6.42839 1.80469 5.37109C2.73438 4.29557 3.88281 3.64844 5.25 3.42969V2.5H4.48438C4.26562 2.5 4.15625 2.39062 4.15625 2.17188V1.07812C4.15625 0.859375 4.26562 0.75 4.48438 0.75H7.76562C7.98438 0.75 8.09375 0.859375 8.09375 1.07812V2.17188C8.09375 2.39062 7.98438 2.5 7.76562 2.5H7V3.42969C8.02083 3.59375 8.93229 4.00391 9.73438 4.66016L10.4727 3.92188C10.6367 3.75781 10.7917 3.75781 10.9375 3.92188L11.7031 4.6875C11.8672 4.83333 11.8672 4.98828 11.7031 5.15234L10.9102 5.94531L10.8828 5.97266C11.5026 6.90234 11.8125 7.93229 11.8125 9.0625ZM7 10.0469V5.89062C7 5.81771 6.96354 5.74479 6.89062 5.67188C6.83594 5.59896 6.76302 5.5625 6.67188 5.5625H5.57812C5.48698 5.5625 5.40495 5.59896 5.33203 5.67188C5.27734 5.74479 5.25 5.81771 5.25 5.89062V10.0469C5.25 10.2656 5.35938 10.375 5.57812 10.375H6.67188C6.89062 10.375 7 10.2656 7 10.0469Z" fill="#C7C6CC"/>
</svg>
