<svg width="139" height="61" viewBox="0 0 139 61" fill="none" xmlns="http://www.w3.org/2000/svg">
<g clip-path="url(#clip0_2877_13333)">
<path d="M5.53289 47.1972H25.1803C25.8578 47.1972 26.4224 46.6406 26.4224 45.9727C26.4224 45.3049 25.8578 44.7483 25.1803 44.7483H5.53289C2.93582 44.7483 0.903322 46.7519 0.903322 49.3122C0.903322 51.8724 2.93582 53.876 5.53289 53.876H21.7928C23.0349 53.876 24.0512 54.8779 24.0512 56.1023C24.0512 57.3268 23.0349 58.3286 21.7928 58.3286H2.03248C1.35499 58.3286 0.790405 58.8852 0.790405 59.553C0.790405 60.2209 1.35499 60.7775 2.03248 60.7775H21.6799C24.277 60.7775 26.3095 58.7738 26.3095 56.2136C26.3095 53.6534 24.277 51.6498 21.6799 51.6498H5.53289C4.29081 51.6498 3.27456 50.6479 3.27456 49.4235C3.27456 48.0877 4.29081 47.1972 5.53289 47.1972Z" fill="#221F1F" stroke="#221F1F" stroke-width="0.5" stroke-miterlimit="10"/>
<path d="M49.6832 44.7483H30.0358C29.3583 44.7483 28.7937 45.3049 28.7937 45.9727C28.7937 46.6406 29.3583 47.1972 30.0358 47.1972H49.6832C50.9253 47.1972 51.9415 48.199 51.9415 49.4235C51.9415 50.6479 50.9253 51.6498 49.6832 51.6498H31.6166C30.4874 51.6498 28.7937 52.4289 28.7937 54.4326V59.553C28.7937 60.2209 29.3583 60.7775 30.0358 60.7775C30.7133 60.7775 31.2779 60.2209 31.2779 59.553V54.4326C31.2779 54.3213 31.2779 54.0987 31.7295 53.9873H49.7961C52.3932 53.9873 54.4257 51.9837 54.4257 49.4235C54.3128 46.8633 52.1674 44.7483 49.6832 44.7483Z" fill="#221F1F" stroke="#221F1F" stroke-width="0.5" stroke-miterlimit="10"/>
<path d="M74.6377 44.637H64.3623C59.8456 44.637 56.2323 48.199 56.2323 52.6516C56.2323 57.1041 59.8456 60.6662 64.3623 60.6662H74.6377C79.1543 60.6662 82.7676 57.1041 82.7676 52.6516C82.7676 48.199 79.0414 44.637 74.6377 44.637ZM74.6377 58.3286H64.3623C61.2006 58.3286 58.6035 55.7684 58.6035 52.6516C58.6035 49.5348 61.2006 46.9746 64.3623 46.9746H74.6377C77.7993 46.9746 80.3964 49.5348 80.3964 52.6516C80.3964 55.7684 77.6864 58.3286 74.6377 58.3286Z" fill="#221F1F" stroke="#221F1F" stroke-width="0.5" stroke-miterlimit="10"/>
<path d="M110.093 49.3122C110.093 46.7519 108.061 44.7483 105.464 44.7483H85.9293C85.2518 44.7483 84.6873 45.3049 84.6873 45.9727C84.6873 46.6406 85.2518 47.1972 85.9293 47.1972H105.577C106.819 47.1972 107.835 48.199 107.835 49.4235C107.835 50.6479 106.819 51.6498 105.577 51.6498H87.5102C86.381 51.6498 84.6873 52.4289 84.6873 54.4326V59.553C84.6873 60.2209 85.2518 60.7775 85.9293 60.7775C86.6068 60.7775 87.1714 60.2209 87.1714 59.553V54.4326C87.1714 54.3213 87.1714 54.0987 87.6231 53.9873H101.173L108.287 60.2209C108.513 60.4435 108.851 60.5549 109.077 60.5549C109.416 60.5549 109.755 60.4435 109.981 60.1096C110.432 59.6643 110.432 58.8852 109.868 58.4399L104.786 53.9873H105.69C108.061 53.876 110.093 51.8724 110.093 49.3122Z" fill="#221F1F" stroke="#221F1F" stroke-width="0.5" stroke-miterlimit="10"/>
<path d="M137.532 44.7483H113.142C112.465 44.7483 111.9 45.3049 111.9 45.9727C111.9 46.6406 112.465 47.1972 113.142 47.1972H124.095V59.2191C124.095 59.887 124.66 60.4435 125.337 60.4435C126.015 60.4435 126.579 59.887 126.579 59.2191V47.1972H137.532C138.21 47.1972 138.774 46.6406 138.774 45.9727C138.774 45.3049 138.21 44.7483 137.532 44.7483Z" fill="#221F1F" stroke="#221F1F" stroke-width="0.5" stroke-miterlimit="10"/>
<path d="M6.54915 34.062H82.5418C87.0585 34.062 90.2201 29.6095 88.7522 25.3796L81.2998 4.34124C80.3964 1.78102 77.9123 0 75.0894 0H6.54915C2.93582 0 0 2.89416 0 6.4562V27.4945C0 31.1679 2.93582 34.062 6.54915 34.062Z" fill="#F59120"/>
<path d="M101.06 25.3796L93.6077 4.34124C92.7044 1.78102 90.2202 0 87.3973 0H80.3965C83.2194 0 85.7036 1.78102 86.6069 4.34124L94.0594 25.3796C95.5273 29.6095 92.3656 34.062 87.849 34.062H94.8498C99.3664 34.062 102.528 29.6095 101.06 25.3796Z" fill="#F59120"/>
<path d="M113.481 25.3796L106.028 4.34124C105.125 1.78102 102.641 0 99.8181 0H92.8173C95.6402 0 98.1243 1.78102 99.0277 4.34124L106.48 25.3796C107.948 29.6095 104.786 34.062 100.27 34.062H107.271C111.787 34.062 114.949 29.6095 113.481 25.3796Z" fill="#EFAD61"/>
<path d="M125.902 25.3796L118.449 4.34124C117.546 1.78102 115.062 0 112.239 0H105.238C108.061 0 110.545 1.78102 111.448 4.34124L118.901 25.3796C120.369 29.6095 117.207 34.062 112.691 34.062H119.691C124.208 34.062 127.37 29.6095 125.902 25.3796Z" fill="#EACAA5"/>
<path d="M138.323 25.3796L130.87 4.34124C129.967 1.78102 127.483 0 124.66 0H117.659C120.482 0 122.966 1.78102 123.869 4.34124L131.322 25.3796C132.79 29.6095 129.628 34.062 125.111 34.062H132.112C136.629 34.062 139.903 29.6095 138.323 25.3796Z" fill="#E5E6E6"/>
<path d="M6.66206 34.062H71.3631C75.8798 34.062 79.0414 29.6095 77.5735 25.3796L70.121 4.34124C69.2177 1.78102 66.7336 0 63.9106 0H6.66206C2.93582 0 0 2.89416 0 6.4562V27.4945C0 31.1679 2.93582 34.062 6.66206 34.062Z" fill="#0563AA"/>
<path d="M23.7125 10.2409C23.035 10.2409 22.4704 10.7975 22.4704 11.4654V12.0219C21.0025 10.5749 19.0829 9.79565 16.8246 9.79565H16.26C11.8562 9.79565 8.24292 13.3577 8.24292 17.6989C8.24292 22.0402 11.8562 25.6022 16.26 25.6022H16.8246C18.97 25.6022 21.0025 24.7117 22.4704 23.3759V23.9325C22.4704 24.6004 23.035 25.157 23.7125 25.157C24.39 25.157 24.9545 24.6004 24.9545 23.9325V11.4654C24.9545 10.7975 24.39 10.2409 23.7125 10.2409ZM16.8246 23.1533H16.26C13.2112 23.1533 10.6142 20.7044 10.6142 17.5876C10.6142 14.4708 13.0983 12.0219 16.26 12.0219H16.8246C19.8733 12.0219 22.4704 14.4708 22.4704 17.5876C22.4704 20.7044 19.8733 23.1533 16.8246 23.1533Z" fill="white"/>
<path d="M62.8945 10.2409C62.217 10.2409 61.6524 10.7975 61.6524 11.4654V12.0219C60.1845 10.5749 58.2649 9.79565 56.0066 9.79565H55.442C51.0382 9.79565 47.4249 13.3577 47.4249 17.6989C47.4249 22.0402 51.0382 25.6022 55.442 25.6022H56.0066C58.152 25.6022 60.1845 24.7117 61.6524 23.3759V23.9325C61.6524 24.6004 62.217 25.157 62.8945 25.157C63.572 25.157 64.1365 24.6004 64.1365 23.9325V11.4654C64.2495 10.7975 63.572 10.2409 62.8945 10.2409ZM56.0066 23.1533H55.442C52.3932 23.1533 49.7962 20.7044 49.7962 17.5876C49.7962 14.4708 52.2803 12.0219 55.442 12.0219H56.0066C59.0553 12.0219 61.6524 14.4708 61.6524 17.5876C61.6524 20.7044 59.0553 23.1533 56.0066 23.1533Z" fill="white"/>
<path d="M37.2624 9.79565H36.6978C34.5524 9.79565 32.5199 10.6862 31.052 12.0219V11.4654C31.052 10.7975 30.4874 10.2409 29.81 10.2409C29.1325 10.2409 28.5679 10.7975 28.5679 11.4654V29.8322C28.5679 30.5 29.1325 31.0566 29.81 31.0566C30.4874 31.0566 31.052 30.5 31.052 29.8322V23.2646C32.5199 24.7117 34.4395 25.4909 36.6978 25.4909H37.2624C41.6662 25.4909 45.2795 21.9289 45.2795 17.5876C45.2795 13.2464 41.6662 9.79565 37.2624 9.79565ZM37.2624 23.1533H36.6978C33.6491 23.1533 31.052 20.7044 31.052 17.5876C31.052 14.4708 33.5362 12.0219 36.6978 12.0219H37.2624C40.3112 12.0219 42.9082 14.4708 42.9082 17.5876C42.9082 20.7044 40.3112 23.1533 37.2624 23.1533Z" fill="white"/>
</g>
<defs>
<clipPath id="clip0_2877_13333">
<rect width="139" height="61" fill="white"/>
</clipPath>
</defs>
</svg>
