<svg width="204" height="28" viewBox="0 0 204 28" fill="none" xmlns="http://www.w3.org/2000/svg">
<g clip-path="url(#clip0_2780_7478)">
<path d="M203.7 20.3L197.8 3.5C197.1 1.4 195.1 0 192.9 0H55.4C56.4 0.7 57.1 1.6 57.5 2.7L63.8 20.7C64.7 23.2 63.7 25.8 61.7 27.1H198.8C202.4 27.2 204.9 23.7 203.7 20.3Z" fill="#F6921E"/>
<path d="M5.2 27.2H56.1C59.7 27.2 62.2 23.7 61 20.3L55.1 3.5C54.4 1.4 52.4 0 50.2 0H5.2C2.3 0 0 2.3 0 5.2V22C0 24.9 2.3 27.2 5.2 27.2Z" fill="#0563AB"/>
<path d="M18.7 7.70005C18.1 7.70005 17.7 8.20005 17.7 8.70005V9.20005C16.5 8.00005 15 7.30005 13.2 7.30005H12.8C9.3 7.30005 6.5 10.1 6.5 13.6C6.5 17.1 9.3 19.9 12.8 19.9H13.2C14.9 19.9 16.5 19.2 17.6 18.1V18.6C17.6 19.2 18.1 19.6 18.6 19.6C19.2 19.6 19.6 19.1 19.6 18.6V8.70005C19.7 8.10005 19.2 7.70005 18.7 7.70005ZM13.2 18H12.8C10.4 18 8.4 16 8.4 13.6C8.4 11.2 10.4 9.20005 12.8 9.20005H13.2C15.6 9.20005 17.6 11.2 17.6 13.6C17.6 16 15.7 18 13.2 18Z" fill="white"/>
<path d="M49.5 7.70015C48.9 7.70015 48.5 8.20015 48.5 8.70015V9.20015C47.4 8.10015 45.8 7.40015 44.1 7.40015H43.7C40.2 7.40015 37.4 10.2001 37.4 13.7001C37.4 17.2001 40.2 20.0001 43.7 20.0001H44.1C45.8 20.0001 47.4 19.3001 48.5 18.2001V18.7001C48.5 19.3001 49 19.7001 49.5 19.7001C50.1 19.7001 50.5 19.2001 50.5 18.7001V8.70015C50.5 8.10015 50.1 7.70015 49.5 7.70015ZM44.1 18.0001H43.7C41.3 18.0001 39.3 16.0001 39.3 13.6001C39.3 11.2001 41.3 9.20015 43.7 9.20015H44.1C46.5 9.20015 48.5 11.2001 48.5 13.6001C48.5 16.0001 46.5 18.0001 44.1 18.0001Z" fill="white"/>
<path d="M29.3 7.30005H28.9C27.2 7.30005 25.6 8.00005 24.5 9.10005V8.70005C24.5 8.10005 24 7.70005 23.5 7.70005C22.9 7.70005 22.5 8.20005 22.5 8.70005V23.3C22.5 23.9 23 24.3 23.5 24.3C24.1 24.3 24.5 23.8 24.5 23.3V18.1C25.6 19.2 27.2 19.9 28.9 19.9H29.3C32.8 19.9 35.6 17.1 35.6 13.6C35.6 10.2 32.8 7.30005 29.3 7.30005ZM29.3 18H28.9C26.5 18 24.5 16 24.5 13.6C24.5 11.2 26.5 9.20005 28.9 9.20005H29.3C31.7 9.20005 33.7 11.2 33.7 13.6C33.7 16 31.7 18 29.3 18Z" fill="white"/>
<path d="M73.5 9.7999H90.5C91.2 9.7999 91.7 9.1999 91.7 8.5999C91.7 7.8999 91.1 7.3999 90.5 7.3999H73.5C71.2 7.3999 69.3 9.2999 69.3 11.5999C69.3 13.8999 71.2 15.7999 73.5 15.7999H87.5C88.4 15.7999 89.2 16.5999 89.2 17.4999C89.2 18.3999 88.4 19.1999 87.5 19.1999H70.5C69.8 19.1999 69.3 19.7999 69.3 20.3999C69.3 21.0999 69.9 21.5999 70.5 21.5999H87.5C89.8 21.5999 91.7 19.6999 91.7 17.3999C91.7 15.0999 89.8 13.1999 87.5 13.1999H73.5C72.6 13.1999 71.8 12.3999 71.8 11.4999C71.8 10.4999 72.6 9.7999 73.5 9.7999Z" fill="white"/>
<path d="M111.7 7.30005H94.7C94 7.30005 93.5 7.90005 93.5 8.50005C93.5 9.20005 94.1 9.70005 94.7 9.70005H111.7C112.6 9.70005 113.4 10.5 113.4 11.4C113.4 12.3 112.6 13.1 111.7 13.1H96.1C95.1 13.1 93.5 13.8 93.5 15.7V20.2C93.5 20.9 94.1 21.4 94.7 21.4C95.4 21.4 95.9 20.8 95.9 20.2V15.7C95.9 15.6 95.9 15.6 96.1 15.5H111.7C114 15.5 115.9 13.6 115.9 11.3C115.9 9.00005 114 7.30005 111.7 7.30005Z" fill="white"/>
<path d="M133.3 7.19995H124.5C120.5 7.19995 117.3 10.4 117.3 14.4C117.3 18.4 120.5 21.6 124.5 21.6H133.3C137.3 21.6 140.5 18.4 140.5 14.4C140.5 10.4 137.2 7.19995 133.3 7.19995ZM124.4 9.69995H133.2C135.8 9.69995 137.9 11.8 137.9 14.4C137.9 17 135.8 19.1 133.2 19.1H124.4C121.8 19.1 119.7 17 119.7 14.4C119.7 11.8 121.8 9.69995 124.4 9.69995Z" fill="white"/>
<path d="M164.2 11.5C164.2 9.20005 162.3 7.30005 160 7.30005H143C142.3 7.30005 141.8 7.90005 141.8 8.50005C141.8 9.20005 142.4 9.70005 143 9.70005H160C160.9 9.70005 161.7 10.5 161.7 11.4C161.7 12.3 160.9 13.1 160 13.1H144.4C143.4 13.1 141.8 13.8 141.8 15.7V20.2C141.8 20.9 142.4 21.4 143 21.4C143.7 21.4 144.2 20.8 144.2 20.2V15.7C144.2 15.6 144.2 15.6 144.4 15.5H156L162.1 20.9C162.6 21.3 163.4 21.3 163.8 20.8C164 20.6 164.1 20.2 164.1 19.9C164.1 19.6 163.9 19.3 163.7 19.1L159.7 15.5H160C162.3 15.6 164.2 13.8 164.2 11.5Z" fill="white"/>
<path d="M187.7 7.30005H166.6C165.9 7.30005 165.4 7.90005 165.4 8.50005C165.4 9.20005 166 9.70005 166.6 9.70005H175.9V20C175.9 20.7 176.5 21.2 177.1 21.2C177.7 21.2 178.3 20.6 178.3 20V9.80005H187.6C188.3 9.80005 188.8 9.20005 188.8 8.60005C188.9 7.80005 188.3 7.30005 187.7 7.30005Z" fill="white"/>
</g>
<defs>
<clipPath id="clip0_2780_7478">
<rect width="204" height="27.2" fill="white"/>
</clipPath>
</defs>
</svg>
