<svg width="108" height="149" viewBox="0 0 108 149" fill="none" xmlns="http://www.w3.org/2000/svg">
<g clip-path="url(#clip0_1457_10)">
<path d="M47.5579 12.3462C47.0369 11.1256 46.5632 7.65177 46.8947 5.49235C47.179 3.28599 49.2158 0.0938009 52.7684 -8.69113e-05C56.3684 -0.0939747 59.3526 1.54906 60.4895 4.27181C61.579 6.99456 60.3474 11.9237 60.0632 12.2053C59.8263 12.4401 47.5579 12.3462 47.5579 12.3462Z" fill="#E64D4E"/>
<path d="M80.1474 40.982C80.4316 41.1698 81.4737 41.1698 82.279 40.8412C83.0842 40.4657 87.0158 38.7757 89.1474 37.2735C91.279 35.7713 92.0368 35.161 92.3211 34.2221C92.6053 33.2832 93.4105 32.7199 94.3105 31.9219C95.2105 31.1238 96.9158 30.0441 97.9579 28.8236C99 27.603 99.6632 27.3214 100.137 27.7908C100.611 28.2602 99.8053 29.4808 99.3316 29.9033C98.8579 30.3727 97.3421 31.3585 97.3421 31.8749C97.3421 32.3913 97.9579 32.8138 98.5737 32.8607C99.1895 32.9077 101.842 33.0955 102.553 33.0485C103.263 33.0485 105.868 32.4852 106.579 32.673C107.289 32.8607 107.953 32.9077 108 33.4241C108.047 33.9405 107.1 34.1752 106.863 34.316C106.579 34.4099 103.311 35.959 102.695 36.3346C102.079 36.7571 101.416 37.5082 100.374 37.7429C99.3316 38.0246 95.6368 38.7287 95.0211 38.6349C94.4053 38.541 93.5526 38.6818 93.1737 39.0573C92.7947 39.4329 87.6316 43.9865 85.6895 45.4887C83.7474 46.9439 80.1 49.8075 78.3 49.9483C76.5 50.0892 73.6105 46.897 73.0421 45.3948C72.4737 43.9395 80.1474 40.982 80.1474 40.982Z" fill="#F2DAD4"/>
<path d="M27.8526 40.982C27.5684 41.1698 26.5263 41.1698 25.7211 40.8412C24.9158 40.4657 20.9842 38.7757 18.8526 37.2735C16.7211 35.7713 15.9632 35.161 15.6789 34.2221C15.3947 33.2832 14.5895 32.7199 13.6895 31.9219C12.7895 31.1238 11.0842 30.0441 10.0421 28.8236C9 27.603 8.33684 27.3214 7.86316 27.7908C7.38948 28.2602 8.19474 29.4808 8.66842 29.9033C9.14211 30.3727 10.6579 31.3585 10.6579 31.8749C10.6579 32.3913 10.0421 32.8138 9.42632 32.8607C8.81053 32.9077 6.1579 33.0955 5.44737 33.0485C4.73684 33.0485 2.13158 32.4852 1.42106 32.673C0.710529 32.8607 0.0473711 32.9077 2.68151e-06 33.4241C-0.0473657 33.9405 0.900003 34.1752 1.13684 34.316C1.42106 34.4099 4.68948 35.959 5.30526 36.3346C5.92105 36.7571 6.58421 37.5082 7.62632 37.7429C8.66842 38.0246 12.3632 38.7287 12.9789 38.6348C13.5947 38.541 14.4474 38.6818 14.8263 39.0573C15.2053 39.4798 20.3684 44.0334 22.3105 45.5356C24.2526 46.9909 27.9 49.8544 29.7 49.9953C31.5 50.1361 34.1053 48.0236 34.6737 46.5214C35.2421 45.0662 27.8526 40.982 27.8526 40.982Z" fill="#F2DAD4"/>
<path d="M66.4579 132.335C66.6 132.57 66.9316 132.758 66.8842 133.838C66.7895 134.917 63.1421 135.856 62.5737 135.528C62.0053 135.246 61.3421 135.481 61.3421 134.73C61.3421 133.979 62.4789 131.96 62.5263 131.866C62.5737 131.772 66.4579 132.335 66.4579 132.335Z" fill="#F2DAD4"/>
<path d="M62.3842 132.241C61.9105 132.476 61.0579 133.368 61.0105 134.589C60.9158 135.762 60.7737 136.795 60.9632 137.875C61.1526 138.954 60.8211 140.222 60.9158 140.785C61.0105 141.348 61.9105 142.663 62.5263 142.992C63.1421 143.32 63.3789 143.461 63.4737 143.883C63.5684 144.353 63.2842 147.404 65.7 147.78C68.1158 148.155 71.0053 148.296 72 147.076C73.0421 145.855 71.6684 142.475 70.9105 141.583C70.1526 140.691 68.6368 139.048 68.4947 138.626C68.4 138.203 68.2105 135.903 67.9263 135.199C67.6421 134.495 66.9789 134.448 66.9316 134.166C66.8842 133.884 66.8842 133.65 66.7421 133.65C66.6 133.65 63.9947 133.368 63.2368 133.978C62.4316 134.589 61.8158 134.776 61.6737 134.636C61.5316 134.213 62.5263 132.147 62.3842 132.241Z" fill="url(#paint0_linear_1457_10)"/>
<path d="M44.1947 133.321C44.0526 133.555 43.7211 133.743 43.7684 134.823C43.8632 135.903 47.5105 136.841 48.079 136.513C48.6474 136.231 49.3105 136.466 49.3105 135.715C49.3105 134.964 48.1737 132.945 48.1263 132.851C47.9842 132.71 44.1947 133.321 44.1947 133.321Z" fill="#F2DAD4"/>
<path d="M40.2632 73.7484C40.3579 75.9547 39.5053 87.5029 40.2632 92.1035C41.0211 96.704 42.0158 102.666 41.4474 106.891C40.879 111.116 40.3105 115.341 40.7842 118.58C41.2579 121.819 42.8684 128.344 42.4421 130.269C42.0158 132.147 42.7263 133.367 44.8105 133.649C46.8947 133.931 48.1737 133.273 48.6 132.616C49.0737 131.959 48.2211 122.241 48.6947 120.035C49.2158 117.829 49.5 113.651 49.4053 110.646C49.3105 107.642 51.6316 101.915 51.8211 99.145C51.9632 96.3753 53.5263 89.3807 54.0947 86.7518C54.6158 84.123 54.8053 82.433 55.0895 82.433C55.4211 82.433 57.7421 91.9626 58.0263 94.5445C58.3579 97.1734 59.779 104.872 60.2053 106.374C60.5842 107.877 60.9632 109.191 60.7737 111.21C60.5842 113.228 60.8684 116.327 61.579 119.19C62.2895 122.054 62.1 127.922 61.9579 129.095C61.8632 130.269 61.5316 131.677 61.7211 132.194C61.9579 132.757 63.4737 133.179 64.9421 133.226C66.4105 133.273 67.5948 132.522 67.7369 131.912C67.879 131.302 67.5 129.659 67.9737 126.701C68.4474 123.744 69.5369 117.031 69.5842 114.355C69.6316 111.679 69.2526 108.909 68.779 106.468C68.3053 104.027 68.3053 101.351 68.7316 98.9573C69.2053 96.5162 70.2474 89.4276 70.2947 86.4702C70.3421 83.5127 70.4842 78.1611 69.3 73.9362C68.1158 69.7581 40.2632 73.7484 40.2632 73.7484Z" fill="#192B59"/>
<path d="M49.5474 20.4678C48.6947 20.327 48.3632 21.0311 47.8421 21.0781C47.3211 21.172 38.9368 22.7681 37.5632 24.4111C36.1895 26.0541 33.2526 30.326 31.8316 33.3774C30.3632 36.4287 29.7 38.3534 29.3684 39.2923C28.9895 40.1843 27.7105 40.8415 27.8053 41.0762C27.9 41.3109 28.7053 43.0948 30.5526 44.4562C32.4474 45.8175 34.3895 46.9442 34.7684 46.7564C35.1474 46.5686 37.1842 43.1417 37.5158 43.1417C37.8947 43.1417 38.2263 68.9609 38.2263 70.6039C38.2263 72.247 37.7053 74.8758 38.1789 75.0167C38.6526 75.1575 47.2737 75.9555 55.2316 75.6269C63.1895 75.2983 70.0579 75.0167 71.3842 73.7492C72.7105 72.5286 69.7263 46.8972 69.7263 45.3011C69.7263 43.6581 69.4895 40.6068 69.9158 41.217C70.3421 41.8273 72.1421 45.395 73.1842 45.8175C74.2263 46.24 76.8789 44.7378 78.5368 43.4234C80.1947 42.109 80.7632 41.3109 80.8105 40.7945C80.8579 40.2312 77.8263 35.8185 77.3526 34.4571C76.8789 33.0957 73.7053 26.993 72.521 25.4908C71.3368 23.9886 69.8684 22.8619 68.0684 22.4395C66.3158 21.97 61.3895 21.0311 61.0105 20.8434C60.6316 20.7025 59.8737 20.5147 59.1632 20.7025C58.5 20.8434 49.5474 20.4678 49.5474 20.4678Z" fill="url(#paint1_linear_1457_10)"/>
<path d="M48.8368 15.679C48.8368 16.5709 49.7368 20.2795 48.8368 20.6081C47.9842 20.9367 49.6421 23.8472 54.1895 23.6594C58.7369 23.4716 60.5842 21.3592 59.5895 20.4672C58.8316 19.7631 59.4947 15.9606 59.0684 14.9748C58.6421 13.989 48.8368 15.679 48.8368 15.679Z" fill="url(#paint2_linear_1457_10)"/>
<path d="M47.6053 11.5008C47.6526 12.2049 46.6105 11.0313 46.4684 11.5008C46.3263 11.9702 46.9421 14.5991 47.4632 14.9277C47.9368 15.2563 48.5053 15.3502 48.6947 15.6788C48.8842 15.9605 50.5421 21.1243 53.9526 21.1243C58.1211 21.1243 59.1158 15.2093 59.3526 15.2093C59.5895 15.2093 60.8211 14.9746 61.1053 13.6133C61.3895 12.2519 61.4368 10.4211 61.1053 10.4211C60.7737 10.4211 60.1105 10.6088 59.9684 11.1722C59.8263 11.7355 60.5842 8.07387 59.3053 6.24306C58.0737 4.41225 55.3263 4.31836 53.6211 4.31836C51.9158 4.31836 48.7895 4.64697 48.1263 6.52472C47.3684 8.40248 47.4632 9.8108 47.6053 11.5008Z" fill="#F2DAD4"/>
<path d="M48.2684 133.179C48.7421 133.413 49.5947 134.305 49.6421 135.526C49.6895 136.746 49.879 137.732 49.6895 138.812C49.5 139.891 49.8316 141.159 49.7369 141.722C49.6421 142.286 48.7421 143.6 48.1263 143.929C47.5105 144.257 47.2737 144.398 47.179 144.821C47.0842 145.29 47.3684 148.341 44.9526 148.717C42.5369 149.092 39.6474 149.233 38.6526 148.013C37.6105 146.792 38.9842 143.412 39.7421 142.52C40.5 141.628 42.0158 139.985 42.1579 139.563C42.2526 139.14 42.4421 136.84 42.7263 136.136C43.0105 135.432 43.6737 135.385 43.7211 135.103C43.7684 134.822 43.7684 134.587 43.9105 134.587C44.0526 134.587 46.6579 134.305 47.4158 134.915C48.2211 135.526 48.8369 135.713 48.979 135.573C49.1211 135.197 48.1263 133.132 48.2684 133.179Z" fill="url(#paint3_linear_1457_10)"/>
</g>
<defs>
<linearGradient id="paint0_linear_1457_10" x1="72.4343" y1="140.124" x2="60.8657" y2="140.124" gradientUnits="userSpaceOnUse">
<stop offset="0.0183428" stop-color="#4E9CFF"/>
<stop offset="0.8834" stop-color="#176AD4"/>
</linearGradient>
<linearGradient id="paint1_linear_1457_10" x1="54.2562" y1="48.0597" x2="54.2562" y2="106.445" gradientUnits="userSpaceOnUse">
<stop stop-color="#4E9CFF"/>
<stop offset="0.9844" stop-color="#176AD4"/>
</linearGradient>
<linearGradient id="paint2_linear_1457_10" x1="54.2477" y1="19.1928" x2="54.2477" y2="28.7466" gradientUnits="userSpaceOnUse">
<stop stop-color="#F2BFAD"/>
<stop offset="1" stop-color="#F2DAD4"/>
</linearGradient>
<linearGradient id="paint3_linear_1457_10" x1="38.2072" y1="141.1" x2="49.7758" y2="141.1" gradientUnits="userSpaceOnUse">
<stop offset="0.0183428" stop-color="#4E9CFF"/>
<stop offset="0.8834" stop-color="#176AD4"/>
</linearGradient>
<clipPath id="clip0_1457_10">
<rect width="108" height="149" fill="white"/>
</clipPath>
</defs>
</svg>
