<svg width="21" height="28" viewBox="0 0 21 28" fill="none" xmlns="http://www.w3.org/2000/svg">
<path d="M19.5352 25.6338L15.8033 24.179L13.6527 27.5313L9.9209 17.5647L15.8034 15.6039L19.5352 25.6338Z" fill="#F61E38"/>
<path d="M1.8252 25.634L5.55708 24.1792L7.70768 27.5316L10.9515 17.5017L5.06897 15.5408L1.8252 25.634Z" fill="#F61E38"/>
<path d="M21 11.402C21 12.2876 19.4819 12.9201 19.2922 13.7424C19.0392 14.5646 20.0512 15.893 19.6084 16.652C19.1656 17.411 17.5844 17.2213 16.9518 17.8538C16.3193 18.4863 16.509 20.0676 15.75 20.5104C14.991 20.9532 13.7259 20.0044 12.8404 20.1942C12.0181 20.3839 11.3856 21.902 10.5 21.902C9.61448 21.902 8.98194 20.3839 8.15964 20.1942C7.33733 19.9411 6.00903 20.9532 5.25 20.5104C4.49097 20.0676 4.68073 18.4863 4.04818 17.8538C3.41564 17.2213 1.83436 17.411 1.39158 16.652C0.948788 15.893 1.89758 14.6279 1.70782 13.7423C1.51806 12.92 0 12.2876 0 11.402C0 10.5165 1.51806 9.88392 1.70782 9.06162C1.96085 8.23932 0.948788 6.91101 1.39158 6.15198C1.83436 5.39295 3.41564 5.58271 4.04818 4.95016C4.68073 4.31762 4.49097 2.73634 5.25 2.29356C6.00903 1.85077 7.27418 2.79968 8.1597 2.60992C8.982 2.42016 9.61454 0.9021 10.5001 0.9021C11.3856 0.9021 12.0181 2.42016 12.8404 2.60992C13.6627 2.86295 14.991 1.85089 15.7501 2.29368C16.5091 2.73646 16.3193 4.31774 16.9519 4.95028C17.5844 5.58283 19.1657 5.39307 19.6085 6.1521C20.0513 6.91113 19.1025 8.17616 19.2922 9.06174C19.4819 9.82071 21 10.5165 21 11.402Z" fill="#FFD15C"/>
<path d="M10.4991 17.7277C13.9925 17.7277 16.8244 14.8958 16.8244 11.4024C16.8244 7.90907 13.9925 5.07715 10.4991 5.07715C7.00575 5.07715 4.17383 7.90907 4.17383 11.4024C4.17383 14.8958 7.00575 17.7277 10.4991 17.7277Z" fill="#F7B64C"/>
</svg>
