<svg width="16" height="8" viewBox="0 0 16 8" fill="none" xmlns="http://www.w3.org/2000/svg">
<path d="M15.8167 3.55756C15.8165 3.55737 15.8163 3.55715 15.8161 3.55696L12.5504 0.306967C12.3057 0.0634988 11.91 0.0644048 11.6665 0.309092C11.423 0.553748 11.4239 0.949466 11.6686 1.19297L13.8612 3.37496H0.625C0.279813 3.37496 0 3.65477 0 3.99996C0 4.34515 0.279813 4.62496 0.625 4.62496H13.8612L11.6686 6.80696C11.4239 7.05046 11.423 7.44617 11.6665 7.69083C11.91 7.93555 12.3058 7.93639 12.5504 7.69295L15.8162 4.44296C15.8163 4.44277 15.8165 4.44255 15.8167 4.44237C16.0615 4.19805 16.0607 3.80105 15.8167 3.55756Z" fill="#0563AB"/>
</svg>
