<svg width="147" height="175" viewBox="0 0 147 175" fill="none" xmlns="http://www.w3.org/2000/svg">
<path d="M88.4638 92.0798H26.8115V79.1772V0H88.4638V92.0798Z" fill="#D9E6F4"/>
<path d="M82.5399 19.2878H32.7793V21.0493H82.5399V19.2878Z" fill="#AEBECC"/>
<path d="M68.5859 14.532H46.6895V16.2934H68.5859V14.532Z" fill="#AEBECC"/>
<path d="M82.5399 47.9114H32.7793V49.6728H82.5399V47.9114Z" fill="#AEBECC"/>
<path d="M82.5399 43.1555H32.7793V44.917H82.5399V43.1555Z" fill="#AEBECC"/>
<path d="M82.5399 57.4233H32.7793V59.1848H82.5399V57.4233Z" fill="#AEBECC"/>
<path d="M82.5399 62.2231H32.7793V63.9846H82.5399V62.2231Z" fill="#AEBECC"/>
<path d="M82.5399 66.979H32.7793V68.7404H82.5399V66.979Z" fill="#AEBECC"/>
<path d="M82.5399 71.7351H32.7793V73.4966H82.5399V71.7351Z" fill="#AEBECC"/>
<path d="M82.5399 76.491H32.7793V78.2524H82.5399V76.491Z" fill="#AEBECC"/>
<path d="M82.5399 52.6672H32.7793V54.4287H82.5399V52.6672Z" fill="#AEBECC"/>
<path d="M82.4084 24.0876H46.1191V25.8491H82.4084V24.0876Z" fill="#AEBECC"/>
<path d="M82.4084 28.8438H46.1191V30.6052H82.4084V28.8438Z" fill="#AEBECC"/>
<path d="M82.4084 33.6436H46.1191V35.405H82.4084V33.6436Z" fill="#AEBECC"/>
<path d="M82.4084 38.3994H46.1191V40.1609H82.4084V38.3994Z" fill="#AEBECC"/>
<path d="M44.3639 24.0437H32.8672V40.1169H44.3639V24.0437Z" fill="#AEBECC"/>
<path d="M0 69.0488L46.5134 60.2416C46.5134 60.2416 48.3125 61.0783 49.1024 62.5314L86.4887 54.8691L75.2552 121.232L7.98627 145.804L0 69.0488Z" fill="#0563AB"/>
<path d="M88.0683 58.1719L5.26562 78.2084L7.98622 145.804L74.8603 119.074L88.0683 58.1719Z" fill="#C3D3E2"/>
<path d="M91.1839 56.7627L8.38125 76.7992L7.98633 145.804L77.9759 117.621L91.1839 56.7627Z" fill="white"/>
<path d="M94.5627 58.1719L11.7601 78.1643L7.98633 145.804L81.3547 119.03L94.5627 58.1719Z" fill="#C3D3E2"/>
<path d="M96.0108 60.5059L13.2081 80.5423L7.98633 145.804L83.6804 118.193L96.0108 60.5059Z" fill="#D9E6F4"/>
<path d="M14.5684 86.7072L62.9248 75.0376C62.9248 75.0376 63.5392 73.012 65.6893 72.4835C67.7956 71.9551 103.602 63.6763 103.602 63.6763L85.655 117.489L7.98633 145.804L14.5684 86.7072Z" fill="#0563AB"/>
<path d="M137.917 163.11L92.5002 175L70.8671 173.106L29.751 137.481L83.5047 121.672L137.917 163.11Z" fill="#D9E6F4"/>
<path d="M70.8672 173.106L85.5672 169.187L92.5003 175L70.8672 173.106Z" fill="#AEBECC"/>
<path d="M90.4377 132.549L45.855 145.276L44.8896 144.483L89.3846 131.712L90.4377 132.549Z" fill="#AEBECC"/>
<path d="M75.2549 133.958L55.7281 139.551L54.7627 138.758L74.2457 133.166L75.2549 133.958Z" fill="#AEBECC"/>
<path d="M107.156 145.408L60.9059 158.134L59.9844 157.341L106.103 144.615L107.156 145.408Z" fill="#AEBECC"/>
<path d="M104.348 143.25L58.4049 156.02L57.4834 155.228L103.339 142.457L104.348 143.25Z" fill="#AEBECC"/>
<path d="M112.686 149.679L65.9088 162.45L64.9873 161.657L111.676 148.886L112.686 149.679Z" fill="#AEBECC"/>
<path d="M115.494 151.837L68.4098 164.608L67.4883 163.771L114.441 151.044L115.494 151.837Z" fill="#AEBECC"/>
<path d="M118.258 153.995L70.9546 166.721L69.9893 165.929L117.205 153.202L118.258 153.995Z" fill="#AEBECC"/>
<path d="M121.022 156.108L73.4556 168.879L72.4902 168.086L120.013 155.316L121.022 156.108Z" fill="#AEBECC"/>
<path d="M123.831 158.266L75.9576 171.037L74.9922 170.2L122.778 157.474L123.831 158.266Z" fill="#AEBECC"/>
<path d="M109.921 147.565L63.4078 160.292L62.4863 159.499L108.868 146.773L109.921 147.565Z" fill="#AEBECC"/>
<path d="M93.1583 134.707L60.4234 143.999L59.458 143.206L92.1052 133.914L93.1583 134.707Z" fill="#AEBECC"/>
<path d="M95.9227 136.865L63.0123 146.156L62.0469 145.364L94.8696 136.072L95.9227 136.865Z" fill="#AEBECC"/>
<path d="M98.731 139.022L65.6011 148.314L64.6357 147.521L97.6778 138.186L98.731 139.022Z" fill="#AEBECC"/>
<path d="M101.495 141.136L68.1461 150.428L67.2246 149.635L100.442 140.344L101.495 141.136Z" fill="#AEBECC"/>
<path d="M66.5227 150.868L55.9475 153.819L47.4785 146.597L57.8343 143.646L66.5227 150.868Z" fill="#AEBECC"/>
<path d="M146.912 17.1742C146.517 15.4568 144.806 14.3559 143.05 14.7522L95.7033 25.6291C95.5277 25.6732 95.3083 25.7172 95.1328 25.8053C91.403 14.7522 79.8624 8.10273 68.2779 10.7449C55.9036 13.6073 48.1806 25.9374 51.0328 38.3556C53.885 50.7738 66.1716 58.5242 78.5459 55.6619C89.6039 53.1078 96.9758 42.9354 96.3615 31.9704C96.6248 31.9704 96.888 31.9704 97.1513 31.8823L144.498 21.0053C146.21 20.609 147.307 18.8916 146.912 17.1742ZM77.5806 51.6546C67.4441 53.9885 57.3077 47.6032 55.0259 37.4309C52.7003 27.2585 59.063 17.0861 69.1994 14.7962C79.3358 12.4623 89.4722 18.8476 91.754 29.0199C94.0797 39.1483 87.717 49.3206 77.5806 51.6546Z" fill="#0563AB"/>
<path opacity="0.52" d="M91.7543 29.02C94.08 39.1924 87.7173 49.3647 77.5809 51.6546C67.4445 53.9885 57.3081 47.6033 55.0263 37.4309C52.7006 27.2585 59.0633 17.0862 69.1997 14.7963C79.3361 12.4624 89.4287 18.8476 91.7543 29.02Z" fill="#D6F0FE"/>
</svg>
