<svg width="567" height="245" viewBox="0 0 567 245" fill="none" xmlns="http://www.w3.org/2000/svg">
<path d="M363.304 100.988C363.164 100.061 362.293 99.4149 361.337 99.5553C360.41 99.6958 359.764 100.567 359.904 101.522C360.157 103.123 360.466 108.124 358.724 110.147C358.359 110.596 357.909 110.849 357.319 110.962L357.488 101.438C357.516 100.061 356.392 98.9092 355.015 98.9092C353.61 98.9092 352.514 100.061 352.542 101.438L352.992 119.531C352.402 119.446 351.924 119.165 351.531 118.716C349.816 116.693 350.126 111.692 350.35 110.091C350.491 109.164 349.845 108.265 348.917 108.124C347.99 107.984 347.091 108.63 346.95 109.557C346.838 110.344 345.826 117.367 348.889 120.935C349.957 122.171 351.362 122.874 353.048 122.986L353.245 130.853H356.982L357.263 114.389C358.893 114.249 360.298 113.574 361.309 112.366C364.4 108.77 363.417 101.775 363.304 100.988Z" fill="#BDBDBD"/>
<path d="M203.386 116.328C203.302 115.738 202.74 115.317 202.15 115.429C201.56 115.514 201.138 116.075 201.251 116.665C201.419 117.677 201.616 120.88 200.492 122.172C200.267 122.453 199.958 122.621 199.593 122.678L199.705 116.609C199.733 115.738 199.003 115.008 198.132 115.008C197.232 115.008 196.53 115.738 196.558 116.637L196.839 128.184C196.474 128.128 196.165 127.959 195.912 127.678C194.816 126.386 195.012 123.211 195.153 122.172C195.237 121.582 194.844 121.02 194.254 120.936C193.664 120.851 193.102 121.245 193.017 121.835C192.933 122.34 192.315 126.807 194.254 129.083C194.928 129.87 195.827 130.319 196.895 130.375L197.008 135.404H199.396L199.565 124.925C200.604 124.841 201.504 124.391 202.15 123.633C204.089 121.301 203.471 116.806 203.386 116.328Z" fill="#BDBDBD"/>
<path d="M283.5 245C440.073 245 567 217.242 567 183C567 148.758 440.073 121 283.5 121C126.927 121 0 148.758 0 183C0 217.242 126.927 245 283.5 245Z" fill="url(#paint0_linear_834_40)"/>
<path d="M303.226 111.298C303.226 111.298 303.142 115.512 303.226 115.934C303.283 116.355 301.569 118.827 300.866 118.715C300.164 118.603 298.759 118.378 298.562 118.125C298.365 117.9 298.449 117.338 298.534 116.833C298.618 116.327 299.124 111.748 299.124 111.523C299.124 111.298 302.44 110.652 303.226 111.298Z" fill="#FFD3BC"/>
<path d="M300.501 115.682C299.63 116.159 299.124 117.592 299.012 117.62C298.899 117.648 298.646 117.592 298.646 117.451C298.646 117.311 298.674 116.833 298.534 116.833C298.365 116.833 298.197 117.62 298.169 118.772C298.141 119.924 297.719 122.649 298.169 122.986C298.45 123.211 300.979 124.531 301.063 124.728C301.147 124.896 301.007 126.161 301.232 126.357C301.456 126.554 301.934 127.032 302.327 127.06C302.721 127.088 304.997 127.313 306.065 127.06C307.133 126.807 308.481 126.301 308.538 126.161C308.566 126.02 308.257 122.986 307.919 122.621C307.582 122.256 305.137 118.884 304.941 118.575C304.744 118.266 304.604 117.536 304.604 117.114C304.604 116.693 304.21 115.738 303.508 115.513C302.693 115.232 301.147 115.316 300.501 115.682Z" fill="url(#paint1_linear_834_40)"/>
<path d="M277.571 113.714C277.571 113.714 277.571 116.158 277.487 116.58C277.431 117.001 279.145 119.474 279.847 119.361C280.55 119.249 281.955 119.024 282.151 118.771C282.348 118.546 282.264 117.985 282.179 117.479C282.095 116.973 281.646 114.164 281.646 113.911C281.674 113.714 278.358 113.096 277.571 113.714Z" fill="#FFD3BC"/>
<path d="M279.819 59.6609C278.836 63.2851 276.953 75.6466 276.953 81.6869C276.953 87.6991 276.363 103.039 276.363 105.371C276.363 107.702 276.11 113.49 276.728 113.799C277.318 114.108 278.723 115.007 280.634 114.698C282.545 114.389 283.051 113.181 283.107 112.085C283.163 110.989 283.613 103.039 284.062 99.9764C284.512 96.9141 286.113 91.0143 287.181 87.1934C288.249 83.4007 290.694 75.759 291.34 75.7871C291.986 75.8152 296.061 92.5595 296.398 93.5147C296.735 94.4699 297.382 107.955 297.438 109.079C297.466 110.203 297.438 111.298 298.14 111.748C298.843 112.198 301.035 113.349 302.159 113.434C303.283 113.518 304.041 111.72 304.266 111.158C304.463 110.624 304.856 92.5876 304.716 87.643C304.575 82.6983 304.969 73.4833 304.744 70.4772C304.519 67.4711 303.788 61.0375 303.311 59.6609C302.805 58.3123 279.819 59.6609 279.819 59.6609Z" fill="#192B59"/>
<path d="M272.822 17.6594C273.778 16.5918 278.189 11.6191 279.089 11.4505C279.96 11.282 282.095 10.8887 282.573 10.383C283.051 9.87725 285.074 3.556 284.259 2.40413C283.472 1.25225 280.381 1.58939 279.454 3.5279C278.527 5.49452 278.555 6.50592 277.037 7.85445C275.492 9.20299 268.776 14.6814 268.158 15.2433C267.54 15.8052 268.776 18.5023 269.759 18.9518C270.715 19.4575 272.822 17.6594 272.822 17.6594Z" fill="url(#paint2_linear_834_40)"/>
<path d="M285.046 19.1768C282.77 19.6544 279.032 20.0477 277.796 20.441C276.559 20.8343 271.67 22.5481 271.698 21.8176C271.726 21.0872 273.974 17.8844 273.553 17.5473C273.159 17.2102 270.743 16.8168 270.349 16.3111C269.956 15.8054 269.394 14.5974 268.86 14.7378C268.326 14.8783 261.976 20.8062 262.397 23.0538C263.409 28.3918 278.414 32.2688 278.751 34.6006C279.089 36.9325 277.599 59.2395 278.414 60.0542C279.229 60.869 287.94 64.0155 292.296 64.2965C296.679 64.5774 304.351 63.0322 304.772 61.8804C305.194 60.7285 302.636 38.562 302.946 38.562C303.255 38.562 303.339 45.5294 306.655 47.3555C308.847 48.5355 311.881 47.3274 312.471 46.6532C313.062 46.007 310.392 36.7077 309.212 33.5892C308.004 30.4707 306.88 24.009 304.154 21.7053C301.456 19.4015 297.606 19.7948 296.286 19.2611C294.965 18.7273 290.553 19.1206 289.429 18.9801C288.333 18.9239 285.046 19.1768 285.046 19.1768Z" fill="url(#paint3_linear_834_40)"/>
<path d="M313.314 42.4953C313.314 42.4953 309.408 43.6753 309.099 44.0686C308.79 44.462 308.256 46.0914 309.099 46.7657C309.942 47.44 310.87 47.9457 311.881 47.159C312.893 46.3724 313.792 45.3329 314.382 45.1924C314.972 45.0519 316.686 45.3048 317.417 45.0238C318.147 44.7429 319.524 39.2364 318.962 38.8993C318.4 38.5902 313.314 42.4953 313.314 42.4953Z" fill="url(#paint4_linear_834_40)"/>
<path d="M285.074 18.418C283.809 18.1652 281.393 15.7771 281.168 13.361C280.943 11.0011 279.229 4.39888 285.242 1.92657C290.891 -0.405269 296.707 1.98276 297.55 4.87649C298.337 7.54546 291.705 7.68593 289.261 9.42779C286.816 11.1696 286.676 12.3215 286.057 12.0687C285.439 11.7596 285.074 18.418 285.074 18.418Z" fill="#E64D4E"/>
<path d="M284.962 13.726C284.877 14.7936 284.625 20.0191 285.074 20.7777C285.496 21.4801 286.226 23.531 289.121 23.4467C292.015 23.3624 293.869 20.4687 294.038 20.1315C294.207 19.7944 293.869 15.6083 293.869 14.934C293.869 14.2317 289.992 12.5741 288.418 12.6303C286.844 12.6584 285.046 12.7146 284.962 13.726Z" fill="url(#paint5_linear_834_40)"/>
<path d="M285.242 13.7267C285.58 13.7267 285.186 15.6933 285.776 16.3395C286.366 16.9857 288.923 20.3851 291.649 20.048C294.01 19.767 293.672 17.7442 294.01 16.0586C294.319 14.5415 295.302 14.401 295.639 10.4678C295.78 8.95067 296.482 6.53455 295.162 6.11313C293.841 5.66362 288.839 4.48365 287.603 6.11313C286.366 7.74261 286.254 11.6196 285.608 11.142C284.961 10.6363 283.613 8.19212 282.798 9.51256C281.983 10.833 283.5 13.7829 285.242 13.7267Z" fill="#F2DAD4"/>
<path d="M306.205 33.9536L298.309 43.9553C297.887 44.4891 298.281 45.2476 298.927 45.2195L313.539 44.9667C313.792 44.9667 314.017 44.8543 314.157 44.6576L321.632 34.6841C321.997 34.2065 321.632 33.5322 321.042 33.5322L306.795 33.6446C306.57 33.6446 306.345 33.757 306.205 33.9536Z" fill="url(#paint6_linear_834_40)"/>
<path d="M318.71 37.9718C317.951 38.0561 316.827 38.4775 316.827 38.8709C316.827 39.2642 317.726 39.3766 317.979 39.4327C318.232 39.4608 318.541 39.5451 318.457 39.6575C318.372 39.7699 318.176 40.388 317.67 40.3037C317.164 40.1913 315 40.1632 314.579 40.1632C314.157 40.1632 313.68 40.4441 313.623 40.7532C313.595 41.0622 313.511 41.1184 313.258 41.1465C313.005 41.1746 312.556 41.3994 312.556 41.7927C312.556 42.186 313.539 42.5512 313.539 42.6917C313.539 42.8322 315.478 44.0121 315.871 44.2369C316.265 44.4617 316.967 45.0235 317.361 45.0235C317.754 45.0235 318.429 44.6302 318.485 44.0964C318.541 43.5345 319.328 43.1412 319.328 42.8603C319.328 42.5793 319.075 42.3827 319.103 42.2141C319.131 42.0455 319.834 41.7927 319.834 41.3713C319.834 40.9498 319.553 40.3599 319.524 40.1632C319.496 39.9946 319.328 39.6013 319.496 39.5451C319.665 39.4889 320.227 38.9832 320.115 38.4775C320.058 38.0561 319.075 37.9437 318.71 37.9718Z" fill="#FFD3BC"/>
<path d="M280.212 116.355C281.083 116.833 281.589 118.266 281.702 118.294C281.814 118.322 282.067 118.266 282.067 118.125C282.067 117.985 282.039 117.507 282.179 117.507C282.348 117.507 282.516 118.294 282.545 119.446C282.573 120.598 282.994 123.323 282.545 123.66C282.264 123.885 279.735 125.205 279.65 125.402C279.566 125.57 279.706 126.835 279.482 127.031C279.257 127.228 278.779 127.705 278.386 127.734C277.992 127.762 275.716 127.986 274.648 127.734C273.581 127.481 272.232 126.975 272.176 126.835C272.148 126.694 272.457 123.66 272.794 123.295C273.131 122.929 275.576 119.558 275.772 119.249C275.969 118.94 276.11 118.21 276.11 117.788C276.11 117.367 276.503 116.412 277.206 116.187C278.02 115.906 279.566 115.99 280.212 116.355Z" fill="url(#paint7_linear_834_40)"/>
<defs>
<linearGradient id="paint0_linear_834_40" x1="283.503" y1="92.8914" x2="283.503" y2="190.245" gradientUnits="userSpaceOnUse">
<stop stop-color="#E5E5E5"/>
<stop offset="0.4764" stop-color="#F4F4F4"/>
<stop offset="1" stop-color="white"/>
</linearGradient>
<linearGradient id="paint1_linear_834_40" x1="305.181" y1="120.197" x2="298.791" y2="125.042" gradientUnits="userSpaceOnUse">
<stop stop-color="#4E9CFF"/>
<stop offset="0.9844" stop-color="#176AD4"/>
</linearGradient>
<linearGradient id="paint2_linear_834_40" x1="286.977" y1="11.586" x2="274.889" y2="10.2368" gradientUnits="userSpaceOnUse">
<stop stop-color="#F2BFAD"/>
<stop offset="1" stop-color="#F2DAD4"/>
</linearGradient>
<linearGradient id="paint3_linear_834_40" x1="272.517" y1="26.6923" x2="313.71" y2="57.9249" gradientUnits="userSpaceOnUse">
<stop stop-color="#4E9CFF"/>
<stop offset="0.9844" stop-color="#176AD4"/>
</linearGradient>
<linearGradient id="paint4_linear_834_40" x1="313.974" y1="44.2964" x2="314.589" y2="54.721" gradientUnits="userSpaceOnUse">
<stop stop-color="#F2BFAD"/>
<stop offset="0.7043" stop-color="#F2DAD4"/>
</linearGradient>
<linearGradient id="paint5_linear_834_40" x1="288.545" y1="15.9241" x2="292.541" y2="24.2699" gradientUnits="userSpaceOnUse">
<stop stop-color="#F2BFAD"/>
<stop offset="1" stop-color="#F2DAD4"/>
</linearGradient>
<linearGradient id="paint6_linear_834_40" x1="307.269" y1="34.4073" x2="314.225" y2="47.2071" gradientUnits="userSpaceOnUse">
<stop stop-color="#F6DBDB"/>
<stop offset="1" stop-color="#EB9A99"/>
</linearGradient>
<linearGradient id="paint7_linear_834_40" x1="275.532" y1="120.872" x2="281.923" y2="125.717" gradientUnits="userSpaceOnUse">
<stop stop-color="#4E9CFF"/>
<stop offset="0.9844" stop-color="#176AD4"/>
</linearGradient>
</defs>
</svg>
