<svg width="15" height="16" viewBox="0 0 15 16" fill="none" xmlns="http://www.w3.org/2000/svg">
<path d="M13.125 10.4844V8.43359C12.6562 8.72656 11.8359 8.99023 11.0156 9.10742V11.1875C11.8359 11.0996 12.5977 10.7773 13.125 10.4844ZM13.125 4.41992C12.4805 4.65429 11.748 4.85937 11.0156 5.00586V7.05664C11.748 6.93945 12.4219 6.70507 13.125 6.4414V4.41992ZM2.57812 10.748C3.19336 10.543 3.95508 10.3965 4.6875 10.3379V8.28711C3.95508 8.3457 3.28125 8.49218 2.57812 8.72656V10.748ZM13.0371 2.39843C11.9824 2.86718 10.8691 3.21875 9.84375 3.21875C8.4082 3.21875 7.08984 2.28125 5.09766 2.28125C4.18945 2.28125 3.39844 2.48632 2.72461 2.75C2.7832 2.54492 2.8125 2.33984 2.7832 2.13476C2.72461 1.46093 2.16797 0.933589 1.49414 0.904292C0.673828 0.845699 0 1.49023 0 2.28125C0 2.80859 0.263672 3.27734 0.703125 3.51171V15.4062C0.703125 15.6699 0.908203 15.875 1.17188 15.875H1.64062C1.875 15.875 2.10938 15.6699 2.10938 15.4062V12.9746C3.19336 12.4766 4.18945 12.125 5.83008 12.125C7.26562 12.125 8.58398 13.0625 10.5762 13.0625C12.3047 13.0625 13.5645 12.418 14.3555 11.8906C14.7363 11.6562 14.9707 11.1875 14.9707 10.7187V3.6875C15 2.6914 13.9453 2.01757 13.0371 2.39843ZM13.5938 10.7187C12.9492 11.1875 11.8066 11.6562 10.5762 11.6562C8.81836 11.6562 7.58789 10.7187 5.83008 10.7187C4.57031 10.7187 3.01758 11.0117 2.10938 11.4219V4.625C2.72461 4.18554 3.86719 3.6875 5.09766 3.6875C6.85547 3.6875 8.08594 4.625 9.84375 4.625C11.1035 4.625 12.6562 4.12695 13.5938 3.6875V10.7187ZM2.57812 4.88867V6.91015C3.01758 6.64648 3.86719 6.35351 4.6875 6.26562V4.18554C3.83789 4.27343 3.07617 4.5957 2.57812 4.88867ZM4.6875 6.26562V8.28711C5.56641 8.19921 6.18164 8.22851 6.79688 8.375V6.41211C5.94727 6.17773 5.36133 6.14843 4.6875 6.26562ZM8.90625 8.96093C8.20312 8.78515 7.5293 8.52148 6.79688 8.375V10.3379C7.5293 10.4844 8.20312 10.7187 8.90625 10.9238V8.96093C9.72656 9.19531 10.3125 9.2246 11.0156 9.10742V7.05664C10.3125 7.17382 9.63867 7.17382 8.90625 6.99804V8.96093ZM8.90625 5.03515C8.14453 4.88867 7.4707 4.65429 6.79688 4.44921V6.41211C7.4707 6.58789 8.14453 6.85156 8.90625 6.99804V5.03515Z" fill="#C7C6CC"/>
</svg>
