<svg width="13" height="16" viewBox="0 0 13 16" fill="none" xmlns="http://www.w3.org/2000/svg">
<path d="M3.69141 10.1621L3.10547 11.5391C3.07617 11.627 2.98828 11.6562 2.87109 11.6562H0.703125C0.292969 11.6562 0 11.9785 0 12.3594C0 12.7695 0.292969 13.0625 0.703125 13.0625H2.87109C3.54492 13.0625 4.13086 12.6816 4.39453 12.0957L4.80469 11.1582L4.51172 10.9824C4.16016 10.7773 3.89648 10.4844 3.69141 10.1621ZM7.96875 3.6875C8.73047 3.6875 9.375 3.07227 9.375 2.28125C9.375 1.51953 8.73047 0.875 7.96875 0.875C7.17773 0.875 6.5625 1.51953 6.5625 2.28125C6.5625 3.07227 7.17773 3.6875 7.96875 3.6875ZM11.4844 7.93555H10.0488C9.96094 7.93555 9.87305 7.87695 9.84375 7.75977L9.43359 6.41211C9.14062 5.5332 8.4375 4.85938 7.5293 4.6543L5.24414 4.12695C4.48242 3.98047 3.69141 4.12695 3.07617 4.625L1.66992 5.70898C1.34766 5.94336 1.28906 6.38281 1.55273 6.70508C1.78711 6.99805 2.22656 7.05664 2.51953 6.82227L3.95508 5.73828C4.21875 5.50391 4.57031 5.44531 4.92188 5.50391L5.36133 5.62109L4.33594 8.16992C4.01367 8.93164 4.30664 9.75195 5.00977 10.1914L7.44141 11.6562C7.5 11.7148 7.55859 11.8027 7.55859 11.8613C7.55859 11.8906 7.55859 11.9199 7.55859 11.9199L6.5918 14.9961C6.47461 15.377 6.67969 15.7578 7.06055 15.875C7.11914 15.875 7.17773 15.9043 7.26562 15.9043C7.55859 15.9043 7.85156 15.6992 7.93945 15.377L8.90625 12.3301C9.11133 11.5977 8.81836 10.8359 8.17383 10.4551L6.65039 9.54688L7.88086 6.4707C7.96875 6.58789 8.02734 6.70508 8.08594 6.82227L8.49609 8.16992C8.70117 8.87305 9.31641 9.3418 10.0488 9.3418H11.4551C11.8652 9.3418 12.1582 9.01953 12.1875 8.63867C12.1875 8.25781 11.8652 7.93555 11.4844 7.93555Z" fill="#C7C6CC"/>
</svg>
