<svg width="47" height="47" viewBox="0 0 47 47" fill="none" xmlns="http://www.w3.org/2000/svg">
<path d="M27.4214 38.1376H18.9248L20.373 35.0479L21.6282 32.1514H24.7179L25.9731 35.0479L27.4214 38.1376Z" fill="#F61E38"/>
<path d="M32.8274 38.1387H13.517C12.4549 38.1387 11.5859 39.0076 11.5859 40.0697V46.3455H34.6618V40.0697C34.7584 39.0076 33.8894 38.1387 32.8274 38.1387Z" fill="#FFD15C"/>
<path d="M25.9731 35.0478C25.2007 35.4341 24.4283 35.8202 23.6558 36.1099L23.1731 36.2064L22.6903 36.0133C21.9179 35.7236 21.1455 35.3375 20.373 34.9512L21.6282 32.0547H24.6214L25.9731 35.0478Z" fill="#CF132A"/>
<path d="M0 5.31055V9.26919C0 18.9244 5.98624 27.2278 14.3862 30.7037C17.0897 31.8624 20.0828 32.4417 23.1725 32.4417C26.2621 32.4417 29.2553 31.8624 31.9587 30.7037C40.3587 27.2279 46.3449 18.9244 46.3449 9.26928V5.31055H0ZM42.4828 9.26919C42.4828 13.9037 40.8414 18.152 38.0414 21.5313C34.469 25.7795 29.1586 28.5796 23.1725 28.5796C17.1863 28.5796 11.8759 25.8761 8.30352 21.5313C5.60009 18.2485 3.86217 13.9037 3.86217 9.26919V9.17262H42.3862V9.26919H42.4828Z" fill="#F8B64C"/>
<path d="M38.234 0H8.10981C7.43398 0 6.95117 0.579275 6.95117 1.15864C6.95117 1.83448 7.43389 2.41384 8.10981 2.41384H38.234C38.9099 2.41384 39.3927 1.83457 39.3927 1.2552C39.3926 0.579275 38.9099 0 38.234 0Z" fill="#F8B64C"/>
<path d="M38.2345 2.41406V12.8417C38.2345 22.4968 32.2482 31.2831 23.1724 34.7589C14.0966 31.1865 8.11035 22.4968 8.11035 12.7451V2.41406H38.2345Z" fill="#FFD15C"/>
<path d="M38.1379 2.41406H8.11035V3.86229H38.1379V2.41406Z" fill="#FFC952"/>
<path d="M17.9227 22.3419C17.2474 22.3419 16.6317 22.2028 16.0756 21.9248C15.5194 21.6334 15.0427 21.2097 14.6455 20.6536C14.2615 20.0974 13.9569 19.4089 13.7318 18.5879C13.52 17.767 13.414 16.8202 13.414 15.7477C13.414 14.6751 13.52 13.735 13.7318 12.9272C13.9569 12.1195 14.2615 11.4442 14.6455 10.9013C15.0427 10.3452 15.5194 9.93469 16.0756 9.66986C16.6317 9.39179 17.2474 9.25276 17.9227 9.25276C18.598 9.25276 19.2138 9.39179 19.7699 9.66986C20.326 9.93469 20.7961 10.3452 21.1801 10.9013C21.5774 11.4442 21.8819 12.1195 22.0938 12.9272C22.3189 13.735 22.4314 14.6751 22.4314 15.7477C22.4314 16.8202 22.3189 17.767 22.0938 18.5879C21.8819 19.4089 21.5774 20.0974 21.1801 20.6536C20.7961 21.2097 20.326 21.6334 19.7699 21.9248C19.2138 22.2028 18.598 22.3419 17.9227 22.3419ZM17.9227 20.0776C18.1743 20.0776 18.406 20.018 18.6179 19.8988C18.8298 19.7664 19.0151 19.5347 19.174 19.2037C19.3329 18.8726 19.4521 18.429 19.5316 17.8729C19.6243 17.3168 19.6706 16.6083 19.6706 15.7477C19.6706 14.887 19.6243 14.1852 19.5316 13.6423C19.4521 13.0861 19.3329 12.6558 19.174 12.3512C19.0151 12.0334 18.8298 11.815 18.6179 11.6958C18.406 11.5766 18.1743 11.517 17.9227 11.517C17.6844 11.517 17.4593 11.5766 17.2474 11.6958C17.0356 11.815 16.8502 12.0334 16.6913 12.3512C16.5324 12.6558 16.4066 13.0861 16.3139 13.6423C16.2212 14.1852 16.1749 14.887 16.1749 15.7477C16.1749 16.6083 16.2212 17.3168 16.3139 17.8729C16.4066 18.429 16.5324 18.8726 16.6913 19.2037C16.8502 19.5347 17.0356 19.7664 17.2474 19.8988C17.4593 20.018 17.6844 20.0776 17.9227 20.0776ZM23.9076 22.1035V20.4351C24.7153 19.6803 25.4502 18.9786 26.1123 18.3297C26.7876 17.6677 27.3636 17.0519 27.8403 16.4825C28.3302 15.8999 28.7076 15.3637 28.9724 14.8737C29.2505 14.3706 29.3895 13.8939 29.3895 13.4437C29.3895 12.8213 29.2306 12.3512 28.9128 12.0334C28.595 11.7024 28.1581 11.5369 27.6019 11.5369C27.1385 11.5369 26.728 11.6693 26.3705 11.9341C26.013 12.1857 25.6753 12.4837 25.3575 12.8279L23.7685 11.2588C24.3909 10.5968 25.0265 10.1002 25.6753 9.76917C26.3241 9.42489 27.0988 9.25276 27.9992 9.25276C28.6215 9.25276 29.1843 9.35207 29.6874 9.55069C30.2039 9.73607 30.6474 10.0075 31.0182 10.365C31.389 10.7093 31.6736 11.1264 31.8723 11.6163C32.0709 12.1063 32.1702 12.6558 32.1702 13.2649C32.1702 13.7945 32.0576 14.3374 31.8325 14.8936C31.6074 15.4365 31.3029 15.986 30.9189 16.5421C30.5481 17.085 30.1178 17.6346 29.6279 18.1907C29.1512 18.7336 28.6546 19.2699 28.1382 19.7995C28.456 19.7598 28.8069 19.7267 29.1909 19.7002C29.5881 19.6605 29.939 19.6406 30.2436 19.6406H32.7859V22.1035H23.9076Z" fill="#513A00"/>
</svg>
