<svg width="47" height="59" viewBox="0 0 47 59" fill="none" xmlns="http://www.w3.org/2000/svg">
<path d="M43.7675 54.5792L35.5316 51.3687L30.7854 58.767L22.5498 36.7717L35.5318 32.4443L43.7675 54.5792Z" fill="#E765FC"/>
<path d="M4.68359 54.5803L12.9195 51.3697L17.6656 58.768L24.8243 36.6331L11.8423 32.3057L4.68359 54.5803Z" fill="#E765FC"/>
<path d="M47.0001 23.1723C47.0001 25.1265 43.6499 26.5225 43.2311 28.3372C42.6727 30.1518 44.9062 33.0833 43.929 34.7584C42.9519 36.4335 39.4621 36.0147 38.0662 37.4107C36.6702 38.8066 37.089 42.2963 35.4139 43.2735C33.7388 44.2507 30.947 42.1568 28.9926 42.5756C27.1779 42.9944 25.7821 46.3446 23.8277 46.3446C21.8734 46.3446 20.4775 42.9944 18.6627 42.5756C16.848 42.0172 13.9166 44.2507 12.2415 43.2735C10.5664 42.2963 10.9852 38.8066 9.58919 37.4107C8.19323 36.0147 4.70352 36.4335 3.72634 34.7584C2.74915 33.0833 4.84303 30.2915 4.42425 28.3371C4.00548 26.5224 0.655273 25.1265 0.655273 23.1722C0.655273 21.2179 4.00548 19.822 4.42425 18.0072C4.98266 16.1925 2.74915 13.261 3.72634 11.5859C4.70352 9.91084 8.19323 10.3296 9.58919 8.93366C10.9852 7.5377 10.5664 4.04799 12.2415 3.0708C13.9166 2.09362 16.7086 4.18775 18.6629 3.76898C20.4776 3.3502 21.8736 0 23.8278 0C25.7821 0 27.178 3.3502 28.9928 3.76898C30.8075 4.32739 33.7389 2.09388 35.414 3.07106C37.0891 4.04825 36.6704 7.53796 38.0663 8.93392C39.4623 10.3299 42.952 9.91111 43.9292 11.5862C44.9064 13.2613 42.8125 16.0531 43.2313 18.0075C43.6499 19.6824 47.0001 21.2179 47.0001 23.1723Z" fill="#FFD15C"/>
<path d="M23.8264 37.1313C31.5359 37.1313 37.7856 30.8816 37.7856 23.1721C37.7856 15.4626 31.5359 9.21289 23.8264 9.21289C16.1169 9.21289 9.86719 15.4626 9.86719 23.1721C9.86719 30.8816 16.1169 37.1313 23.8264 37.1313Z" fill="#F7B64C"/>
<path d="M18.578 30.6173C17.9027 30.6173 17.287 30.4782 16.7308 30.2001C16.1747 29.9088 15.698 29.4851 15.3008 28.929C14.9168 28.3728 14.6122 27.6843 14.3871 26.8633C14.1752 26.0424 14.0693 25.0956 14.0693 24.023C14.0693 22.9505 14.1752 22.0104 14.3871 21.2026C14.6122 20.3949 14.9168 19.7196 15.3008 19.1767C15.698 18.6206 16.1747 18.2101 16.7308 17.9453C17.287 17.6672 17.9027 17.5281 18.578 17.5281C19.2533 17.5281 19.869 17.6672 20.4252 17.9453C20.9813 18.2101 21.4514 18.6206 21.8354 19.1767C22.2326 19.7196 22.5372 20.3949 22.749 21.2026C22.9741 22.0104 23.0867 22.9505 23.0867 24.023C23.0867 25.0956 22.9741 26.0424 22.749 26.8633C22.5372 27.6843 22.2326 28.3728 21.8354 28.929C21.4514 29.4851 20.9813 29.9088 20.4252 30.2001C19.869 30.4782 19.2533 30.6173 18.578 30.6173ZM18.578 28.353C18.8296 28.353 19.0613 28.2934 19.2732 28.1742C19.485 28.0418 19.6704 27.8101 19.8293 27.479C19.9882 27.148 20.1074 26.7044 20.1868 26.1483C20.2795 25.5921 20.3259 24.8837 20.3259 24.023C20.3259 23.1624 20.2795 22.4606 20.1868 21.9177C20.1074 21.3615 19.9882 20.9312 19.8293 20.6266C19.6704 20.3088 19.485 20.0904 19.2732 19.9712C19.0613 19.852 18.8296 19.7924 18.578 19.7924C18.3397 19.7924 18.1146 19.852 17.9027 19.9712C17.6908 20.0904 17.5055 20.3088 17.3466 20.6266C17.1877 20.9312 17.0619 21.3615 16.9692 21.9177C16.8765 22.4606 16.8301 23.1624 16.8301 24.023C16.8301 24.8837 16.8765 25.5921 16.9692 26.1483C17.0619 26.7044 17.1877 27.148 17.3466 27.479C17.5055 27.8101 17.6908 28.0418 17.9027 28.1742C18.1146 28.2934 18.3397 28.353 18.578 28.353ZM26.986 30.3789C27.039 29.3328 27.1317 28.3728 27.2641 27.4989C27.4097 26.6117 27.6084 25.7709 27.86 24.9764C28.1248 24.1687 28.4558 23.3808 28.8531 22.6128C29.2635 21.8448 29.7667 21.0504 30.3626 20.2294H24.7019V17.7665H33.4809V19.5541C32.7526 20.4413 32.1634 21.2755 31.7132 22.0567C31.2762 22.8247 30.932 23.6258 30.6804 24.46C30.442 25.281 30.2699 26.1681 30.164 27.1215C30.058 28.0617 29.9786 29.1475 29.9256 30.3789H26.986Z" fill="#9A720C"/>
</svg>
