<svg width="47" height="47" viewBox="0 0 47 47" fill="none" xmlns="http://www.w3.org/2000/svg">
<path d="M27.4214 38.1376H18.9248L20.373 35.0479L21.6282 32.1514H24.7179L25.9731 35.0479L27.4214 38.1376Z" fill="#2CBC4C"/>
<path d="M32.8274 38.1387H13.517C12.4549 38.1387 11.5859 39.0076 11.5859 40.0697V46.3455H34.6618V40.0697C34.7584 39.0076 33.8894 38.1387 32.8274 38.1387Z" fill="#FFD15C"/>
<path d="M25.9731 35.0488C25.2007 35.435 24.4283 35.8212 23.6558 36.1109L23.1731 36.2074L22.6903 36.0143C21.9179 35.7246 21.1455 35.3385 20.373 34.9522L21.6282 32.0557H24.6214L25.9731 35.0488Z" fill="#319747"/>
<path d="M0 5.31055V9.26919C0 18.9244 5.98624 27.2278 14.3862 30.7037C17.0897 31.8624 20.0828 32.4417 23.1725 32.4417C26.2621 32.4417 29.2553 31.8624 31.9587 30.7037C40.3587 27.2279 46.3449 18.9244 46.3449 9.26928V5.31055H0ZM42.4828 9.26919C42.4828 13.9037 40.8414 18.152 38.0414 21.5313C34.469 25.7795 29.1586 28.5796 23.1725 28.5796C17.1863 28.5796 11.8759 25.8761 8.30352 21.5313C5.60009 18.2485 3.86217 13.9037 3.86217 9.26919V9.17262H42.3862V9.26919H42.4828Z" fill="#F8B64C"/>
<path d="M38.234 0H8.10981C7.43398 0 6.95117 0.579275 6.95117 1.15864C6.95117 1.83448 7.43389 2.41384 8.10981 2.41384H38.234C38.9099 2.41384 39.3927 1.83457 39.3927 1.2552C39.3926 0.579275 38.9099 0 38.234 0Z" fill="#F8B64C"/>
<path d="M38.2345 2.41406V12.8417C38.2345 22.4968 32.2482 31.2831 23.1724 34.7589C14.0966 31.1865 8.11035 22.4968 8.11035 12.7451V2.41406H38.2345Z" fill="#FFD15C"/>
<path d="M38.1379 2.41406H8.11035V3.86229H38.1379V2.41406Z" fill="#FFC952"/>
<path d="M17.9227 22.3419C17.2474 22.3419 16.6317 22.2028 16.0756 21.9248C15.5194 21.6334 15.0427 21.2097 14.6455 20.6536C14.2615 20.0974 13.9569 19.4089 13.7318 18.5879C13.52 17.767 13.414 16.8202 13.414 15.7477C13.414 14.6751 13.52 13.735 13.7318 12.9272C13.9569 12.1195 14.2615 11.4442 14.6455 10.9013C15.0427 10.3452 15.5194 9.93469 16.0756 9.66986C16.6317 9.39179 17.2474 9.25276 17.9227 9.25276C18.598 9.25276 19.2138 9.39179 19.7699 9.66986C20.326 9.93469 20.7961 10.3452 21.1801 10.9013C21.5774 11.4442 21.8819 12.1195 22.0938 12.9272C22.3189 13.735 22.4314 14.6751 22.4314 15.7477C22.4314 16.8202 22.3189 17.767 22.0938 18.5879C21.8819 19.4089 21.5774 20.0974 21.1801 20.6536C20.7961 21.2097 20.326 21.6334 19.7699 21.9248C19.2138 22.2028 18.598 22.3419 17.9227 22.3419ZM17.9227 20.0776C18.1743 20.0776 18.406 20.018 18.6179 19.8988C18.8298 19.7664 19.0151 19.5347 19.174 19.2037C19.3329 18.8726 19.4521 18.429 19.5316 17.8729C19.6243 17.3168 19.6706 16.6083 19.6706 15.7477C19.6706 14.887 19.6243 14.1852 19.5316 13.6423C19.4521 13.0861 19.3329 12.6558 19.174 12.3512C19.0151 12.0334 18.8298 11.815 18.6179 11.6958C18.406 11.5766 18.1743 11.517 17.9227 11.517C17.6844 11.517 17.4593 11.5766 17.2474 11.6958C17.0356 11.815 16.8502 12.0334 16.6913 12.3512C16.5324 12.6558 16.4066 13.0861 16.3139 13.6423C16.2212 14.1852 16.1749 14.887 16.1749 15.7477C16.1749 16.6083 16.2212 17.3168 16.3139 17.8729C16.4066 18.429 16.5324 18.8726 16.6913 19.2037C16.8502 19.5347 17.0356 19.7664 17.2474 19.8988C17.4593 20.018 17.6844 20.0776 17.9227 20.0776ZM27.9992 22.3419C26.9663 22.3419 26.0924 22.183 25.3774 21.8652C24.6623 21.5341 24.0731 21.0972 23.6096 20.5543L24.9603 18.7071C25.3443 19.0779 25.7614 19.3824 26.2116 19.6208C26.675 19.8591 27.1782 19.9783 27.7211 19.9783C28.3434 19.9783 28.84 19.8525 29.2108 19.6009C29.5815 19.3361 29.7669 18.9653 29.7669 18.4886C29.7669 18.2106 29.7139 17.959 29.608 17.7339C29.5153 17.5088 29.3432 17.3234 29.0916 17.1777C28.84 17.0188 28.4957 16.8997 28.0588 16.8202C27.6218 16.7275 27.059 16.6812 26.3705 16.6812V14.6155C26.9399 14.6155 27.4099 14.5758 27.7807 14.4963C28.1647 14.4169 28.4692 14.3043 28.6943 14.1587C28.9327 13.9998 29.0982 13.821 29.1909 13.6224C29.2968 13.4106 29.3498 13.1788 29.3498 12.9272C29.3498 12.4903 29.2174 12.1526 28.9525 11.9143C28.6877 11.6627 28.3037 11.5369 27.8005 11.5369C27.3503 11.5369 26.9399 11.6362 26.5691 11.8348C26.2116 12.0334 25.8342 12.3049 25.437 12.6492L23.9672 10.8616C24.5498 10.3584 25.1589 9.96779 25.7945 9.68972C26.4433 9.39841 27.1583 9.25276 27.9396 9.25276C28.5884 9.25276 29.1776 9.33221 29.7073 9.4911C30.2502 9.63676 30.707 9.86186 31.0778 10.1664C31.4618 10.4577 31.7597 10.8152 31.9716 11.239C32.1834 11.6627 32.2894 12.1526 32.2894 12.7088C32.2894 13.3708 32.104 13.9336 31.7332 14.397C31.3757 14.8472 30.8593 15.218 30.184 15.5093V15.5888C30.9123 15.8006 31.5081 16.1648 31.9716 16.6812C32.4483 17.1843 32.6866 17.8464 32.6866 18.6674C32.6866 19.25 32.5608 19.773 32.3092 20.2365C32.0576 20.6867 31.72 21.0707 31.2963 21.3885C30.8725 21.693 30.376 21.9314 29.8066 22.1035C29.2372 22.2624 28.6348 22.3419 27.9992 22.3419Z" fill="#513A00"/>
</svg>
