<svg width="47" height="59" viewBox="0 0 47 59" fill="none" xmlns="http://www.w3.org/2000/svg">
<path d="M43.7675 54.5802L35.5316 51.3697L30.7854 58.768L22.5498 36.7727L35.5318 32.4453L43.7675 54.5802Z" fill="#F61E38"/>
<path d="M4.68359 54.5813L12.9195 51.3707L17.6656 58.769L24.8243 36.634L11.8423 32.3066L4.68359 54.5813Z" fill="#F61E38"/>
<path d="M47.0001 23.1723C47.0001 25.1265 43.6499 26.5225 43.2311 28.3372C42.6727 30.1518 44.9062 33.0833 43.929 34.7584C42.9519 36.4335 39.4621 36.0147 38.0662 37.4107C36.6702 38.8066 37.089 42.2963 35.4139 43.2735C33.7388 44.2507 30.947 42.1568 28.9926 42.5756C27.1779 42.9944 25.7821 46.3446 23.8277 46.3446C21.8734 46.3446 20.4775 42.9944 18.6627 42.5756C16.848 42.0172 13.9166 44.2507 12.2415 43.2735C10.5664 42.2963 10.9852 38.8066 9.58919 37.4107C8.19323 36.0147 4.70352 36.4335 3.72634 34.7584C2.74915 33.0833 4.84303 30.2915 4.42425 28.3371C4.00548 26.5224 0.655273 25.1265 0.655273 23.1722C0.655273 21.2179 4.00548 19.822 4.42425 18.0072C4.98266 16.1925 2.74915 13.261 3.72634 11.5859C4.70352 9.91084 8.19323 10.3296 9.58919 8.93366C10.9852 7.5377 10.5664 4.04799 12.2415 3.0708C13.9166 2.09362 16.7086 4.18775 18.6629 3.76898C20.4776 3.3502 21.8736 0 23.8278 0C25.7821 0 27.178 3.3502 28.9928 3.76898C30.8075 4.32739 33.7389 2.09388 35.414 3.07106C37.0891 4.04825 36.6704 7.53796 38.0663 8.93392C39.4623 10.3299 42.952 9.91111 43.9292 11.5862C44.9064 13.2613 42.8125 16.0531 43.2313 18.0075C43.6499 19.6824 47.0001 21.2179 47.0001 23.1723Z" fill="#FFD15C"/>
<path d="M23.8264 37.1323C31.5359 37.1323 37.7856 30.8826 37.7856 23.1731C37.7856 15.4636 31.5359 9.21387 23.8264 9.21387C16.1169 9.21387 9.86719 15.4636 9.86719 23.1731C9.86719 30.8826 16.1169 37.1323 23.8264 37.1323Z" fill="#F7B64C"/>
<path d="M18.578 30.6182C17.9027 30.6182 17.287 30.4792 16.7308 30.2011C16.1747 29.9098 15.698 29.4861 15.3008 28.93C14.9168 28.3738 14.6122 27.6853 14.3871 26.8643C14.1752 26.0433 14.0693 25.0966 14.0693 24.024C14.0693 22.9515 14.1752 22.0113 14.3871 21.2036C14.6122 20.3959 14.9168 19.7206 15.3008 19.1777C15.698 18.6215 16.1747 18.2111 16.7308 17.9462C17.287 17.6682 17.9027 17.5291 18.578 17.5291C19.2533 17.5291 19.869 17.6682 20.4252 17.9462C20.9813 18.2111 21.4514 18.6215 21.8354 19.1777C22.2326 19.7206 22.5372 20.3959 22.749 21.2036C22.9741 22.0113 23.0867 22.9515 23.0867 24.024C23.0867 25.0966 22.9741 26.0433 22.749 26.8643C22.5372 27.6853 22.2326 28.3738 21.8354 28.93C21.4514 29.4861 20.9813 29.9098 20.4252 30.2011C19.869 30.4792 19.2533 30.6182 18.578 30.6182ZM18.578 28.354C18.8296 28.354 19.0613 28.2944 19.2732 28.1752C19.485 28.0428 19.6704 27.8111 19.8293 27.48C19.9882 27.149 20.1074 26.7054 20.1868 26.1493C20.2795 25.5931 20.3259 24.8847 20.3259 24.024C20.3259 23.1633 20.2795 22.4615 20.1868 21.9186C20.1074 21.3625 19.9882 20.9322 19.8293 20.6276C19.6704 20.3098 19.485 20.0913 19.2732 19.9722C19.0613 19.853 18.8296 19.7934 18.578 19.7934C18.3397 19.7934 18.1146 19.853 17.9027 19.9722C17.6908 20.0913 17.5055 20.3098 17.3466 20.6276C17.1877 20.9322 17.0619 21.3625 16.9692 21.9186C16.8765 22.4615 16.8301 23.1633 16.8301 24.024C16.8301 24.8847 16.8765 25.5931 16.9692 26.1493C17.0619 26.7054 17.1877 27.149 17.3466 27.48C17.5055 27.8111 17.6908 28.0428 17.9027 28.1752C18.1146 28.2944 18.3397 28.354 18.578 28.354ZM28.7339 30.6182C27.7011 30.6182 26.8271 30.4527 26.1121 30.1217C25.3971 29.7774 24.788 29.3537 24.2848 28.8505L25.5957 27.0033C25.9797 27.3476 26.3902 27.6455 26.8271 27.8971C27.2773 28.1355 27.7739 28.2546 28.3168 28.2546C28.9656 28.2546 29.482 28.0891 29.866 27.7581C30.25 27.4271 30.442 26.9371 30.442 26.2883C30.442 25.6527 30.2566 25.1694 29.8859 24.8384C29.5284 24.5073 29.0517 24.3418 28.4558 24.3418C28.2704 24.3418 28.1049 24.3551 27.9593 24.3815C27.8136 24.3948 27.668 24.4279 27.5223 24.4808C27.3899 24.5338 27.2442 24.6 27.0853 24.6795C26.9397 24.7589 26.7742 24.8582 26.5888 24.9774L25.2779 24.1432L25.6354 17.7675H32.7857V20.2304H28.1579L27.9394 22.594C28.1777 22.488 28.4029 22.4152 28.6147 22.3755C28.8398 22.3225 29.0848 22.296 29.3496 22.296C29.8925 22.296 30.4023 22.3755 30.879 22.5344C31.3689 22.6933 31.7993 22.9316 32.17 23.2494C32.5408 23.5672 32.8321 23.9711 33.044 24.461C33.2558 24.9509 33.3617 25.5335 33.3617 26.2088C33.3617 26.9106 33.236 27.533 32.9844 28.0759C32.7328 28.6188 32.3951 29.0822 31.9714 29.4662C31.5477 29.837 31.0511 30.1217 30.4817 30.3203C29.9256 30.5189 29.343 30.6182 28.7339 30.6182Z" fill="#9A720C"/>
</svg>
