<svg width="47" height="59" viewBox="0 0 47 59" fill="none" xmlns="http://www.w3.org/2000/svg">
<path d="M43.7675 54.5802L35.5316 51.3697L30.7854 58.768L22.5498 36.7727L35.5318 32.4453L43.7675 54.5802Z" fill="#9ADD66"/>
<path d="M4.68359 54.5813L12.9195 51.3707L17.6656 58.769L24.8243 36.634L11.8423 32.3066L4.68359 54.5813Z" fill="#9ADD66"/>
<path d="M47.0001 23.1723C47.0001 25.1265 43.6499 26.5225 43.2311 28.3372C42.6727 30.1518 44.9062 33.0833 43.929 34.7584C42.9519 36.4335 39.4621 36.0147 38.0662 37.4107C36.6702 38.8066 37.089 42.2963 35.4139 43.2735C33.7388 44.2507 30.947 42.1568 28.9926 42.5756C27.1779 42.9944 25.7821 46.3446 23.8277 46.3446C21.8734 46.3446 20.4775 42.9944 18.6627 42.5756C16.848 42.0172 13.9166 44.2507 12.2415 43.2735C10.5664 42.2963 10.9852 38.8066 9.58919 37.4107C8.19323 36.0147 4.70352 36.4335 3.72634 34.7584C2.74915 33.0833 4.84303 30.2915 4.42425 28.3371C4.00548 26.5224 0.655273 25.1265 0.655273 23.1722C0.655273 21.2179 4.00548 19.822 4.42425 18.0072C4.98266 16.1925 2.74915 13.261 3.72634 11.5859C4.70352 9.91084 8.19323 10.3296 9.58919 8.93366C10.9852 7.5377 10.5664 4.04799 12.2415 3.0708C13.9166 2.09362 16.7086 4.18775 18.6629 3.76898C20.4776 3.3502 21.8736 0 23.8278 0C25.7821 0 27.178 3.3502 28.9928 3.76898C30.8075 4.32739 33.7389 2.09388 35.414 3.07106C37.0891 4.04825 36.6704 7.53796 38.0663 8.93392C39.4623 10.3299 42.952 9.91111 43.9292 11.5862C44.9064 13.2613 42.8125 16.0531 43.2313 18.0075C43.6499 19.6824 47.0001 21.2179 47.0001 23.1723Z" fill="#FFD15C"/>
<path d="M23.8264 37.1323C31.5359 37.1323 37.7856 30.8826 37.7856 23.1731C37.7856 15.4636 31.5359 9.21387 23.8264 9.21387C16.1169 9.21387 9.86719 15.4636 9.86719 23.1731C9.86719 30.8826 16.1169 37.1323 23.8264 37.1323Z" fill="#F7B64C"/>
<path d="M14.7248 30.3799V28.0163H17.4657V20.7269H15.1021V18.9195C15.7907 18.7871 16.3733 18.6282 16.85 18.4428C17.3267 18.2574 17.7901 18.0323 18.2404 17.7675H20.3855V28.0163H22.749V30.3799H14.7248ZM29.0715 30.6182C28.3962 30.6182 27.7805 30.4792 27.2244 30.2011C26.6682 29.9098 26.1915 29.4861 25.7943 28.93C25.4103 28.3738 25.1057 27.6853 24.8806 26.8643C24.6688 26.0433 24.5629 25.0966 24.5629 24.024C24.5629 22.9515 24.6688 22.0113 24.8806 21.2036C25.1057 20.3959 25.4103 19.7206 25.7943 19.1777C26.1915 18.6215 26.6682 18.2111 27.2244 17.9462C27.7805 17.6682 28.3962 17.5291 29.0715 17.5291C29.7469 17.5291 30.3626 17.6682 30.9187 17.9462C31.4749 18.2111 31.9449 18.6215 32.3289 19.1777C32.7262 19.7206 33.0307 20.3959 33.2426 21.2036C33.4677 22.0113 33.5802 22.9515 33.5802 24.024C33.5802 25.0966 33.4677 26.0433 33.2426 26.8643C33.0307 27.6853 32.7262 28.3738 32.3289 28.93C31.9449 29.4861 31.4749 29.9098 30.9187 30.2011C30.3626 30.4792 29.7469 30.6182 29.0715 30.6182ZM29.0715 28.354C29.3231 28.354 29.5549 28.2944 29.7667 28.1752C29.9786 28.0428 30.164 27.8111 30.3229 27.48C30.4817 27.149 30.6009 26.7054 30.6804 26.1493C30.7731 25.5931 30.8194 24.8847 30.8194 24.024C30.8194 23.1633 30.7731 22.4615 30.6804 21.9186C30.6009 21.3625 30.4817 20.9322 30.3229 20.6276C30.164 20.3098 29.9786 20.0913 29.7667 19.9722C29.5549 19.853 29.3231 19.7934 29.0715 19.7934C28.8332 19.7934 28.6081 19.853 28.3962 19.9722C28.1844 20.0913 27.999 20.3098 27.8401 20.6276C27.6812 20.9322 27.5554 21.3625 27.4627 21.9186C27.37 22.4615 27.3237 23.1633 27.3237 24.024C27.3237 24.8847 27.37 25.5931 27.4627 26.1493C27.5554 26.7054 27.6812 27.149 27.8401 27.48C27.999 27.8111 28.1844 28.0428 28.3962 28.1752C28.6081 28.2944 28.8332 28.354 29.0715 28.354Z" fill="#9A720C"/>
</svg>
