<svg width="47" height="59" viewBox="0 0 47 59" fill="none" xmlns="http://www.w3.org/2000/svg">
<path d="M43.7675 54.5802L35.5316 51.3697L30.7854 58.768L22.5498 36.7727L35.5318 32.4453L43.7675 54.5802Z" fill="#17D1EB"/>
<path d="M4.68359 54.5803L12.9195 51.3697L17.6656 58.768L24.8243 36.6331L11.8423 32.3057L4.68359 54.5803Z" fill="#17D1EB"/>
<path d="M47.0001 23.1723C47.0001 25.1265 43.6499 26.5225 43.2311 28.3372C42.6727 30.1518 44.9062 33.0833 43.929 34.7584C42.9519 36.4335 39.4621 36.0147 38.0662 37.4107C36.6702 38.8066 37.089 42.2963 35.4139 43.2735C33.7388 44.2507 30.947 42.1568 28.9926 42.5756C27.1779 42.9944 25.7821 46.3446 23.8277 46.3446C21.8734 46.3446 20.4775 42.9944 18.6627 42.5756C16.848 42.0172 13.9166 44.2507 12.2415 43.2735C10.5664 42.2963 10.9852 38.8066 9.58919 37.4107C8.19323 36.0147 4.70352 36.4335 3.72634 34.7584C2.74915 33.0833 4.84303 30.2915 4.42425 28.3371C4.00548 26.5224 0.655273 25.1265 0.655273 23.1722C0.655273 21.2179 4.00548 19.822 4.42425 18.0072C4.98266 16.1925 2.74915 13.261 3.72634 11.5859C4.70352 9.91084 8.19323 10.3296 9.58919 8.93366C10.9852 7.5377 10.5664 4.04799 12.2415 3.0708C13.9166 2.09362 16.7086 4.18775 18.6629 3.76898C20.4776 3.3502 21.8736 0 23.8278 0C25.7821 0 27.178 3.3502 28.9928 3.76898C30.8075 4.32739 33.7389 2.09388 35.414 3.07106C37.0891 4.04825 36.6704 7.53796 38.0663 8.93392C39.4623 10.3299 42.952 9.91111 43.9292 11.5862C44.9064 13.2613 42.8125 16.0531 43.2313 18.0075C43.6499 19.6824 47.0001 21.2179 47.0001 23.1723Z" fill="#FFD15C"/>
<path d="M23.8264 37.1323C31.5359 37.1323 37.7856 30.8826 37.7856 23.1731C37.7856 15.4636 31.5359 9.21387 23.8264 9.21387C16.1169 9.21387 9.86719 15.4636 9.86719 23.1731C9.86719 30.8826 16.1169 37.1323 23.8264 37.1323Z" fill="#F7B64C"/>
<path d="M18.578 30.6182C17.9027 30.6182 17.287 30.4792 16.7308 30.2011C16.1747 29.9098 15.698 29.4861 15.3008 28.93C14.9168 28.3738 14.6122 27.6853 14.3871 26.8643C14.1752 26.0433 14.0693 25.0966 14.0693 24.024C14.0693 22.9515 14.1752 22.0113 14.3871 21.2036C14.6122 20.3959 14.9168 19.7206 15.3008 19.1777C15.698 18.6215 16.1747 18.2111 16.7308 17.9462C17.287 17.6682 17.9027 17.5291 18.578 17.5291C19.2533 17.5291 19.869 17.6682 20.4252 17.9462C20.9813 18.2111 21.4514 18.6215 21.8354 19.1777C22.2326 19.7206 22.5372 20.3959 22.749 21.2036C22.9741 22.0113 23.0867 22.9515 23.0867 24.024C23.0867 25.0966 22.9741 26.0433 22.749 26.8643C22.5372 27.6853 22.2326 28.3738 21.8354 28.93C21.4514 29.4861 20.9813 29.9098 20.4252 30.2011C19.869 30.4792 19.2533 30.6182 18.578 30.6182ZM18.578 28.354C18.8296 28.354 19.0613 28.2944 19.2732 28.1752C19.485 28.0428 19.6704 27.8111 19.8293 27.48C19.9882 27.149 20.1074 26.7054 20.1868 26.1493C20.2795 25.5931 20.3259 24.8847 20.3259 24.024C20.3259 23.1633 20.2795 22.4615 20.1868 21.9186C20.1074 21.3625 19.9882 20.9322 19.8293 20.6276C19.6704 20.3098 19.485 20.0913 19.2732 19.9722C19.0613 19.853 18.8296 19.7934 18.578 19.7934C18.3397 19.7934 18.1146 19.853 17.9027 19.9722C17.6908 20.0913 17.5055 20.3098 17.3466 20.6276C17.1877 20.9322 17.0619 21.3625 16.9692 21.9186C16.8765 22.4615 16.8301 23.1633 16.8301 24.024C16.8301 24.8847 16.8765 25.5931 16.9692 26.1493C17.0619 26.7054 17.1877 27.149 17.3466 27.48C17.5055 27.8111 17.6908 28.0428 17.9027 28.1752C18.1146 28.2944 18.3397 28.354 18.578 28.354ZM28.8332 23.5871C29.1642 23.5871 29.4953 23.4944 29.8263 23.309C30.1706 23.1104 30.4685 22.786 30.7201 22.3357C30.5877 21.3426 30.3361 20.6607 29.9653 20.29C29.6078 19.906 29.204 19.714 28.7537 19.714C28.33 19.714 27.9593 19.8795 27.6415 20.2105C27.3237 20.5283 27.1648 21.0447 27.1648 21.7597C27.1648 22.4351 27.3237 22.9117 27.6415 23.1898C27.9593 23.4546 28.3565 23.5871 28.8332 23.5871ZM28.3764 30.6182C27.5422 30.6182 26.8139 30.466 26.1915 30.1614C25.5824 29.8568 25.0793 29.506 24.682 29.1087L26.2313 27.3608C26.4431 27.5992 26.7278 27.8111 27.0853 27.9964C27.4429 28.1686 27.807 28.2546 28.1777 28.2546C28.5353 28.2546 28.8663 28.1884 29.1709 28.056C29.4754 27.9236 29.7402 27.7051 29.9653 27.4006C30.2037 27.0828 30.3891 26.6789 30.5215 26.189C30.6671 25.6858 30.7532 25.0635 30.7797 24.322C30.6208 24.5338 30.4354 24.7258 30.2235 24.898C30.0117 25.0568 29.7932 25.1959 29.5681 25.3151C29.343 25.421 29.1179 25.5071 28.8928 25.5733C28.6677 25.6262 28.4558 25.6527 28.2572 25.6527C27.7143 25.6527 27.2111 25.5733 26.7477 25.4144C26.2975 25.2555 25.9069 25.0171 25.5758 24.6993C25.2448 24.3815 24.98 23.9777 24.7813 23.4877C24.596 22.9978 24.5033 22.4218 24.5033 21.7597C24.5033 21.1109 24.6158 20.5283 24.8409 20.0119C25.066 19.4822 25.364 19.032 25.7347 18.6613C26.1187 18.2905 26.5623 18.0124 27.0655 17.8271C27.5819 17.6284 28.1248 17.5291 28.6942 17.5291C29.3033 17.5291 29.8925 17.6483 30.4619 17.8866C31.0445 18.125 31.5543 18.4957 31.9913 18.9989C32.4415 19.5021 32.799 20.1509 33.0638 20.9454C33.3419 21.7266 33.4809 22.6734 33.4809 23.7857C33.4809 24.9642 33.3353 25.9837 33.044 26.8444C32.7659 27.7051 32.3885 28.4135 31.9118 28.9697C31.4484 29.5258 30.9055 29.9429 30.2831 30.221C29.674 30.4858 29.0384 30.6182 28.3764 30.6182Z" fill="#9A720C"/>
</svg>
