<svg width="47" height="59" viewBox="0 0 47 59" fill="none" xmlns="http://www.w3.org/2000/svg">
<path d="M43.7675 54.5792L35.5316 51.3687L30.7854 58.767L22.5498 36.7717L35.5318 32.4443L43.7675 54.5792Z" fill="#FF9737"/>
<path d="M4.68359 54.5803L12.9195 51.3697L17.6656 58.768L24.8243 36.6331L11.8423 32.3057L4.68359 54.5803Z" fill="#FF9737"/>
<path d="M47.0001 23.1723C47.0001 25.1265 43.6499 26.5225 43.2311 28.3372C42.6727 30.1518 44.9062 33.0833 43.929 34.7584C42.9519 36.4335 39.4621 36.0147 38.0662 37.4107C36.6702 38.8066 37.089 42.2963 35.4139 43.2735C33.7388 44.2507 30.947 42.1568 28.9926 42.5756C27.1779 42.9944 25.7821 46.3446 23.8277 46.3446C21.8734 46.3446 20.4775 42.9944 18.6627 42.5756C16.848 42.0172 13.9166 44.2507 12.2415 43.2735C10.5664 42.2963 10.9852 38.8066 9.58919 37.4107C8.19323 36.0147 4.70352 36.4335 3.72634 34.7584C2.74915 33.0833 4.84303 30.2915 4.42425 28.3371C4.00548 26.5224 0.655273 25.1265 0.655273 23.1722C0.655273 21.2179 4.00548 19.822 4.42425 18.0072C4.98266 16.1925 2.74915 13.261 3.72634 11.5859C4.70352 9.91084 8.19323 10.3296 9.58919 8.93366C10.9852 7.5377 10.5664 4.04799 12.2415 3.0708C13.9166 2.09362 16.7086 4.18775 18.6629 3.76898C20.4776 3.3502 21.8736 0 23.8278 0C25.7821 0 27.178 3.3502 28.9928 3.76898C30.8075 4.32739 33.7389 2.09388 35.414 3.07106C37.0891 4.04825 36.6704 7.53796 38.0663 8.93392C39.4623 10.3299 42.952 9.91111 43.9292 11.5862C44.9064 13.2613 42.8125 16.0531 43.2313 18.0075C43.6499 19.6824 47.0001 21.2179 47.0001 23.1723Z" fill="#FFD15C"/>
<path d="M23.8264 37.1323C31.5359 37.1323 37.7856 30.8826 37.7856 23.1731C37.7856 15.4636 31.5359 9.21387 23.8264 9.21387C16.1169 9.21387 9.86719 15.4636 9.86719 23.1731C9.86719 30.8826 16.1169 37.1323 23.8264 37.1323Z" fill="#F7B64C"/>
<path d="M18.578 30.6173C17.9027 30.6173 17.287 30.4782 16.7308 30.2001C16.1747 29.9088 15.698 29.4851 15.3008 28.929C14.9168 28.3728 14.6122 27.6843 14.3871 26.8633C14.1752 26.0424 14.0693 25.0956 14.0693 24.023C14.0693 22.9505 14.1752 22.0104 14.3871 21.2026C14.6122 20.3949 14.9168 19.7196 15.3008 19.1767C15.698 18.6206 16.1747 18.2101 16.7308 17.9453C17.287 17.6672 17.9027 17.5281 18.578 17.5281C19.2533 17.5281 19.869 17.6672 20.4252 17.9453C20.9813 18.2101 21.4514 18.6206 21.8354 19.1767C22.2326 19.7196 22.5372 20.3949 22.749 21.2026C22.9741 22.0104 23.0867 22.9505 23.0867 24.023C23.0867 25.0956 22.9741 26.0424 22.749 26.8633C22.5372 27.6843 22.2326 28.3728 21.8354 28.929C21.4514 29.4851 20.9813 29.9088 20.4252 30.2001C19.869 30.4782 19.2533 30.6173 18.578 30.6173ZM18.578 28.353C18.8296 28.353 19.0613 28.2934 19.2732 28.1742C19.485 28.0418 19.6704 27.8101 19.8293 27.479C19.9882 27.148 20.1074 26.7044 20.1868 26.1483C20.2795 25.5921 20.3259 24.8837 20.3259 24.023C20.3259 23.1624 20.2795 22.4606 20.1868 21.9177C20.1074 21.3615 19.9882 20.9312 19.8293 20.6266C19.6704 20.3088 19.485 20.0904 19.2732 19.9712C19.0613 19.852 18.8296 19.7924 18.578 19.7924C18.3397 19.7924 18.1146 19.852 17.9027 19.9712C17.6908 20.0904 17.5055 20.3088 17.3466 20.6266C17.1877 20.9312 17.0619 21.3615 16.9692 21.9177C16.8765 22.4606 16.8301 23.1624 16.8301 24.023C16.8301 24.8837 16.8765 25.5921 16.9692 26.1483C17.0619 26.7044 17.1877 27.148 17.3466 27.479C17.5055 27.8101 17.6908 28.0418 17.9027 28.1742C18.1146 28.2934 18.3397 28.353 18.578 28.353ZM29.0517 30.6173C28.4161 30.6173 27.8269 30.5378 27.284 30.3789C26.7543 30.2068 26.2909 29.9684 25.8936 29.6639C25.5096 29.3593 25.2051 28.9952 24.98 28.5715C24.7681 28.1477 24.6622 27.6777 24.6622 27.1613C24.6622 26.3933 24.8674 25.7643 25.2779 25.2744C25.7016 24.7844 26.2114 24.3806 26.8073 24.0628V23.9833C26.3173 23.6126 25.9135 23.1955 25.5957 22.732C25.2779 22.2553 25.119 21.6793 25.119 21.004C25.119 20.4744 25.2183 19.9977 25.4169 19.5739C25.6155 19.137 25.8936 18.7662 26.2511 18.4617C26.6086 18.1571 27.0324 17.9254 27.5223 17.7665C28.0255 17.6076 28.5684 17.5281 29.151 17.5281C29.7204 17.5281 30.2434 17.6142 30.7201 17.7864C31.1968 17.9453 31.6006 18.177 31.9317 18.4815C32.2627 18.7728 32.5209 19.137 32.7063 19.5739C32.8917 19.9977 32.9844 20.4677 32.9844 20.9841C32.9844 21.5933 32.8189 22.1361 32.4878 22.6128C32.1568 23.0763 31.7728 23.4537 31.3358 23.745V23.8244C31.9449 24.1555 32.4613 24.5792 32.8851 25.0956C33.3088 25.612 33.5206 26.2873 33.5206 27.1215C33.5206 27.6247 33.4147 28.0881 33.2029 28.5119C32.991 28.9356 32.6864 29.3064 32.2892 29.6241C31.9052 29.9287 31.4351 30.1737 30.879 30.359C30.3361 30.5312 29.727 30.6173 29.0517 30.6173ZM29.8462 23.0299C30.3626 22.4341 30.6208 21.8184 30.6208 21.1828C30.6208 20.6928 30.4817 20.3022 30.2037 20.0109C29.9389 19.7064 29.5681 19.5541 29.0914 19.5541C28.7074 19.5541 28.3764 19.6733 28.0983 19.9116C27.8202 20.1499 27.6812 20.5141 27.6812 21.004C27.6812 21.5204 27.8798 21.9243 28.2771 22.2156C28.6743 22.5069 29.1973 22.7784 29.8462 23.0299ZM29.1113 28.5913C29.6012 28.5913 30.0051 28.4655 30.3229 28.2139C30.6406 27.9491 30.7995 27.5519 30.7995 27.0222C30.7995 26.7441 30.7333 26.5058 30.6009 26.3072C30.4817 26.1086 30.303 25.9298 30.0646 25.7709C29.8263 25.5988 29.5416 25.4399 29.2106 25.2942C28.8928 25.1486 28.5353 24.9897 28.138 24.8175C27.86 25.0824 27.6282 25.3869 27.4429 25.7312C27.2575 26.0755 27.1648 26.4396 27.1648 26.8236C27.1648 27.3797 27.3568 27.8167 27.7408 28.1345C28.1248 28.439 28.5816 28.5913 29.1113 28.5913Z" fill="#9A720C"/>
</svg>
