<svg width="15" height="15" viewBox="0 0 15 15" fill="none" xmlns="http://www.w3.org/2000/svg">
<path d="M14.375 6.25C14.5573 6.25 14.7005 6.3151 14.8047 6.44531C14.9349 6.54948 15 6.69271 15 6.875V8.125C15 8.30729 14.9349 8.46354 14.8047 8.59375C14.7005 8.69792 14.5573 8.75 14.375 8.75H8.75V14.375C8.75 14.5573 8.6849 14.7135 8.55469 14.8438C8.45052 14.9479 8.30729 15 8.125 15H6.875C6.69271 15 6.53646 14.9479 6.40625 14.8438C6.30208 14.7135 6.25 14.5573 6.25 14.375V8.75H0.625C0.442708 8.75 0.286458 8.69792 0.15625 8.59375C0.0520833 8.46354 0 8.30729 0 8.125V6.875C0 6.69271 0.0520833 6.54948 0.15625 6.44531C0.286458 6.3151 0.442708 6.25 0.625 6.25H6.25V0.625C6.25 0.442708 6.30208 0.299479 6.40625 0.195312C6.53646 0.0651042 6.69271 0 6.875 0H8.125C8.30729 0 8.45052 0.0651042 8.55469 0.195312C8.6849 0.299479 8.75 0.442708 8.75 0.625V6.25H14.375Z" fill="#0563AB"/>
</svg>
