<svg width="16" height="16" viewBox="0 0 16 16" fill="none" xmlns="http://www.w3.org/2000/svg">
<path d="M2.5 2.53125C4.02083 1.01042 5.85417 0.25 8 0.25C10.1458 0.25 11.9688 1.01042 13.4688 2.53125C14.9896 4.03125 15.75 5.85417 15.75 8C15.75 10.1458 14.9896 11.9792 13.4688 13.5C11.9688 15 10.1458 15.75 8 15.75C5.85417 15.75 4.02083 15 2.5 13.5C1 11.9792 0.25 10.1458 0.25 8C0.25 5.85417 1 4.03125 2.5 2.53125ZM12.5 8.875V7.125C12.5 6.875 12.375 6.75 12.125 6.75H9.25V3.875C9.25 3.625 9.125 3.5 8.875 3.5H7.125C6.875 3.5 6.75 3.625 6.75 3.875V6.75H3.875C3.625 6.75 3.5 6.875 3.5 7.125V8.875C3.5 9.125 3.625 9.25 3.875 9.25H6.75V12.125C6.75 12.375 6.875 12.5 7.125 12.5H8.875C9.125 12.5 9.25 12.375 9.25 12.125V9.25H12.125C12.375 9.25 12.5 9.125 12.5 8.875Z" fill="#F59120"/>
</svg>
