<svg width="36" height="32" viewBox="0 0 36 32" fill="none" xmlns="http://www.w3.org/2000/svg">
<path d="M33.8104 31.4654H17.7699H2.19043V12.3623L18.0004 11.4111L33.8104 12.3623V31.4654Z" fill="#FFE08C"/>
<path d="M16.0499 4.83177L17.0011 3.89381L16.0499 2.9718C16.0499 2.9718 12.6511 -0.874741 9.90483 0.184549C8.18522 0.847833 8.23637 3.13276 8.54402 4.83177L12.297 5.78294L16.0499 4.83177Z" fill="#F7594E"/>
<path d="M9.05499 6.79568L12.4611 7.74685L16.0519 6.79568L17.0031 5.81385L16.0519 4.83203H8.5459C8.74617 5.93793 9.05499 6.79568 9.05499 6.79568Z" fill="#EA4642"/>
<path d="M19.9482 4.83177L18.9971 3.89381L19.9482 2.9718C19.9482 2.9718 23.3471 -0.874741 26.0933 0.184549C27.813 0.847833 27.7618 3.13276 27.4542 4.83177L23.7011 5.78294L19.9482 4.83177Z" fill="#F7594E"/>
<path d="M26.9452 6.79568L23.539 7.74685L19.9482 6.79568L18.9971 5.81385L19.9482 4.83203H27.4543C27.254 5.93793 26.9452 6.79568 26.9452 6.79568Z" fill="#EA4642"/>
<path d="M19.9481 4.83067V2.9707H16.0508V4.83067L17.9994 5.78184L19.9481 4.83067Z" fill="#CB3541"/>
<path d="M16.0508 6.79578L17.9994 7.74695L19.9481 6.79578V4.83203H16.0508V6.79578Z" fill="#BA3243"/>
<path d="M1.63496 11.3498H34.365C35.268 11.3498 36 10.3986 36 8.76366V8.43086C36 7.52788 35.268 6.7959 34.365 6.7959H1.63496C0.731981 6.7959 0 7.52788 0 8.43086V8.76366C0 10.3986 0.731981 11.3498 1.63496 11.3498Z" fill="#FFE08C"/>
<path d="M34.365 10.3977H1.63496C0.731981 10.3977 0 9.66568 0 8.7627V10.7264C0 11.6294 0.731981 12.3614 1.63496 12.3614H15.1538L18 11.4102L20.8462 12.3614H34.365C35.268 12.3614 36 11.6294 36 10.7264V8.7627C36.0001 9.66557 35.268 10.3977 34.365 10.3977Z" fill="#F9D375"/>
<path d="M20.2352 31.5648V12.3623L17.9995 11.4111L15.7637 12.3623V31.5648H20.2352Z" fill="#F7594E"/>
<path d="M20.8468 6.7959H15.1543V10.3987L18.0005 11.3499L20.8468 10.3987V6.7959Z" fill="#F7594E"/>
<path d="M15.1543 10.3965H20.8468V12.3602H15.1543V10.3965Z" fill="#EA4642"/>
</svg>
