<svg width="47" height="59" viewBox="0 0 47 59" fill="none" xmlns="http://www.w3.org/2000/svg">
<path d="M43.1123 54.5802L34.8763 51.3697L30.1301 58.768L21.8945 36.7727L34.8766 32.4453L43.1123 54.5802Z" fill="#F61E38"/>
<path d="M4.02832 54.5813L12.2642 51.3707L17.0104 58.769L24.169 36.634L11.187 32.3066L4.02832 54.5813Z" fill="#F61E38"/>
<path d="M46.3448 23.1723C46.3448 25.1265 42.9946 26.5225 42.5758 28.3372C42.0174 30.1518 44.251 33.0833 43.2738 34.7584C42.2966 36.4335 38.8069 36.0147 37.4109 37.4107C36.0149 38.8066 36.4337 42.2963 34.7586 43.2735C33.0835 44.2507 30.2917 42.1568 28.3374 42.5756C26.5226 42.9944 25.1268 46.3446 23.1724 46.3446C21.2182 46.3446 19.8222 42.9944 18.0075 42.5756C16.1927 42.0172 13.2613 44.2507 11.5862 43.2735C9.91111 42.2963 10.3299 38.8066 8.93392 37.4107C7.53796 36.0147 4.04825 36.4335 3.07106 34.7584C2.09388 33.0833 4.18775 30.2915 3.76898 28.3371C3.3502 26.5224 0 25.1265 0 23.1722C0 21.2179 3.3502 19.822 3.76898 18.0072C4.32739 16.1925 2.09388 13.261 3.07106 11.5859C4.04825 9.91084 7.53796 10.3296 8.93392 8.93366C10.3299 7.5377 9.91111 4.04799 11.5862 3.0708C13.2613 2.09362 16.0534 4.18775 18.0076 3.76898C19.8223 3.3502 21.2183 0 23.1725 0C25.1268 0 26.5227 3.3502 28.3375 3.76898C30.1522 4.32739 33.0836 2.09388 34.7588 3.07106C36.4339 4.04825 36.0151 7.53796 37.411 8.93392C38.807 10.3299 42.2967 9.91111 43.2739 11.5862C44.2511 13.2613 42.1572 16.0531 42.576 18.0075C42.9946 19.6824 46.3448 21.2179 46.3448 23.1723Z" fill="#FFD15C"/>
<path d="M23.1711 37.1323C30.8806 37.1323 37.1304 30.8826 37.1304 23.1731C37.1304 15.4636 30.8806 9.21387 23.1711 9.21387C15.4617 9.21387 9.21191 15.4636 9.21191 23.1731C9.21191 30.8826 15.4617 37.1323 23.1711 37.1323Z" fill="#F7B64C"/>
<path d="M21.6478 26.1438C21.5678 25.6318 21.5838 25.1598 21.6958 24.7278C21.8078 24.2958 21.9678 23.9038 22.1758 23.5518C22.3998 23.1838 22.6478 22.8478 22.9198 22.5438C23.2078 22.2398 23.4718 21.9518 23.7118 21.6798C23.9518 21.4078 24.1518 21.1518 24.3118 20.9118C24.4878 20.6558 24.5758 20.3998 24.5758 20.1438C24.5758 19.7118 24.4398 19.4078 24.1678 19.2318C23.9118 19.0398 23.5998 18.9438 23.2318 18.9438C22.8158 18.9438 22.4638 19.0398 22.1758 19.2318C21.8878 19.4238 21.5838 19.6638 21.2638 19.9518L19.0078 17.8878C19.5998 17.2158 20.2958 16.6718 21.0958 16.2558C21.9118 15.8398 22.7998 15.6318 23.7598 15.6318C24.4158 15.6318 25.0318 15.7118 25.6078 15.8718C26.1838 16.0318 26.6878 16.2798 27.1198 16.6158C27.5518 16.9518 27.8878 17.3918 28.1278 17.9358C28.3838 18.4638 28.5118 19.1038 28.5118 19.8558C28.5118 20.3358 28.4238 20.7678 28.2478 21.1518C28.0718 21.5198 27.8558 21.8638 27.5998 22.1838C27.3598 22.5038 27.0878 22.8078 26.7838 23.0958C26.4958 23.3838 26.2318 23.6798 25.9918 23.9838C25.7518 24.2878 25.5518 24.6158 25.3918 24.9678C25.2478 25.3198 25.1998 25.7118 25.2478 26.1438H21.6478ZM23.4238 32.2878C22.7198 32.2878 22.1438 32.0478 21.6958 31.5678C21.2478 31.0878 21.0238 30.4958 21.0238 29.7918C21.0238 29.0878 21.2478 28.4958 21.6958 28.0158C22.1438 27.5358 22.7198 27.2958 23.4238 27.2958C24.1278 27.2958 24.7038 27.5358 25.1518 28.0158C25.5998 28.4958 25.8238 29.0878 25.8238 29.7918C25.8238 30.4958 25.5998 31.0878 25.1518 31.5678C24.7038 32.0478 24.1278 32.2878 23.4238 32.2878Z" fill="black"/>
</svg>
