<svg width="21" height="21" viewBox="0 0 21 21" fill="none" xmlns="http://www.w3.org/2000/svg">
<path d="M10.5 16.5498C11.0663 16.5498 11.5254 16.0907 11.5254 15.5244C11.5254 14.9581 11.0663 14.499 10.5 14.499C9.93369 14.499 9.47461 14.9581 9.47461 15.5244C9.47461 16.0907 9.93369 16.5498 10.5 16.5498Z" fill="#0563AB"/>
<path d="M10.5 0C4.69695 0 0 4.69617 0 10.5C0 16.3031 4.69617 21 10.5 21C16.3031 21 21 16.3038 21 10.5C21 4.69695 16.3038 0 10.5 0ZM10.5 19.3594C5.60368 19.3594 1.64062 15.397 1.64062 10.5C1.64062 5.60368 5.60302 1.64062 10.5 1.64062C15.3963 1.64062 19.3594 5.60302 19.3594 10.5C19.3594 15.3963 15.397 19.3594 10.5 19.3594Z" fill="#0563AB"/>
<path d="M10.5 5.27051C8.69072 5.27051 7.21875 6.74248 7.21875 8.55176C7.21875 9.00482 7.586 9.37207 8.03906 9.37207C8.49212 9.37207 8.85938 9.00482 8.85938 8.55176C8.85938 7.64712 9.59536 6.91113 10.5 6.91113C11.4046 6.91113 12.1406 7.64712 12.1406 8.55176C12.1406 9.4564 11.4046 10.1924 10.5 10.1924C10.0469 10.1924 9.67969 10.5596 9.67969 11.0127V13.0635C9.67969 13.5165 10.0469 13.8838 10.5 13.8838C10.9531 13.8838 11.3203 13.5165 11.3203 13.0635V11.7292C12.734 11.364 13.7812 10.0779 13.7812 8.55176C13.7812 6.74248 12.3093 5.27051 10.5 5.27051Z" fill="#0563AB"/>
</svg>
