<svg width="20" height="20" viewBox="0 0 20 20" fill="none" xmlns="http://www.w3.org/2000/svg">
<rect width="20" height="20" rx="4" fill="#B9B9B9"/>
<path d="M9.07805 11.426C9.02605 11.088 9.03471 10.7847 9.10405 10.516C9.18205 10.2387 9.28605 9.98733 9.41605 9.762C9.54605 9.528 9.69338 9.31133 9.85805 9.112C10.0314 8.91267 10.1917 8.71767 10.339 8.527C10.4864 8.32767 10.6077 8.12833 10.703 7.929C10.807 7.72967 10.859 7.513 10.859 7.279C10.859 6.93233 10.7507 6.63767 10.534 6.395C10.326 6.14367 10.014 6.018 9.59805 6.018C9.31205 6.018 9.03905 6.08733 8.77905 6.226C8.52771 6.356 8.30238 6.538 8.10305 6.772L7.49205 6.213C7.76938 5.901 8.09005 5.64533 8.45405 5.446C8.82671 5.238 9.25138 5.134 9.72805 5.134C10.3867 5.134 10.911 5.32033 11.301 5.693C11.6997 6.057 11.899 6.564 11.899 7.214C11.899 7.5 11.847 7.76 11.743 7.994C11.639 8.228 11.509 8.449 11.353 8.657C11.2057 8.865 11.0454 9.073 10.872 9.281C10.7074 9.48033 10.5514 9.68833 10.404 9.905C10.2654 10.1217 10.157 10.3557 10.079 10.607C10.001 10.8497 9.97938 11.1227 10.014 11.426H9.07805ZM9.57205 14.156C9.35538 14.156 9.17338 14.0823 9.02605 13.935C8.87871 13.779 8.80505 13.584 8.80505 13.35C8.80505 13.0987 8.87871 12.8993 9.02605 12.752C9.17338 12.596 9.35538 12.518 9.57205 12.518C9.78871 12.518 9.97071 12.596 10.118 12.752C10.274 12.8993 10.352 13.0987 10.352 13.35C10.352 13.584 10.274 13.779 10.118 13.935C9.97071 14.0823 9.78871 14.156 9.57205 14.156Z" fill="white"/>
</svg>
