<svg width="8" height="12" viewBox="0 0 8 12" fill="none" xmlns="http://www.w3.org/2000/svg">
<path d="M7.78279 5.53176L1.72295 0.191706C1.5828 0.068097 1.3957 0 1.1962 0C0.996706 0 0.809609 0.068097 0.669453 0.191706L0.223188 0.584873C-0.0671998 0.841066 -0.0671998 1.25745 0.223188 1.51326L5.31178 5.99751L0.217542 10.4867C0.0773851 10.6104 0 10.7751 0 10.9508C0 11.1267 0.0773851 11.2915 0.217542 11.4152L0.663807 11.8083C0.804074 11.9319 0.99106 12 1.19056 12C1.39005 12 1.57715 11.9319 1.71731 11.8083L7.78279 6.46336C7.92328 6.33936 8.00044 6.1738 8 5.99781C8.00044 5.82112 7.92328 5.65566 7.78279 5.53176Z" fill="#535353" fill-opacity="0.5"/>
</svg>
