<svg width="19" height="19" viewBox="0 0 19 19" fill="none" xmlns="http://www.w3.org/2000/svg">
<path fill-rule="evenodd" clip-rule="evenodd" d="M18.8734 17.8685L14.0717 13.0679C14.0306 13.0256 13.9812 12.9921 13.9266 12.9697C13.872 12.9473 13.8135 12.9364 13.7545 12.9377H13.3738C14.7403 11.4527 15.4705 9.49065 15.4078 7.47273C15.3451 5.45481 14.4944 3.54197 13.0382 2.14489C11.5821 0.747815 9.63661 -0.022089 7.61962 0.000482651C5.60263 0.0230543 3.6749 0.836301 2.25032 2.26561C0.825737 3.69493 0.0179333 5.62634 0.000295013 7.64516C-0.0173432 9.66398 0.756554 11.6092 2.15594 13.0633C3.55533 14.5173 5.46854 15.3642 7.48484 15.422C9.50113 15.4799 11.4598 14.7442 12.9401 13.3728V13.7507C12.9422 13.8706 12.9916 13.9848 13.0776 14.0683L17.8687 18.8688C17.9529 18.9528 18.0669 19 18.1859 19C18.3048 19 18.419 18.9528 18.5032 18.8688L18.8734 18.5004C18.9546 18.4153 19 18.3021 19 18.1844C19 18.0667 18.9546 17.9535 18.8734 17.8685ZM7.69437 14.2366C6.40033 14.2359 5.13549 13.8513 4.05984 13.1313C2.98418 12.4113 2.14592 11.3882 1.65115 10.1914C1.15637 8.99463 1.02726 7.6779 1.2801 6.40767C1.53294 5.13745 2.15643 3.97078 3.07168 3.05517C3.98693 2.13956 5.15283 1.51612 6.42205 1.26368C7.69128 1.01123 9.00686 1.14111 10.2023 1.6369C11.3978 2.13269 12.4196 2.97213 13.1384 4.04908C13.8573 5.12603 14.241 6.39213 14.241 7.68731C14.2411 8.54768 14.0719 9.39964 13.7429 10.1945C13.4139 10.9894 12.9316 11.7115 12.3236 12.3198C11.7157 12.928 10.9938 13.4103 10.1995 13.7392C9.40518 14.0681 8.55398 14.2371 7.69437 14.2366Z" fill="black"/>
</svg>
