<svg width="13" height="14" viewBox="0 0 13 14" fill="none" xmlns="http://www.w3.org/2000/svg">
<path fill-rule="evenodd" clip-rule="evenodd" d="M7.64983 2.62858C7.64983 2.80713 7.67133 2.98074 7.71189 3.14695L3.70588 5.43079C3.31223 5.0494 2.77596 4.81439 2.18571 4.81439C0.980342 4.81439 0 5.79463 0 7.00009C0 8.20556 0.980342 9.1858 2.18571 9.1858C2.77609 9.1858 3.31247 8.95068 3.70614 8.56913L7.71198 10.8528C7.67136 11.0192 7.64983 11.1929 7.64983 11.3716C7.64983 12.577 8.63007 13.5573 9.83553 13.5573C11.041 13.5573 12.0212 12.577 12.0212 11.3716C12.0212 10.1661 11.041 9.1858 9.83553 9.1858C9.2013 9.1858 8.62942 9.45717 8.22983 9.88992L4.27709 7.63648C4.33848 7.43505 4.37151 7.22137 4.37151 7.00009C4.37151 6.77867 4.33844 6.56485 4.27697 6.36331L8.22956 4.10997C8.62916 4.54289 9.20116 4.81439 9.83553 4.81439C11.041 4.81439 12.0212 3.83404 12.0212 2.62858C12.0212 1.42321 11.041 0.442871 9.83553 0.442871C8.63007 0.442871 7.64983 1.42321 7.64983 2.62858Z" fill="white"/>
</svg>
