<svg width="13" height="14" viewBox="0 0 13 14" fill="none" xmlns="http://www.w3.org/2000/svg">
<path fill-rule="evenodd" clip-rule="evenodd" d="M7.64983 2.62711C7.64983 2.80566 7.67133 2.97927 7.71189 3.14549L3.70588 5.42933C3.31223 5.04794 2.77596 4.81292 2.18571 4.81292C0.980342 4.81292 0 5.79316 0 6.99863C0 8.20409 0.980342 9.18434 2.18571 9.18434C2.77609 9.18434 3.31247 8.94922 3.70614 8.56767L7.71198 10.8514C7.67136 11.0177 7.64983 11.1915 7.64983 11.3701C7.64983 12.5755 8.63007 13.5559 9.83553 13.5559C11.041 13.5559 12.0212 12.5755 12.0212 11.3701C12.0212 10.1647 11.041 9.18434 9.83553 9.18434C9.2013 9.18434 8.62942 9.45571 8.22983 9.88846L4.27709 7.63502C4.33848 7.43359 4.37151 7.2199 4.37151 6.99863C4.37151 6.77721 4.33844 6.56339 4.27697 6.36185L8.22956 4.1085C8.62916 4.54143 9.20116 4.81292 9.83553 4.81292C11.041 4.81292 12.0212 3.83258 12.0212 2.62711C12.0212 1.42175 11.041 0.441406 9.83553 0.441406C8.63007 0.441406 7.64983 1.42175 7.64983 2.62711Z" fill="black"/>
</svg>
