<svg width="16" height="16" viewBox="0 0 16 16" fill="none" xmlns="http://www.w3.org/2000/svg">
<path d="M11.6641 8.72656L8.5879 8.25781L7.21094 5.47461C7.09376 5.24023 6.85938 5.09375 6.59571 5.09375C6.36133 5.09375 6.12696 5.24023 6.00977 5.47461L4.63282 8.25781L1.55665 8.72656C1.00001 8.78516 0.794928 9.48828 1.20508 9.86914L3.40235 12.0371L2.87501 15.1133C2.81641 15.5234 3.16797 15.875 3.54883 15.875C3.66602 15.875 3.75391 15.875 3.8711 15.8164L6.62501 14.3516L9.34962 15.8164C9.4668 15.875 9.55469 15.875 9.67188 15.875C10.0527 15.875 10.4043 15.5527 10.3457 15.1133L9.81837 12.0371L12.0449 9.86914C12.4258 9.48828 12.2207 8.78516 11.6641 8.72656ZM8.82227 11.041L8.29493 11.5391L8.41212 12.2715L8.70508 13.8828L7.26954 13.1211L6.62501 12.7695L5.95118 13.1211L4.51563 13.8828L4.8086 12.2715L4.92579 11.5391L4.39844 11.041L3.22657 9.89844L4.8379 9.66406L5.57032 9.54688L5.89258 8.90234L6.62501 7.4375L7.32813 8.90234L7.6504 9.54688L8.38282 9.66406L9.99415 9.89844L8.82227 11.041ZM10.8438 5.5625L11.6055 4.00977L13.1875 3.21875L11.6055 2.45703L10.8438 0.875L10.0527 2.45703L8.50001 3.21875L10.0527 4.00977L10.8438 5.5625ZM15.0625 6.5L14.5938 5.5625L14.125 6.5L13.1875 6.96875L14.125 7.4375L14.5938 8.375L15.0625 7.4375L16 6.96875L15.0625 6.5Z" fill="#C7C6CC"/>
</svg>
