<svg width="15" height="14" viewBox="0 0 15 14" fill="none" xmlns="http://www.w3.org/2000/svg">
<path d="M13.4062 4.99219C13.7448 5.02604 13.9648 5.20378 14.0664 5.52539C14.168 5.84701 14.1003 6.1263 13.8633 6.36328L11.1719 8.97852L11.8066 12.6855C11.8574 13.0072 11.7474 13.2611 11.4766 13.4473C11.2057 13.6504 10.9264 13.6758 10.6387 13.5234L7.3125 11.7969L3.98633 13.5234C3.69857 13.6927 3.41927 13.6758 3.14844 13.4727C2.8776 13.2695 2.76758 13.0072 2.81836 12.6855L3.45312 8.97852L0.761719 6.36328C0.52474 6.1263 0.457031 5.84701 0.558594 5.52539C0.660156 5.20378 0.880208 5.02604 1.21875 4.99219L4.92578 4.43359L6.57617 1.08203C6.72852 0.777344 6.97396 0.625 7.3125 0.625C7.65104 0.625 7.89648 0.777344 8.04883 1.08203L9.69922 4.43359L13.4062 4.99219ZM9.87695 8.54688L12.416 6.05859L8.88672 5.55078L7.3125 2.35156L5.73828 5.55078L2.20898 6.05859L4.74805 8.54688L4.16406 12.0762L7.3125 10.4004L10.4609 12.0762L9.87695 8.54688Z" fill="black" fill-opacity="0.8"/>
</svg>
