<svg width="249" height="130" viewBox="0 0 249 130" fill="none" xmlns="http://www.w3.org/2000/svg">
<path d="M108.324 55.5474C97.0979 64.4054 85.4534 72.7752 73.251 80.3081C73.9483 87.7711 77.7833 94.1182 82.9432 99.5586C97.5163 94.6065 111.671 88.4686 125.198 81.2845L108.324 55.5474Z" fill="#DED7D0"/>
<path d="M89.8466 81.703C94.7973 84.8417 99.469 88.3989 104.489 91.2586C111.532 88.1896 118.365 84.9115 125.129 81.2845L108.255 55.6172C97.0286 64.4752 85.384 72.845 73.1816 80.3778C73.3211 81.5635 73.4605 82.6795 73.7395 83.7955C79.5269 82.819 85.5235 79.2618 89.8466 81.703Z" fill="#0B558D"/>
<path d="M104.559 91.1888C99.5382 88.3988 94.8664 84.8417 89.9157 81.6333C85.5926 79.2618 79.596 82.819 73.8086 83.7257C75.2032 89.7241 78.6198 94.9552 82.9429 99.4888C90.1946 97.0476 97.4463 94.2577 104.559 91.1888Z" fill="#0563AB"/>
<path d="M12.0994 119.297C8.68272 121.39 5.33579 124.738 3.1045 128.434C2.26776 129.76 0.315382 129.202 0.175926 127.667C0.106198 126.691 0.106198 125.784 0.0364705 124.947C-0.0332573 122.645 2.68613 118.809 4.70824 117.623C3.8715 116.926 5.68443 113.578 6.73035 113.299C8.26436 112.811 9.10109 113.439 10.4956 114.275C11.2627 114.764 11.8205 115.322 12.2388 116.089C12.7269 117.135 13.0756 118.739 12.0994 119.297Z" fill="#3B2B28"/>
<path d="M57.1439 106.812L82.9432 99.5586L73.3208 81.2148L61.467 91.3283C59.0963 93.351 56.2374 94.6065 53.1694 95.025C51.8446 95.1645 50.3106 95.4434 48.5674 95.7922C49.0555 101.302 52.6116 104.58 57.1439 106.812Z" fill="#FFC8B3"/>
<path d="M9.93768 114.136L9.58904 114.485L9.37985 115.112C8.89176 116.856 9.93768 118.6 11.6809 119.018L14.2608 118.321L43.6162 110.439C40.6179 107.231 38.4564 102.837 37.271 98.7216C28.8339 101.512 18.9326 106.254 9.93768 114.136Z" fill="#FF9C4A"/>
<path d="M48.9156 109.044L51.2167 108.417L52.681 107.998L57.1435 106.812C52.6112 104.511 49.1248 101.302 48.567 95.7224C46.9633 96.0712 45.1503 96.4199 43.198 96.9082C42.8493 96.9779 42.431 97.1174 42.0823 97.1872C41.3153 97.3964 40.5483 97.6056 39.7813 97.8846C39.4327 97.9544 39.1537 98.0939 38.8051 98.1636C38.317 98.3031 37.8289 98.4426 37.3408 98.6519C38.5959 102.767 40.6878 107.161 43.6861 110.37L47.3119 109.393L48.9156 109.044Z" fill="#DED7D0"/>
<path d="M57.701 95.0249C58.5378 94.3275 59.4442 93.5602 60.281 92.8627C62.0242 91.398 63.8371 89.9333 65.5803 88.3291C65.8592 88.1198 65.5105 87.7014 65.2316 87.9106C63.349 89.3056 61.6058 90.84 59.8626 92.3047C59.0259 93.0022 58.1194 93.7695 57.2827 94.4669C56.3762 95.2342 55.4 95.9317 54.5633 96.8384C54.2844 97.1174 54.633 97.5359 54.9816 97.3266C55.8881 96.6291 56.7946 95.7922 57.701 95.0249Z" fill="#E29D88"/>
<path d="M159.435 38.6683C159.016 35.2506 145.001 25.9741 144.792 23.4632C140.678 21.7892 127.569 19.2783 126.244 20.0455C124.92 20.8825 130.707 48.5028 103.164 55.8961C102.049 56.1751 101.63 57.6399 101.979 58.7558C104.908 67.9626 119.062 84.9115 123.455 83.377C144.374 75.9139 161.108 52.1995 159.435 38.6683Z" fill="#FF9C4A"/>
<path d="M141.933 72.008C143.606 70.4038 145.21 68.7996 146.744 67.0558C149.742 63.7079 152.601 60.081 155.042 56.2449C155.739 55.1289 156.367 54.0129 156.994 52.8969C157.552 51.781 158.249 50.665 158.598 49.4095C158.598 49.27 158.458 49.2003 158.389 49.3398C157.761 50.2465 157.203 51.2927 156.646 52.1995C156.088 53.1759 155.53 54.1524 154.902 55.0591C153.717 56.9423 152.532 58.8255 151.207 60.7087C148.557 64.4054 145.489 67.8928 142.212 71.0315C141.305 71.8685 140.399 72.7752 139.423 73.6122C138.447 74.4492 137.401 75.2164 136.494 76.1231C136.424 76.1929 136.494 76.4021 136.634 76.3324C137.54 75.7744 138.447 75.0072 139.283 74.3097C140.19 73.5424 141.096 72.7752 141.933 72.008Z" fill="#EA8439"/>
<path d="M117.11 63.2197C117.319 62.5222 117.319 61.6852 117.389 60.918C117.459 60.1508 117.528 59.4533 117.668 58.686C117.877 57.0818 118.156 55.5474 118.505 53.9432C119.202 50.8742 120.039 47.8751 121.154 44.9456C121.224 44.8061 121.015 44.7364 120.945 44.8759C119.76 47.8053 118.644 50.8045 117.947 53.9432C117.598 55.4079 117.319 56.9423 117.04 58.4071C116.901 59.244 116.831 60.0113 116.692 60.8482C116.622 61.6155 116.482 62.3827 116.552 63.1499C116.692 63.4289 117.04 63.4289 117.11 63.2197Z" fill="#EA8439"/>
<path d="M114.181 60.0113C114.46 59.1045 114.6 58.1281 114.809 57.1516C115.018 56.1751 115.297 55.1986 115.646 54.2919C116.343 52.4087 117.11 50.5255 118.156 48.7818C118.156 48.7818 118.156 48.712 118.156 48.7818C116.97 50.4558 115.924 52.1995 115.157 54.1524C114.809 55.1289 114.46 56.1054 114.251 57.0818C114.042 57.9886 113.833 59.0348 113.902 60.0113C113.902 60.1508 114.112 60.1508 114.181 60.0113Z" fill="#EA8439"/>
<path d="M121.015 79.7501C119.481 78.7736 117.947 77.8669 116.552 76.7509C115.088 75.6349 113.833 74.3794 112.647 72.9845C110.276 70.1945 108.464 66.9861 107.278 63.4987C106.999 62.592 106.72 61.6155 106.511 60.639C106.372 60.1508 106.302 59.6625 106.232 59.1743C106.093 58.6861 105.953 58.1281 105.884 57.6398C105.884 57.5701 105.744 57.5701 105.744 57.6398C105.744 58.0583 105.744 58.5466 105.744 58.9651C105.744 59.4533 105.814 59.8718 105.884 60.36C106.023 61.2668 106.232 62.1735 106.511 63.0802C106.999 64.8937 107.697 66.5676 108.603 68.2416C110.346 71.5198 112.717 74.4492 115.576 76.8904C117.179 78.2156 118.923 79.4711 120.875 80.2383C121.084 80.2383 121.293 79.8896 121.015 79.7501Z" fill="#EA8439"/>
<path d="M146.306 17.6576C147.183 17.8603 149.749 17.4722 150.425 16.7962C151.37 15.9175 151.849 14.8547 151.849 13.6379C152.795 13.5028 151.505 11.2701 152.518 11.2701C152.315 10.121 153.222 10.0534 153.357 8.90429C153.357 8.90429 156.299 8.56632 158.123 8.90429C159.811 9.24227 161.566 9.51265 163.255 9.64783C165.01 9.78302 166.293 9.51265 167.846 8.63391C168.859 8.09316 171.898 5.79494 169.94 4.78101C169.197 4.44304 167.509 4.9162 166.833 5.25418C167.711 4.64583 171.088 1.33368 169.467 0.184574C168.049 -0.829347 164.943 2.61798 164.267 3.6319C164.943 2.4152 165.28 -0.1534 163.187 0.522547C162.309 0.792926 161.769 1.67166 161.026 2.07723C160.418 2.48279 159.608 2.55039 158.865 2.61798C156.299 2.88836 151.775 0.184573 150.425 3.49671C150.155 4.03747 150.155 4.57823 150.155 5.18658C148.534 4.9838 147.183 5.38937 146.306 6.80886C145.765 7.68759 145.225 9.91821 145.968 10.5942L146.306 17.6576Z" fill="#914C39"/>
<path d="M153.857 14.6051C150.859 17.5345 147.791 20.5337 144.792 23.4631C143.607 29.322 143.189 36.0876 148 35.3901C150.51 31.5539 153.02 27.8573 156.367 24.6489L153.857 14.6051Z" fill="#F5BAA8"/>
<path d="M149.05 16.7369C149.05 16.7369 148.878 23.4221 146.295 21.008C146.295 21.008 144.23 18.7796 147.242 16.3655L149.05 16.7369Z" fill="#914C39"/>
<path d="M164.246 11.6059C164.525 15.5816 165.083 20.9522 163.897 24.7186C163.13 27.2295 156.018 28.206 153.09 25.4858C151.277 23.8119 150.301 21.8589 150.091 19.348C149.394 20.3245 147.581 19.627 147.023 18.8598C146.465 18.0228 146.465 16.837 147.093 16.0698C147.721 15.3026 148.767 15.7211 149.743 16.0698C150.719 14.6749 150.998 13.4194 151.974 12.3732C151.835 11.8152 151.835 10.9084 151.835 10.0715C151.835 9.23448 152.392 8.46725 153.229 8.18826C156.158 7.21178 159.923 7.28153 162.921 8.04876C163.619 8.258 164.107 8.81599 164.107 9.51347C164.176 10.211 164.246 11.0479 164.246 11.6059Z" fill="#FFC8B3"/>
<path d="M148.976 16.5581C148.767 16.4186 148.488 16.2791 148.209 16.2791C147.93 16.2791 147.651 16.2791 147.442 16.4883C147.372 16.5581 147.442 16.6976 147.512 16.6976C147.651 16.6976 147.721 16.6976 147.86 16.6976C147.93 16.6976 148.07 16.6976 148.139 16.6976C148.348 16.6976 148.488 16.8371 148.697 16.9068C148.837 17.0463 148.976 17.1858 149.046 17.3253C149.115 17.5346 149.115 17.674 149.185 17.8833C149.185 18.0925 149.534 18.1623 149.604 17.8833C149.743 17.4648 149.394 16.8371 148.976 16.5581Z" fill="#AF6C33"/>
<path d="M157.831 12.0942C157.343 11.9547 156.786 11.8849 156.228 11.9547C155.949 11.9547 155.6 12.0942 155.321 12.1639C155.042 12.3034 154.694 12.4429 154.554 12.7219C154.485 12.8614 154.624 13.0706 154.833 13.0706C155.112 13.0706 155.321 12.9311 155.6 12.8614C155.809 12.7916 156.088 12.7219 156.297 12.7219C156.786 12.6522 157.274 12.7916 157.692 13.0009C157.831 13.0706 157.971 13.1404 158.18 13.0706C158.25 13.0706 158.32 13.0009 158.389 13.0009C158.459 12.9311 158.459 12.9311 158.459 12.8614C158.459 12.8614 158.459 12.8614 158.459 12.7916C158.598 12.3732 158.18 12.1639 157.831 12.0942Z" fill="#563629"/>
<path d="M164.176 12.5824C164.176 12.5127 164.107 12.4429 164.037 12.3732C164.037 12.3732 164.037 12.3732 163.967 12.3034C163.897 12.2337 163.828 12.2337 163.828 12.1639C163.618 12.0244 163.409 11.9547 163.13 11.8849C162.851 11.8849 162.642 11.8849 162.363 12.0244C162.154 12.1639 161.945 12.3034 161.806 12.5127C161.736 12.7219 161.736 12.9312 161.875 13.0707C162.015 13.2102 162.294 13.2102 162.433 13.0707C162.503 13.0009 162.573 12.9312 162.642 12.9312C162.642 12.9312 162.642 12.9312 162.712 12.9312C162.712 12.9312 162.782 12.9312 162.782 12.8614C162.782 12.8614 162.782 12.8614 162.851 12.8614C162.921 12.8614 162.921 12.8614 162.991 12.8614C163.061 12.8614 163.061 12.8614 163.13 12.8614H163.2H163.27C163.27 12.8614 163.34 12.8614 163.34 12.9312H163.409L163.479 13.0009L163.409 12.9312L163.479 13.0009H163.549C163.618 13.0707 163.688 13.0707 163.758 13.1404C163.967 13.2102 164.107 13.0707 164.176 12.8614C164.176 12.7917 164.176 12.7219 164.176 12.6522C164.246 12.6522 164.246 12.6522 164.176 12.5824Z" fill="#563629"/>
<path d="M159.992 24.7186C159.922 24.6489 159.853 24.7186 159.783 24.7186C159.713 24.7186 159.643 24.7186 159.574 24.7186C159.434 24.7186 159.295 24.7884 159.155 24.7884C158.876 24.7884 158.667 24.7884 158.388 24.7186C158.109 24.6489 157.9 24.5791 157.691 24.4396C157.552 24.3699 157.482 24.3001 157.342 24.2304C157.273 24.2304 157.203 24.1606 157.203 24.0909C157.133 24.0909 157.063 24.0909 157.063 24.0211C157.063 24.1606 157.063 24.3001 157.203 24.3699C157.273 24.5094 157.412 24.5791 157.552 24.7186C157.761 24.9279 158.109 25.0674 158.388 25.1371C158.737 25.2069 159.016 25.2766 159.364 25.2069C159.504 25.2069 159.713 25.1371 159.853 25.1371C159.922 25.1371 159.992 25.0674 160.062 24.9976C160.132 24.9279 160.201 24.8581 160.201 24.7884C160.131 24.7884 160.062 24.7186 159.992 24.7186Z" fill="#E29D88"/>
<path d="M157.413 14.3958C157.343 14.2564 157.273 14.1866 157.134 14.0471C157.064 14.0471 156.995 13.9774 156.925 13.9774C156.785 13.9076 156.646 13.9076 156.506 13.9774C156.367 13.9774 156.297 14.0471 156.228 14.1169C156.158 14.1866 156.088 14.2564 156.018 14.3261C155.949 14.3958 155.949 14.5353 155.879 14.6051C155.879 14.7446 155.879 14.8143 155.879 14.9538C155.879 15.0236 155.949 15.0933 155.949 15.1631C156.018 15.3026 156.088 15.3723 156.228 15.5118C156.297 15.5118 156.367 15.5816 156.437 15.5816C156.576 15.6513 156.716 15.6513 156.855 15.5816C156.995 15.5816 157.064 15.5118 157.134 15.4421C157.204 15.3723 157.273 15.3026 157.343 15.2328C157.413 15.1631 157.413 15.0236 157.483 14.9538C157.483 14.8143 157.483 14.7446 157.483 14.6051C157.483 14.5353 157.483 14.4656 157.413 14.3958Z" fill="#3B2B28"/>
<path d="M163.827 14.5353C163.757 14.3958 163.688 14.3261 163.548 14.1866C163.478 14.1866 163.409 14.1169 163.339 14.1169C163.199 14.0471 163.06 14.0471 162.921 14.1169C162.781 14.1169 162.711 14.1866 162.642 14.2564C162.572 14.3261 162.502 14.3958 162.432 14.4656C162.363 14.5353 162.363 14.6748 162.293 14.7446C162.293 14.8841 162.293 14.9538 162.293 15.0933C162.293 15.1631 162.363 15.2328 162.363 15.3026C162.432 15.4421 162.502 15.5118 162.642 15.6513C162.711 15.6513 162.781 15.7211 162.851 15.7211C162.99 15.7908 163.13 15.7908 163.269 15.7211C163.409 15.7211 163.478 15.6513 163.548 15.5816C163.618 15.5118 163.688 15.4421 163.757 15.3723C163.827 15.3026 163.827 15.1631 163.897 15.0933C163.897 14.9538 163.897 14.8841 163.897 14.7446C163.897 14.6748 163.897 14.6051 163.827 14.5353Z" fill="#3B2B28"/>
<path d="M162.503 19.7665C162.572 18.9992 162.433 18.232 162.084 17.5345C161.736 16.7673 161.178 16.0001 160.411 15.5816C160.411 15.5816 160.341 15.5816 160.341 15.6513C160.62 16.3488 161.108 16.837 161.457 17.5345C161.736 18.1623 161.945 18.79 161.945 19.4875C161.945 20.1152 161.666 20.6732 161.247 21.0219C161.038 21.1614 160.759 21.3009 160.55 21.3707C160.271 21.4404 159.992 21.3707 159.713 21.3707C159.435 21.4404 159.435 21.7892 159.574 21.9287C159.853 22.1379 160.271 22.0682 160.55 21.9984C160.899 21.9287 161.178 21.7892 161.457 21.5799C162.084 21.1614 162.433 20.464 162.503 19.7665Z" fill="#E29D88"/>
<path d="M160.341 23.3237C159.993 22.9052 159.853 22.4169 159.853 21.9287C159.853 21.7892 159.574 21.7194 159.574 21.8589C159.435 22.3472 159.505 22.9052 159.784 23.3934C159.296 23.5329 158.738 23.5329 158.25 23.3237C157.971 23.1842 157.692 22.9749 157.483 22.7657C157.343 22.6262 157.273 22.4867 157.204 22.3472C157.134 22.2077 157.064 21.9984 156.925 21.8589C156.785 21.7194 156.576 21.7892 156.576 21.9984C156.576 22.3472 156.855 22.8354 157.064 23.1144C157.343 23.4632 157.692 23.6724 158.04 23.8119C158.738 24.0909 159.644 24.0909 160.272 23.7421C160.411 23.6026 160.481 23.3934 160.341 23.3237Z" fill="#E29D88"/>
<path d="M144.095 41.6675C144.164 40.97 144.095 40.2725 144.095 39.575C144.095 38.8078 144.025 38.1103 144.025 37.3431C143.955 35.8086 144.025 34.2742 144.095 32.8094C144.234 29.8103 144.652 26.8808 144.862 23.8817C144.862 23.8119 144.722 23.7422 144.652 23.8119C143.746 26.6716 143.467 29.7405 143.328 32.7397C143.258 34.2044 143.258 35.7389 143.258 37.2036C143.258 37.9708 143.258 38.6683 143.328 39.4355C143.397 40.2028 143.397 40.97 143.676 41.7372C143.746 41.9465 144.095 41.8767 144.095 41.6675Z" fill="#EA8439"/>
<path d="M147.093 36.1573L147.79 35.8086C147.999 35.6691 148.278 35.5993 148.487 35.4598C148.697 35.3203 148.906 35.1809 149.115 35.0414C149.185 34.9716 149.115 34.9019 149.045 34.9019C148.766 34.9716 148.557 35.0414 148.278 35.1111C148.069 35.1809 147.79 35.2506 147.581 35.3901L146.884 35.6691C146.605 35.7388 146.396 35.8783 146.186 35.9481C145.908 36.0876 146.047 36.5061 146.396 36.4363C146.675 36.3666 146.884 36.2271 147.093 36.1573Z" fill="#EA8439"/>
<path d="M82.8739 64.4752C80.9913 65.4517 79.0389 66.6374 77.5746 68.1719C76.1103 69.7761 75.0644 71.8685 75.2039 74.0307C75.4828 77.7274 78.8297 80.3081 82.1767 81.9123C89.9164 85.4694 99.1205 85.9577 107.209 83.1678C110.695 81.982 114.182 80.0291 116.134 76.8206C118.087 73.682 118.017 69.0786 115.297 66.5676C113.275 64.7542 110.347 64.4054 107.837 63.3592C106.302 62.7315 104.001 62.313 103.234 60.8483C102.886 60.1508 102.049 57.8491 102.049 57.8491C102.049 57.8491 101.282 57.7794 100.655 57.9188C96.6801 58.7558 92.845 60.0113 89.0797 61.5458C86.9181 62.4525 84.896 63.429 82.8739 64.4752Z" fill="#DED7D0"/>
<path d="M110.416 64.3357C109.51 64.0567 108.603 63.7777 107.767 63.4289C106.233 62.8012 103.932 62.3827 103.165 60.918C102.816 60.2205 101.979 57.9188 101.979 57.9188C101.979 57.9188 101.212 57.8491 100.585 57.9886C99.6085 58.1978 98.6324 58.407 97.6562 58.686C95.913 61.2667 93.9606 63.7079 91.5898 65.6609C97.7259 64.4054 104.141 63.2894 110.416 64.3357Z" fill="#0B558D"/>
<path d="M115.227 66.6374C113.902 65.4517 112.159 64.8937 110.416 64.3357C104.14 63.2895 97.7254 64.4054 91.5893 65.7307C93.9601 63.708 95.9125 61.3365 97.6557 58.7558C94.7271 59.5231 91.7985 60.4995 89.0094 61.6155C86.9176 62.4525 84.8257 63.429 82.8036 64.4752C80.921 65.4517 78.9686 66.6374 77.5043 68.1719C76.04 69.7761 74.9941 71.8685 75.1336 74.0307C75.4125 77.7274 78.7594 80.3081 82.1063 81.9123C89.8461 85.4694 99.0502 85.9577 107.139 83.1677C110.625 81.982 114.111 80.0291 116.064 76.8206C118.086 73.682 118.016 69.0786 115.227 66.6374Z" fill="#0B558D"/>
<path d="M100.933 64.4752C96.6101 65.3121 92.6356 67.6138 89.9162 70.9618C88.6611 72.4962 87.6152 74.3794 87.6849 76.4021C87.7547 78.7038 89.2887 80.866 91.2411 82.261C94.0999 84.2139 97.3074 81.9122 100.654 81.4938C104.001 81.0055 107.557 82.4005 110.486 80.866C112.369 79.8198 114.251 78.7038 115.646 77.0996C117.04 75.4954 117.947 73.3332 117.598 71.171C117.389 69.9155 116.692 68.7996 115.716 67.9626C115.227 67.5441 114.67 67.2651 114.182 66.9163C113.833 66.6374 113.484 66.4281 113.066 66.2189C110.765 64.9634 107.906 64.4054 105.326 64.2659C104.001 64.0567 102.398 64.1962 100.933 64.4752Z" fill="#F5BAA8"/>
<path d="M67.6723 86.4459C63.9767 87.1434 59.9325 89.0266 56.725 91.5376C55.6094 92.4443 54.0056 91.3283 54.3543 89.9333C54.6332 89.0964 54.9121 88.2594 55.1213 87.4921C55.8185 85.4694 59.5141 82.9585 61.606 82.54C61.1179 81.6333 63.7675 79.2618 64.8134 79.3316C66.2777 79.4013 66.9053 80.2383 67.8117 81.424C68.2998 82.0518 68.6485 82.7493 68.7182 83.5862C68.9971 84.7022 68.7182 86.2367 67.6723 86.4459Z" fill="#3B2B28"/>
<path d="M98.9113 69.8458C88.1732 71.2408 77.6443 75.6349 68.0916 80.3081C67.8127 80.4476 67.5338 80.5871 67.2549 80.7266C66.4181 81.1451 65.93 82.0518 65.9998 82.9585C66.1392 84.5627 67.464 85.7485 69.0678 85.6787C69.1375 85.6787 69.2072 85.6787 69.277 85.6787C78.1324 84.5627 87.1273 84.2837 96.0525 83.5165C96.8195 83.4468 97.5865 83.377 98.3535 83.3073C98.4929 83.3073 98.6324 83.3073 98.7719 83.2375C99.1902 83.1678 99.6783 83.1678 100.097 83.098C101.282 78.4946 101.212 73.6122 98.9113 69.8458Z" fill="#FF9C4A"/>
<path d="M110.904 81.7728C111.95 78.2854 112.438 74.4492 110.206 71.5198C109.928 70.9618 108.951 70.1248 108.672 69.4273C105.395 69.2181 102.118 69.3576 98.8408 69.7761C101.142 73.6122 101.212 78.4248 100.026 83.0282C100.445 82.9585 100.933 82.9585 101.351 82.8887C102.188 82.819 107.208 82.261 110.904 81.7728Z" fill="#DED7D0"/>
<path d="M117.737 71.1013C116.97 68.3811 111.74 69.6366 109.509 69.4273C109.23 69.4273 108.951 69.4273 108.742 69.3576C109.021 70.0551 109.579 70.7525 109.858 71.3105C112.019 74.24 111.95 78.2156 110.973 81.703C112.159 81.5635 114.181 80.0988 114.809 79.7501C118.086 77.8669 118.574 74.1005 117.737 71.1013Z" fill="#FFC8B3"/>
<path d="M206.431 37.901C200.365 36.4363 194.019 36.2968 187.953 37.5523C184.606 38.2498 181.19 39.296 177.912 38.3893C175.611 37.7616 173.52 36.2271 171.149 36.0876C169.266 35.9481 167.314 36.7153 165.501 36.2271C163.688 35.7389 162.503 34.1346 161.038 32.9489C158.319 30.7867 154.484 30.0892 151.207 31.2052C149.812 38.5985 154.623 45.9919 154.693 53.5247C158.877 53.0364 162.014 50.665 166.198 50.1768C168.708 49.828 171.218 50.2465 173.798 50.2465C176.309 50.2465 179.028 49.8978 180.98 48.2936C185.094 49.8978 190.045 48.9213 194.159 47.4566C198.273 45.9919 202.247 43.8994 206.571 43.1322C207.407 41.6675 207.198 39.3658 206.431 37.901Z" fill="#FF9C4A"/>
<path d="M207.616 38.2498C208.662 35.8086 210.336 33.6464 212.358 31.9724C212.637 31.7632 212.916 31.554 213.264 31.4842C213.613 31.4145 214.031 31.554 214.171 31.9027C214.31 32.2514 214.171 32.6002 214.031 32.8792C213.683 33.6464 213.264 34.4136 212.916 35.1809C214.24 35.6691 215.914 35.3204 217.308 34.9019C218.703 34.4834 220.097 33.9951 221.492 34.2741C221.841 34.3439 222.189 34.5531 222.259 34.9019C222.259 35.2506 221.98 35.4599 221.701 35.6691C220.307 36.5061 218.842 37.1338 217.378 37.6221C218.424 39.5053 218.424 41.9465 217.239 43.8297C214.031 44.4574 210.545 44.2481 207.616 42.9229V38.2498Z" fill="#DED7D0"/>
<path d="M216.611 37.7615C218.633 37.2733 220.656 36.7851 222.678 36.6456C223.026 36.6456 223.375 36.6456 223.654 36.7851C223.933 36.9246 224.212 37.2733 224.142 37.622C224.072 37.9708 223.724 38.18 223.375 38.3893C221.144 39.5053 218.703 40.2725 216.263 40.691L216.611 37.7615Z" fill="#DED7D0"/>
<path d="M216.751 40.133C218.842 40.133 220.865 40.133 222.887 40.5515C223.235 40.6212 223.584 40.691 223.863 40.9002C224.142 41.1095 224.281 41.4582 224.142 41.807C224.002 42.1557 223.584 42.2952 223.235 42.3649C220.795 42.8532 218.285 43.0624 215.774 42.9229L216.751 40.133Z" fill="#DED7D0"/>
<path d="M215.634 42.0162C217.168 42.5742 218.772 43.0624 220.167 43.8994C220.376 44.0389 220.655 44.1784 220.794 44.3876C220.934 44.5969 221.003 44.9456 220.794 45.1549C220.585 45.3641 220.236 45.3641 219.957 45.3641C218.005 45.1549 216.053 44.6666 214.17 43.8994L215.634 42.0162Z" fill="#DED7D0"/>
<path d="M213.125 37.5523C213.264 36.8548 213.404 35.8086 212.916 35.1809C212.916 35.5296 212.985 35.8784 212.985 36.2271C212.985 36.6456 212.916 36.9943 212.846 37.4128C212.637 38.1801 212.288 38.8775 211.73 39.4355C210.615 40.4818 209.011 40.8305 207.547 40.3423C207.337 40.2725 207.268 40.5515 207.477 40.6212C209.011 41.1095 210.754 40.691 211.87 39.575C212.567 39.0868 212.985 38.3196 213.125 37.5523Z" fill="#B8B3AD"/>
<path d="M214.589 41.7372C214.798 41.1095 214.868 40.4817 215.008 39.854C215.147 38.5985 215.147 37.4128 214.868 36.1574C214.868 36.0179 214.659 36.0876 214.659 36.1574C214.798 37.4128 214.798 38.6683 214.589 39.854C214.519 40.4817 214.38 41.0397 214.171 41.5977C214.101 41.8767 213.962 42.1557 213.892 42.4347C213.752 42.7137 213.613 42.9927 213.543 43.2717C213.474 43.4809 213.752 43.5507 213.892 43.4112C214.241 43.0624 214.38 42.2952 214.589 41.7372Z" fill="#B8B3AD"/>
<path d="M215.566 40.2028C215.775 39.575 215.985 38.9473 216.124 38.3195C216.124 38.3195 216.054 38.2498 216.054 38.3195C215.775 38.8775 215.566 39.5053 215.357 40.133C215.218 40.412 215.148 40.7607 215.008 41.0397C214.869 41.3187 214.799 41.6675 214.729 41.9465C214.729 42.086 214.939 42.1557 214.939 42.0162C215.148 41.4582 215.357 40.7607 215.566 40.2028Z" fill="#B8B3AD"/>
<path d="M205.106 37.4128C205.804 39.3658 206.152 41.3885 206.083 43.4809C207.338 44.1784 209.081 43.9692 210.266 43.0624C210.894 40.97 210.545 38.8775 209.708 36.8548C208.244 36.2271 206.292 36.5061 205.106 37.4128Z" fill="#DED7D0"/>
<path d="M209.569 43.4809C209.639 42.2952 209.639 41.1095 209.499 39.854C209.429 39.296 209.29 38.738 209.15 38.18C209.011 37.622 208.871 36.9943 208.523 36.5061H208.453C208.523 37.0641 208.662 37.5523 208.802 38.1103C208.941 38.738 209.081 39.296 209.15 39.9237C209.29 41.1095 209.36 42.2254 209.22 43.4112C209.29 43.6204 209.569 43.6204 209.569 43.4809Z" fill="#B8B3AD"/>
<path d="M135.658 27.369C135.239 23.5329 132.799 20.0455 129.382 18.3715C125.965 16.6975 121.642 16.9068 118.435 18.9295C113.414 16.1396 107.766 14.3959 101.979 14.5354C100.654 14.5354 99.2596 14.7446 98.3532 15.7211C97.1678 17.116 96.9586 22.1379 97.9348 23.7421C100.096 27.2295 104.908 29.2522 108.464 31.2052C112.02 33.1582 114.391 32.0422 117.668 34.4136C120.178 36.2271 123.385 38.8078 126.105 40.2725C127.639 41.1095 129.591 41.6675 131.125 40.8305C132.032 40.2725 132.59 39.296 133.078 38.3195C134.891 34.6926 136.076 31.275 135.658 27.369Z" fill="#FF9C4A"/>
<path d="M136.704 29.1128C136.634 28.1363 136.216 27.1598 135.867 26.2531C135.449 25.2766 134.96 24.3699 134.472 23.5329C133.984 22.6959 133.426 21.8589 132.799 21.0917C132.45 20.6732 132.171 20.3245 131.753 19.906C131.544 19.627 131.265 19.348 130.916 19.2783C130.916 19.2783 130.916 19.2783 130.846 19.2783C130.777 19.2783 130.707 19.348 130.707 19.4178C130.777 19.8362 131.125 20.1152 131.404 20.464C131.683 20.8127 131.962 21.1615 132.241 21.5102C132.869 22.3472 133.426 23.1144 133.915 24.0211C134.403 24.8581 134.821 25.6951 135.239 26.6018C135.658 27.5086 135.937 28.4153 136.355 29.2523C136.494 29.3918 136.773 29.322 136.704 29.1128Z" fill="#EA8439"/>
<path d="M135.588 29.2523C135.588 28.9035 135.448 28.5548 135.309 28.2758C135.169 27.927 135.03 27.5783 134.96 27.2296C134.681 26.5321 134.472 25.9043 134.193 25.2766C134.123 25.1371 133.914 25.2069 133.914 25.3463C134.123 26.0438 134.332 26.7413 134.542 27.369C134.611 27.7178 134.751 28.0665 134.89 28.3455C135.03 28.6943 135.099 29.043 135.309 29.322C135.309 29.5312 135.588 29.4615 135.588 29.2523Z" fill="#EA8439"/>
<path d="M114.251 23.6724C114.182 22.5564 113.903 21.5102 113.415 20.5337C112.438 18.511 110.556 16.9765 108.324 16.4186C107.139 16.1396 105.675 16.0001 104.559 16.4883C104.489 16.4883 104.489 16.6278 104.559 16.6278C105.954 16.5581 107.279 16.4883 108.673 16.9765C109.928 17.395 111.114 18.232 112.02 19.2782C112.857 20.2547 113.415 21.5102 113.624 22.7657C113.763 23.3934 113.763 24.0909 113.693 24.7186C113.624 25.4161 113.415 26.0438 113.345 26.7413C113.345 26.9506 113.554 27.0203 113.624 26.8808C114.251 25.9043 114.321 24.7186 114.251 23.6724Z" fill="#EA8439"/>
<path d="M103.164 27.7876C102.815 27.0901 102.537 26.5321 102.606 25.7648C102.676 24.9279 102.955 24.1606 103.513 23.5329C104.071 22.9749 104.559 22.4169 105.186 21.9287C105.814 21.4405 106.511 21.022 107.139 20.5337C107.208 20.464 107.139 20.3942 107.069 20.3942C105.395 21.0917 103.792 22.2077 103.025 23.8816C102.746 24.5791 102.467 25.2766 102.537 26.0438C102.467 26.6716 102.676 27.4388 103.164 27.7876C103.164 27.8573 103.164 27.8573 103.164 27.7876Z" fill="#EA8439"/>
<path d="M113.414 21.5799C113.414 21.3707 113.484 21.1615 113.484 20.9522C113.484 20.5337 113.484 20.1152 113.345 19.6967C113.275 19.2783 113.136 18.8598 112.996 18.511C112.926 18.3018 112.787 18.0925 112.717 17.953C112.647 17.8135 112.508 17.6043 112.369 17.5345C112.369 17.5345 112.299 17.5345 112.299 17.6043C112.369 17.8135 112.438 17.953 112.508 18.0925C112.578 18.3018 112.647 18.4413 112.787 18.6505C112.926 18.9993 113.066 19.4178 113.136 19.8362C113.205 20.2547 113.205 20.6732 113.205 21.022C113.205 21.2312 113.205 21.4405 113.136 21.5799C113.136 21.7892 112.996 21.9984 113.066 22.2077C113.136 22.2774 113.205 22.3472 113.345 22.2774C113.414 22.0682 113.414 21.7892 113.414 21.5799Z" fill="#EA8439"/>
<path d="M112.438 20.743C114.948 21.0917 117.389 22.5564 118.435 24.8581C119.481 27.1598 118.993 30.2287 116.971 31.7632C116.692 31.9725 116.483 32.112 116.134 32.1817C115.227 32.2514 114.739 31.1355 114.739 30.2985C114.809 29.3918 115.158 28.485 114.879 27.6481C114.46 26.1833 112.508 25.6254 111.044 26.0438C109.579 26.4623 108.255 27.4388 106.79 27.9271C105.326 28.4153 103.374 28.2758 102.676 26.8808C101.77 25.1371 103.304 23.3237 104.699 22.4169C105.187 22.0682 105.814 21.9287 106.372 21.7195C107.278 21.3707 108.185 21.022 109.091 20.8127C110.277 20.6035 111.392 20.6035 112.438 20.743Z" fill="#DED7D0"/>
<path d="M112.717 24.5094C113.693 24.7884 114.112 26.0439 114.042 27.2993C113.903 34.1347 110.835 31.6935 110.765 31.275C110.486 30.3683 110.277 29.3918 109.998 28.485C109.858 27.8573 109.649 27.2296 109.719 26.5321C109.858 25.3464 110.835 24.1606 111.88 23.8817" fill="#DED7D0"/>
<path d="M108.952 25.4161C109.928 25.6951 110.346 26.9506 110.276 28.206C110.137 35.0414 107.069 32.6002 106.999 32.1817C106.72 31.275 106.511 30.2985 106.232 29.3918C106.093 28.764 105.884 28.1363 105.953 27.4388C106.093 26.2531 107.069 25.0674 108.115 24.7884" fill="#DED7D0"/>
<path d="M106.65 27.09C107.208 27.4388 107.069 28.3455 106.65 29.1825C104.558 33.6464 103.373 31.5539 103.373 31.2749C103.513 30.6472 103.582 29.9497 103.722 29.322C103.791 28.9035 103.861 28.4153 104.14 27.9968C104.558 27.2295 105.535 26.6018 106.302 26.6018" fill="#DED7D0"/>
<path d="M121.782 28.206C121.852 27.4388 121.643 26.6018 121.433 25.8346C121.224 25.0674 121.015 24.2304 120.666 23.5329C120.039 22.0682 119.272 20.743 118.226 19.5572C118.226 19.4875 118.156 19.5572 118.156 19.627C119.132 20.8825 119.899 22.2774 120.527 23.7421C120.806 24.4396 121.015 25.2069 121.224 25.9043C121.294 26.2531 121.364 26.6716 121.433 27.0203C121.503 27.4388 121.503 27.8573 121.643 28.206C121.643 28.4153 121.782 28.3455 121.782 28.206Z" fill="#EA8439"/>
<path d="M121.084 26.9506C121.015 26.6716 120.875 26.3926 120.806 26.1136C120.736 25.8346 120.596 25.5556 120.527 25.3464C120.457 25.2766 120.317 25.2766 120.387 25.4161C120.457 25.6951 120.596 25.9741 120.666 26.2531C120.736 26.5321 120.875 26.8111 121.015 27.0203C120.945 27.0901 121.084 27.0203 121.084 26.9506Z" fill="#EA8439"/>
<path d="M193.113 37.2036C191.858 36.9943 190.673 36.9943 189.418 37.1338C188.163 37.2733 186.977 37.4826 185.792 37.7615C183.352 38.3893 181.051 39.296 178.889 40.6212C177.704 41.3187 176.518 42.1557 175.542 43.1322C175.403 43.2717 175.612 43.4809 175.751 43.4112C179.656 40.5515 184.188 38.459 189 37.901C190.394 37.7615 191.719 37.622 193.113 37.4826C193.183 37.4128 193.253 37.2036 193.113 37.2036Z" fill="#EA8439"/>
<path d="M168.011 42.086C167.663 40.412 166.687 38.738 165.71 37.4128C164.595 36.0178 163.34 34.7624 161.806 33.8556C161.736 33.7859 161.666 33.9254 161.736 33.9951C163.2 35.0414 164.455 36.2271 165.501 37.6918C165.989 38.3893 166.408 39.0868 166.826 39.854C167.244 40.6212 167.523 41.4582 167.872 42.2255C167.802 42.3649 168.011 42.2255 168.011 42.086Z" fill="#EA8439"/>
<path d="M163.549 44.5271C162.085 46.0616 160.621 47.6658 159.156 49.27C158.459 50.0373 157.692 50.8045 156.995 51.6415C156.297 52.4087 155.461 53.1759 154.973 54.0827C154.903 54.2222 155.042 54.3617 155.182 54.2919C156.019 53.7339 156.646 52.8272 157.274 52.1297C157.971 51.2927 158.738 50.4558 159.435 49.6885C160.83 48.0843 162.294 46.4103 163.689 44.8061C163.758 44.5271 163.619 44.3876 163.549 44.5271Z" fill="#EA8439"/>
<path d="M247.85 39.6448C249.036 36.9943 249.245 34.0649 248.478 31.3447C248.199 30.438 247.85 29.5313 247.362 28.6943C246.944 27.927 246.386 27.1598 245.759 26.4623C245.828 26.6018 245.898 26.8111 245.968 27.0203C245.898 26.8111 245.828 26.6716 245.759 26.4623C244.852 25.4161 243.736 24.5791 242.412 23.8816C241.505 23.3934 240.599 23.0447 239.623 22.8354C239.553 22.8354 239.483 22.9052 239.483 22.9749C239.553 22.9052 239.553 22.9052 239.623 22.8354C236.555 22.0682 233.347 22.6262 230.697 24.1606C230.697 24.2304 230.628 24.3001 230.628 24.3699C230.628 24.3001 230.697 24.2304 230.697 24.1606C230.628 24.2304 230.488 24.3001 230.418 24.3001C228.884 25.2069 227.56 26.5321 226.514 28.1363C226.723 27.9968 226.723 27.9968 226.514 28.1363C226.444 28.2758 226.374 28.3455 226.305 28.485C226.235 28.6245 226.095 28.8338 226.026 28.9733C224.631 31.6237 224.352 34.5531 224.91 37.2733C224.91 37.4128 224.98 37.5523 224.98 37.6918C225.049 37.8313 225.049 37.9708 225.119 38.18C225.607 39.9238 226.514 41.528 227.769 42.9229C227.839 42.9927 227.908 43.0624 227.978 43.1322C228.884 44.0389 229.861 44.8061 231.046 45.4339C232.719 46.3406 234.532 46.7591 236.345 46.8288C236.485 46.8288 236.555 46.8288 236.694 46.8288C236.764 46.8288 236.903 46.8288 236.973 46.8288C239.134 46.7591 241.157 46.1314 242.969 45.0851C244.782 43.9692 246.386 42.3649 247.432 40.3422C247.711 40.0633 247.781 39.854 247.85 39.6448Z" fill="#DED7D0"/>
<path d="M247.85 39.6447C249.035 36.9943 249.245 34.0649 248.478 31.3447C248.199 30.438 247.85 29.5312 247.362 28.6942C247.292 28.6245 247.292 28.5548 247.223 28.485C246.874 27.927 246.456 27.5085 245.967 27.0203C245.967 26.9505 245.898 26.811 245.898 26.7413C245.898 26.6715 245.828 26.6018 245.828 26.4623C244.921 25.4161 243.806 24.5791 242.481 23.8816C241.575 23.3934 240.668 23.0446 239.692 22.8354C239.692 22.8354 239.622 22.8354 239.622 22.9051C239.413 23.0446 239.274 23.2539 239.134 23.5329C238.995 23.5329 238.925 23.5329 238.785 23.5329C238.576 23.5329 238.367 23.5329 238.158 23.5329C237.6 23.5329 237.042 23.6026 236.484 23.6724C235.578 23.8119 234.811 24.0909 233.974 24.5093C233.486 24.3699 233.068 24.3001 232.58 24.2304C231.882 24.1606 231.185 24.2304 230.558 24.4396C230.558 24.3699 230.627 24.3001 230.627 24.2304C230.558 24.3001 230.418 24.3699 230.348 24.3699C230.348 24.4396 230.279 24.5093 230.279 24.5093H230.209C229.651 24.7883 229.093 25.2068 228.605 25.6951C227.978 26.3228 227.35 27.09 227.071 27.8573C226.932 27.927 226.792 27.9968 226.583 28.0665C226.583 28.0665 226.513 28.0665 226.513 28.1363C226.513 28.1363 226.444 28.1363 226.444 28.206C226.374 28.3455 226.304 28.485 226.234 28.5548C226.234 28.5548 226.304 28.5548 226.304 28.485C226.583 28.3455 226.792 28.206 227.001 28.1363C227.071 28.2758 227.071 28.4153 227.141 28.5548C227.35 29.1825 227.768 29.7405 228.257 30.2985C227.978 31.1354 227.768 31.9724 227.629 32.8094C227.559 33.1581 227.559 33.5069 227.49 33.9254C227.42 34.4834 227.42 35.0413 227.42 35.6691C226.653 36.3666 226.025 37.064 225.537 37.9708C225.467 37.9708 225.398 37.901 225.328 37.8313C225.119 37.6918 224.979 37.5523 224.84 37.343C224.84 37.4825 224.91 37.622 224.91 37.7615C224.979 37.8313 225.119 37.9708 225.258 38.0405C225.328 38.1103 225.398 38.1103 225.467 38.18C225.467 38.3893 225.467 38.6683 225.537 38.9473C225.816 40.133 226.792 41.8069 227.768 42.5044C227.699 42.6439 227.699 42.7834 227.699 42.9229C227.768 42.9927 227.838 43.0624 227.908 43.1322C227.908 42.9927 227.838 42.7834 227.908 42.6439C227.908 42.6439 227.908 42.6439 227.908 42.5742C228.117 42.6439 228.257 42.7137 228.396 42.7834C229.163 43.0624 229.93 43.0624 230.697 42.9927C230.767 42.9927 230.836 42.9927 230.976 42.9229C231.046 42.9229 231.185 42.8532 231.255 42.8532C231.325 42.9229 231.394 42.9927 231.464 43.1322C231.882 43.5506 232.44 43.8994 233.137 44.2481L233.695 44.5271C234.393 44.8759 235.229 45.0851 235.927 45.2246C235.996 45.7128 236.136 46.2011 236.415 46.6893C236.345 46.7591 236.275 46.8288 236.206 46.8288C236.345 46.8288 236.415 46.8288 236.554 46.8288C236.554 46.8288 236.624 46.8288 236.624 46.7591C236.694 46.7591 236.763 46.8288 236.833 46.8288C238.995 46.7591 241.086 46.1313 242.899 45.0851C243.248 44.7364 243.457 44.3876 243.666 43.9691C243.945 43.8296 244.224 43.6204 244.433 43.4809C244.921 43.1322 245.41 42.7137 245.828 42.2952C246.456 41.5977 247.013 40.8305 247.432 39.854C247.711 39.7145 247.78 39.7145 247.85 39.6447ZM243.387 26.4623C244.015 26.3926 244.991 26.6018 245.758 26.9505C246.316 27.4388 246.734 27.9968 247.153 28.5548C247.292 28.764 247.432 29.043 247.571 29.2522C247.711 29.5312 247.85 29.7405 247.92 30.0195C248.129 30.5775 248.338 31.1354 248.478 31.7632C248.547 32.0422 248.617 32.3212 248.687 32.6002C248.687 33.5766 248.268 34.6926 247.78 35.3203C247.711 35.3901 247.711 35.3901 247.641 35.4598C246.874 35.3203 246.177 35.1111 245.41 34.9716C244.991 34.9019 244.643 34.7624 244.224 34.6926C244.224 34.6229 244.154 34.4834 244.154 34.4136C243.736 32.9489 242.969 31.5539 241.923 30.5077C242.202 29.8102 242.481 29.1127 242.62 28.4153C242.69 28.1363 242.76 27.927 242.83 27.648C242.899 27.2993 242.969 26.9505 242.969 26.6715C243.039 26.532 243.178 26.5321 243.387 26.4623ZM236.484 23.8119C236.973 23.7421 237.461 23.6724 237.949 23.6724C238.158 23.6724 238.367 23.6724 238.576 23.6724C238.785 23.6724 238.995 23.6724 239.274 23.7421C239.762 23.9514 240.18 24.2304 240.598 24.5093C241.505 25.0673 242.272 25.8346 242.69 26.6018C242.62 27.1598 242.551 27.7178 242.411 28.3455C242.202 29.043 241.993 29.7405 241.714 30.438C241.575 30.438 241.435 30.438 241.365 30.438C239.971 30.438 238.367 30.7867 237.182 31.1354C237.112 31.1354 237.042 31.2052 237.042 31.2052C236.554 30.7169 235.996 30.2985 235.508 29.8102C235.369 29.7405 235.299 29.6707 235.16 29.5312L235.02 29.4615C234.393 28.9732 233.765 28.5548 233.068 28.1363C233.137 26.8808 233.556 25.7648 234.114 24.6488C234.811 24.2304 235.648 23.9514 236.484 23.8119ZM227.768 33.3674C227.768 33.1581 227.838 32.9489 227.838 32.8094C227.978 31.9724 228.187 31.2052 228.466 30.3682C228.954 29.9497 229.372 29.6707 229.86 29.322C230.836 28.6942 231.882 28.3455 232.859 28.206C233.556 28.6245 234.183 29.1127 234.811 29.601L234.881 29.6707C235.02 29.7405 235.09 29.88 235.229 29.9497C235.717 30.3682 236.205 30.7867 236.694 31.2052C236.624 31.4842 236.624 31.7632 236.554 31.9724C236.345 33.3674 236.136 34.6926 235.996 36.1573C235.299 36.5758 234.532 36.9943 233.765 37.343H233.695C232.928 37.6918 232.161 38.0405 231.325 38.3893L230.836 38.18C230.697 38.1103 230.488 37.9708 230.348 37.901C229.233 37.2035 228.326 36.3666 227.559 35.4598C227.699 34.7624 227.699 34.0649 227.768 33.3674ZM238.925 44.2481C238.088 44.6666 237.251 45.0154 236.554 45.0851C235.717 44.9456 234.811 44.6666 233.974 44.3179C233.765 44.2481 233.556 44.1086 233.416 44.0389C232.928 43.7599 232.51 43.4809 232.092 43.2019C231.882 42.9927 231.673 42.8532 231.534 42.6439C231.464 42.4347 231.464 42.1557 231.394 41.8767C231.255 40.8305 231.255 39.7145 231.464 38.5985C232.161 38.3195 232.859 37.9708 233.556 37.6918C233.626 37.622 233.765 37.622 233.835 37.5523C234.602 37.2035 235.299 36.7851 235.996 36.3666C236.484 36.6456 237.042 36.9943 237.53 37.2733C238.437 37.7615 239.413 38.2498 240.389 38.5985C240.529 39.2262 240.598 39.9237 240.668 40.6212C240.668 40.691 240.668 40.7607 240.668 40.8305C240.668 41.4582 240.668 42.0162 240.598 42.6439C240.598 42.7834 240.598 42.8532 240.529 42.9229C240.18 43.4809 239.552 43.8994 238.925 44.2481ZM245.898 42.0162C245.619 42.3649 245.27 42.6439 244.852 42.9229C244.503 43.2019 244.154 43.4111 243.736 43.6204C242.76 43.6901 241.784 43.4809 241.017 43.1322C240.947 43.1322 240.877 43.0624 240.808 43.0624C240.808 42.9229 240.877 42.7137 240.877 42.5742C240.947 41.9464 240.947 41.3884 240.947 40.8305C240.947 40.6212 240.947 40.4817 240.947 40.2725C240.947 39.7145 240.808 39.1565 240.738 38.5985C241.575 37.9708 242.272 37.343 242.899 36.5758C243.387 36.0876 243.736 35.4598 244.154 34.9018C244.503 34.9716 244.852 35.1111 245.2 35.1808C245.967 35.3901 246.734 35.5296 247.432 35.6691C247.432 35.6691 247.432 35.7388 247.501 35.7388C247.641 36.0876 247.78 36.6456 247.78 37.2733C247.78 37.901 247.711 38.5985 247.571 39.3657C247.153 40.412 246.595 41.2489 245.898 42.0162Z" fill="#3B2B28"/>
<path fill-rule="evenodd" clip-rule="evenodd" d="M247.572 40.2725C246.526 42.2952 244.922 43.8994 243.109 45.0154C241.296 46.1313 239.204 46.7591 237.113 46.7591C237.043 46.7591 236.903 46.7591 236.834 46.7591C236.694 46.7591 236.624 46.7591 236.485 46.7591C234.672 46.6893 232.859 46.2708 231.186 45.3641C230 44.7364 228.954 43.9691 228.118 43.0624C228.048 42.9927 227.978 42.9229 227.908 42.8532C226.653 41.4582 225.747 39.854 225.259 38.1103C225.398 38.3195 225.607 38.5985 225.747 38.8078C226.793 40.2027 228.187 41.3885 229.861 42.2254C230.349 42.4347 230.767 42.6439 231.255 42.8532C231.395 42.9229 231.604 42.9927 231.743 43.0624C231.883 43.1322 232.022 43.1322 232.232 43.2019C235.09 44.0389 238.158 43.8296 240.808 42.7137C240.878 42.7137 240.948 42.6439 241.017 42.6439C243.527 41.528 245.759 39.575 247.153 36.9246C247.363 36.5758 247.502 36.2271 247.641 35.8783C247.711 35.7388 247.781 35.5993 247.781 35.4598C248.199 34.2741 248.478 33.0884 248.548 31.9724C248.548 31.8329 248.548 31.6237 248.548 31.4842C249.315 34.1346 249.106 37.0641 247.92 39.7842C247.781 39.854 247.711 40.0632 247.572 40.2725Z" fill="#3B2B28" fill-opacity="0.2"/>
</svg>
