<svg width="129" height="151" viewBox="0 0 129 151" fill="none" xmlns="http://www.w3.org/2000/svg">
<path d="M128.999 126.316V141.003C128.999 145.991 115.697 150.148 99.347 150.148C82.997 150.148 69.9725 146.13 69.9725 141.142V139.479L69.6953 127.84H69.8338C72.0507 132.136 84.244 135.461 98.9312 135.461C113.618 135.461 128.722 131.304 128.722 126.316H128.999V126.316Z" fill="#FDAF0B"/>
<path d="M98.5179 71.7233V86.272H98.2407C98.2407 91.3988 84.5235 95.4171 68.3119 95.4171C62.0768 95.5555 55.7029 94.8628 49.6062 93.3386L49.3291 93.6158C46.2807 91.1217 42.8168 89.1819 39.0757 87.9349V87.6578L38.6602 72.2776C39.63 76.9886 52.5161 80.7297 68.1734 80.7297C83.8307 80.7297 98.2407 76.7114 98.2407 71.7233H98.5179Z" fill="#FFC344"/>
<path d="M98.5176 72.0005C98.5176 76.9886 84.8003 81.0068 68.4503 81.0068C52.1003 81.0068 39.7685 77.2657 38.7986 72.5548C38.7986 72.4163 38.6602 72.1392 38.6602 72.0005C38.6602 67.0124 51.9618 62.8554 68.4506 62.8554C84.9388 62.717 98.5176 66.8737 98.5176 72.0005Z" fill="#FEDB41"/>
<path d="M69.8355 127.84L69.6971 124.792L69.4199 112.321C70.3898 117.032 83.2759 120.773 98.9332 120.773C114.59 120.773 128.446 116.755 128.862 111.906H129.001V126.316H128.723C128.723 131.304 115.283 135.461 98.9329 135.461C82.5832 135.461 72.0527 132.135 69.8355 127.84Z" fill="#FFC344"/>
<path d="M50.0195 137.123C53.7606 133.66 56.6705 129.225 58.1944 124.376H58.8871C61.9355 124.653 64.9838 124.792 68.3093 124.792H69.6948V127.84L69.9719 139.479H68.4478C62.3511 139.618 56.3931 138.925 50.4351 137.539L50.0195 137.123Z" fill="#FDAF0B"/>
<path d="M69.8363 111.213V111.906L70.1134 124.792H68.7277C65.2638 124.792 62.0767 124.653 59.0287 124.376H58.3359C59.3058 121.466 59.7214 118.418 59.7214 115.37C59.7214 113.291 59.4443 111.352 59.0287 109.412H59.7214C62.631 109.689 65.5409 109.827 68.7277 109.827L69.9747 110.52C69.8363 110.797 69.8363 111.074 69.8363 111.213Z" fill="#FFC344"/>
<path d="M49.605 93.3386C55.7017 94.8628 62.0753 95.5555 68.3107 95.4171C84.522 95.4171 98.2395 91.3988 98.2395 86.272H98.5167V102.622C83.4137 102.622 71.0818 106.225 69.5577 110.797L68.3107 110.104C65.2623 110.104 62.3527 109.966 59.5815 109.689H58.8887C57.6417 103.315 54.3162 97.634 49.3281 93.477L49.605 93.3386Z" fill="#FDAF0B"/>
<path d="M59.1661 109.689C57.7806 103.315 54.3164 97.4955 49.3283 93.2002C46.28 90.429 42.6773 88.4892 38.7978 87.3806C36.0266 86.4108 32.9783 85.9952 30.0687 85.9952C13.5799 85.8562 0.139523 99.0194 0.00108207 115.508C-0.137358 131.996 13.0256 145.437 29.5144 145.575C37.1352 145.575 44.3402 142.804 50.0211 137.677C53.9008 134.075 56.8105 129.502 58.3346 124.514C59.3045 121.604 59.7201 118.694 59.7201 115.646C59.7204 113.707 59.1661 111.628 59.1661 109.689Z" fill="#FEDB41"/>
<path d="M128.862 111.628V111.906C128.446 116.755 115.006 120.773 98.9332 120.773C82.8603 120.773 70.3898 117.032 69.4199 112.321V111.629C69.4199 111.352 69.4199 111.074 69.5584 110.797C71.0825 106.225 83.4143 102.622 98.5173 102.622H98.9329C115.283 102.622 128.862 106.64 128.862 111.628Z" fill="#FEDB41"/>
<path d="M54.2448 62.7121C54.2448 64.407 54.1774 68.2036 54.2448 69.8307C54.3122 71.5257 54.8516 73.5596 55.5259 74.7799C56.2001 76.0002 62.8078 101.492 63.8192 101.966C64.8306 102.441 66.2465 103.526 68.539 102.441C70.8314 101.356 72.2473 99.8646 72.2473 99.0511C72.2473 98.2375 68.7412 83.5935 67.8647 81.7629C66.9882 79.9324 66.4488 75.9324 66.7185 75.4579C66.9882 74.9833 68.1344 74.6443 68.1344 74.6443H80.6081C80.6081 74.6443 83.8445 76.407 84.0467 77.5596C84.249 78.7121 84.4513 94.6443 84.4513 96.9494C84.4513 99.2545 84.7884 103.39 85.3278 104.068C85.8672 104.746 88.2945 104.814 90.2499 104.543C92.2052 104.339 93.1492 103.797 93.3514 103.254C93.5537 102.644 93.8908 82.5765 93.8908 80.0002C93.8908 77.424 94.4302 72.3392 92.7446 70.3053C91.059 68.2714 83.777 64.1358 82.8331 63.8646C81.8891 63.5935 80.7429 59.8646 79.6641 59.3901C78.6527 58.9155 54.2448 62.7121 54.2448 62.7121Z" fill="#192B59"/>
<path d="M85.7999 103.119C86.2718 102.305 87.6203 102.102 88.9014 102.102C90.1825 102.102 90.5196 101.898 90.6545 102.169C90.7893 102.441 90.7893 104.949 90.7893 104.949L85.5976 109.424C85.5976 109.424 85.1256 108.542 84.8559 108.068C84.6536 107.661 84.9233 106.983 85.3279 106.373C85.7324 105.763 85.8673 105.288 85.8673 104.949C85.8673 104.61 85.5302 103.593 85.7999 103.119Z" fill="#F2DAD4"/>
<path d="M103.127 3.45783C103.464 3.79681 103.734 4.27139 103.666 4.81376C103.599 5.35614 103.194 6.98325 102.588 7.45783C101.981 7.93241 101.239 8.33919 101.104 8.61037C100.969 8.88156 97.261 14.9833 96.9913 14.9833C96.789 14.9833 94.2943 12.8816 94.4291 12.0002C94.564 11.1188 96.8564 8.20359 97.1261 7.52563C97.3958 6.84766 97.261 5.83071 97.0587 5.42393C96.8564 5.01715 96.317 3.05105 96.6541 2.44088C96.9238 1.83071 97.7329 1.15275 98.0701 0.88156C98.4072 0.610374 99.2837 0.0680013 99.5534 0.203594C99.8231 0.271391 100.228 0.745967 100.497 0.813764C100.834 0.881561 101.846 1.01715 101.981 1.15275C102.183 1.35614 102.116 1.76292 102.25 1.83071C102.385 1.89851 102.857 2.1697 102.925 2.50868C102.992 2.84766 102.79 2.84766 102.925 3.18664C103.127 3.45783 103.127 3.45783 103.127 3.45783Z" fill="#F2DAD4"/>
<path d="M101.981 5.22027C102.116 5.28807 101.981 5.62705 101.846 5.76265C101.711 5.89824 101.172 6.10163 100.97 6.03383C100.767 5.96604 99.621 5.28807 99.2165 4.81349C98.8793 4.40671 98.9468 3.59315 98.7445 3.38977C98.4748 3.18638 98.2051 3.11858 98.2051 2.98299C98.2051 2.84739 98.2725 2.44061 98.5422 2.44061C98.7445 2.44061 99.0142 2.44061 98.9468 2.644C98.8793 2.84739 98.8119 2.91519 98.8119 3.05078C98.8119 3.18638 98.9468 3.66095 99.0816 3.66095C99.2165 3.66095 99.4187 3.72875 99.3513 3.86434C99.2839 4.06773 99.149 4.6101 99.4187 4.81349C99.6884 5.01688 100.16 4.94909 100.16 5.08468C100.228 5.22027 100.498 5.69485 100.835 5.76265C101.172 5.76265 101.442 5.76265 101.442 5.62705C101.442 5.49146 101.374 5.22027 101.509 5.22027C101.644 5.22027 101.981 5.22027 101.981 5.22027Z" fill="url(#paint0_linear_1826_485)"/>
<path d="M25.8586 2.37288C25.454 2.64407 25.1169 2.98305 25.0495 3.52542C24.9821 4.0678 24.9821 5.69491 25.454 6.30508C25.926 6.91525 26.6003 7.45763 26.6003 7.72881C26.6677 8 28.8253 14.8475 29.0276 14.9153C29.2299 14.9153 32.1291 13.5593 32.1966 12.6102C32.264 11.7288 30.7806 8.33898 30.6458 7.59322C30.5109 6.84746 30.9829 5.8983 31.2526 5.55932C31.5223 5.22034 32.5337 3.45763 32.3988 2.77966C32.264 2.10169 31.6572 1.28814 31.3875 0.949152C31.0503 0.745763 30.3761 0 30.1064 0C29.8367 0 29.3647 0.40678 29.0276 0.40678C28.6905 0.40678 27.6791 0.271186 27.4768 0.40678C27.2745 0.542373 27.2071 0.949152 27.0723 1.01695C26.9374 1.01695 26.398 1.22034 26.1957 1.49153C26.0609 1.76271 26.2631 1.83051 26.0609 2.10169C25.8586 2.37288 25.8586 2.37288 25.8586 2.37288Z" fill="#F2DAD4"/>
<path d="M26.5328 4.40662C26.3979 4.47441 26.3979 4.8134 26.5328 4.94899C26.6676 5.08458 27.1396 5.42357 27.3419 5.42357C27.5442 5.42357 28.8927 5.01679 29.2972 4.6778C29.7018 4.27102 29.8366 3.45746 30.1063 3.38967C30.376 3.25407 30.7131 3.25407 30.7131 3.11848C30.7131 2.98289 30.7806 2.57611 30.5109 2.50831C30.3086 2.37272 30.1063 2.37272 30.1063 2.50831C30.1063 2.6439 30.1737 2.7795 30.1063 2.91509C30.1063 3.05068 29.8366 3.45746 29.7018 3.45746C29.5669 3.45746 29.3646 3.38967 29.3646 3.59306C29.3646 3.79645 29.3646 4.33882 29.0949 4.47441C28.8252 4.61001 28.3533 4.47441 28.2858 4.54221C28.2184 4.6778 27.8139 5.08458 27.4767 5.01679C27.207 4.94899 26.8699 4.8134 26.8699 4.7456C26.8699 4.6778 27.0048 4.40662 26.8699 4.33882C26.8025 4.27102 26.5328 4.40662 26.5328 4.40662Z" fill="url(#paint1_linear_1826_485)"/>
<path d="M32.7367 10.9829C31.7253 10.5083 29.77 14.0337 28.2192 14.3727C26.6684 14.7117 28.4889 17.3558 28.9609 18.3049C29.4329 19.2541 34.2875 27.4575 35.2989 28.4066C36.3102 29.288 42.9179 34.5083 44.8058 35.5931C46.7611 36.6778 49.7953 39.1185 50.6718 42.1693C51.5483 45.2202 52.2226 50.2371 51.4809 53.3558C50.6718 56.4066 48.5816 63.5253 49.593 63.8642C50.6044 64.2032 62.2689 62.2371 65.8425 62.2371C69.416 62.2371 77.507 61.8981 78.7207 62.3727C79.9343 62.8473 81.62 63.0507 82.092 63.0507C82.5639 63.0507 76.6979 52.1354 75.9563 49.288C75.2146 46.4405 74.4055 41.5592 75.8888 38.9829C77.3722 36.4066 86.7443 29.6948 87.9579 27.9998C89.1716 26.3049 91.8012 22.1693 93.6891 20.0676C95.577 17.9659 98.8134 14.8473 98.4763 14.4405C98.1391 13.9659 96.049 13.288 95.577 12.4066C95.105 11.4575 94.7005 10.2371 94.0262 10.7117C93.352 11.1863 86.8117 18.1015 85.8678 19.4575C84.9238 20.8812 78.451 26.7117 77.3048 27.1185C76.1585 27.5253 75.3494 28.4066 74.1358 27.3897C72.9221 26.3727 71.1016 26.2371 70.0228 26.9151C68.944 27.5931 66.5167 30.3049 64.6962 29.4914C62.8758 28.61 60.6507 26.8473 60.2462 26.8473C59.8416 26.8473 58.9651 26.4405 58.4257 26.9829C57.8863 27.5253 57.8189 28.3388 57.3469 28.2032C56.8749 27.9998 53.8408 27.2541 52.6271 27.3219C51.3461 27.3897 51.0764 29.0168 50.1324 28.8812C49.2559 28.7456 42.7831 26.3049 40.4906 23.3897C38.1981 20.4744 33.411 11.3219 32.7367 10.9829Z" fill="url(#paint2_linear_1826_485)"/>
<path d="M59.7735 25.9658C59.7061 26.5081 59.6387 27.4573 59.6387 28.0675C59.6387 28.6776 60.5152 29.898 61.7963 30.5759C63.0773 31.2539 63.6168 31.6607 64.0887 31.6607C64.5607 31.6607 66.516 29.9658 66.7183 29.6268C66.9206 29.2878 67.1229 28.1353 67.0554 27.7963C66.988 27.4573 59.7735 25.9658 59.7735 25.9658Z" fill="url(#paint3_linear_1826_485)"/>
<path d="M57.8176 21.1522C57.4804 20.2709 56.7388 18.5081 56.8736 17.0844C57.0085 15.5929 56.6713 13.6268 58.4918 12.6776C60.2449 11.7285 61.526 12.542 61.8631 12.4742C62.2002 12.4064 62.8745 9.96577 65.6389 10.4403C68.4033 10.9149 70.4935 12.4064 70.8981 14.4403C71.3026 16.4064 70.7632 21.0844 70.1564 22.3726C69.5496 23.6607 65.0321 23.8641 63.8858 23.8641C62.7396 23.8641 58.2896 23.1861 58.1547 22.7115C58.0198 22.1692 57.8176 21.1522 57.8176 21.1522Z" fill="#E64D4E"/>
<path d="M58.8287 21.898C58.6264 21.4235 58.0196 20.2709 57.4128 20.7455C56.806 21.2201 57.6825 23.7286 57.9522 23.9997C58.2219 24.2709 58.2219 24.6777 58.559 24.6777C58.8961 24.7455 59.1658 24.4743 59.2333 24.7455C59.3681 25.0167 60.0424 27.5252 60.7841 28.3387C61.5932 29.1523 63.6833 30.4404 64.4924 30.4404C65.3015 30.4404 66.9198 29.2201 67.7289 27.6608C68.538 26.1014 68.9425 25.1523 69.2796 25.0845C69.6168 24.9489 69.8865 24.5421 69.8865 23.9997C69.8865 23.4574 70.3584 22.915 70.4259 22.576C70.5607 22.237 70.6281 21.0845 70.291 21.0845C69.9539 21.0845 69.8865 22.3048 69.6842 22.3048C69.4819 22.3048 69.6842 20.0675 69.4145 19.6608C69.1448 19.254 69.5493 18.0336 69.1448 17.4913C68.7402 16.9489 67.0546 14.3048 63.8182 14.1692C60.5818 14.0336 59.9075 15.1862 59.6378 15.9319C59.3681 16.6777 60.0424 17.6269 59.9075 18.1014C59.7052 18.5082 59.031 18.915 59.031 19.3218C59.031 19.7286 59.2333 22.0336 59.031 22.1014C58.8961 22.1692 58.8287 21.898 58.8287 21.898Z" fill="#F2DAD4"/>
<path d="M65.9082 99.7286C65.9082 98.7795 67.5938 98.1693 68.4704 98.1693C69.3469 98.1693 70.6954 98.2371 70.7628 98.5083C70.8977 98.7795 72.381 102.034 72.381 102.305C72.381 102.576 69.1446 103.729 68.6726 103.729C68.2007 103.729 67.459 103.729 67.2567 103.322C67.1219 102.915 65.9082 100.135 65.9082 99.7286Z" fill="#F2DAD4"/>
<path d="M62.538 108.136C62.4031 106.983 62.066 105.831 62.538 105.356C63.01 104.814 63.6842 103.932 64.1562 103.932C64.6956 103.932 66.2464 104 66.3812 103.932C66.9206 103.729 66.7858 102.712 66.988 102.441C67.1229 102.305 67.932 101.424 69.3479 101.424C70.2919 101.424 71.101 102.102 72.1798 102.034C72.5169 102.034 72.5169 101.966 72.7192 102.441C72.9215 102.915 72.9889 103.729 73.4609 104.136C74.0003 104.61 75.1465 106.305 75.4162 107.187C75.6859 108.068 75.8208 108.204 75.9556 108.949C76.0905 109.695 73.9329 110.576 72.5843 110.237C71.2358 109.898 62.538 108.136 62.538 108.136Z" fill="url(#paint4_linear_1826_485)"/>
<path d="M62.6057 107.322C61.9989 108.271 64.2239 111.729 64.8981 111.864C65.6398 112.068 66.9209 112.203 67.3929 111.864C67.8648 111.525 68.2694 111.051 68.5391 111.119C68.8088 111.186 69.2133 111.525 69.3482 112.068C69.4831 112.61 69.6853 112.949 69.955 113.085C70.2247 113.22 72.7869 113.288 73.7308 113.085C74.6748 112.881 76.8324 111.797 76.8998 111.254C77.0347 110.712 76.0907 108.746 75.6862 108.61C75.2142 108.407 72.652 108.475 72.1126 108.271C71.5732 108.068 68.8088 107.729 67.258 106.509C65.7072 105.288 64.7633 105.017 63.6845 106.17C62.6057 107.322 62.6057 107.322 62.6057 107.322Z" fill="#176AD4"/>
<path d="M84.6526 107.661C83.9783 107.932 83.7086 111.864 83.6412 113.152C83.5738 114.441 89.2375 113.288 89.2375 113.288L96.2497 111.051C96.2497 111.051 98.7445 112 99.2164 111.119C99.6884 110.237 100.026 108.407 98.8793 107.525C97.7331 106.644 96.3846 107.39 95.98 107.525C95.5081 107.661 94.6315 108.474 94.2944 108.203C94.0247 107.932 92.3391 105.22 91.7997 104.949C91.3277 104.678 91.53 104.068 89.9792 104.203C88.4284 104.339 87.8216 104.813 87.0799 105.424C86.4057 106.169 86.0011 107.186 84.6526 107.661Z" fill="url(#paint5_linear_1826_485)"/>
<path d="M83.7776 112.881C83.4405 113.424 83.5753 115.186 83.7776 115.254C83.9799 115.39 87.486 115.661 88.3625 115.593C89.3065 115.525 91.3967 115.051 91.4641 114.779C91.5315 114.508 91.2618 113.288 91.4641 113.288C91.6664 113.288 94.2285 113.763 95.2399 113.763C96.2513 113.763 98.6786 112.339 99.218 111.118C99.7574 109.898 99.4202 109.017 98.1392 108.881C96.8581 108.746 93.8914 110.508 92.8126 111.118C91.7338 111.729 90.1156 112.474 89.5762 112.407C89.0368 112.339 88.4299 111.864 86.8117 112C85.1935 112.203 84.1147 112.339 83.7776 112.881Z" fill="#176AD4"/>
<defs>
<linearGradient id="paint0_linear_1826_485" x1="101.46" y1="2.9116" x2="98.1838" y2="5.7416" gradientUnits="userSpaceOnUse">
<stop stop-color="#F2BFAD"/>
<stop offset="1" stop-color="#F2DAD4"/>
</linearGradient>
<linearGradient id="paint1_linear_1826_485" x1="27.5839" y1="2.28912" x2="30.078" y2="5.8353" gradientUnits="userSpaceOnUse">
<stop stop-color="#F2BFAD"/>
<stop offset="1" stop-color="#F2DAD4"/>
</linearGradient>
<linearGradient id="paint2_linear_1826_485" x1="27.6295" y1="37.207" x2="98.585" y2="37.207" gradientUnits="userSpaceOnUse">
<stop stop-color="#4E9CFF"/>
<stop offset="0.7994" stop-color="#176AD4"/>
</linearGradient>
<linearGradient id="paint3_linear_1826_485" x1="59.6141" y1="28.8259" x2="67.0802" y2="28.8259" gradientUnits="userSpaceOnUse">
<stop stop-color="#F2BFAD"/>
<stop offset="1" stop-color="#F2DAD4"/>
</linearGradient>
<linearGradient id="paint4_linear_1826_485" x1="62.2859" y1="105.901" x2="75.9956" y2="105.901" gradientUnits="userSpaceOnUse">
<stop stop-color="#4E9CFF"/>
<stop offset="0.7994" stop-color="#176AD4"/>
</linearGradient>
<linearGradient id="paint5_linear_1826_485" x1="98.2125" y1="106.841" x2="82.7233" y2="110.902" gradientUnits="userSpaceOnUse">
<stop stop-color="#4E9CFF"/>
<stop offset="1" stop-color="#176AD4"/>
</linearGradient>
</defs>
</svg>
