<svg width="160" height="140" viewBox="0 0 160 140" fill="none" xmlns="http://www.w3.org/2000/svg">
<g clip-path="url(#clip0_1452_0)">
<path d="M145.885 68.8145H128.962C128.962 72.4755 126.265 75.4585 122.759 76.0009V76.0687V80.1365C122.759 80.6789 122.287 81.1534 121.747 81.1534C121.208 81.1534 120.736 80.6789 120.736 80.1365V76.0687V76.0009C117.23 75.5263 114.533 72.4755 114.533 68.8145H18.1146C9.2145 68.8145 2 76.0687 2 85.0178V123.798C2 132.747 9.2145 140.001 18.1146 140.001H114.6C114.6 136.34 117.297 133.357 120.803 132.814V132.747V128.679C120.803 128.137 121.275 127.662 121.815 127.662C122.354 127.662 122.826 128.137 122.826 128.679V132.747V132.814C126.332 133.289 129.029 136.34 129.029 140.001H145.953C154.853 140.001 162.067 132.747 162.067 123.798V85.0178C162 76.0687 154.785 68.8145 145.885 68.8145ZM122.826 121.764C122.826 122.306 122.354 122.781 121.815 122.781C121.275 122.781 120.803 122.306 120.803 121.764V114.848C120.803 114.306 121.275 113.831 121.815 113.831C122.354 113.831 122.826 114.306 122.826 114.848V121.764ZM122.826 107.865C122.826 108.408 122.354 108.882 121.815 108.882C121.275 108.882 120.803 108.408 120.803 107.865V100.95C120.803 100.408 121.275 99.9331 121.815 99.9331C122.354 99.9331 122.826 100.408 122.826 100.95V107.865ZM122.826 93.967C122.826 94.5094 122.354 94.984 121.815 94.984C121.275 94.984 120.803 94.5094 120.803 93.967V87.0517C120.803 86.5094 121.275 86.0348 121.815 86.0348C122.354 86.0348 122.826 86.5094 122.826 87.0517V93.967Z" fill="url(#paint0_linear_1452_0)"/>
<path d="M63.2448 62.7127C63.2448 64.4076 63.1774 68.2042 63.2448 69.8313C63.3122 71.5263 63.8516 73.5602 64.5259 74.7805C65.2001 76.0008 71.8078 101.492 72.8192 101.967C73.8306 102.442 75.2465 103.526 77.539 102.442C79.8314 101.357 81.2473 99.8652 81.2473 99.0517C81.2473 98.2381 77.7412 83.5941 76.8647 81.7635C75.9882 79.933 75.4488 75.933 75.7185 75.4585C75.9882 74.9839 77.1344 74.6449 77.1344 74.6449H89.6081C89.6081 74.6449 92.8445 76.4076 93.0467 77.5602C93.249 78.7127 93.4513 94.6449 93.4513 96.95C93.4513 99.2551 93.7884 103.391 94.3278 104.069C94.8672 104.747 97.2945 104.814 99.2499 104.543C101.205 104.34 102.149 103.797 102.351 103.255C102.554 102.645 102.891 82.5771 102.891 80.0008C102.891 77.4246 103.43 72.3398 101.745 70.3059C100.059 68.272 92.777 64.1364 91.8331 63.8652C90.8891 63.5941 89.7429 59.8652 88.6641 59.3907C87.6527 58.9161 63.2448 62.7127 63.2448 62.7127Z" fill="#192B59"/>
<path d="M94.7999 103.119C95.2718 102.306 96.6203 102.103 97.9014 102.103C99.1825 102.103 99.5196 101.899 99.6545 102.17C99.7893 102.441 99.7893 104.95 99.7893 104.95L94.5976 109.425C94.5976 109.425 94.1256 108.543 93.8559 108.069C93.6536 107.662 93.9233 106.984 94.3279 106.374C94.7324 105.764 94.8673 105.289 94.8673 104.95C94.8673 104.611 94.5302 103.594 94.7999 103.119Z" fill="#F2DAD4"/>
<path d="M112.128 3.45728C112.465 3.79626 112.735 4.27084 112.668 4.81321C112.6 5.35559 112.196 6.98271 111.589 7.45728C110.982 7.93186 110.24 8.33864 110.105 8.60982C109.971 8.88101 106.262 14.9827 105.992 14.9827C105.79 14.9827 103.295 12.881 103.43 11.9997C103.565 11.1183 105.858 8.20304 106.127 7.52508C106.397 6.84711 106.262 5.83016 106.06 5.42338C105.858 5.0166 105.318 3.0505 105.655 2.44033C105.925 1.83016 106.734 1.1522 107.071 0.881011C107.408 0.609825 108.285 0.067452 108.555 0.203045C108.824 0.270842 109.229 0.745418 109.499 0.813215C109.836 0.881011 110.847 1.0166 110.982 1.1522C111.184 1.35559 111.117 1.76237 111.252 1.83016C111.386 1.89796 111.858 2.16915 111.926 2.50813C111.993 2.84711 111.791 2.84711 111.926 3.1861C112.128 3.45728 112.128 3.45728 112.128 3.45728Z" fill="#F2DAD4"/>
<path d="M110.982 5.21911C111.117 5.28691 110.982 5.62589 110.847 5.76149C110.712 5.89708 110.173 6.10047 109.971 6.03267C109.768 5.96488 108.622 5.28691 108.218 4.81233C107.88 4.40555 107.948 3.592 107.746 3.38861C107.476 3.18522 107.206 3.11742 107.206 2.98183C107.206 2.84623 107.274 2.43945 107.543 2.43945C107.746 2.43945 108.015 2.43945 107.948 2.64284C107.88 2.84623 107.813 2.91403 107.813 3.04962C107.813 3.18522 107.948 3.65979 108.083 3.65979C108.218 3.65979 108.42 3.72759 108.352 3.86318C108.285 4.06657 108.15 4.60894 108.42 4.81233C108.69 5.01572 109.162 4.94793 109.162 5.08352C109.229 5.21911 109.499 5.69369 109.836 5.76149C110.173 5.76149 110.443 5.76149 110.443 5.62589C110.443 5.4903 110.375 5.21911 110.51 5.21911C110.645 5.21911 110.982 5.21911 110.982 5.21911Z" fill="url(#paint1_linear_1452_0)"/>
<path d="M34.8588 2.37288C34.4543 2.64407 34.1172 2.98305 34.0497 3.52542C33.9823 4.0678 33.9823 5.69492 34.4543 6.30508C34.9263 6.91525 35.6005 7.45763 35.6005 7.72881C35.6679 8 37.8256 14.8475 38.0278 14.9153C38.2301 14.9153 41.1294 13.5593 41.1968 12.6102C41.2642 11.7288 39.7809 8.33898 39.646 7.59322C39.5112 6.84746 39.9832 5.8983 40.2529 5.55932C40.5226 5.22034 41.5339 3.45763 41.3991 2.77966C41.2642 2.10169 40.6574 1.28814 40.3877 0.949152C40.0506 0.745763 39.3763 0 39.1066 0C38.8369 0 38.365 0.40678 38.0278 0.40678C37.6907 0.40678 36.6793 0.271186 36.477 0.40678C36.2748 0.542373 36.2073 0.949152 36.0725 1.01695C35.9376 1.01695 35.3982 1.22034 35.196 1.49153C35.0611 1.76271 35.2634 1.83051 35.0611 2.10169C34.8588 2.37288 34.8588 2.37288 34.8588 2.37288Z" fill="#F2DAD4"/>
<path d="M35.5331 4.40625C35.3983 4.47405 35.3983 4.81303 35.5331 4.94862C35.668 5.08422 36.14 5.4232 36.3422 5.4232C36.5445 5.4232 37.893 5.01642 38.2976 4.67744C38.7021 4.27066 38.837 3.4571 39.1067 3.3893C39.3764 3.25371 39.7135 3.25371 39.7135 3.11811C39.7135 2.98252 39.7809 2.57574 39.5112 2.50794C39.309 2.37235 39.1067 2.37235 39.1067 2.50794C39.1067 2.64354 39.1741 2.77913 39.1067 2.91472C39.1067 3.05032 38.837 3.4571 38.7021 3.4571C38.5673 3.4571 38.365 3.3893 38.365 3.59269C38.365 3.79608 38.365 4.33845 38.0953 4.47405C37.8256 4.60964 37.3536 4.47405 37.2862 4.54184C37.2188 4.67744 36.8142 5.08422 36.4771 5.01642C36.2074 4.94862 35.8703 4.81303 35.8703 4.74523C35.8703 4.67744 36.0051 4.40625 35.8703 4.33845C35.8028 4.27066 35.5331 4.40625 35.5331 4.40625Z" fill="url(#paint2_linear_1452_0)"/>
<path d="M41.7362 10.9825C40.7248 10.5079 38.7695 14.0333 37.2187 14.3723C35.6679 14.7113 37.4884 17.3554 37.9604 18.3045C38.4324 19.2537 43.287 27.4571 44.2984 28.4062C45.3097 29.2876 51.9174 34.5079 53.8053 35.5927C55.7607 36.6774 58.7948 39.1181 59.6713 42.1689C60.5478 45.2198 61.2221 50.2367 60.4804 53.3554C59.6713 56.4062 57.5811 63.5249 58.5925 63.8638C59.6039 64.2028 71.2684 62.2367 74.842 62.2367C78.4155 62.2367 86.5066 61.8977 87.7202 62.3723C88.9339 62.8469 90.6195 63.0503 91.0915 63.0503C91.5634 63.0503 85.6974 52.135 84.9558 49.2876C84.2141 46.4401 83.405 41.5588 84.8883 38.9825C86.3717 36.4062 95.7438 29.6944 96.9575 27.9994C98.1711 26.3045 100.801 22.1689 102.689 20.0672C104.577 17.9656 107.813 14.8469 107.476 14.4401C107.139 13.9656 105.048 13.2876 104.577 12.4062C104.105 11.4571 103.7 10.2367 103.026 10.7113C102.351 11.1859 95.8112 18.1011 94.8673 19.4571C93.9233 20.8808 87.4505 26.7113 86.3043 27.1181C85.158 27.5249 84.3489 28.4062 83.1353 27.3893C81.9216 26.3723 80.1011 26.2367 79.0223 26.9147C77.9435 27.5927 75.5162 30.3045 73.6958 29.491C71.8753 28.6096 69.6502 26.8469 69.2457 26.8469C68.8411 26.8469 67.9646 26.4401 67.4252 26.9825C66.8858 27.5249 66.8184 28.3384 66.3464 28.2028C65.8744 27.9994 62.8403 27.2537 61.6266 27.3215C60.3456 27.3893 60.0759 29.0164 59.1319 28.8808C58.2554 28.7452 51.7826 26.3045 49.4901 23.3893C47.1977 20.474 42.4105 11.3215 41.7362 10.9825Z" fill="url(#paint3_linear_1452_0)"/>
<path d="M68.7738 25.9648C68.7063 26.5072 68.6389 27.4564 68.6389 28.0665C68.6389 28.6767 69.5154 29.897 70.7965 30.575C72.0776 31.253 72.617 31.6598 73.089 31.6598C73.5609 31.6598 75.5163 29.9648 75.7185 29.6259C75.9208 29.2869 76.1231 28.1343 76.0557 27.7954C75.9883 27.4564 68.7738 25.9648 68.7738 25.9648Z" fill="url(#paint4_linear_1452_0)"/>
<path d="M66.8184 21.1519C66.4813 20.2706 65.7396 18.5079 65.8745 17.0841C66.0093 15.5926 65.6722 13.6265 67.4927 12.6774C69.2457 11.7282 70.5268 12.5418 70.8639 12.474C71.2011 12.4062 71.8753 9.9655 74.6398 10.4401C77.4042 10.9146 79.4944 12.4062 79.8989 14.4401C80.3035 16.4062 79.7641 21.0841 79.1572 22.3723C78.5504 23.6604 74.0329 23.8638 72.8867 23.8638C71.7405 23.8638 67.2904 23.1858 67.1556 22.7113C67.0207 22.1689 66.8184 21.1519 66.8184 21.1519Z" fill="#E64D4E"/>
<path d="M67.8298 21.898C67.6275 21.4234 67.0207 20.2709 66.4139 20.7454C65.8071 21.22 66.6836 23.7285 66.9533 23.9997C67.223 24.2709 67.223 24.6776 67.5601 24.6776C67.8972 24.7454 68.1669 24.4743 68.2344 24.7454C68.3692 25.0166 69.0435 27.5251 69.7851 28.3387C70.5943 29.1522 72.6844 30.4404 73.4935 30.4404C74.3026 30.4404 75.9208 29.22 76.73 27.6607C77.5391 26.1014 77.9436 25.1522 78.2807 25.0844C78.6179 24.9488 78.8876 24.5421 78.8876 23.9997C78.8876 23.4573 79.3595 22.9149 79.427 22.5759C79.5618 22.237 79.6292 21.0844 79.2921 21.0844C78.955 21.0844 78.8876 22.3048 78.6853 22.3048C78.483 22.3048 78.6853 20.0675 78.4156 19.6607C78.1459 19.2539 78.5504 18.0336 78.1459 17.4912C77.7413 16.9488 76.0557 14.3048 72.8193 14.1692C69.5829 14.0336 68.9086 15.1861 68.6389 15.9319C68.3692 16.6776 69.0435 17.6268 68.9086 18.1014C68.7063 18.5082 68.0321 18.9149 68.0321 19.3217C68.0321 19.7285 68.2344 22.0336 68.0321 22.1014C67.8972 22.1692 67.8298 21.898 67.8298 21.898Z" fill="#F2DAD4"/>
<path d="M74.9094 99.7292C74.9094 98.7801 76.5951 98.1699 77.4716 98.1699C78.3481 98.1699 79.6966 98.2377 79.764 98.5089C79.8989 98.7801 81.3822 102.034 81.3822 102.306C81.3822 102.577 78.1458 103.729 77.6739 103.729C77.2019 103.729 76.4602 103.729 76.2579 103.322C76.1231 102.916 74.9094 100.136 74.9094 99.7292Z" fill="#F2DAD4"/>
<path d="M71.5381 108.136C71.4033 106.983 71.0661 105.831 71.5381 105.356C72.0101 104.814 72.6843 103.932 73.1563 103.932C73.6957 103.932 75.2465 104 75.3813 103.932C75.9208 103.729 75.7859 102.712 75.9882 102.441C76.123 102.305 76.9321 101.424 78.3481 101.424C79.292 101.424 80.1011 102.102 81.1799 102.034C81.517 102.034 81.517 101.966 81.7193 102.441C81.9216 102.915 81.989 103.729 82.461 104.136C83.0004 104.61 84.1466 106.305 84.4163 107.187C84.686 108.068 84.8209 108.203 84.9557 108.949C85.0906 109.695 82.933 110.576 81.5845 110.237C80.236 109.898 71.5381 108.136 71.5381 108.136Z" fill="url(#paint5_linear_1452_0)"/>
<path d="M71.6056 107.323C70.9987 108.272 73.2238 111.73 73.898 111.865C74.6397 112.069 75.9208 112.204 76.3928 111.865C76.8647 111.526 77.2693 111.052 77.539 111.12C77.8087 111.187 78.2132 111.526 78.3481 112.069C78.4829 112.611 78.6852 112.95 78.9549 113.086C79.2246 113.221 81.7868 113.289 82.7307 113.086C83.6747 112.882 85.8323 111.798 85.8997 111.255C86.0346 110.713 85.0906 108.747 84.686 108.611C84.2141 108.408 81.6519 108.476 81.1125 108.272C80.5731 108.069 77.8087 107.73 76.2579 106.509C74.7071 105.289 73.7632 105.018 72.6844 106.17C71.6056 107.323 71.6056 107.323 71.6056 107.323Z" fill="#176AD4"/>
<path d="M93.6536 107.661C92.9793 107.932 92.7096 111.864 92.6422 113.152C92.5748 114.44 98.2385 113.288 98.2385 113.288L105.251 111.05C105.251 111.05 107.745 112 108.217 111.118C108.689 110.237 109.027 108.406 107.88 107.525C106.734 106.644 105.386 107.389 104.981 107.525C104.509 107.661 103.633 108.474 103.295 108.203C103.026 107.932 101.34 105.22 100.801 104.949C100.329 104.678 100.531 104.067 98.9802 104.203C97.4294 104.339 96.8226 104.813 96.0809 105.423C95.4066 106.169 95.0021 107.186 93.6536 107.661Z" fill="url(#paint6_linear_1452_0)"/>
<path d="M92.7771 112.88C92.44 113.423 92.5748 115.186 92.7771 115.253C92.9794 115.389 96.4855 115.66 97.362 115.592C98.306 115.525 100.396 115.05 100.464 114.779C100.531 114.508 100.261 113.287 100.464 113.287C100.666 113.287 103.228 113.762 104.239 113.762C105.251 113.762 107.678 112.338 108.217 111.118C108.757 109.897 108.42 109.016 107.139 108.88C105.858 108.745 102.891 110.508 101.812 111.118C100.733 111.728 99.1151 112.474 98.5757 112.406C98.0363 112.338 97.4295 111.864 95.8113 111.999C94.1931 112.202 93.1142 112.338 92.7771 112.88Z" fill="#176AD4"/>
</g>
<defs>
<linearGradient id="paint0_linear_1452_0" x1="69.9418" y1="9.76258" x2="81.304" y2="97.8905" gradientUnits="userSpaceOnUse">
<stop stop-color="#F2BE3C"/>
<stop offset="1" stop-color="#FFAC00"/>
</linearGradient>
<linearGradient id="paint1_linear_1452_0" x1="110.462" y1="2.91044" x2="107.185" y2="5.74044" gradientUnits="userSpaceOnUse">
<stop stop-color="#F2BFAD"/>
<stop offset="1" stop-color="#F2DAD4"/>
</linearGradient>
<linearGradient id="paint2_linear_1452_0" x1="36.5842" y1="2.28876" x2="39.0783" y2="5.83494" gradientUnits="userSpaceOnUse">
<stop stop-color="#F2BFAD"/>
<stop offset="1" stop-color="#F2DAD4"/>
</linearGradient>
<linearGradient id="paint3_linear_1452_0" x1="36.629" y1="37.2066" x2="107.584" y2="37.2066" gradientUnits="userSpaceOnUse">
<stop stop-color="#4E9CFF"/>
<stop offset="0.7994" stop-color="#176AD4"/>
</linearGradient>
<linearGradient id="paint4_linear_1452_0" x1="68.6144" y1="28.825" x2="76.0805" y2="28.825" gradientUnits="userSpaceOnUse">
<stop stop-color="#F2BFAD"/>
<stop offset="1" stop-color="#F2DAD4"/>
</linearGradient>
<linearGradient id="paint5_linear_1452_0" x1="71.2861" y1="105.901" x2="84.9957" y2="105.901" gradientUnits="userSpaceOnUse">
<stop stop-color="#4E9CFF"/>
<stop offset="0.7994" stop-color="#176AD4"/>
</linearGradient>
<linearGradient id="paint6_linear_1452_0" x1="107.213" y1="106.841" x2="91.7243" y2="110.902" gradientUnits="userSpaceOnUse">
<stop stop-color="#4E9CFF"/>
<stop offset="1" stop-color="#176AD4"/>
</linearGradient>
<clipPath id="clip0_1452_0">
<rect width="160" height="140" fill="white"/>
</clipPath>
</defs>
</svg>
