<svg width="15" height="14" viewBox="0 0 15 14" fill="none" xmlns="http://www.w3.org/2000/svg">
<path d="M13.5938 0.8125H1.40625C0.615234 0.8125 0 1.45703 0 2.21875V12.5312C0 13.3223 0.615234 13.9375 1.40625 13.9375H13.5938C14.3555 13.9375 15 13.3223 15 12.5312V2.21875C15 1.45703 14.3555 0.8125 13.5938 0.8125ZM6.79688 12.5312H1.58203C1.46484 12.5312 1.40625 12.4727 1.40625 12.3555V8.54688H6.79688V12.5312ZM6.79688 7.14062H1.40625V3.15625H6.79688V7.14062ZM13.418 12.5312H8.20312V8.54688H13.5938V12.3555C13.5938 12.4727 13.5059 12.5312 13.418 12.5312ZM13.5938 7.14062H8.20312V3.15625H13.5938V7.14062Z" fill="#C7C6CC"/>
</svg>
