<svg width="16" height="12" viewBox="0 0 16 12" fill="none" xmlns="http://www.w3.org/2000/svg">
<path d="M11 9.49959L11 7.49937C11 7.2232 10.7761 6.99926 10.5 6.99926L4.00002 6.99926L4.00002 5.50003C4.00002 5.29777 3.87811 5.11543 3.69137 5.03798C3.50464 4.96075 3.28958 5.00346 3.14643 5.14641L0.14846 8.14597C0.0535429 8.23891 -1.58831e-07 8.36638 -1.53008e-07 8.49959C-1.47194e-07 8.63259 0.0535429 8.76005 0.14846 8.85299L3.14643 11.8537C3.28958 11.9966 3.50464 12.0393 3.69137 11.9619C3.87811 11.8844 4.00002 11.7023 4.00002 11.5L4.00002 9.9997L10.5 9.9997C10.7761 9.9997 11 9.77576 11 9.49959Z" fill="#05AB6F"/>
<path d="M15.8515 3.85304C15.9465 3.75987 16 3.63264 16 3.49942C16 3.36643 15.9465 3.23897 15.8515 3.14581L12.8536 0.146509C12.7104 0.00355925 12.4954 -0.0393704 12.3086 0.0380794C12.1219 0.115529 12 0.297868 12 0.500123L12 1.99933L5.50003 1.99933C5.22391 1.99933 5 2.22327 5 2.49943L5 4.49963C5 4.7758 5.22391 4.99974 5.50003 4.99974L12 4.99974L12 6.50005C12 6.70208 12.1219 6.88442 12.3086 6.96187C12.4954 7.03932 12.7104 6.99661 12.8536 6.85344L15.8515 3.85304Z" fill="#C20202"/>
</svg>
