<svg width="16" height="13" viewBox="0 0 16 13" fill="none" xmlns="http://www.w3.org/2000/svg">
<path d="M15.8828 3.82617C16.0293 3.67968 16.0293 3.47461 15.8828 3.32812L13.0703 0.515621C12.8359 0.281246 12.4551 0.457028 12.4551 0.749996V2.85937H1.35156C1.14648 2.85937 1 3.03515 1 3.21093V3.91406C1 4.11914 1.14648 4.26562 1.35156 4.26562H12.4551V6.40429C12.4551 6.69726 12.8359 6.87304 13.0703 6.63867L15.8828 3.82617ZM1.08789 9.45117L3.90039 12.2637C4.13477 12.498 4.51562 12.3223 4.51562 12.0293V9.89062H15.6484C15.8242 9.89062 16 9.74414 16 9.53906V8.83593C16 8.66015 15.8242 8.48437 15.6484 8.48437H4.51562V6.375C4.51562 6.08203 4.13477 5.90625 3.90039 6.14062L1.08789 8.95312C0.941406 9.09961 0.941406 9.30468 1.08789 9.45117Z" fill="#C7C6CC"/>
</svg>
