<svg width="19" height="19" viewBox="0 0 19 19" fill="none" xmlns="http://www.w3.org/2000/svg">
<g clip-path="url(#clip0_2780_7520)">
<path d="M15.6016 18.6747C11.538 19.1084 7.46203 19.1084 3.39841 18.6747C1.77806 18.5018 0.498222 17.2219 0.325287 15.6014C-0.108429 11.5378 -0.108429 7.46203 0.325287 3.39841C0.498222 1.77806 1.77806 0.498222 3.39841 0.325287C7.46203 -0.108429 11.5378 -0.108429 15.6014 0.325287C17.2219 0.498222 18.5018 1.77806 18.6747 3.39841C19.1084 7.46203 19.1084 11.5378 18.6747 15.6014C18.5018 17.2219 17.2221 18.5018 15.6016 18.6747Z" fill="url(#paint0_linear_2780_7520)"/>
<path d="M17.6414 4.08571C17.488 2.64787 16.3524 1.51212 14.9144 1.35861C11.3084 0.973888 7.6917 0.973888 4.08571 1.35861C2.64787 1.51212 1.51212 2.64787 1.35861 4.08571C0.973888 7.6917 0.973888 11.3084 1.35861 14.9143C1.51212 16.3522 2.64787 17.488 4.08571 17.6414C7.6917 18.0262 11.3084 18.0262 14.9143 17.6414C16.3522 17.488 17.488 16.3522 17.6414 14.9143C18.0262 11.3084 18.0262 7.6917 17.6414 4.08571Z" fill="url(#paint1_linear_2780_7520)"/>
<path d="M0.284668 15.2075C0.297714 15.3389 0.311195 15.4702 0.325256 15.6015C0.498192 17.2219 1.77803 18.5017 3.39852 18.6746C7.46214 19.1084 11.5379 19.1084 15.6016 18.6746C17.2221 18.5017 18.5017 17.2219 18.6747 15.6015C18.6887 15.4702 18.7022 15.3389 18.7154 15.2075H0.284668Z" fill="url(#paint2_linear_2780_7520)"/>
<path d="M18.996 8.8324L15.0521 4.88866C14.6102 5.14132 14.2206 5.28149 13.9273 5.35919C13.7623 5.4034 13.6276 5.42747 13.5308 5.44066C13.0861 4.98476 12.4651 4.70166 11.7777 4.70166C10.4252 4.70166 9.32859 5.79813 9.32859 7.15088C9.32859 7.19973 9.3299 7.248 9.33308 7.29613C9.33961 7.4134 9.35454 7.52864 9.37759 7.64069C8.81297 7.63229 6.9778 7.48153 5.22757 5.98121C5.22742 5.98121 5.22742 5.98106 5.22742 5.98106H5.22728L4.40189 5.15553C4.40189 5.15553 3.43356 6.8456 4.8572 8.12804C4.91968 8.19777 4.98839 8.26662 5.06362 8.33432C5.06956 8.34099 5.0758 8.34751 5.08174 8.35418C4.89489 8.34157 4.33289 8.28561 4.0076 8.05586C4.0076 8.05586 3.94222 9.08883 4.80284 9.84928L5.49777 10.5502C5.28613 10.5677 5.05202 10.5635 4.88924 10.4922C4.88924 10.4922 5.03333 11.104 5.59026 11.5937L6.5638 12.5723C5.97976 12.9125 4.95737 13.3383 3.61157 13.2296L9.51733 19.0001C11.5465 18.9995 13.5756 18.8911 15.6017 18.6748C17.2222 18.5019 18.502 17.222 18.6749 15.6017C18.9154 13.3476 19.0223 11.0897 18.996 8.8324Z" fill="url(#paint3_linear_2780_7520)"/>
<path d="M15.3886 5.83987C14.9682 6.05978 14.3351 6.16139 14.1252 6.19067C14.1234 6.18053 14.1217 6.17081 14.1199 6.1611C14.8336 5.7197 15.052 4.88866 15.052 4.88866C14.6101 5.14132 14.2206 5.28149 13.9272 5.35919C13.7622 5.4034 13.6275 5.42732 13.5307 5.44066C13.086 4.98462 12.465 4.70166 11.7776 4.70166C10.4251 4.70166 9.32849 5.79798 9.32849 7.15088C9.32849 7.19959 9.3298 7.248 9.33298 7.29598C9.33951 7.41325 9.35444 7.5285 9.37749 7.64055C8.72285 7.63084 6.35989 7.43007 4.40179 5.15553C4.40179 5.15553 3.31141 7.05796 5.14455 8.35751C5.14455 8.35751 4.40179 8.33432 4.0075 8.05586C4.0075 8.05586 3.89153 9.889 6.00285 10.4688C6.00285 10.4688 5.26052 10.6547 4.88899 10.4922C4.88899 10.4922 5.26038 12.0699 7.11657 12.1862C7.11657 12.1862 5.78527 13.405 3.61133 13.2296C4.68054 13.9065 5.9482 14.2983 7.30733 14.2983C11.1289 14.2983 14.2269 11.2004 14.2269 7.3789C14.2269 7.33121 14.2265 7.28352 14.2255 7.23582C14.2265 7.20756 14.2269 7.17944 14.2269 7.15088C14.2269 7.13102 14.2265 7.11116 14.2262 7.0913C14.9327 6.62048 15.3886 5.83987 15.3886 5.83987Z" fill="white"/>
</g>
<defs>
<linearGradient id="paint0_linear_2780_7520" x1="6.30837" y1="2.67136" x2="11.114" y2="12.9532" gradientUnits="userSpaceOnUse">
<stop stop-color="#00C3FF"/>
<stop offset="1" stop-color="#00B0ED"/>
</linearGradient>
<linearGradient id="paint1_linear_2780_7520" x1="13.5184" y1="11.6556" x2="-14.0862" y2="-3.15247" gradientUnits="userSpaceOnUse">
<stop stop-color="#00B0ED" stop-opacity="0"/>
<stop offset="1" stop-color="#00A2CE"/>
</linearGradient>
<linearGradient id="paint2_linear_2780_7520" x1="9.49998" y1="16.2309" x2="9.49998" y2="18.7206" gradientUnits="userSpaceOnUse">
<stop stop-color="#00B0ED" stop-opacity="0"/>
<stop offset="1" stop-color="#00A2CE"/>
</linearGradient>
<linearGradient id="paint3_linear_2780_7520" x1="18.1622" y1="17.8895" x2="8.88012" y2="8.60742" gradientUnits="userSpaceOnUse">
<stop stop-color="#00B0ED" stop-opacity="0"/>
<stop offset="1" stop-color="#00A2CE"/>
</linearGradient>
<clipPath id="clip0_2780_7520">
<rect width="19" height="19" fill="white"/>
</clipPath>
</defs>
</svg>
