<svg width="25" height="24" viewBox="0 0 25 24" fill="none" xmlns="http://www.w3.org/2000/svg">
<rect x="0.261719" width="23.9997" height="23.9997" rx="11.9998" fill="#77B3EB"/>
<path d="M16.8889 9.1462C16.5434 9.32694 16.0229 9.41046 15.8504 9.43453C15.849 9.42619 15.8476 9.41821 15.8461 9.41022C16.4327 9.04743 16.6122 8.36439 16.6122 8.36439C16.2489 8.57205 15.9288 8.68726 15.6877 8.75113C15.5521 8.78746 15.4414 8.80712 15.3618 8.81808C14.9963 8.44326 14.4859 8.21069 13.9209 8.21069C12.8093 8.21069 11.908 9.11177 11.908 10.2237C11.908 10.2638 11.9091 10.3036 11.9117 10.343C11.917 10.4394 11.9293 10.5341 11.9482 10.6262C11.4102 10.6182 9.46805 10.4532 7.85867 8.58373C7.85867 8.58373 6.96248 10.1474 8.46916 11.2155C8.46916 11.2155 7.85867 11.1964 7.5346 10.9675C7.5346 10.9675 7.43929 12.4742 9.1746 12.9508C9.1746 12.9508 8.56447 13.1035 8.25911 12.97C8.25911 12.97 8.56435 14.2667 10.09 14.3623C10.09 14.3623 8.99577 15.364 7.20898 15.2199C8.08778 15.7763 9.12969 16.0983 10.2468 16.0983C13.3877 16.0983 15.9341 13.5521 15.9341 10.4111C15.9341 10.3719 15.9337 10.3327 15.9329 10.2935C15.9337 10.2703 15.9341 10.2472 15.9341 10.2237C15.9341 10.2074 15.9337 10.1911 15.9335 10.1748C16.5142 9.78779 16.8889 9.1462 16.8889 9.1462Z" fill="white"/>
</svg>
