<svg width="11" height="13" viewBox="0 0 11 13" fill="none" xmlns="http://www.w3.org/2000/svg">
<path d="M7.35938 5.63281C6.78125 6.21094 6.07812 6.5 5.25 6.5C4.42188 6.5 3.71094 6.21094 3.11719 5.63281C2.53906 5.03906 2.25 4.32812 2.25 3.5C2.25 2.67188 2.53906 1.96875 3.11719 1.39062C3.71094 0.796875 4.42188 0.5 5.25 0.5C6.07812 0.5 6.78125 0.796875 7.35938 1.39062C7.95312 1.96875 8.25 2.67188 8.25 3.5C8.25 4.32812 7.95312 5.03906 7.35938 5.63281ZM7.35938 7.25C8.21875 7.25 8.95312 7.5625 9.5625 8.1875C10.1875 8.79688 10.5 9.53125 10.5 10.3906V11.375C10.5 11.6875 10.3906 11.9531 10.1719 12.1719C9.95312 12.3906 9.6875 12.5 9.375 12.5H1.125C0.8125 12.5 0.546875 12.3906 0.328125 12.1719C0.109375 11.9531 0 11.6875 0 11.375V10.3906C0 9.53125 0.304688 8.79688 0.914062 8.1875C1.53906 7.5625 2.28125 7.25 3.14062 7.25H3.53906C4.08594 7.5 4.65625 7.625 5.25 7.625C5.84375 7.625 6.41406 7.5 6.96094 7.25H7.35938Z" fill="#DEDEDE"/>
</svg>
