<svg width="15" height="14" viewBox="0 0 15 14" fill="none" xmlns="http://www.w3.org/2000/svg">
<path d="M6.71875 1.21875C6.94792 0.989583 7.21875 0.9375 7.53125 1.0625C7.84375 1.1875 8 1.41667 8 1.75V12.25C8 12.5833 7.84375 12.8125 7.53125 12.9375C7.21875 13.0625 6.94792 13.0104 6.71875 12.7812L3.9375 10H0.75C0.541667 10 0.364583 9.92708 0.21875 9.78125C0.0729167 9.63542 0 9.45833 0 9.25V4.75C0 4.54167 0.0729167 4.36458 0.21875 4.21875C0.364583 4.07292 0.541667 4 0.75 4H3.9375L6.71875 1.21875ZM14.2812 4.21875C14.7604 5.07292 15 6 15 7C15 8 14.7604 8.9375 14.2812 9.8125C13.8229 10.6667 13.1667 11.3542 12.3125 11.875C12.125 12 11.9271 12.0417 11.7188 12C11.5312 11.9375 11.3854 11.8229 11.2812 11.6562C11.1771 11.4688 11.1458 11.2812 11.1875 11.0938C11.2292 10.8854 11.3438 10.7188 11.5312 10.5938C11.9271 10.3438 12.2708 10.0312 12.5625 9.65625C12.875 9.28125 13.1042 8.86458 13.25 8.40625C13.4167 7.94792 13.5 7.47917 13.5 7C13.5 6.52083 13.4167 6.05208 13.25 5.59375C13.1042 5.13542 12.875 4.71875 12.5625 4.34375C12.2708 3.96875 11.9271 3.65625 11.5312 3.40625C11.3438 3.28125 11.2292 3.125 11.1875 2.9375C11.1458 2.72917 11.1771 2.54167 11.2812 2.375C11.3854 2.1875 11.5417 2.07292 11.75 2.03125C11.9583 1.96875 12.1458 2 12.3125 2.125C13.1667 2.64583 13.8229 3.34375 14.2812 4.21875ZM10.5625 4.59375C11 4.84375 11.3438 5.1875 11.5938 5.625C11.8646 6.04167 12 6.5 12 7C12 7.5 11.8646 7.96875 11.5938 8.40625C11.3438 8.82292 11 9.15625 10.5625 9.40625C10.3958 9.51042 10.2083 9.53125 10 9.46875C9.79167 9.40625 9.63542 9.29167 9.53125 9.125C9.44792 8.9375 9.42708 8.75 9.46875 8.5625C9.53125 8.35417 9.65625 8.19792 9.84375 8.09375C10.2812 7.84375 10.5 7.47917 10.5 7C10.5 6.52083 10.2812 6.15625 9.84375 5.90625C9.65625 5.80208 9.53125 5.65625 9.46875 5.46875C9.42708 5.26042 9.44792 5.07292 9.53125 4.90625C9.63542 4.71875 9.79167 4.59375 10 4.53125C10.2083 4.46875 10.3958 4.48958 10.5625 4.59375Z" fill="#0563AB"/>
</svg>
