<svg width="25" height="24" viewBox="0 0 25 24" fill="none" xmlns="http://www.w3.org/2000/svg">
<rect x="0.630859" width="23.9997" height="23.9997" rx="11.9998" fill="#5BB452"/>
<path d="M7.57812 16.6273L8.25531 14.2222C7.81984 13.4824 7.59056 12.6406 7.59056 11.776C7.59056 9.11354 9.75659 6.94751 12.419 6.94751C15.0814 6.94751 17.2474 9.11354 17.2474 11.776C17.2474 14.4384 15.0814 16.6044 12.419 16.6044C11.5894 16.6044 10.7771 16.392 10.0585 15.9888L7.57812 16.6273ZM10.1853 15.1104L10.3331 15.2006C10.9596 15.5831 11.6809 15.7853 12.419 15.7853C14.6298 15.7853 16.4283 13.9867 16.4283 11.776C16.4283 9.56518 14.6298 7.76657 12.419 7.76657C10.2082 7.76657 8.40963 9.56518 8.40963 11.776C8.40963 12.5463 8.62856 13.2943 9.0427 13.9392L9.14223 14.0942L8.75227 15.4793L10.1853 15.1104Z" fill="white"/>
<path d="M11.0634 9.52839L10.75 9.51131C10.6516 9.50594 10.5551 9.53882 10.4807 9.60344C10.3288 9.73534 10.086 9.99034 10.0114 10.3226C9.90013 10.8181 10.072 11.4248 10.517 12.0315C10.9619 12.6383 11.7911 13.609 13.2573 14.0236C13.7298 14.1572 14.1014 14.0671 14.3882 13.8837C14.6153 13.7384 14.7719 13.5052 14.8283 13.2416L14.8783 13.008C14.8942 12.9337 14.8565 12.8583 14.7875 12.8265L13.7287 12.3385C13.6599 12.3068 13.5784 12.3268 13.5322 12.3867L13.1165 12.9256C13.0851 12.9663 13.0313 12.9825 12.9828 12.9654C12.6981 12.8654 11.7446 12.466 11.2213 11.4581C11.1986 11.4144 11.2043 11.3614 11.2365 11.3241L11.6338 10.8645C11.6743 10.8176 11.6846 10.7516 11.6602 10.6946L11.2038 9.62671C11.1795 9.56986 11.125 9.53176 11.0634 9.52839Z" fill="white"/>
</svg>
