<svg width="482" height="479" viewBox="0 0 482 479" fill="none" xmlns="http://www.w3.org/2000/svg">
<g filter="url(#filter0_d_2624_20360)">
<circle cx="239.348" cy="235.348" r="219.348" fill="#CFCDD9"/>
</g>
<path d="M242.627 231.366L405.865 113.01C380.846 79.2895 345.707 53.4443 305.009 39.8007L242.627 231.366Z" fill="#3369E8"/>
<path d="M239.294 230.257L301.676 38.8024C281.994 32.5906 261.089 29.2629 239.294 29.2629C217.61 29.2629 196.594 32.5906 176.912 38.8024L239.294 230.257Z" fill="#EEB211"/>
<path d="M244.738 234.139H446.451C446.117 189.991 431.884 149.282 407.976 115.783L244.738 234.139Z" fill="#009925"/>
<path d="M236.068 231.366L173.686 39.9116C132.988 53.4443 97.8496 79.2895 72.8301 113.01L236.068 231.366Z" fill="#3369E8"/>
<path d="M407.976 355.933C431.884 322.545 446.117 281.725 446.451 237.578H244.738L407.976 355.933Z" fill="#EEB211"/>
<path d="M236.068 240.462L72.8301 358.706C97.8496 392.427 132.988 418.273 173.686 431.805L236.068 240.462Z" fill="#009925"/>
<path d="M242.627 240.462L305.009 431.916C345.707 418.383 380.846 392.538 405.865 358.706L242.627 240.462Z" fill="#D50F25"/>
<path d="M239.294 241.46L176.912 432.914C196.594 439.126 217.499 442.454 239.294 442.454C260.978 442.454 281.994 439.126 301.676 432.914L239.294 241.46Z" fill="#3369E8"/>
<path d="M32.2422 237.578C32.5758 281.725 46.8091 322.434 70.7166 355.933L233.955 237.689L32.2422 237.578Z" fill="#EEB211"/>
<path d="M70.7166 115.783C46.8091 149.282 32.5758 189.991 32.2422 234.139H233.955L70.7166 115.783Z" fill="#D50F25"/>
<path d="M313.069 133.354L314.249 134.824L316.233 131.886L314.429 131.341C313.762 131.15 313.105 130.953 312.461 130.75C311.807 130.539 311.142 130.322 310.468 130.099L310.428 130.158C310.894 130.69 311.346 131.221 311.786 131.749C312.215 132.271 312.643 132.806 313.069 133.354ZM316.529 140.035L308.98 130.115L309.927 128.712L321.949 132.01L321.052 133.338L317.444 132.247L315.036 135.813L317.385 138.767L316.529 140.035ZM323.86 129.566C323.545 130.033 323.18 130.273 322.768 130.283C322.355 130.294 321.88 130.118 321.343 129.756L312.184 123.57L313.01 122.347L322.259 128.593C322.457 128.727 322.62 128.786 322.747 128.771C322.873 128.755 322.967 128.702 323.027 128.613C323.054 128.573 323.078 128.538 323.098 128.508C323.125 128.468 323.152 128.407 323.179 128.324L324.214 128.784C324.2 128.891 324.166 129.005 324.112 129.128C324.058 129.251 323.974 129.397 323.86 129.566ZM325.373 126.941L318.123 122.045L318.949 120.822L326.199 125.718L325.373 126.941ZM317.055 120.411C316.893 120.649 316.681 120.803 316.418 120.871C316.161 120.93 315.919 120.881 315.69 120.727C315.451 120.566 315.316 120.359 315.284 120.106C315.249 119.836 315.312 119.581 315.474 119.343C315.635 119.104 315.844 118.956 316.1 118.897C316.354 118.822 316.6 118.865 316.838 119.027C317.067 119.181 317.199 119.393 317.234 119.663C317.276 119.923 317.216 120.172 317.055 120.411Z" fill="white"/>
<path d="M348.685 205.003L344.966 193.796L348.298 192.69C348.867 192.501 349.402 192.38 349.903 192.328C350.416 192.272 350.873 192.297 351.275 192.404C351.688 192.507 352.045 192.705 352.344 192.997C352.651 193.275 352.886 193.658 353.048 194.148C353.234 194.706 353.259 195.26 353.126 195.81C353 196.345 352.698 196.787 352.219 197.135L352.242 197.204C352.967 197.102 353.614 197.204 354.182 197.508C354.751 197.812 355.164 198.352 355.421 199.126C355.602 199.673 355.659 200.185 355.59 200.663C355.521 201.141 355.344 201.579 355.058 201.977C354.773 202.375 354.391 202.73 353.913 203.04C353.434 203.351 352.882 203.61 352.255 203.818L348.685 205.003ZM347.966 198.091L349.623 197.542C350.58 197.224 351.214 196.83 351.526 196.36C351.837 195.89 351.899 195.37 351.71 194.801C351.495 194.152 351.119 193.764 350.584 193.638C350.061 193.508 349.361 193.589 348.484 193.88L346.758 194.453L347.966 198.091ZM349.729 203.405L351.676 202.758C352.644 202.437 353.338 202.011 353.756 201.48C354.17 200.938 354.253 200.291 354.003 199.54C353.773 198.845 353.342 198.425 352.713 198.28C352.079 198.124 351.267 198.21 350.276 198.539L348.329 199.185L349.729 203.405ZM362.025 200.804C361.467 200.989 360.911 201.066 360.357 201.035C359.811 200.988 359.295 200.844 358.81 200.6C358.332 200.341 357.902 199.978 357.519 199.511C357.136 199.044 356.832 198.468 356.605 197.785C356.378 197.102 356.278 196.458 356.306 195.855C356.341 195.237 356.467 194.683 356.684 194.193C356.912 193.7 357.216 193.283 357.596 192.942C357.972 192.59 358.4 192.334 358.878 192.176C359.402 192.002 359.899 191.938 360.37 191.984C360.851 192.027 361.286 192.173 361.672 192.424C362.071 192.672 362.423 193.01 362.73 193.439C363.037 193.868 363.288 194.379 363.485 194.971C363.534 195.119 363.577 195.269 363.615 195.421C363.66 195.558 363.689 195.681 363.7 195.791L358.096 197.65C358.448 198.52 358.956 199.135 359.619 199.497C360.291 199.843 361.025 199.884 361.822 199.619C362.221 199.487 362.566 199.309 362.859 199.086C363.159 198.847 363.431 198.58 363.674 198.284L364.475 199.042C364.186 199.391 363.848 199.725 363.461 200.043C363.073 200.361 362.595 200.615 362.025 200.804ZM357.745 196.648L362.187 195.174C361.907 194.331 361.513 193.754 361.005 193.442C360.505 193.115 359.93 193.059 359.281 193.275C358.985 193.373 358.719 193.525 358.483 193.729C358.259 193.93 358.076 194.18 357.936 194.48C357.791 194.768 357.698 195.096 357.655 195.464C357.625 195.828 357.654 196.223 357.745 196.648ZM368.815 198.551C368.12 198.781 367.471 198.769 366.868 198.514C366.277 198.255 365.856 197.75 365.607 196.998C365.304 196.087 365.478 195.258 366.128 194.511C366.774 193.753 367.954 192.983 369.666 192.199C369.579 191.937 369.466 191.691 369.326 191.459C369.197 191.224 369.038 191.03 368.848 190.878C368.659 190.726 368.431 190.631 368.165 190.592C367.908 190.539 367.608 190.569 367.266 190.682C366.788 190.841 366.368 191.081 366.007 191.403C365.646 191.725 365.338 192.055 365.084 192.392L364.214 191.6C364.518 191.221 364.911 190.825 365.394 190.412C365.872 189.988 366.448 189.664 367.12 189.441C368.133 189.105 368.972 189.174 369.635 189.649C370.295 190.113 370.797 190.863 371.141 191.9L372.83 196.991L371.668 197.376L371.22 196.425L371.169 196.442C370.88 196.905 370.547 197.331 370.171 197.721C369.791 198.1 369.339 198.377 368.815 198.551ZM368.851 197.287C369.249 197.155 369.595 196.939 369.888 196.64C370.176 196.329 370.46 195.925 370.737 195.428L369.972 193.122C369.308 193.444 368.757 193.746 368.32 194.03C367.895 194.311 367.562 194.585 367.323 194.854C367.095 195.12 366.95 195.389 366.889 195.662C366.836 195.92 366.852 196.18 366.939 196.442C367.098 196.92 367.354 197.215 367.707 197.325C368.059 197.436 368.441 197.423 368.851 197.287ZM377.891 195.539C377.446 195.687 377.048 195.743 376.695 195.708C376.354 195.67 376.046 195.563 375.773 195.388C375.512 195.21 375.284 194.963 375.091 194.647C374.898 194.332 374.734 193.97 374.598 193.56L373.073 188.964L371.843 189.372L371.491 188.313L372.761 187.797L372.161 185.417L373.34 185.025L374.111 187.349L376.349 186.606L376.729 187.751L374.491 188.493L376.021 193.106C376.191 193.619 376.415 193.987 376.691 194.211C376.976 194.42 377.357 194.446 377.835 194.287C377.983 194.238 378.135 194.162 378.291 194.06C378.447 193.958 378.583 193.855 378.701 193.753L379.326 194.721C379.125 194.877 378.897 195.028 378.642 195.176C378.403 195.331 378.153 195.452 377.891 195.539ZM380.981 194.286L378.226 185.983L379.388 185.598L380.006 187.061L380.058 187.044C380.168 186.426 380.372 185.897 380.669 185.457C380.977 185.014 381.37 184.712 381.848 184.554C382.179 184.444 382.494 184.403 382.793 184.43L382.928 185.751C382.776 185.75 382.64 185.758 382.518 185.773C382.397 185.788 382.251 185.824 382.08 185.88C381.727 185.997 381.404 186.263 381.111 186.676C380.83 187.085 380.664 187.69 380.613 188.491L382.382 193.821L380.981 194.286ZM386.904 192.321L384.149 184.018L385.55 183.553L388.305 191.856L386.904 192.321ZM384.3 182.071C384.026 182.162 383.764 182.154 383.514 182.048C383.275 181.937 383.112 181.751 383.025 181.489C382.935 181.216 382.954 180.969 383.083 180.749C383.22 180.514 383.425 180.351 383.699 180.261C383.972 180.17 384.228 180.18 384.467 180.29C384.714 180.385 384.882 180.57 384.973 180.843C385.06 181.105 385.035 181.353 384.898 181.588C384.772 181.82 384.573 181.981 384.3 182.071ZM390.237 191.215L389.987 190.463L392.235 182.605L388.34 183.898L387.96 182.753L393.632 180.871L393.882 181.623L391.634 189.481L396.144 187.984L396.524 189.129L390.237 191.215Z" fill="white"/>
<path d="M305.793 333.853C305.348 333.257 305.049 332.626 304.896 331.961C304.744 331.296 304.734 330.622 304.867 329.938C305.017 329.257 305.316 328.584 305.763 327.92C306.227 327.258 306.844 326.64 307.613 326.065C308.372 325.498 309.133 325.093 309.897 324.852C310.66 324.611 311.394 324.519 312.097 324.578C312.8 324.637 313.453 324.838 314.054 325.182C314.666 325.519 315.198 325.99 315.651 326.596C316.082 327.173 316.339 327.767 316.422 328.379C316.522 328.994 316.522 329.555 316.423 330.064L315.159 329.997C315.242 329.546 315.246 329.101 315.172 328.662C315.098 328.222 314.911 327.801 314.609 327.397C314.271 326.945 313.875 326.605 313.419 326.377C312.973 326.141 312.485 326.019 311.954 326.011C311.434 325.995 310.884 326.092 310.305 326.3C309.734 326.517 309.155 326.845 308.568 327.283C307.972 327.729 307.485 328.199 307.105 328.692C306.741 329.189 306.485 329.687 306.335 330.189C306.186 330.69 306.153 331.187 306.236 331.679C306.326 332.181 306.54 332.657 306.878 333.109C307.223 333.571 307.616 333.906 308.057 334.115C308.508 334.318 309.017 334.447 309.583 334.503L309.329 335.727C308.617 335.675 307.964 335.504 307.372 335.212C306.779 334.921 306.253 334.468 305.793 333.853ZM309.364 338.269L319.629 330.595L320.513 331.777L317.716 333.868L316.242 334.903C316.811 335.002 317.342 335.152 317.836 335.352C318.34 335.544 318.775 335.886 319.141 336.376C319.695 337.116 319.866 337.827 319.656 338.508C319.454 339.199 318.901 339.882 317.997 340.557L313.557 343.877L312.673 342.695L316.955 339.494C317.618 338.998 318.015 338.537 318.145 338.11C318.285 337.675 318.182 337.228 317.838 336.766C317.565 336.401 317.233 336.147 316.842 336.005C316.451 335.863 315.944 335.747 315.323 335.657L310.248 339.451L309.364 338.269ZM316.261 347.855C315.823 347.268 315.629 346.649 315.681 345.996C315.739 345.353 316.086 344.794 316.72 344.32C317.489 343.745 318.33 343.648 319.244 344.029C320.168 344.402 321.271 345.278 322.556 346.655C322.777 346.49 322.975 346.304 323.15 346.098C323.333 345.901 323.467 345.689 323.551 345.461C323.635 345.233 323.654 344.987 323.606 344.723C323.575 344.462 323.452 344.187 323.237 343.898C322.935 343.495 322.574 343.173 322.155 342.932C321.735 342.691 321.325 342.503 320.924 342.368L321.401 341.293C321.857 341.461 322.357 341.709 322.901 342.037C323.455 342.357 323.944 342.8 324.368 343.367C325.007 344.223 325.207 345.04 324.965 345.82C324.734 346.592 324.181 347.305 323.306 347.959L319.01 351.171L318.277 350.191L319.038 349.465L319.005 349.421C318.475 349.293 317.965 349.113 317.476 348.879C316.997 348.638 316.591 348.297 316.261 347.855ZM317.471 347.489C317.723 347.826 318.037 348.085 318.413 348.268C318.799 348.444 319.272 348.585 319.831 348.692L321.777 347.237C321.262 346.708 320.801 346.281 320.393 345.957C319.993 345.642 319.627 345.413 319.296 345.271C318.972 345.139 318.671 345.086 318.393 345.115C318.131 345.146 317.89 345.244 317.669 345.409C317.265 345.711 317.067 346.046 317.073 346.416C317.08 346.786 317.212 347.143 317.471 347.489ZM320.658 353.375L327.664 348.137L328.397 349.118L327.204 350.167L327.236 350.21C327.858 350.12 328.424 350.146 328.935 350.289C329.454 350.441 329.864 350.719 330.165 351.122C330.374 351.401 330.512 351.687 330.582 351.98L329.371 352.525C329.323 352.381 329.273 352.254 329.221 352.143C329.168 352.033 329.088 351.905 328.98 351.761C328.757 351.463 328.404 351.241 327.919 351.093C327.442 350.956 326.815 350.99 326.04 351.195L321.542 354.558L320.658 353.375ZM325.159 359.757C324.821 359.305 324.715 358.883 324.84 358.489C324.966 358.096 325.288 357.705 325.807 357.317L334.659 350.7L335.543 351.882L326.604 358.564C326.412 358.708 326.303 358.842 326.276 358.967C326.249 359.091 326.268 359.197 326.333 359.284C326.362 359.322 326.387 359.356 326.409 359.385C326.437 359.423 326.486 359.469 326.556 359.522L325.781 360.348C325.685 360.3 325.588 360.23 325.489 360.139C325.391 360.048 325.281 359.92 325.159 359.757ZM329.091 365.017C328.739 364.546 328.491 364.043 328.345 363.508C328.216 362.975 328.191 362.44 328.268 361.902C328.363 361.367 328.571 360.844 328.893 360.334C329.216 359.823 329.665 359.352 330.242 358.921C330.819 358.49 331.398 358.192 331.979 358.027C332.577 357.865 333.142 357.809 333.675 357.861C334.214 357.921 334.706 358.078 335.15 358.331C335.603 358.576 335.981 358.901 336.282 359.305C336.613 359.747 336.83 360.198 336.935 360.659C337.047 361.13 337.046 361.588 336.93 362.034C336.821 362.49 336.611 362.931 336.301 363.358C335.991 363.785 335.586 364.185 335.086 364.559C334.961 364.652 334.833 364.741 334.701 364.825C334.585 364.911 334.477 364.977 334.376 365.022L330.841 360.293C330.127 360.902 329.704 361.578 329.571 362.322C329.454 363.068 329.648 363.777 330.151 364.45C330.402 364.787 330.68 365.058 330.985 365.265C331.306 365.474 331.645 365.648 332.003 365.785L331.537 366.785C331.115 366.621 330.691 366.406 330.267 366.139C329.842 365.872 329.451 365.498 329.091 365.017ZM331.681 359.643L334.483 363.391C335.194 362.86 335.618 362.304 335.753 361.723C335.905 361.145 335.776 360.582 335.367 360.034C335.18 359.784 334.952 359.58 334.684 359.421C334.422 359.272 334.127 359.178 333.799 359.139C333.479 359.093 333.139 359.108 332.776 359.184C332.421 359.27 332.056 359.423 331.681 359.643ZM333.684 371.16C333.31 370.661 333.046 370.117 332.891 369.528C332.736 368.94 332.672 368.374 332.699 367.829L333.934 367.827C333.914 368.321 333.945 368.785 334.029 369.217C334.119 369.659 334.323 370.091 334.639 370.514C334.984 370.975 335.348 371.242 335.732 371.315C336.116 371.387 336.461 371.309 336.769 371.079C336.952 370.942 337.074 370.776 337.137 370.579C337.2 370.382 337.222 370.171 337.203 369.945C337.201 369.722 337.166 369.486 337.099 369.236C337.033 368.986 336.966 368.737 336.899 368.487C336.799 368.172 336.708 367.851 336.627 367.522C336.555 367.186 336.521 366.859 336.524 366.542C336.544 366.228 336.613 365.929 336.731 365.646C336.849 365.363 337.057 365.11 337.355 364.888C337.633 364.679 337.932 364.538 338.252 364.464C338.588 364.393 338.918 364.393 339.242 364.466C339.582 364.541 339.912 364.691 340.231 364.917C340.559 365.136 340.864 365.433 341.144 365.808C341.475 366.25 341.699 366.711 341.819 367.191C341.945 367.681 341.998 368.143 341.979 368.578L340.809 368.576C340.811 368.199 340.774 367.838 340.695 367.492C340.616 367.146 340.462 366.82 340.232 366.512C339.902 366.07 339.556 365.819 339.196 365.758C338.844 365.707 338.533 365.782 338.264 365.983C338.1 366.106 337.989 366.257 337.928 366.436C337.878 366.609 337.858 366.804 337.87 367.02C337.891 367.228 337.931 367.453 337.991 367.693C338.068 367.936 338.143 368.186 338.217 368.446C338.307 368.767 338.393 369.093 338.474 369.422C338.563 369.76 338.601 370.092 338.588 370.416C338.585 370.732 338.515 371.039 338.378 371.337C338.248 371.644 338.019 371.919 337.693 372.164C337.404 372.379 337.092 372.523 336.756 372.594C336.427 372.675 336.084 372.677 335.726 372.6C335.376 372.532 335.026 372.374 334.676 372.127C334.323 371.896 333.993 371.574 333.684 371.16Z" fill="white"/>
<path d="M236.254 349.709L248.051 349.194L248.179 352.143C248.259 353.966 247.816 355.372 246.85 356.363C245.884 357.354 244.46 357.891 242.578 357.973C241.643 358.014 240.798 357.931 240.045 357.723C239.303 357.515 238.664 357.189 238.128 356.744C237.604 356.298 237.189 355.74 236.884 355.068C236.59 354.397 236.424 353.617 236.386 352.73L236.254 349.709ZM237.542 351.148L237.601 352.497C237.661 353.875 238.119 354.888 238.976 355.536C239.834 356.195 241.012 356.492 242.51 356.427C244.009 356.361 245.139 355.964 245.9 355.234C246.661 354.516 247.012 353.467 246.952 352.089L246.893 350.74L237.542 351.148ZM236.73 360.629L245.47 360.247L245.534 361.722L236.794 362.103L236.73 360.629ZM247.301 360.924C247.289 360.636 247.368 360.387 247.539 360.175C247.71 359.975 247.934 359.87 248.209 359.858C248.497 359.845 248.729 359.931 248.905 360.115C249.094 360.311 249.195 360.553 249.207 360.841C249.22 361.129 249.14 361.372 248.969 361.572C248.81 361.783 248.587 361.895 248.299 361.908C248.023 361.92 247.791 361.828 247.602 361.632C247.414 361.448 247.314 361.212 247.301 360.924ZM233.171 365.362C233.162 365.158 233.172 364.972 233.201 364.802C233.217 364.633 233.253 364.476 233.306 364.329L234.488 364.566C234.468 364.663 234.449 364.772 234.43 364.893C234.399 365.014 234.386 365.129 234.391 365.237C234.413 365.74 234.61 366.14 234.984 366.436C235.345 366.745 235.8 366.977 236.347 367.133L237.003 367.303L245.608 363.414L245.675 364.943L240.915 366.934C240.537 367.083 240.135 367.238 239.71 367.401C239.297 367.575 238.89 367.737 238.488 367.887L238.491 367.959C238.893 368.073 239.312 368.181 239.749 368.282C240.185 368.383 240.598 368.485 240.987 368.588L245.893 369.942L245.956 371.38L236.353 368.502C235.915 368.365 235.505 368.209 235.125 368.033C234.745 367.858 234.418 367.644 234.142 367.392C233.855 367.14 233.626 366.85 233.456 366.521C233.285 366.192 233.19 365.806 233.171 365.362ZM237.146 375.121C237.114 374.389 237.303 373.769 237.714 373.258C238.124 372.76 238.725 372.493 239.516 372.459C240.476 372.417 241.225 372.811 241.766 373.64C242.319 374.469 242.738 375.814 243.023 377.675C243.299 377.663 243.567 377.621 243.828 377.55C244.09 377.49 244.32 377.39 244.518 377.249C244.716 377.109 244.87 376.916 244.979 376.671C245.101 376.437 245.154 376.141 245.139 375.781C245.117 375.278 245 374.808 244.789 374.373C244.578 373.938 244.345 373.552 244.09 373.214L245.09 372.594C245.371 372.99 245.645 373.477 245.91 374.054C246.187 374.63 246.342 375.272 246.372 375.979C246.419 377.046 246.123 377.834 245.485 378.342C244.858 378.85 243.999 379.128 242.908 379.175L237.549 379.409L237.496 378.186L238.534 378.015L238.531 377.961C238.165 377.557 237.846 377.12 237.573 376.652C237.313 376.183 237.17 375.672 237.146 375.121ZM238.352 375.501C238.37 375.92 238.483 376.312 238.691 376.675C238.911 377.038 239.222 377.42 239.624 377.823L242.052 377.717C241.924 376.99 241.783 376.378 241.63 375.88C241.476 375.394 241.303 374.999 241.109 374.696C240.917 374.404 240.697 374.191 240.451 374.058C240.217 373.936 239.963 373.881 239.687 373.893C239.184 373.915 238.83 374.08 238.628 374.389C238.425 374.699 238.333 375.069 238.352 375.501Z" fill="white"/>
<path d="M164.037 332.407L173.939 338.84L170.232 344.546L169.175 343.859L172.068 339.406L168.959 337.386L166.517 341.144L165.445 340.448L167.887 336.69L164.295 334.356L161.304 338.959L160.232 338.263L164.037 332.407ZM158.944 340.245L166.28 345.012L165.613 346.038L164.216 345.281L164.186 345.326C164.486 345.878 164.657 346.419 164.7 346.947C164.736 347.486 164.617 347.967 164.342 348.39C164.153 348.681 163.932 348.91 163.681 349.076L162.752 348.129C162.87 348.034 162.972 347.943 163.058 347.855C163.143 347.768 163.235 347.649 163.333 347.498C163.536 347.186 163.623 346.777 163.593 346.272C163.558 345.776 163.309 345.2 162.849 344.543L158.14 341.483L158.944 340.245ZM155.544 345.478L162.88 350.244L162.075 351.482L154.74 346.716L155.544 345.478ZM163.977 351.859C164.134 351.617 164.343 351.46 164.605 351.387C164.861 351.324 165.105 351.368 165.336 351.518C165.577 351.675 165.716 351.88 165.753 352.133C165.792 352.402 165.734 352.657 165.577 352.899C165.42 353.14 165.214 353.292 164.958 353.355C164.706 353.435 164.459 353.396 164.218 353.239C163.986 353.089 163.851 352.879 163.811 352.61C163.765 352.351 163.82 352.1 163.977 351.859ZM151.066 351.973C151.38 351.49 151.76 351.092 152.206 350.781C152.651 350.469 153.136 350.262 153.661 350.16C154.189 350.074 154.749 350.094 155.339 350.22C155.934 350.363 156.532 350.63 157.136 351.022C157.75 351.421 158.231 351.87 158.58 352.368C158.939 352.873 159.18 353.395 159.302 353.932C159.425 354.47 159.435 355.006 159.331 355.54C159.221 356.084 159.013 356.592 158.705 357.065C158.391 357.548 158.038 357.905 157.644 358.136C157.251 358.367 156.854 358.538 156.452 358.649L156.049 357.486C156.378 357.399 156.681 357.274 156.958 357.11C157.229 356.958 157.46 356.735 157.649 356.443C157.865 356.111 157.994 355.759 158.036 355.385C158.089 355.019 158.054 354.653 157.934 354.288C157.813 353.923 157.616 353.566 157.342 353.217C157.072 352.884 156.725 352.58 156.303 352.305C155.88 352.031 155.462 351.838 155.048 351.726C154.634 351.614 154.239 351.572 153.863 351.6C153.491 351.644 153.142 351.762 152.819 351.952C152.505 352.149 152.24 352.413 152.024 352.745C151.802 353.087 151.67 353.445 151.627 353.818C151.589 354.208 151.595 354.584 151.646 354.946L150.462 354.95C150.386 354.429 150.394 353.911 150.484 353.397C150.585 352.89 150.779 352.415 151.066 351.973Z" fill="white"/>
<path d="M129.32 192.69C130.079 192.871 130.747 193.173 131.325 193.595C131.891 194.014 132.341 194.529 132.677 195.139C133.009 195.762 133.216 196.471 133.297 197.268C133.375 198.076 133.303 198.947 133.079 199.881C132.859 200.803 132.533 201.601 132.1 202.275C131.656 202.946 131.139 203.482 130.549 203.884C129.96 204.286 129.312 204.545 128.606 204.66C127.885 204.784 127.146 204.755 126.387 204.574C125.99 204.479 125.638 204.351 125.331 204.192C125.012 204.029 124.735 203.846 124.5 203.641C124.251 203.446 124.042 203.236 123.874 203.01C123.691 202.794 123.539 202.579 123.417 202.365L124.449 201.612C124.668 201.985 124.945 202.323 125.28 202.625C125.615 202.927 126.074 203.148 126.658 203.287C127.241 203.427 127.793 203.441 128.313 203.331C128.83 203.233 129.3 203.018 129.725 202.688C130.147 202.369 130.519 201.946 130.843 201.419C131.154 200.889 131.395 200.268 131.565 199.556C131.738 198.832 131.813 198.159 131.789 197.537C131.751 196.923 131.623 196.374 131.405 195.89C131.176 195.404 130.855 194.994 130.441 194.66C130.015 194.324 129.493 194.082 128.875 193.934C128.466 193.837 128.067 193.803 127.677 193.833C127.273 193.872 126.929 193.969 126.646 194.123L125.93 197.117L128.363 197.699L128.075 198.907L124.311 198.007L125.466 193.175C125.931 192.879 126.498 192.675 127.166 192.564C127.832 192.464 128.55 192.506 129.32 192.69ZM121.211 190.752C121.923 190.922 122.468 191.274 122.846 191.809C123.213 192.34 123.304 192.992 123.12 193.762C122.896 194.696 122.312 195.308 121.366 195.601C120.418 195.904 119.009 195.938 117.141 195.701C117.077 195.97 117.043 196.239 117.04 196.51C117.026 196.778 117.059 197.026 117.14 197.255C117.221 197.484 117.364 197.685 117.569 197.858C117.76 198.039 118.031 198.172 118.381 198.255C118.871 198.373 119.355 198.389 119.831 198.306C120.308 198.222 120.743 198.104 121.137 197.952L121.459 199.084C121.001 199.245 120.458 199.375 119.83 199.472C119.2 199.58 118.54 199.552 117.852 199.387C116.813 199.139 116.137 198.638 115.823 197.885C115.507 197.143 115.476 196.241 115.73 195.179L116.977 189.962L118.167 190.246L118.047 191.291L118.1 191.303C118.589 191.063 119.096 190.875 119.622 190.742C120.145 190.62 120.674 190.623 121.211 190.752ZM120.515 191.807C120.106 191.709 119.699 191.71 119.292 191.811C118.883 191.923 118.43 192.116 117.932 192.392L117.367 194.756C118.101 194.833 118.729 194.865 119.25 194.854C119.759 194.84 120.186 194.782 120.531 194.679C120.865 194.574 121.13 194.421 121.326 194.221C121.507 194.03 121.63 193.801 121.694 193.532C121.811 193.042 121.749 192.657 121.507 192.377C121.266 192.097 120.935 191.907 120.515 191.807ZM110.586 188.212C110.983 188.307 111.375 188.499 111.762 188.789C112.135 189.088 112.468 189.451 112.76 189.879L112.813 189.892L113.144 189.046L114.3 189.322L111.321 201.787L109.885 201.444L110.697 198.047L111.1 196.515C110.634 196.761 110.147 196.941 109.639 197.054C109.128 197.179 108.633 197.184 108.154 197.069C107.606 196.938 107.147 196.717 106.777 196.407C106.404 196.108 106.124 195.733 105.935 195.281C105.733 194.837 105.626 194.331 105.614 193.76C105.588 193.199 105.653 192.591 105.809 191.938C105.982 191.214 106.236 190.59 106.571 190.065C106.906 189.541 107.291 189.121 107.724 188.805C108.157 188.489 108.621 188.279 109.114 188.175C109.605 188.082 110.096 188.095 110.586 188.212ZM110.543 189.479C110.192 189.395 109.853 189.394 109.525 189.476C109.183 189.567 108.873 189.727 108.596 189.957C108.304 190.196 108.05 190.511 107.833 190.904C107.604 191.293 107.427 191.751 107.301 192.276C107.19 192.743 107.129 193.178 107.119 193.583C107.108 193.988 107.164 194.347 107.287 194.66C107.395 194.982 107.577 195.253 107.832 195.475C108.076 195.694 108.396 195.85 108.793 195.945C109.482 196.11 110.333 195.906 111.345 195.334L112.412 190.869C112.117 190.453 111.805 190.132 111.477 189.906C111.134 189.688 110.823 189.546 110.543 189.479ZM104.623 187.009L102.59 195.517L101.399 195.233L101.645 193.663L101.592 193.65C101.172 194.117 100.72 194.46 100.236 194.677C99.7409 194.892 99.2481 194.941 98.7579 194.823C98.4194 194.743 98.1299 194.612 97.8894 194.431L98.4708 193.237C98.5997 193.317 98.7197 193.383 98.8308 193.434C98.942 193.486 99.0851 193.532 99.2601 193.574C99.6219 193.66 100.036 193.605 100.503 193.408C100.958 193.209 101.417 192.782 101.882 192.128L103.188 186.666L104.623 187.009ZM98.554 185.558L96.5203 194.066L95.0848 193.723L97.1184 185.215L98.554 185.558ZM95.3666 195.641C95.6467 195.708 95.865 195.853 96.0216 196.076C96.1665 196.295 96.2068 196.539 96.1427 196.808C96.0757 197.088 95.9294 197.287 95.7036 197.406C95.4633 197.534 95.2031 197.564 94.923 197.497C94.6429 197.43 94.4304 197.287 94.2855 197.067C94.1262 196.856 94.0799 196.611 94.1469 196.331C94.2111 196.062 94.3633 195.864 94.6035 195.737C94.8321 195.606 95.0865 195.574 95.3666 195.641ZM90.847 183.494C91.4189 183.631 91.9321 183.858 92.3865 184.177C92.8265 184.504 93.1886 184.899 93.4728 185.362C93.7426 185.833 93.9169 186.368 93.9959 186.967C94.0749 187.566 94.0306 188.215 93.8633 188.916C93.6959 189.616 93.4416 190.215 93.1004 190.714C92.7447 191.221 92.3458 191.625 91.9036 191.927C91.4497 192.225 90.9715 192.419 90.4689 192.509C89.9635 192.61 89.4657 192.602 88.9755 192.485C88.4387 192.357 87.9825 192.149 87.6069 191.862C87.2197 191.572 86.9279 191.218 86.7315 190.801C86.5234 190.382 86.4021 189.908 86.3675 189.382C86.333 188.855 86.3882 188.289 86.5333 187.682C86.5695 187.53 86.6116 187.38 86.6596 187.231C86.6931 187.091 86.734 186.971 86.7825 186.872L92.5247 188.244C92.684 187.32 92.5768 186.529 92.2033 185.872C91.8153 185.224 91.2128 184.803 90.3958 184.608C89.9873 184.51 89.5999 184.479 89.2335 184.515C88.8527 184.559 88.481 184.643 88.1185 184.766L87.8367 183.7C88.266 183.556 88.7291 183.45 89.2262 183.384C89.7232 183.318 90.2635 183.354 90.847 183.494ZM92.2953 189.281L87.7436 188.193C87.5371 189.057 87.5676 189.755 87.8351 190.288C88.0881 190.83 88.5473 191.18 89.2125 191.339C89.516 191.411 89.8217 191.423 90.1297 191.373C90.426 191.32 90.713 191.204 90.9905 191.024C91.2653 190.855 91.5176 190.625 91.7474 190.335C91.9656 190.041 92.1482 189.69 92.2953 189.281ZM84.0878 181.878C84.6363 182.009 84.9882 182.266 85.1436 182.649C85.2989 183.031 85.3012 183.538 85.1506 184.168L82.5812 194.917L81.1457 194.574L83.7401 183.72C83.7959 183.487 83.7941 183.313 83.7347 183.2C83.6753 183.088 83.5931 183.019 83.4881 182.993C83.4414 182.982 83.4006 182.973 83.3655 182.964C83.3189 182.953 83.2519 182.949 83.1646 182.953L83.2315 181.822C83.336 181.797 83.4552 181.789 83.5892 181.796C83.7232 181.804 83.8894 181.831 84.0878 181.878Z" fill="white"/>
<path d="M178.445 141.589L169.18 148.91L168.254 147.738L172.137 144.669L168.734 140.362L164.85 143.431L163.912 142.245L173.177 134.924L174.114 136.11L169.751 139.558L173.154 143.866L177.518 140.417L178.445 141.589ZM170.173 130.774C170.627 131.348 170.837 131.962 170.803 132.616C170.762 133.261 170.43 133.828 169.809 134.319C169.056 134.915 168.217 135.034 167.294 134.678C166.361 134.33 165.234 133.484 163.913 132.142C163.696 132.313 163.503 132.504 163.333 132.715C163.156 132.916 163.028 133.132 162.95 133.362C162.872 133.592 162.86 133.838 162.914 134.101C162.952 134.362 163.083 134.633 163.306 134.916C163.618 135.311 163.988 135.624 164.414 135.853C164.839 136.082 165.254 136.259 165.659 136.383L165.211 137.471C164.751 137.315 164.244 137.08 163.691 136.768C163.129 136.463 162.628 136.032 162.189 135.477C161.527 134.639 161.306 133.827 161.526 133.041C161.737 132.263 162.271 131.535 163.128 130.858L167.336 127.532L168.095 128.493L167.354 129.239L167.388 129.281C167.921 129.395 168.436 129.562 168.931 129.783C169.417 130.01 169.831 130.341 170.173 130.774ZM168.973 131.172C168.713 130.842 168.392 130.591 168.011 130.418C167.62 130.253 167.144 130.124 166.582 130.033L164.676 131.539C165.205 132.054 165.677 132.468 166.093 132.782C166.502 133.086 166.874 133.305 167.208 133.438C167.536 133.562 167.838 133.606 168.116 133.57C168.376 133.532 168.615 133.428 168.831 133.257C169.227 132.944 169.416 132.603 169.4 132.234C169.383 131.865 169.241 131.51 168.973 131.172ZM165.63 125.373L158.766 130.797L158.007 129.836L158.918 128.956L158.884 128.914C158.295 128.845 157.75 128.717 157.251 128.53C156.735 128.342 156.287 128.007 155.907 127.527C155.334 126.802 155.144 126.096 155.335 125.41C155.519 124.714 156.054 124.016 156.939 123.317L161.289 119.879L162.204 121.037L158.009 124.352C157.36 124.865 156.976 125.337 156.857 125.767C156.729 126.205 156.843 126.65 157.2 127.102C157.483 127.46 157.822 127.704 158.216 127.836C158.611 127.968 159.12 128.07 159.744 128.143L164.715 124.215L165.63 125.373ZM159.527 117.65L152.663 123.073L151.904 122.113L152.815 121.233L152.781 121.191C152.191 121.121 151.647 120.994 151.148 120.807C150.631 120.618 150.184 120.284 149.804 119.804C149.231 119.079 149.041 118.373 149.232 117.686C149.416 116.99 149.951 116.292 150.836 115.593L155.186 112.156L156.101 113.314L151.906 116.628C151.257 117.142 150.872 117.614 150.754 118.044C150.625 118.482 150.74 118.927 151.097 119.379C151.38 119.736 151.718 119.981 152.113 120.113C152.508 120.244 153.017 120.347 153.641 120.42L158.612 116.492L159.527 117.65ZM152.343 108.211C152.797 108.785 153.007 109.399 152.973 110.053C152.932 110.697 152.6 111.265 151.979 111.756C151.226 112.351 150.387 112.471 149.464 112.115C148.531 111.766 147.404 110.921 146.083 109.579C145.866 109.75 145.673 109.941 145.503 110.151C145.326 110.353 145.198 110.568 145.12 110.798C145.042 111.029 145.03 111.275 145.085 111.538C145.122 111.798 145.253 112.07 145.476 112.352C145.789 112.748 146.158 113.06 146.584 113.29C147.01 113.519 147.425 113.696 147.829 113.82L147.381 114.908C146.921 114.751 146.414 114.517 145.861 114.204C145.299 113.899 144.798 113.469 144.359 112.914C143.697 112.076 143.476 111.264 143.697 110.478C143.907 109.7 144.441 108.972 145.298 108.295L149.507 104.969L150.265 105.929L149.524 106.676L149.558 106.718C150.091 106.832 150.606 106.999 151.101 107.219C151.587 107.447 152.001 107.777 152.343 108.211ZM151.143 108.608C150.883 108.279 150.562 108.027 150.181 107.855C149.79 107.689 149.314 107.561 148.752 107.469L146.846 108.976C147.375 109.491 147.847 109.905 148.263 110.219C148.672 110.523 149.044 110.741 149.378 110.875C149.706 110.998 150.008 111.042 150.286 111.007C150.546 110.969 150.785 110.864 151.002 110.693C151.397 110.381 151.586 110.04 151.57 109.671C151.553 109.301 151.411 108.947 151.143 108.608Z" fill="white"/>
<path d="M245.892 118.989L234.09 119.369L233.871 112.568L235.131 112.528L235.301 117.835L239.007 117.716L238.863 113.236L240.141 113.195L240.285 117.675L244.566 117.537L244.39 112.05L245.667 112.009L245.892 118.989ZM245.591 109.646L236.848 109.927L236.809 108.704L238.388 108.527L238.386 108.473C237.825 108.191 237.375 107.845 237.038 107.436C236.7 107.014 236.523 106.552 236.507 106.048C236.496 105.7 236.546 105.386 236.657 105.107L237.962 105.353C237.918 105.498 237.886 105.631 237.866 105.752C237.846 105.873 237.839 106.023 237.845 106.203C237.857 106.575 238.019 106.96 238.332 107.358C238.645 107.744 239.178 108.075 239.931 108.351L245.544 108.171L245.591 109.646ZM245.391 103.409L236.647 103.69L236.6 102.215L245.343 101.934L245.391 103.409ZM234.824 102.992C234.833 103.28 234.751 103.529 234.578 103.738C234.404 103.936 234.179 104.039 233.903 104.048C233.616 104.058 233.385 103.969 233.211 103.782C233.024 103.584 232.926 103.341 232.917 103.054C232.908 102.766 232.99 102.523 233.164 102.325C233.325 102.116 233.55 102.007 233.838 101.997C234.113 101.989 234.345 102.083 234.531 102.281C234.717 102.467 234.815 102.704 234.824 102.992ZM245.249 98.9815L232.439 99.3933L232.392 97.936L241.064 97.6573L241.062 97.6033L236.337 94.0273L236.284 92.3901L239.887 95.2098L245.015 91.7132L245.067 93.3324L240.939 96.0224L242.899 97.5983L245.202 97.5242L245.249 98.9815Z" fill="black"/>
<path d="M130.742 266.564L133.431 278.062L126.805 279.611L126.518 278.384L131.689 277.175L130.779 273.284L126.397 274.309L126.11 273.082L130.492 272.057L129.287 266.904L130.742 266.564ZM120.808 268.665C121.521 268.498 122.166 268.569 122.743 268.878C123.309 269.189 123.682 269.731 123.863 270.502C124.081 271.437 123.833 272.246 123.118 272.931C122.406 273.628 121.162 274.288 119.385 274.913C119.448 275.182 119.539 275.438 119.657 275.681C119.764 275.927 119.905 276.135 120.08 276.303C120.255 276.472 120.473 276.587 120.734 276.65C120.986 276.726 121.288 276.724 121.638 276.642C122.129 276.527 122.569 276.325 122.957 276.037C123.346 275.749 123.682 275.449 123.966 275.136L124.761 276.004C124.424 276.354 123.996 276.712 123.478 277.08C122.963 277.459 122.361 277.73 121.671 277.891C120.632 278.134 119.803 277.989 119.185 277.456C118.57 276.934 118.138 276.141 117.89 275.078L116.668 269.855L117.86 269.576L118.221 270.564L118.273 270.552C118.603 270.117 118.973 269.723 119.383 269.368C119.795 269.025 120.271 268.791 120.808 268.665ZM120.658 269.92C120.249 270.016 119.885 270.199 119.567 270.471C119.251 270.754 118.932 271.131 118.611 271.6L119.164 273.967C119.855 273.706 120.431 273.455 120.891 273.211C121.341 272.971 121.696 272.727 121.959 272.481C122.21 272.238 122.379 271.983 122.464 271.716C122.541 271.464 122.548 271.204 122.485 270.935C122.37 270.444 122.142 270.128 121.801 269.986C121.46 269.844 121.079 269.822 120.658 269.92ZM111.497 270.842C111.953 270.736 112.355 270.716 112.703 270.782C113.04 270.851 113.336 270.985 113.592 271.184C113.836 271.386 114.04 271.653 114.204 271.984C114.368 272.315 114.499 272.691 114.597 273.112L115.7 277.827L116.962 277.532L117.216 278.618L115.904 279.018L116.286 281.442L115.077 281.725L114.52 279.341L112.224 279.878L111.949 278.704L114.245 278.167L113.138 273.435C113.015 272.909 112.826 272.522 112.571 272.273C112.307 272.039 111.929 271.98 111.439 272.095C111.287 272.13 111.129 272.192 110.964 272.279C110.8 272.367 110.654 272.457 110.528 272.548L109.993 271.527C110.208 271.39 110.449 271.26 110.715 271.136C110.968 271.003 111.228 270.905 111.497 270.842ZM108.306 271.81L110.298 280.329L108.86 280.665L106.868 272.147L108.306 271.81ZM109.971 282.254C110.252 282.188 110.512 282.22 110.751 282.348C110.979 282.48 111.125 282.68 111.188 282.949C111.253 283.229 111.212 283.473 111.063 283.68C110.905 283.902 110.686 284.046 110.406 284.111C110.125 284.177 109.871 284.144 109.643 284.012C109.406 283.895 109.255 283.697 109.189 283.416C109.127 283.147 109.174 282.902 109.332 282.68C109.478 282.461 109.691 282.319 109.971 282.254ZM103.992 272.819L105.984 281.337L104.792 281.616L104.383 280.418L104.33 280.43C104.052 280.927 103.728 281.36 103.359 281.73C102.98 282.114 102.534 282.366 102.02 282.486C101.365 282.639 100.823 282.612 100.392 282.405C99.9529 282.212 99.5854 281.879 99.2899 281.405C98.9606 282 98.6081 282.495 98.2324 282.891C97.8478 283.302 97.3925 283.568 96.8667 283.691C95.9904 283.896 95.2763 283.767 94.7245 283.305C94.161 282.845 93.7508 282.066 93.494 280.968L92.2316 275.569L93.6688 275.233L94.8861 280.439C95.0746 281.245 95.3384 281.793 95.6775 282.084C96.0192 282.386 96.4589 282.474 96.9964 282.348C97.639 282.198 98.2493 281.593 98.8273 280.534L97.3846 274.364L98.8218 274.028L100.039 279.234C100.228 280.04 100.491 280.588 100.83 280.879C101.172 281.181 101.618 281.268 102.167 281.139C102.81 280.989 103.42 280.384 103.998 279.325L102.555 273.155L103.992 272.819ZM87.4483 276.466C88.1611 276.299 88.8062 276.37 89.3836 276.679C89.9494 276.99 90.3224 277.532 90.5028 278.303C90.7213 279.238 90.4732 280.047 89.7584 280.732C89.0462 281.429 87.802 282.089 86.0256 282.714C86.0885 282.983 86.1791 283.239 86.2977 283.482C86.4045 283.728 86.5455 283.936 86.7204 284.104C86.8954 284.273 87.1134 284.388 87.3744 284.451C87.6265 284.527 87.9278 284.525 88.2784 284.443C88.7691 284.328 89.2088 284.126 89.5974 283.838C89.986 283.55 90.3225 283.25 90.6067 282.937L91.4012 283.805C91.064 284.155 90.6365 284.513 90.1185 284.881C89.6034 285.26 89.0011 285.531 88.3117 285.692C87.2717 285.935 86.4429 285.79 85.8253 285.257C85.2103 284.735 84.7785 283.942 84.5299 282.879L83.3085 277.656L84.5003 277.377L84.8607 278.365L84.9133 278.353C85.243 277.918 85.6129 277.524 86.0229 277.169C86.4357 276.826 86.9108 276.592 87.4483 276.466ZM87.2981 277.721C86.8892 277.817 86.5254 278 86.2069 278.272C85.8911 278.555 85.5725 278.932 85.251 279.401L85.8043 281.768C86.4952 281.508 87.071 281.256 87.5317 281.012C87.9807 280.772 88.3366 280.528 88.5995 280.282C88.8506 280.039 89.0189 279.784 89.1045 279.517C89.1811 279.265 89.188 279.005 89.1252 278.736C89.0104 278.245 88.7824 277.929 88.4411 277.787C88.0998 277.645 87.7188 277.623 87.2981 277.721Z" fill="black"/>
<path d="M341.495 274.027L344.03 262.494L347.458 263.248C348.044 263.377 348.566 263.547 349.023 263.758C349.492 263.971 349.872 264.227 350.163 264.524C350.466 264.824 350.671 265.177 350.779 265.581C350.901 265.977 350.906 266.426 350.796 266.93C350.669 267.505 350.408 267.994 350.012 268.398C349.63 268.794 349.145 269.019 348.555 269.073L348.54 269.144C349.215 269.427 349.719 269.845 350.052 270.397C350.385 270.95 350.464 271.625 350.289 272.422C350.165 272.984 349.951 273.453 349.648 273.829C349.344 274.204 348.968 274.49 348.519 274.686C348.071 274.883 347.561 274.992 346.991 275.014C346.421 275.036 345.814 274.976 345.169 274.835L341.495 274.027ZM344.411 267.72L346.116 268.095C347.101 268.311 347.847 268.297 348.356 268.053C348.864 267.808 349.183 267.393 349.311 266.807C349.458 266.139 349.334 265.614 348.939 265.232C348.555 264.853 347.912 264.564 347.01 264.366L345.234 263.975L344.411 267.72ZM343.209 273.187L345.213 273.628C346.21 273.847 347.023 273.835 347.654 273.593C348.287 273.339 348.689 272.825 348.859 272.052C349.016 271.337 348.861 270.756 348.394 270.309C347.93 269.851 347.188 269.51 346.168 269.286L344.164 268.845L343.209 273.187ZM355.107 277.24C354.532 277.114 354.015 276.896 353.555 276.586C353.109 276.267 352.74 275.878 352.447 275.421C352.169 274.954 351.985 274.422 351.895 273.825C351.805 273.228 351.837 272.578 351.992 271.874C352.147 271.171 352.39 270.567 352.722 270.063C353.068 269.549 353.46 269.138 353.896 268.828C354.345 268.521 354.819 268.319 355.32 268.22C355.824 268.109 356.322 268.108 356.814 268.216C357.353 268.335 357.813 268.534 358.194 268.815C358.586 269.097 358.884 269.446 359.088 269.859C359.304 270.275 359.434 270.746 359.478 271.272C359.522 271.797 359.477 272.365 359.343 272.974C359.31 273.127 359.27 273.278 359.225 273.428C359.194 273.568 359.155 273.689 359.109 273.789L353.343 272.521C353.2 273.449 353.322 274.237 353.707 274.887C354.107 275.528 354.717 275.938 355.537 276.119C355.948 276.209 356.336 276.233 356.701 276.19C357.081 276.139 357.451 276.048 357.811 275.918L358.113 276.98C357.686 277.132 357.225 277.245 356.729 277.321C356.233 277.396 355.693 277.369 355.107 277.24ZM353.553 271.48L358.124 272.485C358.314 271.618 358.271 270.92 357.994 270.393C357.731 269.856 357.266 269.514 356.598 269.367C356.293 269.3 355.987 269.294 355.68 269.349C355.385 269.407 355.1 269.529 354.826 269.714C354.554 269.888 354.306 270.122 354.082 270.417C353.869 270.714 353.693 271.069 353.553 271.48ZM362.093 278.776C361.378 278.619 360.827 278.277 360.439 277.749C360.063 277.224 359.96 276.575 360.13 275.801C360.336 274.864 360.91 274.24 361.85 273.931C362.793 273.61 364.2 273.551 366.073 273.753C366.132 273.484 366.16 273.214 366.159 272.943C366.168 272.675 366.131 272.427 366.046 272.199C365.96 271.972 365.814 271.774 365.605 271.605C365.411 271.427 365.138 271.299 364.786 271.222C364.294 271.114 363.81 271.106 363.335 271.198C362.86 271.29 362.427 271.416 362.036 271.576L361.694 270.45C362.149 270.28 362.689 270.141 363.315 270.033C363.943 269.913 364.603 269.929 365.295 270.081C366.338 270.31 367.023 270.798 367.35 271.546C367.68 272.282 367.727 273.183 367.493 274.25L366.341 279.489L365.146 279.226L365.247 278.179L365.194 278.168C364.709 278.417 364.205 278.614 363.683 278.757C363.162 278.888 362.632 278.895 362.093 278.776ZM362.77 277.709C363.181 277.799 363.588 277.79 363.992 277.682C364.4 277.563 364.849 277.361 365.342 277.076L365.864 274.703C365.128 274.639 364.5 274.618 363.98 274.639C363.471 274.662 363.045 274.728 362.701 274.837C362.37 274.948 362.108 275.106 361.916 275.309C361.738 275.503 361.619 275.735 361.56 276.005C361.452 276.497 361.521 276.881 361.767 277.156C362.014 277.432 362.348 277.616 362.77 277.709ZM371.433 280.829C370.975 280.729 370.604 280.573 370.319 280.363C370.045 280.155 369.835 279.907 369.69 279.617C369.557 279.329 369.488 279.001 369.483 278.631C369.478 278.262 369.522 277.866 369.615 277.444L370.655 272.715L369.389 272.437L369.628 271.347L370.984 271.552L371.685 269.2L372.898 269.467L372.373 271.858L374.676 272.364L374.417 273.542L372.114 273.036L371.07 277.782C370.954 278.31 370.958 278.741 371.081 279.075C371.218 279.4 371.533 279.616 372.026 279.725C372.178 279.758 372.347 279.771 372.533 279.763C372.719 279.754 372.889 279.736 373.043 279.709L373.084 280.86C372.832 280.891 372.559 280.905 372.264 280.901C371.979 280.912 371.702 280.888 371.433 280.829ZM374.729 281.333L376.608 272.789L377.803 273.051L377.586 274.626L377.639 274.637C378.05 274.162 378.496 273.812 378.976 273.586C379.467 273.362 379.959 273.304 380.451 273.412C380.791 273.487 381.083 273.613 381.327 273.789L380.767 274.993C380.637 274.915 380.516 274.852 380.404 274.803C380.292 274.753 380.148 274.71 379.972 274.671C379.609 274.591 379.195 274.654 378.733 274.859C378.281 275.067 377.829 275.502 377.377 276.165L376.171 281.65L374.729 281.333ZM380.824 282.672L382.702 274.128L384.144 274.445L382.266 282.989L380.824 282.672ZM383.827 272.533C383.546 272.471 383.325 272.33 383.164 272.111C383.015 271.894 382.971 271.65 383.03 271.381C383.092 271.099 383.234 270.897 383.458 270.774C383.696 270.642 383.955 270.607 384.237 270.669C384.518 270.731 384.733 270.87 384.882 271.088C385.045 271.295 385.096 271.54 385.034 271.821C384.975 272.091 384.826 272.292 384.588 272.424C384.362 272.558 384.108 272.595 383.827 272.533ZM384.254 283.426L384.424 282.653L390.374 277.05L386.365 276.168L386.624 274.991L392.461 276.274L392.291 277.047L386.341 282.65L390.982 283.671L390.723 284.849L384.254 283.426Z" fill="black"/>
<circle cx="239.348" cy="235.348" r="34.6876" fill="#F0EFF5"/>
<circle cx="239.349" cy="235.348" r="16.3236" fill="#CFCDD9"/>
<g filter="url(#filter1_d_2624_20360)">
<path d="M435.232 234.838L474.001 211.883L474.001 257.793L435.232 234.838Z" fill="#F0EFF5"/>
</g>
<defs>
<filter id="filter0_d_2624_20360" x="0" y="0" width="478.697" height="478.697" filterUnits="userSpaceOnUse" color-interpolation-filters="sRGB">
<feFlood flood-opacity="0" result="BackgroundImageFix"/>
<feColorMatrix in="SourceAlpha" type="matrix" values="0 0 0 0 0 0 0 0 0 0 0 0 0 0 0 0 0 0 127 0" result="hardAlpha"/>
<feOffset dy="4"/>
<feGaussianBlur stdDeviation="10"/>
<feComposite in2="hardAlpha" operator="out"/>
<feColorMatrix type="matrix" values="0 0 0 0 0 0 0 0 0 0 0 0 0 0 0 0 0 0 0.15 0"/>
<feBlend mode="normal" in2="BackgroundImageFix" result="effect1_dropShadow_2624_20360"/>
<feBlend mode="normal" in="SourceGraphic" in2="effect1_dropShadow_2624_20360" result="shape"/>
</filter>
<filter id="filter1_d_2624_20360" x="423.232" y="201.883" width="58.7676" height="65.9101" filterUnits="userSpaceOnUse" color-interpolation-filters="sRGB">
<feFlood flood-opacity="0" result="BackgroundImageFix"/>
<feColorMatrix in="SourceAlpha" type="matrix" values="0 0 0 0 0 0 0 0 0 0 0 0 0 0 0 0 0 0 127 0" result="hardAlpha"/>
<feOffset dx="-2"/>
<feGaussianBlur stdDeviation="5"/>
<feComposite in2="hardAlpha" operator="out"/>
<feColorMatrix type="matrix" values="0 0 0 0 0 0 0 0 0 0 0 0 0 0 0 0 0 0 0.25 0"/>
<feBlend mode="normal" in2="BackgroundImageFix" result="effect1_dropShadow_2624_20360"/>
<feBlend mode="normal" in="SourceGraphic" in2="effect1_dropShadow_2624_20360" result="shape"/>
</filter>
</defs>
</svg>
