<svg width="15" height="10" viewBox="0 0 15 10" fill="none" xmlns="http://www.w3.org/2000/svg">
<path d="M5.44693 4.875C5.44693 4.57031 5.18911 4.3125 4.88443 4.3125C4.5563 4.3125 4.32193 4.57031 4.32193 4.875C4.32193 5.20312 4.5563 5.4375 4.88443 5.4375C5.18911 5.4375 5.44693 5.20312 5.44693 4.875ZM11.3532 3.72656C11.2126 3.63281 11.0485 3.60938 10.9079 3.70312L10.2751 4.07812C10.2047 4.10156 10.111 4.10156 10.0641 4.05469L9.47818 3.58594C9.40786 3.53906 9.38443 3.44531 9.40786 3.375L9.64224 2.69531C9.68911 2.53125 9.64224 2.36719 9.52505 2.27344L7.50943 0.773438C6.03286 -0.164062 4.1813 -0.234375 2.65786 0.5625C2.35318 0.210938 1.95474 0 1.50943 0C0.665677 0 0.00942714 0.679688 0.00942714 1.5C0.00942714 1.96875 0.196927 2.39062 0.54849 2.64844C-0.412448 4.5 -0.10776 6.79688 1.43911 8.32031C3.52505 10.4297 7.32193 10.2422 9.07974 7.57031L12.5954 9.58594C12.7594 9.67969 12.9704 9.65625 13.0876 9.49219L14.9157 7.05469C15.0563 6.89062 15.0094 6.65625 14.8688 6.53906L11.3532 3.72656ZM2.00161 0.960938C1.57974 1.26562 1.29849 1.52344 0.946927 2.01562C0.82974 1.875 0.759427 1.71094 0.759427 1.5C0.759427 1.10156 1.08755 0.75 1.50943 0.75C1.69693 0.75 1.86099 0.820312 2.00161 0.960938ZM6.57193 4.875C6.57193 5.8125 5.79849 6.5625 4.88443 6.5625C3.94693 6.5625 3.19693 5.8125 3.19693 4.875C3.19693 3.96094 3.94693 3.1875 4.88443 3.1875C5.79849 3.1875 6.57193 3.96094 6.57193 4.875Z" fill="#C4C4C4"/>
</svg>
