<svg width="459" height="264" viewBox="0 0 459 264" fill="none" xmlns="http://www.w3.org/2000/svg">
<g clip-path="url(#clip0_2628_21425)">
<path d="M229.3 133.2C228.9 133.1 228.5 133 228.1 132.9C228.1 132.9 228 132.9 227.9 132.9C223.3 131.6 218 129.9 210.2 129.4C206 129.1 198.9 129.2 194.1 129.9C193.4 130 192.7 130.1 192.2 130.2C192.1 130.2 192.1 130.2 192 130.2L195.4 122.6C195.8 122.5 196.2 122.5 196.6 122.4C201.6 121.5 205.7 120.6 210.8 121.1C215.7 121.6 220.5 122.6 225.1 123.9C225.8 124.1 226.5 124.3 227.1 124.5L229.3 133.2Z" fill="#5BB392"/>
<path d="M210.801 122.7C212.901 122.8 214.601 123.9 214.601 125.1C214.501 126.3 212.701 127.2 210.601 127C208.501 126.8 206.801 125.8 206.801 124.6C206.801 123.4 208.601 122.6 210.801 122.7Z" fill="white"/>
<path d="M194.1 129.9C194 129.9 194 129.9 194.1 129.9C193.4 130 192.8 130.1 192.2 130.2C192.1 130.2 192.1 130.2 192 130.2L195.4 122.6C195.8 122.5 196.2 122.5 196.6 122.4C200.1 122.6 204.1 123.2 204.4 125.1C204.8 127.1 199.4 128.8 194.1 129.9Z" fill="#3F7A63"/>
<path d="M229.3 133.2C228.9 133.1 228.5 133 228.1 132.9C228.1 132.9 228 132.9 227.9 132.9C215.3 128.9 215.7 124.3 218.4 123.8C219.7 123.6 222.4 123.7 225.1 124.1C225.8 124.3 226.5 124.5 227.1 124.7L229.3 133.2Z" fill="#3F7A63"/>
</g>
<g clip-path="url(#clip1_2628_21425)">
<path d="M81.6 0.4C81.4 0.7 81.2 1.1 81 1.4L80.9 1.5C78.4 5.5 75.3 10.1 72.6 17.6C71.2 21.7 69.3 28.4 68.6 33.3C68.6 33.3 68.6 33.3 68.6 33.4C68.5 34.1 68.4 34.7 68.4 35.3C68.4 35.4 68.4 35.4 68.4 35.5L62 30C62 29.6 62.1 29.2 62.1 28.7C62.6 23.6 62.9 19.5 64.8 14.7C66.7 10.2 69 5.8 71.6 1.8C72 1.2 72.3 0.6 72.7 0L81.6 0.4Z" fill="#5BB392"/>
<path d="M66.4 15.3C67.1 13.3 68.6 12 69.7 12.4C70.8 12.8 71.2 14.8 70.4 16.8C69.7 18.8 68.2 20.1 67.1 19.7C66 19.2 65.7 17.3 66.4 15.3Z" fill="white"/>
<path d="M68.6 33.3C68.5 34 68.5 34.6 68.4 35.2C68.4 35.3 68.4 35.3 68.4 35.4L62 30C62 29.6 62.1 29.2 62.1 28.7C63.2 25.4 64.9 21.7 66.8 21.9C68.9 22.2 69.1 27.9 68.6 33.3Z" fill="#3F7A63"/>
<path d="M81.6008 0.4C81.4008 0.7 81.2008 1.1 81.0008 1.4L80.9008 1.5C73.6008 12.5 69.3008 10.8 69.5008 8.1C69.6008 6.8 70.5008 4.3 71.6008 1.8C72.0008 1.2 72.3008 0.6 72.7008 0L81.6008 0.4Z" fill="#3F7A63"/>
</g>
<g clip-path="url(#clip2_2628_21425)">
<path d="M382.1 14.6L373.4 22.6C372.3 21.8 371.2 21.1 370.1 20.4C367.2 18.6 364.3 17 361.2 15.7C357.4 14 350.5 11.4 345.5 10C345 9.8 344.5 9.7 344 9.6L354.6 0C356.2 0.3 357.6 0.6 358.9 1C361.8 1.9 364.5 3.2 368 5.1C371.1 6.8 374.1 8.6 376.8 10.6C378.7 11.9 380.5 13.2 382.1 14.6Z" fill="#5BB392"/>
<path d="M365.1 7.1C367 8.1 367.7 9.9 366.8 11.2C365.9 12.4 363.7 12.6 361.8 11.6C359.9 10.6 359.2 8.8 360.1 7.5C361 6.3 363.2 6.1 365.1 7.1Z" fill="white"/>
<path d="M360 6.9C356.8 9.9 350.4 10.2 345.5 10C345 9.8 344.5 9.7 344 9.6L354.6 0C356.2 0.3 357.6 0.6 358.9 1C361.1 2.8 362.1 4.9 360 6.9Z" fill="#3F7A63"/>
<path d="M382.101 14.6L373.401 22.6C372.301 21.8 371.201 21.1 370.101 20.4C367.901 17.8 366.101 14.5 368.201 12.1C369.801 10.3 373.301 10 376.901 10.6C378.701 11.9 380.501 13.2 382.101 14.6Z" fill="#3F7A63"/>
</g>
<g clip-path="url(#clip3_2628_21425)">
<path d="M253 214.1V227.1C253 228.2 252.1 229.2 250.9 229.2H201.1C200.9 229.2 200.8 229.2 200.6 229.1C199.7 228.9 199 228.1 199 227.1V214.1C199 212.9 199.9 212 201.1 212H251C251.7 212 252.3 212.3 252.7 212.9C252.9 213.2 253 213.6 253 214.1Z" fill="#FFAA01"/>
<path opacity="0.5" d="M253 214.1V227.1C253 228.2 252.1 229.2 250.9 229.2H201.1C200.9 229.2 200.8 229.2 200.6 229.1C206.2 228.8 225.4 227.5 238 222.9C247.1 219.6 250 216.4 252.7 212.9C252.9 213.2 253 213.6 253 214.1Z" fill="#8B5703"/>
<path d="M247.5 229.2H247V212H247.5V229.2Z" fill="#8B5703"/>
<path d="M236.799 229.2H236.299V212H236.799V229.2Z" fill="#8B5703"/>
<path d="M226.1 229.2H225.6V212H226.1V229.2Z" fill="#8B5703"/>
<path d="M215.398 229.2H214.898V212H215.398V229.2Z" fill="#8B5703"/>
<path d="M204.699 229.2H204.199V212H204.699V229.2Z" fill="#8B5703"/>
<path d="M267 231.2V244.2C267 245.3 266.1 246.3 264.9 246.3H215C214.3 246.3 213.7 246 213.4 245.5C213.1 245.2 213 244.7 213 244.3V231.3C213 230.2 213.9 229.2 215.1 229.2H265C266 229.2 267 230.1 267 231.2Z" fill="#FFAA01"/>
<path d="M241.6 229.2C236.2 230.1 230.8 231.4 227.2 233.5C219 238.2 214.6 243.5 213.4 245.5C213.1 245.2 213 244.7 213 244.3V229.2H241.6Z" fill="#8B5703"/>
<path d="M261.799 246.3H261.299L261.399 229.2H261.899L261.799 246.3Z" fill="#8B5703"/>
<path d="M251.1 246.3H250.6L250.7 229.2H251.2L251.1 246.3Z" fill="#8B5703"/>
<path d="M240.4 246.3H239.9L240 229.2H240.5L240.4 246.3Z" fill="#8B5703"/>
<path d="M229.799 246.3H229.299V229.2H229.799V246.3Z" fill="#8B5703"/>
<path d="M219.1 246.3H218.6V229.2H219.1V246.3Z" fill="#8B5703"/>
<path d="M260.6 248.4V261.4C260.6 262.5 259.7 263.5 258.5 263.5H208.6C207.5 263.5 206.5 262.6 206.5 261.4V248.4C206.5 247.3 207.4 246.3 208.6 246.3H258.5C259.6 246.3 260.6 247.2 260.6 248.4Z" fill="#FFAA01"/>
<path d="M260.599 248.4V255.4C258.099 254.1 255.099 252.8 251.599 251.7C237.299 246.9 221.699 246.3 221.699 246.3H258.499C259.599 246.3 260.599 247.2 260.599 248.4Z" fill="#8B5703"/>
<path d="M255.201 263.5H254.701V246.3H255.201V263.5Z" fill="#8B5703"/>
<path d="M244.5 263.5H244V246.3H244.5V263.5Z" fill="#8B5703"/>
<path d="M233.801 263.5H233.301V246.3H233.801V263.5Z" fill="#8B5703"/>
<path d="M223.1 263.5H222.6V246.3H223.1V263.5Z" fill="#8B5703"/>
<path d="M212.4 263.5H211.9V246.3H212.4V263.5Z" fill="#8B5703"/>
</g>
<g clip-path="url(#clip4_2628_21425)">
<path d="M276.9 51.9C276.8 52.1 276.6 52.4 276.5 52.6C273.1 58.1 268.7 62.4 264.2 66.7C263.6 67.2 263.1 67.8 262.5 68.3C262.1 68.6 261.8 68.9 261.4 69.2C257.4 72.4 253.2 74.7 249.6 76.3L236 67.8C240.5 65.5 244.3 62.8 247.4 60.2C247.6 60 247.9 59.8 248.1 59.6C249.7 58.2 251 56.8 252.1 55.5C255 52.2 257.5 48.6 259.4 44.9C259.7 44.3 260 43.6 260.4 43L276.9 51.9Z" fill="#5BB392"/>
<path d="M276.901 51.9C276.801 52.1 276.601 52.4 276.501 52.6C271.701 55.5 265.201 58 261.701 55C258.501 52.3 258.801 47.9 259.501 44.9C259.801 44.3 260.101 43.6 260.501 43L276.901 51.9Z" fill="#3F7A63"/>
<path d="M261.3 69.1C257.3 72.3 253.1 74.6 249.5 76.2L236 67.8C240.5 65.5 244.3 62.8 247.4 60.2C249.6 60.4 251.8 60.9 254.1 61.8C258.1 63.4 260.2 66.2 261.3 69.1Z" fill="#3F7A63"/>
<path d="M260.3 62.8C258.9 64.7 256.7 65.5 255.3 64.4C253.9 63.4 253.9 61 255.3 59.1C256.7 57.2 258.9 56.4 260.3 57.5C261.7 58.5 261.7 60.9 260.3 62.8Z" fill="white"/>
</g>
<path d="M358.376 251.531L355.68 255.322L354.332 257.175L349.614 263.916C349.614 263.916 342.031 263.916 338.998 263.916C337.65 263.916 336.807 262.483 337.481 261.304C337.481 261.304 337.481 261.304 337.481 261.22C337.903 260.546 339.166 260.04 340.514 259.619C341.104 259.45 341.694 259.282 342.2 259.198C342.705 259.113 343.126 258.945 343.548 258.692C344.727 258.102 345.57 257.091 346.075 255.912L346.834 254.058C347.676 251.952 347.929 249.761 347.592 247.486C347.592 247.234 347.508 247.065 347.508 246.812L346.749 243.274L346.075 239.988L355.175 239.482L356.944 243.948L357.871 246.307L358.123 246.897L358.713 248.413C359.135 249.508 358.966 250.688 358.376 251.531Z" fill="#FFBB96"/>
<path opacity="0.5" d="M357.871 246.391C356.608 247.234 353.743 247.739 350.373 247.739C349.362 247.739 348.435 247.655 347.593 247.571C347.593 247.318 347.508 247.149 347.508 246.897L346.75 243.358C347.845 243.189 349.109 243.105 350.373 243.105C353.069 243.105 355.428 243.442 356.86 244.032L357.871 246.391Z" fill="#C97125"/>
<path d="M424.684 121.696C424.684 121.696 424.599 121.696 424.684 121.696C424.347 121.696 423.504 121.611 422.409 121.359H422.324C420.218 120.937 417.016 120.179 414.826 119.674C413.057 119.252 411.287 119.337 409.686 120.011C408.423 120.432 407.327 121.19 406.4 122.285C406.4 122.285 406.401 122.285 406.316 122.37L403.452 125.656L401.43 127.93L398.059 123.886L395.363 120.6L396.964 117.989L399.492 113.86L400.587 112.091C401.345 110.827 402.946 110.321 404.294 110.827L409.012 112.512L413.646 114.197L422.914 117.567C423.672 117.82 424.431 118.326 425.021 118.915C426.453 120.348 425.863 121.611 424.684 121.696Z" fill="#FFBB96"/>
<path d="M408.676 124.139C402.61 135.682 391.741 156.745 391.741 156.745C391.741 156.745 385.001 153.628 378.934 150.679C378.934 150.679 378.934 150.679 378.85 150.679C376.491 149.584 374.3 148.404 372.615 147.477C379.019 137.535 385.506 129.784 393.426 119.168C393.594 119.252 393.847 119.421 394.016 119.505C398.228 121.527 404.295 121.611 408.676 124.139Z" fill="#967BC4"/>
<path d="M355.595 175.028C355.427 175.871 355.258 176.629 355.174 177.387L352.057 196.176L349.95 208.898L344.727 208.056L342.536 207.719C338.492 207.045 335.375 204.011 334.532 200.136C334.448 199.883 334.448 199.715 334.448 199.715C334.363 199.125 334.279 198.535 334.279 197.945L331.246 148.488L350.54 149.584L354.5 149.836L355.258 151.521C356.017 153.122 356.522 154.976 356.775 156.914C357.617 162.643 356.606 169.383 355.595 175.028Z" fill="#967BC4"/>
<path opacity="0.5" d="M409.602 120.011C408.339 120.432 407.243 121.19 406.317 122.285C406.317 122.285 406.317 122.285 406.232 122.37L403.368 125.656C403.031 125.571 402.778 125.571 402.441 125.487C400.756 125.066 399.239 124.476 397.975 123.802L395.279 120.516L396.88 117.904C398.649 117.315 401.43 117.23 404.379 117.989C406.485 118.41 408.254 119.084 409.602 120.011Z" fill="#C97125"/>
<path d="M359.388 245.043C359.388 245.127 359.388 245.127 359.388 245.043C359.136 245.127 355.176 245.127 351.047 244.706C348.098 244.453 345.149 244.032 343.464 243.274C340.852 231.394 335.208 203.927 334.533 200.22C334.449 199.967 334.449 199.799 334.449 199.799L344.391 197.777L352.058 196.26C355.091 206.118 358.63 231.562 359.473 244.874C359.388 244.959 359.388 244.959 359.388 245.043Z" fill="#967BC4"/>
<path d="M328.383 129.447L358.546 130.795L360.568 128.352C363.011 125.487 362.253 121.527 358.209 120.516L329.562 116.556L328.383 129.447Z" fill="#FFBB96"/>
<path d="M359.387 245.043C359.219 246.054 357.196 246.644 354.416 246.728C353.489 246.728 352.562 246.728 351.467 246.644C351.383 246.644 351.214 246.644 351.13 246.644C346.749 246.222 343.21 244.79 343.379 243.526C343.379 243.442 343.379 243.358 343.463 243.274C343.969 242.263 346.749 241.673 350.372 241.926C350.793 241.926 351.214 242.01 351.636 242.01C352.394 242.094 353.152 242.178 353.742 242.347C356.859 242.937 359.134 243.948 359.303 244.959C359.387 244.959 359.387 244.959 359.387 245.043Z" fill="#967BC4"/>
<path d="M354.922 256.501L349.698 264C349.698 264 342.115 264 339.082 264C337.734 264 336.891 262.568 337.565 261.388C337.565 261.388 337.565 261.388 337.565 261.304C337.987 260.63 339.25 260.124 340.598 259.703C344.643 260.124 350.709 260.714 354.922 256.501Z" fill="#342629"/>
<path d="M358.374 251.53L355.678 255.322C356.099 254.311 356.436 252.963 356.605 251.193C356.857 249.171 357.531 247.739 358.121 246.981L358.711 248.497C359.132 249.508 358.964 250.688 358.374 251.53Z" fill="#342629"/>
<path opacity="0.5" d="M359.388 245.043C359.388 245.127 359.388 245.127 359.388 245.043C359.22 246.054 357.197 246.644 354.417 246.728C354.333 246.222 354.249 245.633 354.164 244.959C354.08 244.116 353.912 243.274 353.743 242.263C352.227 232.152 350.626 213.701 348.688 206.623C347.003 200.473 344.222 198.703 344.222 197.777C343.97 193.817 343.38 185.644 342.622 178.314C341.611 168.372 340.01 157.082 340.01 156.745L350.457 149.668L354.417 149.921L355.175 151.606C355.934 153.207 356.439 155.06 356.692 156.998C357.535 162.727 356.523 169.467 355.512 175.112C355.344 175.955 355.175 176.713 355.091 177.472L351.974 196.26C355.007 206.118 358.546 231.562 359.388 244.874C359.388 244.959 359.388 244.959 359.388 245.043Z" fill="#7B59B5"/>
<path d="M350.708 123.297L332.088 153.375L337.986 156.998L360.818 127.93L350.708 123.297Z" fill="#FFBB96"/>
<path d="M304.202 92.5439C304.539 93.9763 302.096 95.7456 298.81 96.4196C295.524 97.0936 292.575 96.5039 292.322 94.9873C291.985 93.555 294.428 91.7857 297.714 91.1116C301 90.5219 303.949 91.1116 304.202 92.5439Z" fill="#613830"/>
<path d="M306.476 99.0315C305.97 101.222 302.769 102.317 299.23 101.475C295.776 100.632 293.332 98.2732 293.838 96.0826C294.343 93.892 297.545 92.7967 301.084 93.6393C304.538 94.3975 306.981 96.8409 306.476 99.0315Z" fill="#613830"/>
<path d="M313.469 111.164C311.026 114.955 306.813 118.494 301.253 120.095C297.124 121.274 292.996 121.611 289.541 120.937C287.94 120.685 286.424 120.179 285.076 119.505C284.907 119.421 284.823 119.421 284.655 119.337C281.874 117.82 279.936 115.545 279.431 112.512C278.504 106.699 283.475 102.233 295.692 100.043C305.718 98.1889 313.891 96.5039 315.66 101.812C316.502 104.255 315.744 107.794 313.469 111.164Z" fill="#613830"/>
<path d="M289.54 121.19C286.928 121.022 285.917 119.926 285.58 119C284.822 116.977 286.254 114.366 287.855 112.765C290.045 110.658 293.331 109.647 293.921 109.816C294.09 109.9 294.09 109.984 294.09 109.984C294.09 110.069 294.005 110.237 293.921 110.237C293.837 110.237 293.753 110.237 293.753 110.153C293.247 110.153 290.214 110.995 288.192 113.018C286.591 114.534 285.327 117.062 286.001 118.747C286.422 119.926 287.686 120.6 289.54 120.685C289.624 120.685 289.708 120.769 289.708 120.937C289.708 121.106 289.624 121.19 289.54 121.19Z" fill="#965D50"/>
<path d="M408.844 123.549C408.76 123.718 408.76 123.886 408.591 124.055C407.58 125.656 403.957 126.161 400.082 125.15C396.543 124.223 393.763 122.454 393.173 120.769C393.004 120.348 393.004 120.011 393.089 119.674C393.173 119.421 393.257 119.252 393.426 119.084C393.678 118.663 394.184 118.326 394.774 118.073C396.374 117.399 399.071 117.315 401.851 118.073C406.232 119.084 409.349 121.611 408.844 123.549Z" fill="#967BC4"/>
<path d="M314.059 109.142C314.059 109.142 313.806 109.984 313.469 111.164C311.026 114.955 306.813 118.494 301.252 120.095C297.124 121.274 292.995 121.611 289.541 120.937L288.867 120.179C288.867 120.179 286.676 119.758 285.076 119.505C284.907 119.421 284.823 119.421 284.654 119.337C286.002 119.337 288.53 118.915 292.658 117.315C299.314 114.703 301.421 103.076 301.421 103.076L314.059 109.142Z" fill="#342629"/>
<path d="M404.295 110.658L409.013 112.344C404.042 111.838 400.587 113.186 399.492 113.692L400.587 111.922C401.346 110.658 402.947 110.153 404.295 110.658Z" fill="#342629"/>
<path d="M424.683 121.696C424.683 121.696 424.599 121.696 424.683 121.696C424.346 121.696 423.504 121.611 422.409 121.359H422.324C422.324 121.359 418.28 116.64 413.73 114.029L422.998 117.399C423.757 117.652 424.515 118.157 425.105 118.747C426.453 120.348 425.863 121.611 424.683 121.696Z" fill="#342629"/>
<path d="M285.918 119.926C285.833 119.926 285.833 119.926 285.918 119.926C284.485 119.505 283.39 118.663 282.8 117.483C281.958 115.882 282.042 113.692 282.885 111.585C282.885 111.501 283.053 111.417 283.137 111.501C283.222 111.585 283.306 111.67 283.222 111.754C282.463 113.776 282.379 115.798 283.137 117.314C283.727 118.41 284.654 119.168 285.918 119.505C286.002 119.505 286.086 119.674 286.086 119.758C286.086 119.842 286.002 119.926 285.918 119.926Z" fill="#965D50"/>
<path d="M355.596 175.028C356.186 165.676 344.98 157.925 344.896 157.756L343.801 155.229L351.384 154.723L356.86 156.998C357.618 162.643 356.607 169.383 355.596 175.028Z" fill="#342629"/>
<path d="M316.753 116.556L306.727 120.853L303.862 114.029L302.261 110.321L301.756 109.226L311.782 104.929L316.753 116.556Z" fill="#FFBB96"/>
<path d="M336.47 137.114L326.528 154.049L325.685 155.566L323.495 154.386L322.484 153.796L315.659 150.005L308.666 146.129L319.535 127.678L333.689 135.513L336.47 137.114Z" fill="#FFBB96"/>
<path d="M346.412 135.935L344.222 141.158L336.976 158.178L335.712 161.211L331.921 159.104L326.697 156.155L323.579 154.386L322.568 153.796C322.99 153.796 323.832 153.038 324.927 151.774C325.938 150.51 327.202 148.741 328.466 146.719C328.803 146.214 329.14 145.624 329.477 145.118C330.067 144.107 330.657 143.096 331.162 142.085C331.499 141.411 331.836 140.653 332.173 140.063C333.1 138.125 333.69 136.524 333.774 135.598C333.774 135.513 333.774 135.513 333.774 135.429L335.628 135.513L346.412 135.935Z" fill="#967BC4"/>
<path opacity="0.5" d="M394.774 118.073C394.521 118.494 394.268 118.915 394.016 119.421C393.763 119.842 393.51 120.348 393.173 120.853C390.645 125.234 383.905 133.154 381.715 137.283C375.985 148.067 379.44 150.932 378.934 150.679C378.934 150.679 378.934 150.679 378.85 150.679C376.491 149.584 374.3 148.404 372.615 147.477C379.019 137.535 385.506 129.784 393.426 119.168C393.679 118.663 394.184 118.326 394.774 118.073Z" fill="#7B59B5"/>
<path d="M324.927 148.994C324.253 150.51 323.832 152.617 323.748 154.47L320.631 152.701L319.619 152.111L312.795 148.32C313.553 146.214 325.012 134.755 328.213 140.4C328.298 140.484 328.298 140.569 328.298 140.653C328.972 142.169 327.202 144.107 324.927 148.994Z" fill="#342629"/>
<path d="M339.25 119.589C339.082 121.274 338.829 122.875 338.576 124.476C338.492 124.813 338.408 125.234 338.408 125.571C338.239 126.414 338.071 127.256 337.902 128.015C337.228 130.711 336.47 133.238 335.543 135.513C335.459 135.85 335.29 136.103 335.206 136.44C334.616 137.872 333.942 139.136 333.268 140.316C333.184 140.568 333.016 140.737 332.847 140.99C332.51 141.58 332.173 142.169 331.836 142.675C330.825 144.191 329.645 145.539 328.466 146.803C325.854 149.415 323.074 151.269 320.125 152.532C316.586 154.049 312.879 154.47 309.593 154.133C309.593 154.133 309.677 151.858 309.256 148.657C308.751 145.118 306.391 142.254 303.19 140.737C302.179 140.231 301.252 139.642 300.578 138.883C299.483 137.788 298.809 136.356 298.809 134.923C298.809 134.418 298.893 133.912 298.977 133.491C299.904 130.374 303.78 128.015 308.414 128.015C310.688 128.015 312.795 128.604 314.396 129.531C316.755 125.571 318.945 120.6 320.041 115.377C320.041 115.292 332.089 117.82 339.25 119.589Z" fill="#DDF7FF"/>
<path d="M304.201 136.019C301.926 136.777 300.999 137.872 300.578 138.799C299.483 137.704 298.809 136.272 298.809 134.839C298.809 134.334 298.893 133.828 298.977 133.407H306.391C306.391 133.407 308.329 134.671 304.201 136.019Z" fill="#342629"/>
<path d="M317.177 134.165L281.875 136.019L280.021 119.252L296.956 117.483L298.305 117.315H298.389L302.18 116.893C305.972 116.472 309.594 118.241 311.617 121.359C311.954 121.864 312.206 122.37 312.459 122.96L317.177 134.165Z" fill="#DDF7FF"/>
<path d="M338.408 125.487C338.24 126.33 338.071 127.172 337.903 127.93C337.229 130.627 336.47 133.154 335.544 135.429C335.459 135.766 335.291 136.019 335.207 136.356C334.617 137.788 333.943 139.052 333.269 140.231C333.185 140.484 333.016 140.653 332.848 140.905C320.547 140.99 310.268 132.817 310.268 132.817L321.895 123.549C321.895 123.634 330.573 124.055 338.408 125.487Z" fill="#BCD9E6"/>
<path opacity="0.5" d="M312.12 124.308L305.717 128.183C305.464 118.494 300.746 117.315 298.303 117.315L302.094 116.893C305.886 116.472 309.508 118.241 311.531 121.359L312.12 124.308Z" fill="#BCD9E6"/>
<path d="M392.5 155.313L389.046 161.885C386.771 166.182 382.305 167.867 377.166 166.771L336.977 158.178L330.152 156.745L337.567 140.906L339.673 136.44L341.527 136.187C343.127 136.019 344.812 135.935 346.413 135.935C349.194 135.935 351.89 136.272 354.586 136.946C357.872 137.704 361.073 138.968 364.107 140.569L392.5 155.313Z" fill="#967BC4"/>
<path d="M282.125 136.019C280.355 136.187 278.586 133.323 277.828 129.279C277.744 128.857 277.659 128.436 277.659 128.015C277.154 123.634 278.081 119.926 279.766 119.252C279.85 119.252 279.934 119.168 280.103 119.168C280.271 119.168 280.44 119.168 280.524 119.168C282.293 119.505 284.063 122.875 284.568 127.088C284.652 127.762 284.737 128.436 284.737 129.11C284.737 132.986 283.726 135.85 282.125 136.019Z" fill="#342629"/>
<path d="M284.655 129.279L277.83 129.363H276.482H272.944C270.837 129.363 268.731 128.689 267.046 127.341L241.686 106.614L245.224 101.896L272.775 119.926L279.684 119.337H280.274H280.442C282.212 119.674 283.981 123.044 284.486 127.256C284.655 127.93 284.655 128.604 284.655 129.279Z" fill="#FFBB96"/>
<path d="M333.605 138.799C322.736 138.378 324.252 127.593 324.252 127.593L321.051 120.769H326.78C326.78 120.769 332.257 122.37 338.576 124.308C338.407 125.571 344.305 127.846 343.378 130.121L346.411 135.766C346.495 135.766 346.58 135.766 346.748 135.85C346.664 136.777 343.041 136.861 342.283 136.861C338.154 136.693 336.469 138.968 333.605 138.799Z" fill="#342629"/>
<path d="M307.993 110.743C307.993 110.743 305.55 112.765 303.781 114.029L302.18 110.321L306.055 110.406L307.993 110.743Z" fill="#342629"/>
<path d="M330.152 121.78C330.152 124.308 329.393 126.667 328.045 128.605C325.686 132.143 321.473 134.502 316.755 134.502C312.711 134.502 309.257 132.817 306.982 130.121C305.128 127.93 304.117 125.066 304.117 121.948C304.117 113.692 309.678 104.508 317.092 104.508C324.591 104.508 330.152 114.787 330.152 121.78Z" fill="#613830"/>
<path d="M334.196 113.018C334.196 113.102 334.196 113.186 334.112 113.186C333.775 113.944 332.511 114.45 330.741 114.534C329.225 114.618 327.287 114.45 325.265 113.944C322.485 113.27 320.125 112.259 318.862 111.164C318.103 111.67 317.261 112.007 316.418 112.007C312.964 112.007 309.594 105.351 309.594 99.9583C309.594 94.6503 313.048 92.544 316.418 92.544C319.873 92.544 322.569 96.9251 322.569 102.233C322.569 102.486 322.569 102.739 322.569 102.991C322.485 105.435 324.254 107.625 326.613 108.131C326.613 108.131 326.613 108.131 326.697 108.131C331.163 109.226 334.533 111.417 334.196 113.018Z" fill="#613830"/>
<path d="M300.073 101.896C296.535 101.475 295.102 99.6213 295.018 99.537C294.934 99.4528 294.934 99.2843 295.102 99.2843C295.187 99.2 295.355 99.2 295.355 99.3685C295.355 99.3685 296.703 101.138 300.073 101.559C300.158 101.559 300.242 101.643 300.242 101.812C300.242 101.812 300.158 101.896 300.073 101.896Z" fill="#965D50"/>
<path opacity="0.5" d="M334.112 113.186C333.775 113.944 332.511 114.45 330.742 114.534L329.646 112.596C329.815 112.596 331.837 113.186 334.112 113.186Z" fill="#99232C"/>
<path d="M315.322 102.317C315.911 103.16 315.237 104.676 313.805 105.603C312.373 106.53 310.772 106.614 310.182 105.772C309.592 104.929 310.266 103.413 311.699 102.486C313.131 101.559 314.732 101.475 315.322 102.317Z" fill="#FFBB96"/>
<path d="M315.492 92.0385L315.324 92.7125L313.976 92.6282L312.291 94.3976C312.291 94.3976 314.818 96.3354 312.796 99.6213C311.111 102.317 311.869 103.413 312.796 103.581L312.122 106.446C311.28 110.153 307.488 112.512 303.781 111.67L302.854 111.417C299.315 110.574 297.125 107.036 297.967 103.497L301.422 88.6683L315.492 92.0385Z" fill="#FFBB96"/>
<path d="M303.947 95.5771C303.695 95.8299 303.442 95.9141 303.189 96.0826C302.936 96.1669 302.684 96.2511 302.431 96.3354C301.925 96.4196 301.42 96.5039 300.999 96.5039C300.577 96.5039 300.24 96.5881 299.903 96.7567C299.566 96.9252 299.314 97.1779 299.229 97.5149V97.5992C299.229 97.6834 299.061 97.7677 298.976 97.7677C298.892 97.7677 298.808 97.6834 298.808 97.5992C298.639 97.0094 298.976 96.4196 299.398 96.0826C299.819 95.7456 300.325 95.5771 300.83 95.4086C301.336 95.3243 301.673 95.2401 302.094 95.0716L302.684 94.9031C302.852 94.8188 303.105 94.7346 303.189 94.7346L303.526 94.6503C303.779 94.5661 304.116 94.8188 304.116 95.0716C304.116 95.2401 304.032 95.4929 303.947 95.5771Z" fill="#612E22"/>
<path d="M319.535 90.7746C319.703 93.1337 313.974 96.0826 307.908 96.5039C303.948 96.8409 301.336 96.5881 299.651 95.9141C297.545 95.0716 296.955 93.7235 297.292 92.0384C297.797 89.6793 302.263 87.4045 308.245 87.0675C314.395 86.7305 319.45 88.4155 319.535 90.7746Z" fill="#613830"/>
<path d="M351.044 134.165C346.916 138.041 337.395 139.136 328.464 134.081C325.937 132.649 323.746 131.048 321.893 129.279C317.259 124.729 315.152 119.589 317.174 115.966C319.955 110.996 322.567 108.131 331.413 113.439C335.71 116.051 341.102 116.556 347.674 118.831C350.37 119.758 352.224 121.022 353.403 122.454C356.184 126.077 354.836 130.627 351.044 134.165Z" fill="#613830"/>
<path opacity="0.5" d="M351.045 134.165C346.917 138.041 337.396 139.136 328.465 134.081C325.938 132.649 324.758 131.722 322.904 129.953C322.904 129.7 321.893 128.52 321.978 128.52C321.978 128.52 327.117 134.502 339.839 133.491C350.455 132.733 354.415 126.582 353.488 122.538C356.185 126.077 354.837 130.627 351.045 134.165Z" fill="#4D260E"/>
<path d="M243.117 105.856L232.248 103.75H232.164C232.08 103.75 231.911 103.665 231.827 103.665L226.182 99.6213C225.929 99.4528 225.845 99.0315 226.013 98.6945C226.182 98.4417 226.519 98.3575 226.856 98.526L233.091 101.643L232.754 101.475L243.622 103.413C244.296 103.497 244.718 104.171 244.549 104.761C244.381 105.519 243.707 105.94 243.117 105.856Z" fill="#FFBB96"/>
<path d="M243.707 105.35L234.018 102.654H233.934C233.765 102.57 233.681 102.57 233.513 102.402L228.373 97.0936C228.12 96.8409 228.12 96.4196 228.373 96.1669C228.626 95.9141 228.963 95.9141 229.216 96.0826L235.029 100.632L234.608 100.38L244.297 102.991C244.971 103.16 245.308 103.834 245.14 104.424C245.055 105.098 244.381 105.519 243.707 105.35C243.792 105.35 243.707 105.35 243.707 105.35Z" fill="#FFBB96"/>
<path d="M244.886 105.688L236.124 102.739H236.04C235.787 102.654 235.619 102.486 235.534 102.233L232.585 96.3354C232.417 95.9983 232.585 95.6613 232.838 95.4928C233.091 95.3243 233.428 95.4086 233.681 95.6613L237.472 101.054L236.798 100.548L245.645 103.413C246.234 103.581 246.572 104.255 246.403 104.929C246.234 105.519 245.56 105.856 244.886 105.688Z" fill="#FFBB96"/>
<path opacity="0.5" d="M324.928 131.89C322.654 133.575 319.873 134.502 316.756 134.502C312.712 134.502 309.257 132.817 306.982 130.121C308.162 130.795 309.763 131.216 311.953 131.132C316.335 131.048 318.778 128.267 319.957 125.824C320.042 125.993 320.21 126.161 320.294 126.33C322.232 129.026 323.412 130.627 324.928 131.89Z" fill="#4D260E"/>
<path d="M243.117 103.581L238.061 102.57H237.977C237.64 102.486 237.387 102.233 237.303 101.896L235.955 97.3464C235.871 97.0094 236.039 96.6724 236.376 96.5881C236.713 96.5039 236.966 96.6724 237.135 96.9251L239.409 101.054L238.567 100.38L243.622 101.306C244.296 101.391 244.717 102.065 244.549 102.654C244.38 103.244 243.791 103.665 243.117 103.581Z" fill="#FFBB96"/>
<path d="M244.551 107.204L225.594 103.244C225.594 102.317 228.374 101.896 229.638 101.98C235.873 102.486 244.13 99.3685 245.73 102.486C246.741 104.424 244.551 107.204 244.551 107.204Z" fill="#FFBB96"/>
<path d="M304.454 103.328C302.769 103.328 302.516 102.823 302.432 102.739C302.432 102.654 302.432 102.654 302.432 102.57L304.285 97.9362C304.369 97.8519 304.454 97.7677 304.538 97.8519C304.622 97.9362 304.706 98.0205 304.622 98.1047L302.853 102.654C303.021 102.739 303.527 103.076 305.044 102.907C305.212 102.907 305.296 102.991 305.296 103.076C305.296 103.16 305.212 103.328 305.128 103.328C304.875 103.328 304.706 103.328 304.454 103.328Z" fill="#C97125"/>
<path d="M306.731 105.098C306.646 105.351 306.646 105.603 306.394 106.109C306.309 106.277 306.225 106.53 306.057 106.699C305.551 107.541 304.793 108.384 303.697 108.468C303.36 108.468 303.108 108.468 302.771 108.384C301.76 108.047 301.001 107.036 300.664 105.266C300.58 104.929 300.58 104.845 300.58 104.508C300.58 104.508 301.423 105.014 302.855 105.182C305.383 105.603 306.646 105.182 306.731 105.098Z" fill="#342629"/>
<path d="M306.137 106.783C305.632 107.625 304.874 108.468 303.778 108.552C303.441 108.552 303.189 108.552 302.852 108.468C303.189 107.625 304.368 106.951 305.885 106.783C305.969 106.783 306.053 106.783 306.137 106.783Z" fill="#B5506B"/>
<path d="M306.728 105.098C306.644 105.35 306.644 105.603 306.391 106.109C305.97 106.193 305.549 106.277 305.127 106.362C303.358 106.53 301.673 106.109 300.83 105.35C300.746 105.013 300.746 104.929 300.746 104.592C300.746 104.592 301.589 105.013 302.937 105.266C305.296 105.603 306.644 105.182 306.728 105.098Z" fill="white"/>
<path d="M300.746 104.676C301.252 104.676 301.757 104.676 302.263 104.676C302.768 104.761 303.274 104.761 303.779 104.761C304.285 104.845 304.791 104.845 305.296 104.929C305.802 105.014 306.307 105.098 306.813 105.182C306.897 105.182 306.897 105.266 306.897 105.351C306.897 105.435 306.813 105.435 306.813 105.435C306.307 105.519 305.802 105.519 305.296 105.519C304.791 105.519 304.285 105.519 303.779 105.435C303.274 105.435 302.768 105.351 302.263 105.266C301.757 105.182 301.252 105.098 300.746 104.929C300.662 104.929 300.662 104.845 300.662 104.761C300.662 104.676 300.746 104.676 300.746 104.676Z" fill="#94213F"/>
<path d="M301.925 107.71C302.262 107.878 302.599 108.047 302.936 108.131C303.273 108.215 303.61 108.215 303.947 108.215C304.284 108.131 304.621 107.962 304.958 107.794C305.295 107.625 305.548 107.373 305.885 107.12C305.969 107.036 306.053 107.036 306.053 107.12C306.053 107.12 306.138 107.204 306.053 107.288C305.885 107.71 305.548 107.962 305.295 108.299C304.958 108.552 304.537 108.805 304.116 108.889C303.694 108.973 303.189 108.889 302.768 108.721C302.599 108.636 302.431 108.468 302.178 108.384C302.009 108.215 301.841 108.131 301.757 107.962C301.672 107.878 301.672 107.794 301.757 107.794C301.757 107.625 301.841 107.625 301.925 107.71Z" fill="#94213F"/>
<path d="M302.937 99.3685C302.853 99.3685 302.769 99.2843 302.769 99.2C302.684 98.526 302.347 98.0205 301.842 97.8519C301.336 97.6834 300.747 97.9362 300.325 98.526C300.241 98.6102 300.157 98.6102 300.073 98.6102C299.988 98.526 299.988 98.4417 299.988 98.3575C300.494 97.5992 301.252 97.2622 302.01 97.5149C302.684 97.6834 303.19 98.3575 303.274 99.2C303.106 99.2843 303.021 99.3685 302.937 99.3685Z" fill="#1E0921"/>
<path d="M309.256 101.138C309.171 101.138 309.087 101.054 309.087 100.969C309.003 100.295 308.666 99.7898 308.16 99.6212C307.655 99.4527 307.065 99.7055 306.644 100.295C306.559 100.38 306.475 100.38 306.391 100.38C306.307 100.295 306.307 100.211 306.307 100.127C306.812 99.3685 307.57 99.0315 308.329 99.2842C309.003 99.4527 309.508 100.127 309.593 100.969C309.508 101.054 309.424 101.138 309.256 101.138Z" fill="#1E0921"/>
<path d="M301.76 98.3575C301.76 98.6945 301.507 98.9473 301.17 98.9473C300.833 98.9473 300.58 98.6945 300.58 98.3575C300.58 98.0205 300.833 97.7677 301.17 97.7677C301.507 97.7677 301.76 98.0205 301.76 98.3575Z" fill="#342629"/>
<path d="M308.246 100.043C308.246 100.38 307.993 100.632 307.656 100.632C307.319 100.632 307.066 100.38 307.066 100.043C307.066 99.7055 307.319 99.4528 307.656 99.4528C307.993 99.4528 308.246 99.7055 308.246 100.043Z" fill="#342629"/>
<path d="M307.906 96.0826C307.906 95.9984 307.99 96.0826 308.074 96.0826L308.327 96.1669C308.495 96.2511 308.748 96.2511 308.917 96.3354L309.675 96.5039C309.928 96.5881 310.265 96.6724 310.517 96.8409C311.023 97.1779 311.444 97.6834 311.697 98.2732C311.865 98.863 311.95 99.4528 311.781 99.9583C311.781 100.043 311.613 100.127 311.528 100.127C311.444 100.127 311.36 100.043 311.36 99.9583C311.276 99.537 311.191 99.0315 310.939 98.6945C310.686 98.3575 310.349 98.1047 310.012 97.9362C309.843 97.8519 309.591 97.7677 309.422 97.7677L309.085 97.6834C308.917 97.6834 308.832 97.6834 308.664 97.5992C308.411 97.5149 308.074 97.4307 307.821 97.3464C307.653 97.2622 307.569 97.1779 307.4 97.0936C307.232 97.0094 307.147 96.9251 306.979 96.6724C306.81 96.4196 306.81 96.0826 307.063 95.9141C307.4 95.7456 307.737 95.8298 307.906 96.0826Z" fill="#612E22"/>
<path d="M328.467 134.334H328.383C326.866 133.66 325.771 132.901 324.76 132.059C323.244 130.711 321.98 129.026 320.21 126.498C320.126 126.33 319.958 126.161 319.873 125.993C317.514 122.875 316.082 122.538 315.492 122.538V122.117C316.25 122.117 317.851 122.622 320.21 125.74C320.379 125.908 320.463 126.077 320.632 126.245C322.401 128.689 323.581 130.458 325.097 131.722C326.024 132.564 327.119 133.238 328.636 133.912C328.72 133.997 328.804 134.081 328.72 134.165C328.636 134.334 328.551 134.334 328.467 134.334Z" fill="#965D50"/>
<path d="M353.491 131.553C353.406 131.553 353.322 131.469 353.322 131.385C353.322 130.964 353.238 130.711 352.985 130.458C351.974 129.531 348.941 129.363 343.296 129.868C334.618 130.627 332.006 122.96 332.006 122.875C332.006 122.791 332.006 122.623 332.174 122.623C332.259 122.623 332.427 122.623 332.427 122.791C332.427 122.875 334.955 130.121 343.296 129.447C349.194 128.942 352.142 129.11 353.238 130.121C353.575 130.458 353.743 130.795 353.743 131.301C353.659 131.469 353.575 131.553 353.491 131.553Z" fill="#965D50"/>
<path d="M341.947 123.802C341.526 123.802 341.105 123.718 340.768 123.465C340.683 123.381 340.599 123.297 340.683 123.212C340.768 123.128 340.852 123.044 340.936 123.128C342.031 123.802 343.464 123.044 345.149 122.201C347.508 121.022 350.288 119.674 352.984 121.696C353.069 121.78 353.069 121.864 352.984 122.033C352.9 122.117 352.816 122.117 352.647 122.033C350.204 120.179 347.592 121.443 345.317 122.538C344.138 123.212 342.958 123.802 341.947 123.802Z" fill="#965D50"/>
<path d="M304.96 126.667C304.875 126.667 304.791 126.582 304.791 126.498C303.359 121.359 306.898 118.073 309.425 115.629C310.268 114.871 311.026 114.113 311.447 113.523C313.469 110.743 312.627 107.457 312.627 107.457C312.543 107.373 312.627 107.204 312.711 107.204C312.795 107.12 312.964 107.204 313.048 107.288C313.132 107.457 313.975 110.911 311.868 113.86C311.363 114.534 310.605 115.292 309.762 116.051C307.15 118.494 303.864 121.527 305.212 126.498C305.212 126.498 305.128 126.582 304.96 126.667Z" fill="#965D50"/>
<path d="M304.876 97.0936C301.675 97.0936 298.641 96.2511 297.462 94.4818C296.03 92.2069 298.136 90.4376 298.136 90.4376C298.22 90.3534 298.389 90.3534 298.473 90.4376C298.557 90.5219 298.557 90.6904 298.473 90.7746C298.389 90.8589 296.619 92.2912 297.883 94.229C299.315 96.5039 304.623 97.3464 309.594 96.0826C314.313 94.9031 316.672 93.555 316.756 93.555C316.84 93.4707 317.009 93.555 317.009 93.6392C317.093 93.7235 317.009 93.892 316.924 93.892C316.84 93.9763 314.481 95.2401 309.679 96.4196C308.078 96.9251 306.477 97.0936 304.876 97.0936Z" fill="#965D50"/>
<path d="M296.027 96.9252C293.415 96.9252 292.573 95.9141 292.573 95.8299C292.489 95.7456 292.489 95.5771 292.657 95.5771C292.741 95.4929 292.91 95.4929 292.91 95.5771C292.91 95.5771 294.426 97.3464 299.987 95.9141C300.071 95.9141 300.24 95.9141 300.24 96.0826C300.24 96.1669 300.24 96.3354 300.071 96.3354C298.386 96.7567 297.038 96.9252 296.027 96.9252Z" fill="#965D50"/>
<path d="M335.205 115.545H335.121C334.279 115.124 333.436 114.703 332.593 114.281C330.908 113.355 329.055 112.428 326.443 111.754C320.377 110.153 319.618 108.215 320.377 103.581C321.135 99.4527 318.692 96.1668 318.186 95.9983C318.102 95.9983 318.018 95.8298 318.018 95.7456C318.018 95.6613 318.186 95.5771 318.27 95.5771C319.029 95.8298 321.472 99.2842 320.714 103.665C319.955 108.131 320.629 109.816 326.443 111.332C329.139 112.007 330.908 113.018 332.678 113.944C333.52 114.366 334.279 114.787 335.205 115.208C335.29 115.292 335.374 115.377 335.29 115.461C335.374 115.461 335.29 115.545 335.205 115.545Z" fill="#965D50"/>
<path d="M300.408 95.1558C297.712 95.1558 297.207 93.892 297.207 93.8078C297.123 93.7235 297.207 93.555 297.291 93.555C297.375 93.555 297.544 93.555 297.544 93.6393C297.544 93.6393 298.134 94.9031 301.082 94.6503C303.357 94.4818 306.138 92.9652 307.57 92.1227C308.328 91.7014 308.581 91.6172 308.665 91.6172C308.75 91.6172 308.834 91.7014 308.834 91.7857C308.834 91.8699 308.75 91.9542 308.665 91.9542C308.75 92.1227 308.328 92.2912 307.907 92.544C306.39 93.3865 303.61 94.9873 301.251 95.1558C300.914 95.1558 300.661 95.1558 300.408 95.1558Z" fill="#965D50"/>
<path d="M361.914 163.654C361.914 163.654 361.83 163.654 361.914 163.654C361.662 163.57 338.745 158.683 337.565 158.43C337.481 158.43 337.396 158.262 337.396 158.178C337.396 158.093 337.565 158.009 337.649 158.009C338.745 158.178 360.987 162.98 361.914 163.233C361.999 163.233 362.083 163.401 362.083 163.485C362.083 163.654 361.999 163.654 361.914 163.654Z" fill="#342629"/>
<path d="M340.262 145.202C339.757 145.202 338.072 144.781 331.669 142.843C331.584 142.843 331.5 142.675 331.5 142.591C331.5 142.506 331.669 142.422 331.753 142.422C334.87 143.349 339.504 144.697 340.178 144.781C340.515 144.444 342.032 143.433 348.098 139.305C348.182 139.22 348.351 139.305 348.351 139.389C348.435 139.473 348.351 139.642 348.266 139.642C345.233 141.664 340.768 144.697 340.347 145.034C340.431 145.118 340.431 145.202 340.262 145.202Z" fill="#342629"/>
<path d="M382.473 167.108C382.389 167.108 382.305 167.024 382.305 166.94C382.305 166.856 382.305 166.687 382.389 166.687C382.642 166.603 382.81 166.434 382.979 166.182C383.4 165.339 382.726 163.738 382.473 162.98C382.389 162.727 382.305 162.559 382.305 162.474C382.305 162.39 382.389 162.222 382.473 162.222C382.557 162.222 382.726 162.306 382.726 162.39C382.726 162.474 382.81 162.643 382.894 162.811C383.231 163.654 383.906 165.339 383.4 166.35C383.231 166.687 382.894 166.94 382.473 167.108C382.557 167.108 382.473 167.108 382.473 167.108Z" fill="#342629"/>
<path opacity="0.5" d="M284.653 129.279L277.829 129.363H276.48C279.514 128.689 282.462 127.172 282.547 124.223C282.715 120.348 280.946 119.589 280.272 119.421H280.44C282.21 119.758 283.979 123.128 284.485 127.341C284.653 127.93 284.653 128.605 284.653 129.279Z" fill="#C97125"/>
<path d="M225.592 103.497C225.508 103.497 225.508 103.497 225.592 103.497C225.424 103.497 225.339 103.328 225.424 103.244C225.508 102.991 226.603 101.643 230.563 101.896C231.911 101.98 233.765 101.728 235.787 101.475C239.494 100.969 243.622 100.38 245.476 101.812C245.56 101.896 245.56 101.98 245.476 102.149C245.392 102.233 245.308 102.233 245.139 102.149C243.454 100.801 239.326 101.391 235.787 101.896C233.765 102.149 231.911 102.402 230.479 102.317C227.109 102.149 225.929 103.076 225.761 103.413C225.761 103.413 225.676 103.497 225.592 103.497Z" fill="#C97125"/>
<path d="M238.061 101.391C237.977 101.391 237.977 101.391 238.061 101.391L234.86 100.717H234.775L233.764 99.874C233.68 99.7897 233.68 99.7055 233.764 99.537C233.849 99.4527 233.933 99.4527 234.101 99.537L235.028 100.295L238.061 100.885C238.146 100.885 238.23 101.054 238.23 101.138C238.23 101.306 238.146 101.391 238.061 101.391Z" fill="#C97125"/>
<path d="M242.359 101.306C240.59 100.885 236.545 100.127 236.545 100.127C236.461 100.127 236.377 99.9583 236.377 99.874C236.377 99.7898 236.545 99.7055 236.63 99.7055C236.63 99.7055 240.758 100.548 242.443 100.885C242.527 100.885 242.612 101.054 242.612 101.138C242.527 101.222 242.443 101.306 242.359 101.306Z" fill="#C97125"/>
<path d="M93.1963 53.1546L85.6135 54.9239C84.1812 55.2609 82.7489 54.3341 82.4119 52.9861C82.1591 51.638 83.0017 50.29 84.3497 49.9529L89.9105 48.6049C91.2585 48.2679 92.6066 49.1104 92.8593 50.4585L93.3649 52.7333C93.4491 52.9861 93.3649 53.1546 93.1963 53.1546Z" fill="#FFBB96"/>
<path d="M87.3831 49.8687L95.0501 45.4033L96.4825 42.7914C96.8195 41.7804 98.1675 41.3591 98.673 41.6119C98.673 41.6119 98.4203 43.0442 98.2518 43.4654L97.325 47.0883C97.2407 47.2569 97.1565 47.4254 97.0722 47.5096L96.8195 47.6781L90.1634 53.5759C89.2366 54.4184 87.7201 54.3342 86.8775 53.4074C86.035 52.4806 86.1193 50.964 87.0461 50.1215C87.1303 50.0372 87.2988 49.953 87.3831 49.8687Z" fill="#FFBB96"/>
<path d="M84.9404 52.3121L86.7939 48.0994L87.131 49.4474L83.9293 46.0773C83.5923 45.7403 83.6766 45.2347 83.9293 44.982C84.1821 44.7292 84.6033 44.7292 84.9404 44.8977L88.6475 47.7624C88.9845 48.0151 89.153 48.5206 88.9845 48.9419L88.9003 49.1104L87.468 53.3231C87.2152 53.9971 86.4569 54.4184 85.6986 54.1656C85.0246 53.9129 84.6033 53.1546 84.8561 52.3963C84.8561 52.3963 84.8561 52.3963 84.9404 52.3121Z" fill="#FFBB96"/>
<path d="M87.1319 51.8065L88.7328 48.1836L88.817 49.1947L85.3626 42.7072C85.1941 42.2859 85.2784 41.8646 85.6996 41.6119C86.0366 41.4434 86.4579 41.5276 86.7107 41.8646L90.8391 47.9309C91.0076 48.1836 91.0919 48.5207 91.0076 48.8577V48.9419L89.7438 52.8176C89.491 53.5759 88.7328 53.9129 88.0587 53.6601C87.3004 53.4074 86.9634 52.6491 87.2162 51.9751C87.1319 51.8908 87.1319 51.8908 87.1319 51.8065Z" fill="#FFBB96"/>
<path d="M87.8876 51.2168L89.9939 46.1616L90.0782 47.0883L87.045 40.0953C86.8765 39.674 87.045 39.2528 87.4663 39.0843C87.8033 38.9157 88.3088 39.0843 88.4773 39.4213L92.1845 46.0773C92.353 46.3301 92.353 46.6671 92.2688 46.9198V47.0041L90.4994 52.2278C90.2467 52.9861 89.4884 53.3231 88.7301 53.0704C87.9718 52.8176 87.6348 52.0593 87.8876 51.301C87.8876 51.301 87.8876 51.301 87.8876 51.2168Z" fill="#FFBB96"/>
<path d="M89.5727 50.29L92.3531 45.9088L92.1846 46.7513L91.005 40.1795C90.9208 39.7583 91.1735 39.337 91.6791 39.2527C92.1003 39.1685 92.4373 39.4213 92.6059 39.8425L94.5437 46.2458C94.6279 46.4986 94.6279 46.7513 94.4594 47.0041L94.3752 47.0883L91.9318 51.638C91.5948 52.3121 90.7523 52.5648 90.0782 52.2278C89.4042 51.8908 89.1515 51.0482 89.4885 50.3742C89.5727 50.3742 89.5727 50.29 89.5727 50.29Z" fill="#FFBB96"/>
<path d="M95.6388 60.1477L87.8033 62.5068L85.6127 63.0965L85.4442 62.5068L85.1071 61.4115L82.748 53.4916L92.7742 50.5428L93.4483 52.6491L95.6388 60.1477Z" fill="#FFBB96"/>
<path opacity="0.5" d="M95.6397 60.1476L87.8041 62.5067H85.445H84.9395C84.9395 62.4225 84.9395 62.0855 85.108 61.4957C85.5292 59.7264 87.2143 56.1035 93.3648 52.7333L95.6397 60.1476Z" fill="#C97125"/>
<path d="M162.032 159.483L147.625 164.285L138.61 167.318L126.814 171.278L112.744 175.996L107.099 177.934L87.6361 184.422L85.4455 174.143C84.0974 167.571 86.2038 161.083 90.5007 156.618C93.0283 154.006 96.23 152.068 100.021 151.142C100.358 151.057 100.611 150.973 100.948 150.973L125.887 145.918L155.797 139.852V139.936L162.032 159.483Z" fill="#A36A49"/>
<path opacity="0.5" d="M149.478 154.175L147.625 164.285L138.61 167.318L126.814 171.278L112.744 175.996L107.099 177.934L105.498 177.344L115.945 167.824C116.03 167.655 125.045 166.054 133.133 163.021C141.222 159.904 149.478 154.175 149.478 154.175Z" fill="#824723"/>
<path d="M122.684 161.589C115.27 174.059 104.064 188.719 93.4479 206.328C84.854 206.412 76.1759 206.328 67.582 206.075C69.0143 202.705 70.5309 199.419 72.0475 196.217C76.2602 187.455 80.6413 179.198 85.0225 171.531C89.2352 163.948 93.3636 156.871 97.0708 150.215C105.328 154.343 113.922 158.05 122.684 161.589Z" fill="#A36A49"/>
<path d="M167.677 157.629L145.518 196.807L131.195 193.605L123.275 191.836L138.694 167.318L146.782 154.427L153.438 143.811L155.882 140.02L155.966 139.852L156.808 139.683C156.808 139.683 156.893 139.683 157.061 139.599L159.083 139.262C161.19 138.925 163.296 139.346 165.065 140.273C167.677 141.705 169.615 144.401 169.783 147.603C169.952 151.141 169.194 154.849 167.677 157.629Z" fill="#A36A49"/>
<path d="M148.047 53.4073L144.171 74.892L142.402 84.5812C141.475 85.2552 140.633 86.0977 140.043 87.1088L127.658 107.161L127.236 107.919L127.573 108.172L128.5 108.93L143.582 116.429L159.084 89.0466L166.583 62.5067L148.047 53.4073Z" fill="#F56F60"/>
<path d="M166.666 62.3382C165.908 63.7705 163.38 64.1076 160.263 63.4335C160.179 63.4335 160.01 63.3493 159.926 63.3493C158.493 63.0123 156.977 62.4225 155.46 61.6642C154.028 60.9902 152.764 60.1476 151.669 59.3051C151.332 59.0523 150.911 58.7153 150.658 58.4626C148.467 56.5247 147.456 54.5026 148.13 53.1546C148.636 52.0593 150.237 51.638 152.343 51.8065H152.427C152.511 51.8065 152.596 51.8065 152.68 51.8065C153.101 51.8065 153.607 51.8908 154.112 52.0593C155.123 52.312 156.219 52.6491 157.398 53.0703C157.988 53.3231 158.662 53.5759 159.336 53.9129C160.179 54.3341 161.021 54.8397 161.779 55.3452C161.864 55.4294 162.032 55.5137 162.116 55.5979C162.369 55.7664 162.538 55.935 162.79 56.0192C165.824 58.2098 167.509 60.7374 166.666 62.3382Z" fill="#342629"/>
<path d="M125.742 80.4792C128.12 75.8414 128.537 71.3074 126.673 70.3521C124.81 69.3969 121.372 72.3822 118.994 77.0199C116.617 81.6577 116.2 86.1918 118.063 87.147C119.927 88.1023 123.365 85.117 125.742 80.4792Z" fill="#8C5915"/>
<path d="M115.355 102.527L107.266 87.3616C106.592 86.0978 105.666 85.0867 104.655 84.3284L101.537 54.0814V53.9971V53.9129C101.369 53.4074 100.526 53.1546 99.2624 53.3231C97.3246 53.4916 94.3757 54.3341 91.2583 55.8507C86.1188 58.2941 82.4117 61.3272 82.9172 62.6753L89.6575 85.9292C89.9103 86.6875 90.163 87.3616 90.5 88.1198L103.981 116.345L115.86 103.454L115.355 102.527Z" fill="#F56F60"/>
<path opacity="0.5" d="M115.356 102.527L110.133 98.6516C110.133 98.6516 107.605 98.146 106.341 93.9334C105.583 91.4057 103.392 87.5301 101.792 84.9182C101.286 84.0757 100.781 83.3174 100.443 82.8119C100.106 82.2221 99.8537 81.8851 99.8537 81.8851C100.191 75.6503 99.6852 63.7706 99.3482 56.946C99.3482 56.272 99.2639 55.598 99.2639 55.0082C99.1797 54.3342 99.1797 53.7444 99.1797 53.3231C100.443 53.2389 101.202 53.4074 101.455 53.9129V53.9972V54.0814L104.572 84.3284C105.667 85.0867 106.51 86.0978 107.184 87.3616L115.356 102.527Z" fill="#CC4231"/>
<path d="M126.479 84.3284C123.699 86.2663 120.834 87.193 119.233 86.856C118.728 86.7718 118.391 86.519 118.138 86.182C117.127 84.7497 119.233 81.5481 122.856 79.0204C125.047 77.5039 127.322 76.5771 128.922 76.4086C130.018 76.3243 130.776 76.4928 131.197 77.0826C132.208 78.5992 130.102 81.8008 126.479 84.3284Z" fill="#8C5915"/>
<path d="M127.068 85.2552C128.079 88.4569 124.793 93.8491 120.075 95.4499C115.273 97.0507 110.807 94.1861 109.796 90.9845C108.785 87.7829 111.229 83.4017 118.39 80.7898C123.108 79.1047 126.057 82.1379 127.068 85.2552Z" fill="#8C5915"/>
<path opacity="0.5" d="M149.394 83.0646C149.394 83.0646 148.804 83.4859 147.372 85.845C147.119 86.2662 146.782 86.7718 146.445 87.3615C143.581 92.5853 136.588 102.78 136.588 102.78C133.892 102.78 132.628 107.414 133.133 108.088L128.499 108.93L127.488 109.099L127.657 107.245L140.042 87.1088C140.632 86.0977 141.474 85.2552 142.401 84.5812L144.17 74.892C144.76 81.548 148.72 82.8961 149.394 83.0646C149.31 83.0646 149.394 83.0646 149.394 83.0646Z" fill="#CC4231"/>
<path d="M122.685 97.135C122.516 97.3877 122.348 97.5562 122.179 97.809C119.736 100.505 116.113 101.263 114.175 99.4941C112.827 98.2303 112.575 96.2082 113.249 94.1018C113.586 93.0908 114.175 92.164 114.934 91.3215C117.377 88.6253 121 87.8671 122.938 89.6364C124.791 91.3215 124.623 94.5231 122.685 97.135Z" fill="#8C5915"/>
<path opacity="0.5" d="M122.685 97.135C122.516 97.3877 122.348 97.5563 122.179 97.809C119.736 100.505 116.113 101.263 114.175 99.4941C112.996 98.3988 112.659 96.6295 113.08 94.7759C113.501 95.0286 114.007 95.2814 114.597 95.4499C114.428 96.2082 114.344 97.3035 115.102 98.146C116.282 99.3256 119.146 98.5673 119.736 96.798C120.073 95.7869 121.59 96.461 122.685 97.135Z" fill="#301809"/>
<path d="M143.16 118.451C141.559 125.697 139.2 132.437 137.178 139.599C136.756 140.947 136.419 142.379 135.998 143.811C135.998 143.811 134.987 144.064 133.555 144.233C133.218 144.233 132.881 144.317 132.544 144.317C130.943 144.485 129.005 144.57 127.741 144.233C119.653 142.295 103.139 151.057 95.0508 149.456C95.3878 147.182 95.7248 144.991 96.0618 142.716C96.3146 141.284 96.4831 139.936 96.6516 138.503C98.0839 129.067 99.5162 119.546 100.864 109.857C100.949 109.352 101.033 108.93 101.033 108.425C101.707 103.707 106.004 100.252 110.722 100.758C112.913 101.011 115.103 101.348 117.294 101.769C123.36 102.948 129.426 104.718 135.408 107.077C136.251 107.414 137.093 107.751 137.936 108.088C142.233 110.11 144.423 113.227 143.16 118.451Z" fill="#F56F60"/>
<path d="M113.25 152.068C109.206 153.753 103.898 157.798 94.5459 156.787C92.945 156.618 91.597 156.534 90.5859 156.534C93.1135 153.922 96.3152 151.984 100.107 151.057C107.352 153.164 115.694 151.057 113.25 152.068Z" fill="#342629"/>
<path d="M117.209 103.96C117.041 106.656 113.924 108.678 110.385 108.341C106.846 108.088 104.066 105.645 104.319 102.948C104.487 100.252 107.605 98.2303 111.143 98.5673C114.682 98.82 117.462 101.263 117.209 103.96Z" fill="#F56F60"/>
<path opacity="0.5" d="M126.478 84.3284C123.698 86.2663 120.833 87.193 119.232 86.856C119.991 86.182 121.844 84.4969 124.203 83.7386C129.09 82.2221 130.101 78.3464 128.837 76.4086C129.933 76.3243 130.691 76.4928 131.112 77.0826C132.207 78.5992 130.101 81.8008 126.478 84.3284Z" fill="#301809"/>
<path d="M131.281 108.678L120.075 109.268L119.822 104.971L119.654 102.274L119.401 97.3878L119.232 94.3546L130.438 93.6806L130.607 97.6405L130.859 101.769L131.112 105.56L131.281 108.678Z" fill="#FFBB96"/>
<path d="M119.822 95.3656C119.738 95.3656 119.653 95.2814 119.653 95.1971V95.1129C119.485 94.4388 119.232 93.6806 116.62 93.6806C112.66 93.6806 111.396 89.4679 111.396 89.4679C111.396 89.3836 111.396 89.2151 111.565 89.2151C111.649 89.2151 111.818 89.2151 111.818 89.3836C111.902 89.5521 112.997 93.2593 116.62 93.3435C119.485 93.3435 119.822 94.3546 119.99 95.1129V95.1971C120.075 95.1971 119.99 95.2814 119.822 95.3656Z" fill="#301809"/>
<path d="M134.735 109.942C134.061 113.396 129.427 113.649 124.287 112.132C119.232 110.7 115.946 106.908 116.704 103.623C116.704 103.538 116.704 103.454 116.789 103.37C116.873 103.033 117.041 102.696 117.21 102.443C117.294 102.274 117.463 102.106 117.547 101.937C118.389 102.106 119.148 102.274 119.822 102.359C121.085 102.611 122.097 102.78 123.108 103.033C125.551 103.538 127.573 104.212 131.196 105.645C133.976 106.656 134.903 108.846 134.735 109.942Z" fill="#FFBB96"/>
<path opacity="0.5" d="M119.821 104.128C118.22 103.286 117.462 102.696 117.125 102.359C117.209 102.19 117.378 102.022 117.462 101.853C118.305 102.022 119.063 102.19 119.737 102.274L119.484 97.3878C119.905 97.2193 120.158 97.0508 120.158 97.0508C120.158 97.3878 122.012 100.337 123.023 102.949C123.191 103.286 123.276 103.623 123.444 103.96C123.865 105.476 121.843 105.223 119.821 104.128Z" fill="#C97125"/>
<path d="M135.999 143.811C135.999 143.811 135.409 143.643 133.555 144.233C132.966 144.401 132.292 144.654 131.449 144.907C131.028 145.075 130.522 145.244 130.017 145.497C127.405 146.592 123.782 148.277 118.811 151.142C107.605 157.461 94.5459 157.376 91.934 152.405C91.7655 152.068 91.597 151.647 91.5128 151.226C90.7545 147.771 92.7766 142.716 96.7365 138.588C98.4216 136.818 100.528 135.302 102.887 134.122C104.404 133.364 106.004 132.774 107.774 132.353C117.547 130.162 132.797 136.313 135.577 141.958C135.83 142.632 135.999 143.222 135.999 143.811Z" fill="#F56F60"/>
<path d="M130.858 101.769C127.319 101.432 125.297 100.084 125.297 100.084L128.667 98.2303L130.268 97.5562C130.268 97.5562 130.352 97.6405 130.521 97.7247L130.858 101.769Z" fill="#342629"/>
<path d="M134.061 98.4831C130.691 101.6 125.467 101.348 122.434 97.9775L120.833 96.2082C121.423 95.0287 121.338 93.0066 119.401 92.7538C117.463 92.5011 116.873 91.0687 116.873 91.0687C116.368 89.8049 117.21 88.6254 118.305 87.6986C121.591 84.834 124.793 85.7608 127.657 83.5702L134.398 90.9002C136.336 93.0908 136.251 96.5452 134.061 98.4831Z" fill="#FFBB96"/>
<path d="M120.243 93.9334C121.675 94.1019 122.77 95.1129 122.602 96.2082C122.433 97.3035 121.254 98.0618 119.822 97.8933C118.389 97.7248 117.294 96.7137 117.462 95.6184C117.547 94.5231 118.811 93.7648 120.243 93.9334Z" fill="#FFBB96"/>
<path opacity="0.5" d="M147.709 167.908C144.929 172.205 135.661 186.612 131.111 193.605L123.191 191.836L136.672 170.351L136.756 170.267L136.925 170.014L137.599 168.919L137.936 168.413L138.357 167.824L138.61 167.487L139.031 166.728L143.328 159.82C145.519 156.365 147.793 154.427 149.479 153.332C150.742 153.164 152.259 153.501 153.017 155.354C154.449 158.724 151.501 162.263 147.709 167.908Z" fill="#824723"/>
<path opacity="0.5" d="M76.43 194.279C75.756 196.554 74.2394 197.397 72.0488 196.301C76.2615 187.539 80.6427 179.282 85.0239 171.615C85.2766 172.879 85.6137 174.143 86.2034 175.322C89.3208 181.473 79.4631 183.748 76.43 194.279Z" fill="#824723"/>
<path d="M145.601 196.301C145.349 197.902 142.568 198.913 138.608 198.998C137.007 198.998 135.322 198.913 133.469 198.661C130.604 198.239 127.992 197.481 126.139 196.554C123.78 195.459 122.432 194.111 122.6 192.931C122.853 191.415 125.465 190.404 129.172 190.235C130.857 190.151 132.71 190.235 134.733 190.572C137.513 190.993 140.041 191.752 141.978 192.594C144.337 193.69 145.77 195.038 145.601 196.301Z" fill="#342629"/>
<path d="M57.1378 238.091L37.8438 225.874L65.2262 200.851C72.8932 193.353 88.2274 186.444 92.9456 191.752C97.3268 196.638 96.4842 204.221 91.2605 208.687L57.1378 238.091Z" fill="#A36A49"/>
<path d="M57.3886 237.923C56.7146 239.018 53.1759 238.091 48.9632 235.901C48.0364 235.395 47.1097 234.89 46.1829 234.3C42.6442 232.109 39.7796 229.75 38.5158 227.981C37.8418 227.138 37.6733 226.38 37.926 225.959C38.263 225.369 39.5268 225.369 41.2119 225.874C43.3182 226.464 46.1829 227.728 49.1317 229.582C50.7326 230.508 52.1649 231.519 53.3444 232.53C56.209 234.805 57.8941 236.912 57.3886 237.923Z" fill="#342629"/>
<path d="M107.014 87.0245C106.93 87.0245 106.845 87.0245 106.845 86.9403C103.138 81.7166 98.0831 81.5481 96.1453 81.4638C95.8083 81.4638 95.6398 81.4638 95.4712 81.3796C95.387 81.3796 95.3027 81.211 95.3027 81.1268C95.3027 81.0425 95.4712 80.9583 95.5555 80.9583C95.6398 80.9583 95.8925 80.9583 96.1453 80.9583C98.0831 81.0425 103.307 81.2953 107.098 86.6033C107.182 86.6875 107.182 86.856 107.014 86.856C107.098 87.0245 107.014 87.0245 107.014 87.0245Z" fill="#342629"/>
<path d="M146.53 220.566L122.77 207.676C121.844 207.17 121.507 205.991 122.012 205.148L126.056 196.638L127.32 193.942L129.089 190.235C130.775 190.151 132.628 190.235 134.65 190.572C137.431 190.993 139.958 191.752 141.896 192.594L141.053 194.195L138.61 198.998L137.094 201.946C136.083 203.884 136.504 206.243 138.02 207.844L145.182 215.259C146.614 216.775 147.541 218.713 146.53 220.566Z" fill="#FFBB96"/>
<path d="M53.2598 232.446L49.8896 235.058L48.8786 235.901L45.3399 238.681C44.8344 239.102 44.4974 239.524 44.3289 239.945C43.6549 241.124 43.6549 242.557 43.6549 244.326L44.6659 255.447C44.8344 258.481 43.9919 261.092 42.8966 261.767L42.6438 261.851C41.9698 262.104 41.2958 261.598 40.706 260.081L31.8594 233.542L36.7461 229.497L41.2115 225.79C43.3179 226.38 46.0982 227.644 49.0471 229.497C50.6479 230.424 52.0802 231.435 53.2598 232.446Z" fill="#FFBB96"/>
<path d="M42.8988 261.682L42.6461 261.766L42.4775 261.851L38.8546 263.62L29.334 235.648L32.7884 232.783L36.8326 229.413C36.4955 229.919 37.8436 232.446 39.7814 235.227C41.8878 238.091 43.9099 240.198 44.4154 239.861C43.7414 241.04 43.7414 242.472 43.7414 244.242L44.7524 255.363C44.8366 258.481 43.9941 261.008 42.8988 261.682Z" fill="#9E89C4"/>
<path d="M42.4775 261.935L38.8546 263.704L29.334 235.648L32.7884 232.783C34.979 239.608 40.5397 256.037 42.4775 261.935Z" fill="white"/>
<path d="M148.298 220.566L148.214 220.819L148.13 220.988L146.613 224.779L119.736 209.614L125.466 197.987C125.213 198.492 127.488 200.177 130.605 201.862C133.47 203.379 135.997 204.306 136.587 203.969C136.924 205.317 137.177 205.738 138.356 207.086L145.434 214.669C147.54 216.775 148.635 219.303 148.298 220.566Z" fill="#9E89C4"/>
<path d="M148.13 220.988L146.613 224.779L119.736 209.613L121.59 205.906C127.74 209.361 142.738 217.87 148.13 220.988Z" fill="white"/>
<path d="M38.8535 263.957C38.8535 263.957 38.7692 263.957 38.8535 263.957C38.685 263.957 38.685 263.873 38.685 263.789L29.0801 235.732C29.0801 235.648 29.0801 235.564 29.1643 235.479L33.2928 232.278C33.377 232.194 33.5455 232.194 33.6298 232.278C33.714 232.362 33.714 232.531 33.6298 232.615L29.5856 235.732L39.022 263.452L42.8977 261.514C42.9819 261.43 43.1504 261.514 43.1504 261.598C43.2347 261.682 43.1504 261.851 43.0662 261.851L39.022 263.873C38.9377 263.957 38.8535 263.957 38.8535 263.957Z" fill="#9E89C4"/>
<path d="M43.7393 244.832C42.3912 244.663 40.7904 244.579 40.6219 244.579C40.5376 244.579 40.3691 244.579 40.3691 244.41C40.3691 244.326 40.4534 244.157 40.5376 244.157C40.7904 244.073 42.644 244.242 43.7393 244.41C43.8235 244.41 43.9078 244.495 43.9078 244.663C43.992 244.747 43.9078 244.832 43.7393 244.832Z" fill="#342629"/>
<path d="M43.9081 246.685C43.8239 246.685 41.212 246.601 41.0435 246.601C40.9593 246.601 40.875 246.517 40.875 246.348C40.875 246.264 40.9593 246.095 41.1278 246.18C41.2963 246.18 43.0656 246.264 43.9924 246.264C44.0766 246.264 44.1609 246.348 44.1609 246.517C44.0766 246.601 43.9924 246.685 43.9081 246.685Z" fill="#342629"/>
<path d="M44.0772 248.539H41.4654C41.3811 248.539 41.2969 248.454 41.2969 248.286C41.2969 248.202 41.3811 248.117 41.4654 248.117H44.0772C44.1615 248.117 44.2458 248.202 44.2458 248.37C44.2458 248.454 44.1615 248.539 44.0772 248.539Z" fill="#342629"/>
<path d="M135.913 209.445H135.828C135.744 209.361 135.744 209.276 135.744 209.108C135.828 208.939 137.429 207.844 138.356 207.17C138.44 207.086 138.609 207.086 138.609 207.254C138.693 207.339 138.693 207.507 138.525 207.507C137.429 208.265 136.165 209.192 136.081 209.361C136.081 209.445 135.997 209.445 135.913 209.445Z" fill="#342629"/>
<path d="M137.515 210.709C137.431 210.709 137.346 210.709 137.346 210.625C137.262 210.54 137.262 210.372 137.346 210.372C137.515 210.288 138.947 209.024 139.537 208.518C139.621 208.434 139.79 208.434 139.874 208.518C139.958 208.602 139.958 208.771 139.874 208.855C139.79 208.939 137.852 210.54 137.683 210.709C137.599 210.709 137.599 210.709 137.515 210.709Z" fill="#342629"/>
<path d="M139.115 211.888C139.03 211.888 139.03 211.888 138.946 211.804C138.862 211.72 138.862 211.551 138.946 211.467L140.968 209.782C141.052 209.698 141.221 209.698 141.305 209.782C141.389 209.866 141.389 210.035 141.305 210.119L139.283 211.804C139.199 211.888 139.115 211.888 139.115 211.888Z" fill="#342629"/>
<path d="M146.614 224.948C146.529 224.948 146.529 224.948 146.614 224.948C146.529 224.948 146.529 224.948 146.614 224.948C146.529 224.948 146.529 224.948 146.614 224.948C146.529 224.948 146.529 224.948 146.529 224.948C146.276 224.779 119.989 209.951 119.652 209.782C119.568 209.698 119.484 209.614 119.568 209.529L122.011 204.727C122.096 204.643 122.18 204.558 122.264 204.643C122.348 204.727 122.433 204.811 122.348 204.895L119.989 209.529L145.518 223.937C145.939 224.189 146.276 224.358 146.445 224.442L148.046 220.482C148.13 220.398 148.214 220.314 148.299 220.398C148.383 220.482 148.467 220.566 148.383 220.651L146.698 224.779V224.863C146.698 224.948 146.614 224.948 146.614 224.948Z" fill="#9E89C4"/>
<path d="M126.816 171.278L113.588 175.659C114.683 174.059 116.874 170.604 118.39 168.329C119.654 169.34 122.35 171.025 126.816 171.278Z" fill="#342629"/>
<path d="M112.915 176.923H112.83C112.746 176.839 112.746 176.755 112.746 176.67C112.746 176.67 112.999 176.333 113.336 175.744C114.431 174.143 116.622 170.688 118.138 168.414C119.486 166.391 119.739 165.97 119.823 165.886C119.908 165.802 120.076 165.802 120.16 165.886C120.245 165.97 120.245 166.139 120.16 166.223C120.076 166.307 119.739 166.813 118.475 168.666C116.959 171.025 114.684 174.396 113.673 175.996C113.252 176.586 113.083 176.923 113.083 176.923C113.083 176.839 112.999 176.923 112.915 176.923Z" fill="#342629"/>
<path d="M66.7434 199.924C66.6592 199.924 66.6592 199.924 66.5749 199.84C66.4907 199.756 66.4907 199.587 66.5749 199.503C70.8718 194.701 78.6232 191.836 78.7074 191.836C78.7917 191.836 78.9602 191.836 78.9602 192.005C78.9602 192.089 78.9602 192.257 78.7917 192.257C78.7074 192.257 71.1246 195.038 66.8277 199.84C66.9119 199.924 66.8277 199.924 66.7434 199.924Z" fill="#342629"/>
<path d="M93.365 206.833C93.365 206.833 93.2808 206.749 93.365 206.833C93.1965 206.749 93.1123 206.665 93.1965 206.58C93.365 206.243 93.2808 205.991 93.1965 205.822C92.691 205.064 90.7532 205.064 89.9106 205.064C89.5736 205.064 89.4051 205.064 89.3208 205.064C89.2366 205.064 89.1523 204.895 89.1523 204.811C89.1523 204.727 89.3208 204.643 89.4051 204.643C89.4894 204.643 89.6579 204.643 89.8264 204.643C90.9217 204.643 92.8595 204.727 93.4493 205.654C93.6178 205.991 93.702 206.328 93.4493 206.833C93.5335 206.749 93.4493 206.833 93.365 206.833Z" fill="#342629"/>
<path d="M136.672 170.604H136.588C136.504 170.52 136.419 170.436 136.504 170.351L136.756 170.014L137.599 168.751C137.683 168.666 137.767 168.498 137.852 168.414C138.02 168.245 138.104 167.992 138.273 167.824L138.526 167.487C138.61 167.318 138.694 167.15 138.863 166.981L143.328 159.82C145.603 156.281 147.962 154.259 149.563 153.248C151.248 152.153 152.428 151.9 152.428 151.9C152.512 151.9 152.68 151.984 152.68 152.068C152.68 152.153 152.596 152.321 152.512 152.321C152.512 152.321 151.332 152.574 149.731 153.585C148.131 154.596 145.856 156.534 143.665 159.988L139.2 167.15C139.116 167.318 139.031 167.487 138.863 167.655L138.61 167.992C138.441 168.245 138.357 168.414 138.189 168.582C138.104 168.751 138.02 168.835 137.936 169.003L136.925 170.604C136.841 170.52 136.756 170.604 136.672 170.604Z" fill="#342629"/>
<path opacity="0.5" d="M53.2614 232.446L49.8913 235.058C47.0267 228.571 41.5502 226.043 41.1289 225.79C43.2352 226.38 46.0156 227.644 48.9645 229.497C50.6496 230.424 52.0819 231.435 53.2614 232.446Z" fill="#C97125"/>
<path opacity="0.5" d="M141.98 192.594L141.138 194.195C140.885 193.774 139.116 193.437 138.273 193.184C132.712 192.004 128.163 192.679 127.404 193.858L129.174 190.151C130.859 190.067 132.712 190.151 134.734 190.488C137.515 190.993 140.042 191.752 141.98 192.594Z" fill="#C97125"/>
<path d="M140.041 87.2773H139.957C139.873 87.193 139.789 87.1088 139.873 87.0245C139.957 86.9403 141.221 84.5812 144.759 83.4859C149.478 81.9693 153.859 83.9072 153.943 83.9914C154.027 84.0757 154.112 84.1599 154.027 84.2442C153.943 84.3284 153.859 84.4127 153.775 84.3284C153.775 84.3284 149.478 82.3906 144.928 83.9072C141.642 85.0025 140.294 87.193 140.294 87.2773C140.21 87.2773 140.126 87.2773 140.041 87.2773Z" fill="#342629"/>
<path d="M116.956 102.359C116.872 102.359 116.787 102.274 116.787 102.274C115.102 98.82 110.805 98.7358 109.373 98.6515C109.12 98.6515 108.952 98.6515 108.952 98.6515C108.867 98.6515 108.783 98.483 108.783 98.3988C108.783 98.3145 108.952 98.2303 109.036 98.2303C109.036 98.2303 109.204 98.2303 109.373 98.2303C110.89 98.2303 115.439 98.3988 117.209 102.106C117.293 102.19 117.209 102.359 117.124 102.359C116.956 102.359 116.956 102.359 116.956 102.359Z" fill="#342629"/>
<path d="M138.103 104.128C138.019 104.128 138.019 104.128 137.935 104.044C135.492 101.769 132.29 102.443 131.026 102.864C130.942 102.864 130.773 102.864 130.773 102.696C130.773 102.611 130.773 102.443 130.942 102.443C132.29 102.022 135.744 101.263 138.272 103.707C138.356 103.791 138.356 103.959 138.272 104.044C138.188 104.128 138.103 104.128 138.103 104.128Z" fill="#342629"/>
<path opacity="0.5" d="M102.887 134.122C102.213 136.734 101.37 138.84 100.444 139.515C99.5169 140.189 97.8318 141.284 96.1467 142.716C93.5349 145.075 91.0073 148.361 91.934 152.321C91.7655 151.984 91.597 151.563 91.5128 151.142C90.7545 147.687 92.7766 142.632 96.7365 138.503C98.1688 129.067 99.6011 119.546 100.949 109.857C102.044 111.374 104.572 115.081 104.909 118.198C105.078 120.473 104.319 128.562 102.887 134.122Z" fill="#CC4231"/>
<path d="M137.178 139.599C136.757 140.947 136.42 142.379 135.999 143.811C135.999 143.811 134.988 144.064 133.556 144.233C132.966 144.401 132.292 144.654 131.449 144.907C131.786 144.738 132.208 144.57 132.545 144.317C133.471 143.811 134.567 142.969 135.578 141.958C136.167 141.284 136.757 140.526 137.178 139.599Z" fill="#342629"/>
<path d="M115.608 95.9554C115.524 95.9554 115.524 95.9554 115.608 95.9554C115.187 95.8712 114.85 95.7869 114.513 95.7027C114.007 95.5342 113.501 95.2814 112.996 95.0286C111.648 94.1861 110.805 93.2593 110.805 93.1751C110.721 93.0908 110.721 92.9223 110.805 92.838C110.89 92.7538 111.058 92.7538 111.142 92.838C111.142 92.838 111.901 93.7648 113.164 94.5231C113.67 94.7759 114.176 95.0286 114.597 95.1971C114.934 95.2814 115.271 95.3657 115.608 95.4499C115.692 95.4499 115.776 95.5342 115.776 95.7027C115.776 95.8712 115.692 95.9554 115.608 95.9554Z" fill="#301809"/>
<path d="M124.539 83.7386H124.455C124.371 83.6544 124.287 83.5701 124.371 83.4859C125.972 80.6213 127.235 75.9873 127.32 75.566C127.32 75.4818 127.404 75.3975 127.488 75.3975C127.572 75.3133 127.741 75.3975 127.741 75.4818C127.825 75.7346 126.309 80.9583 124.792 83.6544C124.624 83.7386 124.624 83.7386 124.539 83.7386Z" fill="#301809"/>
<path d="M116.957 82.0536C116.873 82.0536 116.789 82.0536 116.789 81.9693C116.705 81.8851 116.789 81.7166 116.873 81.7166C117.042 81.5481 117.884 79.6945 118.39 77.8409C118.979 75.4818 120.58 74.892 121.17 74.7235C122.013 74.4708 122.855 74.7235 123.361 75.1448C123.445 75.2291 123.445 75.3976 123.361 75.4818C123.276 75.5661 123.108 75.5661 123.024 75.4818C122.687 75.1448 122.013 74.9763 121.254 75.1448C120.664 75.3133 119.316 75.8188 118.727 77.9252C118.305 79.526 117.379 81.8851 117.042 82.0536C117.042 82.0536 117.042 82.0536 116.957 82.0536Z" fill="#301809"/>
<path d="M125.719 81.2953C125.635 81.2953 125.551 81.2111 125.551 81.1268C125.551 81.0425 125.635 80.874 125.719 80.874C125.719 80.874 128.163 80.6213 129.595 79.6945C131.112 78.7677 130.943 77.2511 130.943 77.1669C130.943 77.0826 131.027 76.9141 131.112 76.9141C131.196 76.9141 131.364 76.9984 131.364 77.0826C131.364 77.1669 131.533 78.852 129.763 79.9473C128.247 81.0425 125.804 81.2953 125.719 81.2953Z" fill="#301809"/>
<path d="M118.221 100.505C116.62 100.505 115.778 99.3256 115.609 97.0507C115.609 96.9665 115.609 96.8822 115.609 96.8822C115.525 96.798 115.609 96.6295 115.693 96.6295C115.778 96.5452 115.946 96.6295 115.946 96.7137C115.946 96.798 115.946 96.798 115.946 96.9665C116.03 97.7248 116.199 100.168 118.305 99.9996C118.389 99.9996 118.558 100.084 118.558 100.168C118.558 100.252 118.474 100.421 118.389 100.421C118.305 100.505 118.221 100.505 118.221 100.505Z" fill="#301809"/>
<path d="M124.877 78.515C124.793 78.515 124.709 78.4307 124.709 78.2622C124.709 78.1779 124.709 78.1779 124.877 77.8409C126.31 74.3023 126.647 72.0274 126.057 71.0164C125.889 70.6794 125.552 70.5109 125.13 70.5109C125.046 70.5109 124.962 70.4266 124.962 70.2581C124.962 70.1739 125.046 70.0896 125.215 70.0896C125.804 70.1739 126.226 70.3424 126.478 70.8479C127.489 72.533 125.889 76.6614 125.383 78.0094C125.299 78.1779 125.299 78.3465 125.215 78.3465C125.13 78.4307 125.046 78.515 124.877 78.515Z" fill="#301809"/>
<path d="M124.456 90.3105C124.793 90.7317 124.709 91.2372 124.456 91.49C124.119 91.7428 123.614 91.5743 123.361 91.2372C123.024 90.816 123.108 90.3104 123.361 90.0577C123.614 89.8049 124.119 89.8892 124.456 90.3105Z" fill="#342629"/>
<path d="M122.263 92.164C122.179 92.164 122.095 92.0798 122.095 91.9955C122.095 91.9112 121.926 90.3947 122.937 89.6364C123.78 89.0466 124.622 89.4679 125.043 89.8049C125.128 89.8892 125.128 89.9734 125.043 90.1419C124.959 90.2262 124.875 90.2262 124.706 90.1419C124.706 90.1419 123.948 89.4679 123.19 90.0577C122.347 90.6474 122.516 91.9955 122.516 91.9955C122.432 92.0798 122.347 92.164 122.263 92.164Z" fill="#342629"/>
<path d="M129.509 86.7718C129.846 87.1931 129.762 87.6986 129.509 87.9513C129.172 88.2041 128.666 88.0356 128.414 87.6986C128.077 87.2773 128.161 86.7718 128.414 86.519C128.751 86.2663 129.256 86.3505 129.509 86.7718Z" fill="#342629"/>
<path d="M127.404 88.7096C127.319 88.7096 127.235 88.6254 127.235 88.5411C127.235 88.4569 127.067 86.9403 128.078 86.182C128.92 85.5922 129.763 86.0135 130.184 86.3505C130.268 86.4348 130.268 86.519 130.184 86.6875C130.1 86.7718 129.931 86.7718 129.847 86.6875C129.847 86.6875 129.089 86.0135 128.33 86.6033C127.488 87.1931 127.656 88.5411 127.656 88.5411C127.572 88.5411 127.488 88.6254 127.404 88.7096Z" fill="#342629"/>
<path d="M128.246 92.2483C128.161 92.2483 128.077 92.164 128.077 92.0798C128.077 91.9955 128.077 91.827 128.246 91.827C129.004 91.6585 129.341 91.2372 129.51 90.9845L125.381 88.0356C125.297 87.9513 125.297 87.8671 125.297 87.7828C125.381 87.6986 125.465 87.6986 125.55 87.6986L129.847 90.7317C129.931 90.8159 129.931 90.9002 129.931 90.9845C129.931 91.0687 129.51 91.9112 128.246 92.2483C128.33 92.2483 128.33 92.2483 128.246 92.2483Z" fill="#C97125"/>
<path d="M119.315 90.4789C119.147 89.9734 119.147 89.6364 119.231 89.1309C119.315 88.7096 119.568 88.2883 119.821 87.9513C120.074 87.6986 120.242 87.4458 120.495 87.193C120.748 86.9403 120.916 86.7718 121.169 86.519C121.422 86.2662 121.843 86.2662 122.096 86.519C122.264 86.6875 122.349 86.9403 122.264 87.193C122.18 87.5301 121.927 87.9513 121.759 88.2041C121.506 88.5411 121.253 88.7939 121 89.0466C120.832 89.2151 120.663 89.3836 120.579 89.6364C120.411 89.8891 120.326 90.1419 120.242 90.3947L120.158 90.5632C120.074 90.8159 119.821 90.9002 119.568 90.8159C119.484 90.7317 119.315 90.6474 119.315 90.4789Z" fill="#301809"/>
<path d="M128.246 84.3285C127.741 84.4127 127.235 84.5812 126.814 84.7497L126.056 85.0025L125.635 85.171C125.466 85.171 125.382 85.2552 125.129 85.2552C124.792 85.3395 124.455 85.0867 124.455 84.7497C124.455 84.5812 124.455 84.497 124.539 84.3285L124.708 83.9914C124.708 83.9072 124.876 83.8229 125.045 83.7387L125.466 83.4859C125.719 83.3174 126.056 83.2332 126.393 83.1489C126.73 83.0647 127.067 82.9804 127.404 83.0647C127.741 83.0647 128.162 83.1489 128.499 83.3174C128.752 83.4017 128.836 83.7387 128.752 83.9914C128.584 84.16 128.499 84.2442 128.246 84.3285Z" fill="#301809"/>
<path d="M131.954 95.5341C131.785 95.7026 131.617 95.8712 131.364 95.9554C130.437 96.3767 129.426 95.9554 128.584 95.3656C128.246 95.1129 127.994 94.9444 127.741 94.6916C127.235 94.1861 126.898 93.8491 126.898 93.8491C126.983 93.8491 128.078 94.0176 129.932 93.3435C131.701 92.5853 132.122 91.3215 132.122 91.3215C132.122 91.3215 132.375 92.164 132.543 93.0908C132.543 93.8491 132.543 94.8601 131.954 95.5341Z" fill="#342629"/>
<path d="M132.459 93.0065C131.869 93.4278 131.28 93.7648 130.858 94.0176C129.51 94.6074 128.415 94.6916 127.741 94.6916C127.235 94.1861 126.898 93.8491 126.898 93.8491C126.983 93.8491 128.078 94.0176 129.932 93.3435C131.701 92.5853 132.122 91.3215 132.122 91.3215C132.122 91.3215 132.375 91.9955 132.459 93.0065Z" fill="white"/>
<path d="M131.954 95.5341C131.786 95.7027 131.617 95.8712 131.364 95.9554C130.438 96.3767 129.427 95.9554 128.584 95.3656C128.921 95.2814 129.174 95.2814 129.511 95.2814C130.438 95.1129 131.28 95.2814 131.954 95.5341Z" fill="#B5506B"/>
<path d="M86.4574 53.0704C86.3731 53.0704 86.2889 52.9861 86.2889 52.9018C86.2889 52.8176 86.0361 50.4585 88.9008 48.6049C91.6811 46.8356 94.967 45.2348 95.0513 45.2348C95.1355 45.1505 95.304 45.2348 95.304 45.319C95.3883 45.4033 95.304 45.5718 95.2198 45.5718C95.2198 45.5718 91.8496 47.0883 89.1535 48.8577C86.5417 50.5427 86.7102 52.6491 86.7102 52.7333C86.7102 52.9861 86.6259 53.0704 86.4574 53.0704Z" fill="#C97125"/>
<path d="M152.428 52.6491L160.011 55.3452C162.033 55.7665 163.97 54.4184 164.307 52.3963L165.319 47.0883C165.656 45.2348 164.307 43.6339 162.454 43.2969L158.073 42.2859C156.809 41.9489 155.461 42.7072 155.04 43.971L152.428 52.6491Z" fill="#FFBB96"/>
<path d="M171.048 57.62C170.711 57.283 170.458 57.0303 170.121 56.6933C170.121 56.6933 170.037 56.609 169.952 56.5247C166.245 53.1546 162.117 50.7955 156.472 49.616C153.27 49.0262 148.552 48.0994 145.266 45.7403C144.845 45.4033 144.423 45.1505 144.002 44.8978L143.918 44.8135C145.772 43.971 147.457 42.7914 149.142 41.3591C149.394 41.4434 149.647 41.5276 149.9 41.6119C153.186 42.5387 155.882 42.2016 159.168 43.3812C162.285 44.4765 165.571 46.1616 168.941 49.616C169.447 50.1215 169.952 50.627 170.458 51.2168C170.626 53.4074 170.879 55.5137 171.048 57.62Z" fill="#5BB392"/>
<path d="M158.662 44.645C160.094 45.0663 161.021 46.1616 160.768 47.0041C160.431 47.8466 158.83 48.2679 157.314 47.9309C155.797 47.5939 154.955 46.4986 155.376 45.5718C155.797 44.7293 157.229 44.308 158.662 44.645Z" fill="white"/>
<path d="M145.266 45.9088C145.266 45.8245 145.266 45.8245 145.266 45.9088C144.845 45.656 144.423 45.319 144.002 44.982L143.918 44.8977C145.772 44.0552 147.457 42.8757 149.142 41.4434C149.394 41.5276 149.647 41.6119 149.9 41.6961C151.838 43.0442 154.113 44.0552 153.776 45.5718C153.354 47.1726 148.973 48.0994 145.266 45.9088Z" fill="#3F7A63"/>
<path d="M171.049 57.62C170.712 57.283 170.459 57.0303 170.122 56.6933C170.122 56.6933 170.038 56.609 169.953 56.5248C159.927 48.6892 162.118 47.0041 163.971 46.7513C164.982 46.9198 166.92 47.8466 168.942 49.616C169.448 50.1215 169.953 50.627 170.459 51.2168C170.627 53.4074 170.88 55.5137 171.049 57.62Z" fill="#3F7A63"/>
<path d="M152.849 53.8286L151.248 45.0663L151.164 44.7292C151.164 44.5607 151.164 44.3922 151.248 44.2237L152.681 40.7693L153.018 39C154.029 39 154.534 40.8536 154.45 41.2748L153.944 44.982V44.2237L157.315 52.4806C157.82 53.6601 157.23 55.0082 156.051 55.5137C154.871 56.0192 153.523 55.4295 153.018 54.2499C152.849 54.0814 152.849 53.9129 152.849 53.8286Z" fill="#FFBB96"/>
<path d="M159.253 42.9599C159.084 44.982 158.831 46.9198 158.663 48.9419V49.1947C158.663 49.3632 158.579 49.5317 158.41 49.6159C158.073 49.8687 157.652 50.2057 157.231 50.3742C156.809 50.5427 156.304 50.3742 156.051 49.953C155.967 49.7845 155.967 49.5317 155.967 49.3632C156.135 48.8577 156.304 48.4364 156.557 48.0994L156.304 48.7734C156.388 46.7513 156.472 44.7292 156.557 42.7914C156.641 42.0331 157.231 41.4434 157.989 41.5276C158.747 41.5276 159.337 42.2016 159.253 42.9599Z" fill="#FFBB96"/>
<path d="M161.694 43.8867C161.357 45.993 160.851 48.0151 160.346 50.0372L160.261 50.2057C160.261 50.2057 160.261 50.29 160.177 50.29C159.924 50.627 159.672 50.8798 159.335 51.1325C158.913 51.4695 158.408 51.3853 158.071 50.964C157.987 50.7955 157.902 50.627 157.902 50.4585C157.902 50.0372 157.902 49.616 157.987 49.2789L157.902 49.5317C158.155 47.4254 158.492 45.319 158.829 43.2969C158.998 42.5387 159.672 42.0331 160.43 42.2016C161.357 42.4544 161.862 43.1284 161.694 43.8867Z" fill="#FFBB96"/>
<path d="M163.718 44.1395C163.465 46.3301 163.044 48.4364 162.707 50.627V50.7955C162.707 50.8798 162.623 50.964 162.623 50.964C162.37 51.301 162.033 51.638 161.696 51.8908C161.359 52.1436 160.769 52.1436 160.516 51.7223C160.348 51.5538 160.348 51.301 160.348 51.1325C160.348 50.7113 160.516 50.29 160.6 49.8687L160.516 50.29C160.685 48.0994 160.853 45.9088 161.106 43.8025C161.19 43.0442 161.864 42.5387 162.623 42.6229C163.297 42.7072 163.802 43.3812 163.718 44.1395Z" fill="#FFBB96"/>
<path d="M165.317 44.8978C165.317 46.5828 165.148 48.2679 164.98 49.8687V50.0372C164.98 50.1215 164.98 50.2057 164.895 50.29C164.558 50.7955 164.221 51.3853 163.8 51.8908C163.547 52.2278 163.042 52.2278 162.705 51.9751C162.536 51.8066 162.368 51.5538 162.452 51.301C162.536 50.627 162.789 50.0372 162.958 49.4474L162.873 49.8687C162.789 48.1836 162.789 46.4986 162.789 44.8135C162.789 44.1395 163.379 43.5497 164.053 43.5497C164.727 43.5497 165.317 44.2237 165.317 44.8978Z" fill="#FFBB96"/>
<path d="M162.622 53.6601L162.285 54.9239V55.0082L162.201 55.4294L160.684 61.4115L160.179 63.265C160.094 63.265 160.094 63.265 160.01 63.265C158.578 62.928 157.061 62.3382 155.545 61.58C154.112 60.9059 152.849 60.0634 151.753 59.2209C151.416 58.9681 150.995 58.6311 150.742 58.3783L151.248 56.5247L152.512 51.7223V51.5538L152.596 51.301V51.1325L153.017 51.2168L157.314 52.3121L162.622 53.6601Z" fill="#FFBB96"/>
<path opacity="0.5" d="M160.6 61.4957L160.095 63.3493C160.01 63.3493 160.01 63.3493 159.926 63.3493C158.494 63.0123 156.977 62.4225 155.461 61.6642C154.028 60.9902 152.765 60.1477 151.669 59.3051C151.332 59.0524 150.911 58.7153 150.658 58.4626L151.164 56.609C152.428 58.2941 154.534 60.2319 157.988 61.2429C158.831 61.4115 159.758 61.4957 160.6 61.4957Z" fill="#C97125"/>
<path d="M156.557 50.7113C156.304 50.7113 156.051 50.627 155.967 50.4585C155.799 50.29 155.714 49.953 155.799 49.5317C155.799 49.3632 155.883 49.1947 155.967 49.0262C156.136 48.6049 156.304 48.0151 156.304 46.4986C156.304 45.7403 156.388 45.1505 156.388 44.5607C156.473 43.6339 156.557 42.9599 156.22 42.8757C156.136 42.8757 156.051 42.7072 156.051 42.6229C156.051 42.5387 156.22 42.4544 156.304 42.4544C156.978 42.6229 156.894 43.3812 156.725 44.5607C156.641 45.1505 156.641 45.7403 156.641 46.4986C156.641 48.0994 156.473 48.6892 156.304 49.1947C156.22 49.3632 156.22 49.5317 156.22 49.7002C156.22 49.8687 156.136 50.1215 156.304 50.29C156.388 50.3742 156.641 50.3742 156.81 50.3742C157.315 50.29 158.326 49.5317 158.663 48.6049C159 47.5939 159.169 42.6229 159.169 42.6229C159.169 42.5387 159.253 42.4544 159.422 42.4544C159.506 42.4544 159.59 42.5387 159.59 42.7072C159.59 42.8757 159.422 47.7624 159.085 48.8577C158.748 49.953 157.652 50.7955 156.894 50.964C156.641 50.7113 156.641 50.7113 156.557 50.7113Z" fill="#C97125"/>
<path d="M158.747 51.5538C158.578 51.5538 158.41 51.4695 158.326 51.3853C157.989 51.1325 157.82 50.5427 157.904 49.8687C157.904 49.7845 157.989 49.7002 158.073 49.7002C158.157 49.7002 158.241 49.7845 158.241 49.953C158.241 50.5427 158.326 50.964 158.578 51.1325C158.663 51.2168 158.747 51.2168 158.831 51.2168C159.252 51.1325 161.022 49.616 161.106 48.6892C161.19 47.6781 161.443 43.0442 161.443 42.9599C161.443 42.8757 161.527 42.7914 161.696 42.7914C161.78 42.7914 161.864 42.8757 161.864 43.0442C161.864 43.2127 161.696 47.7624 161.527 48.7734C161.359 49.8687 159.505 51.5538 158.915 51.638C158.831 51.5538 158.747 51.5538 158.747 51.5538Z" fill="#C97125"/>
<path d="M158.494 48.6049C157.904 48.6049 157.315 48.1836 157.23 47.8466C157.23 47.7624 157.23 47.5939 157.399 47.5939C157.483 47.5939 157.652 47.5939 157.652 47.7624C157.736 47.9309 158.242 48.2679 158.663 48.1836C158.747 48.1836 158.916 48.1836 158.916 48.3521C158.916 48.4364 158.916 48.6049 158.747 48.6049C158.747 48.6049 158.663 48.6049 158.494 48.6049Z" fill="#C97125"/>
<path d="M161.106 49.0262C160.769 49.0262 160.432 48.9419 160.095 48.9419C159.927 48.9419 159.843 48.8577 159.758 48.8577C159.674 48.8577 159.59 48.7734 159.59 48.6049C159.59 48.5207 159.674 48.4364 159.843 48.4364C159.927 48.4364 160.011 48.4364 160.18 48.5207C160.517 48.6049 160.938 48.6892 161.191 48.6049C161.275 48.6049 161.443 48.6892 161.443 48.7734C161.443 48.8577 161.359 49.0262 161.275 49.0262C161.275 49.0262 161.191 49.0262 161.106 49.0262Z" fill="#C97125"/>
<path d="M160.853 52.3121C160.685 52.3121 160.432 52.2278 160.348 52.0593C160.011 51.7223 159.927 51.1325 160.011 50.4585C160.011 50.3742 160.179 50.29 160.264 50.29C160.348 50.29 160.432 50.4585 160.432 50.5427C160.264 51.301 160.601 51.638 160.685 51.7223C160.769 51.8065 160.853 51.8908 160.938 51.8065C161.275 51.7223 162.96 50.0372 163.212 48.9419C163.634 47.2568 163.381 43.5497 163.381 43.5497C163.381 43.4654 163.465 43.2969 163.55 43.2969C163.634 43.2969 163.802 43.3812 163.802 43.4654C163.802 43.6339 164.055 47.2568 163.634 49.0262C163.381 50.2057 161.612 52.0593 161.022 52.1436C160.938 52.3121 160.853 52.3121 160.853 52.3121Z" fill="#C97125"/>
<path d="M162.875 52.4806C162.791 52.4806 162.791 52.4806 162.707 52.4806C162.117 52.3121 162.117 51.2168 162.117 50.8798C162.117 50.7955 162.201 50.7113 162.286 50.7113C162.37 50.7113 162.454 50.7955 162.454 50.964C162.454 51.5538 162.538 52.1436 162.707 52.1436C162.791 52.1436 163.128 52.1436 163.465 51.8908C163.718 51.7223 164.476 51.1325 164.645 50.29C164.645 50.2057 164.813 50.1215 164.898 50.1215C164.982 50.1215 165.066 50.29 165.066 50.3742C164.813 51.4695 164.055 52.0593 163.718 52.2278C163.465 52.3121 163.128 52.4806 162.875 52.4806Z" fill="#C97125"/>
<path d="M44.4742 57.4074L36.6742 63.2074C31.8742 66.8074 24.9742 66.5074 18.5742 63.2074C14.4742 61.1074 10.4742 57.7074 7.27419 53.4074C2.07419 46.4074 -0.0258121 38.3074 1.17419 31.8074C1.87419 27.9074 3.67419 24.6074 6.57419 22.4074L14.3742 16.7074L16.7742 20.0074L17.9742 21.6074L38.5742 49.5074L41.9742 54.1074L44.4742 57.4074Z" fill="#FFAA01"/>
<path opacity="0.5" d="M44.4742 57.4074L36.6742 63.2074C31.8742 66.8074 24.9742 66.5074 18.5742 63.2074L38.5742 49.5074L41.9742 54.1074L44.4742 57.4074Z" fill="#8B5703"/>
<path opacity="0.5" d="M17.9738 21.4074C15.2738 23.2074 6.77383 28.3074 1.17383 31.7074C1.87383 27.8074 3.67383 24.5074 6.57383 22.3074L14.3738 16.6074L16.7738 19.9074L17.9738 21.4074Z" fill="white"/>
<path d="M44.462 57.4613C52.3777 51.6308 52.0499 37.7474 43.7299 26.4521C35.4098 15.1567 22.2482 10.7266 14.3326 16.5572C6.4169 22.3877 6.74471 36.2711 15.0647 47.5664C23.3848 58.8618 36.5464 63.2919 44.462 57.4613Z" fill="#FFBE3D"/>
<path d="M348.714 63.1459L352.875 60.9643C355.438 59.6071 358.71 60.2703 361.518 62.3283C363.317 63.64 364.971 65.5649 366.175 67.8592C368.13 71.5935 368.522 75.6194 367.46 78.6326C366.831 80.4421 365.723 81.8821 364.173 82.7141L360.019 84.8479L359.122 83.0914L358.669 82.237L350.935 67.3627L349.659 64.91L348.714 63.1459Z" fill="#FFAA01"/>
<path opacity="0.5" d="M348.713 63.1461L352.874 60.9644C355.437 59.6072 358.71 60.2704 361.517 62.3284L350.935 67.3628L349.658 64.9102L348.713 63.1461Z" fill="#8B5703"/>
<path opacity="0.5" d="M358.652 82.3322C360.077 81.6762 364.52 79.8816 367.45 78.6801C366.822 80.4896 365.714 81.9297 364.164 82.7616L360.01 84.8955L359.112 83.1389L358.652 82.3322Z" fill="white"/>
<path d="M348.723 63.121C344.504 65.3085 343.614 71.9623 346.736 77.9827C349.857 84.0031 355.808 87.1102 360.027 84.9227C364.246 82.7352 365.136 76.0814 362.014 70.061C358.893 64.0406 352.942 60.9335 348.723 63.121Z" fill="#FFBE3D"/>
<path d="M114.015 40.3075L110.415 34.6075L110.115 34.2075C109.515 32.7075 111.315 29.9075 114.515 27.1075C115.715 26.1075 117.115 25.0075 118.715 24.0075C121.215 22.4075 123.815 21.2075 125.915 20.6075C128.715 19.7075 130.915 19.8075 131.615 20.9075L135.315 26.8075C135.315 26.8075 133.415 28.0075 130.815 29.6075C127.815 31.5075 123.915 33.9075 120.515 36.0075C116.915 38.4075 114.015 40.3075 114.015 40.3075Z" fill="#FFAA01"/>
<path opacity="0.5" d="M114.015 40.3075L110.415 34.6075L110.115 34.2075C109.515 32.7075 111.315 29.9075 114.515 27.1075L120.615 36.1075C116.915 38.4075 114.015 40.3075 114.015 40.3075Z" fill="#8B5703"/>
<path opacity="0.5" d="M130.916 29.6075C129.216 26.4075 127.316 23.0075 125.916 20.6075C128.716 19.7075 130.916 19.8075 131.616 20.9075L135.316 26.8075C135.416 26.8075 133.516 28.0075 130.916 29.6075Z" fill="white"/>
<path d="M127.029 37.2239C132.962 33.4833 136.745 28.8224 135.478 26.8136C134.212 24.8047 128.375 26.2085 122.442 29.9491C116.509 33.6897 112.726 38.3505 113.992 40.3594C115.259 42.3683 121.095 40.9644 127.029 37.2239Z" fill="#FFBE3D"/>
<path d="M432.403 205.233L444.037 211.979L444.937 212.408C447.384 214.505 446.792 221.118 443.726 229.026C442.529 231.903 441.072 235.142 439.169 238.389C436.23 243.529 432.744 248.054 429.587 251.057C425.47 255.237 421.489 257.094 419.235 255.797L407.239 248.791C407.239 248.791 409.488 244.913 412.604 239.68C416.149 233.548 420.823 225.7 424.891 218.844C429.034 211.273 432.403 205.233 432.403 205.233Z" fill="#FFAA01"/>
<path opacity="0.5" d="M432.401 205.234L444.035 211.98L444.935 212.41C447.383 214.506 446.79 221.12 443.724 229.028L424.62 218.761C429.032 211.274 432.401 205.234 432.401 205.234Z" fill="#8B5703"/>
<path opacity="0.5" d="M412.425 239.774C418.389 243.858 424.891 248.111 429.585 251.058C425.468 255.238 421.487 257.096 419.233 255.799L407.237 248.792C407.06 248.885 409.309 245.007 412.425 239.774Z" fill="white"/>
<path d="M412.25 222.718C405.222 234.816 402.846 246.552 406.942 248.932C411.038 251.311 420.056 243.433 427.084 231.335C434.111 219.237 436.488 207.501 432.392 205.121C428.296 202.742 419.278 210.62 412.25 222.718Z" fill="#FFBE3D"/>
<defs>
<clipPath id="clip0_2628_21425">
<rect width="37.3" height="12.2" fill="white" transform="translate(192 121)"/>
</clipPath>
<clipPath id="clip1_2628_21425">
<rect width="19.6" height="35.4" fill="white" transform="translate(62)"/>
</clipPath>
<clipPath id="clip2_2628_21425">
<rect width="38.1" height="22.6" fill="white" transform="translate(344)"/>
</clipPath>
<clipPath id="clip3_2628_21425">
<rect width="68" height="51.5" fill="white" transform="translate(199 212)"/>
</clipPath>
<clipPath id="clip4_2628_21425">
<rect width="40.9" height="33.2" fill="white" transform="translate(236 43)"/>
</clipPath>
</defs>
</svg>
