<svg width="211" height="153" viewBox="0 0 211 153" fill="none" xmlns="http://www.w3.org/2000/svg">
<path fill-rule="evenodd" clip-rule="evenodd" d="M186.608 55.4903C187.257 59.2608 188.076 66.1738 187.34 74.4298C186.828 80.1205 185.587 86.443 183.046 92.8306C178.588 103.994 170.89 114.549 159.465 121.047C150.008 126.428 137.998 129.028 123.169 126.92C122.732 126.861 122.331 127.167 122.272 127.603C122.213 128.039 122.521 128.439 122.958 128.499C138.177 130.518 150.468 127.734 160.107 122.142C171.691 115.408 179.469 104.596 183.91 93.1681C186.43 86.6786 187.641 80.2519 188.105 74.4905C188.777 66.15 187.893 59.1908 187.206 55.3813C187.173 55.2184 187.019 55.1098 186.858 55.134C186.686 55.1648 186.575 55.3274 186.608 55.4903Z" fill="#A9503C"/>
<path fill-rule="evenodd" clip-rule="evenodd" d="M137.775 111.043C137.104 111.315 131.235 113.781 129.256 116.992C125.785 122.602 129.443 127.236 129.581 127.408C130.327 125.415 131.696 121.925 132.988 119.55C134.276 117.193 136.474 113.31 137.775 111.043Z" fill="#A9503C"/>
<path fill-rule="evenodd" clip-rule="evenodd" d="M137.772 111.04C136.47 113.307 134.272 117.19 132.984 119.548C131.692 121.923 130.314 125.41 129.577 127.406L129.586 127.408C129.586 127.408 136.287 124.934 137.67 120.274C139.027 115.714 137.835 111.019 137.835 111.019L137.772 111.04Z" fill="#BF604B"/>
<path fill-rule="evenodd" clip-rule="evenodd" d="M183.225 46.3656C183.572 46.5433 186.606 48.1438 187.521 49.96C189.127 53.1338 186.956 55.4481 186.875 55.5336C186.566 54.4291 185.99 52.492 185.405 51.1565C184.827 49.8299 183.82 47.6435 183.225 46.3656Z" fill="#BF604B"/>
<path fill-rule="evenodd" clip-rule="evenodd" d="M183.227 46.3705C183.822 47.6483 184.824 49.8354 185.407 51.1611C185.992 52.4966 186.573 54.4327 186.877 55.538L186.873 55.5389C186.873 55.5389 183.394 53.895 182.863 51.3299C182.343 48.819 183.194 46.356 183.194 46.356L183.227 46.3705Z" fill="#A9503C"/>
<path fill-rule="evenodd" clip-rule="evenodd" d="M198.99 66.2589C198.911 66.8099 198.152 71.6456 196.114 73.7182C192.555 77.349 188.404 75.4819 188.25 75.4113C189.605 74.4846 191.965 72.8152 193.505 71.41C195.032 70.0117 197.53 67.6448 198.99 66.2589Z" fill="#A9503C"/>
<path fill-rule="evenodd" clip-rule="evenodd" d="M198.99 66.255C197.534 67.6471 195.032 70.0077 193.505 71.406C191.965 72.8111 189.608 74.4868 188.25 75.4073L188.247 75.401C188.247 75.401 188.857 69.9436 192.091 68.0463C195.256 66.187 198.995 66.2036 198.995 66.2036L198.99 66.255Z" fill="#BF604B"/>
<path fill-rule="evenodd" clip-rule="evenodd" d="M198.041 87.3909C197.775 87.9327 195.377 92.6674 192.583 94.1247C187.7 96.6813 184.043 93.369 183.907 93.2448C185.614 92.7412 188.606 91.8075 190.663 90.8723C192.705 89.94 196.072 88.3327 198.041 87.3909Z" fill="#A9503C"/>
<path fill-rule="evenodd" clip-rule="evenodd" d="M198.043 87.3892C196.075 88.3387 192.707 89.9386 190.665 90.8709C188.607 91.8062 185.617 92.7477 183.908 93.2437L183.907 93.236C183.907 93.236 186.36 87.81 190.329 86.9327C194.214 86.0717 198.064 87.3375 198.064 87.3375L198.043 87.3892Z" fill="#BF604B"/>
<path fill-rule="evenodd" clip-rule="evenodd" d="M170.607 100.628C170.233 100.96 166.977 103.917 166.428 106.467C165.459 110.927 168.912 113.114 169.041 113.195C169.068 111.722 169.155 109.129 169.45 107.282C169.745 105.447 170.282 102.407 170.607 100.628Z" fill="#A9503C"/>
<path fill-rule="evenodd" clip-rule="evenodd" d="M170.612 100.627C170.287 102.406 169.75 105.446 169.455 107.281C169.16 109.128 169.066 111.721 169.046 113.193L169.052 113.193C169.052 113.193 172.848 110.04 172.676 106.68C172.508 103.391 170.649 100.599 170.649 100.599L170.612 100.627Z" fill="#BF604B"/>
<path fill-rule="evenodd" clip-rule="evenodd" d="M178.148 60.2377C178.247 60.6785 179.163 64.5433 180.941 66.0951C184.045 68.8142 187.285 67.0503 187.405 66.9838C186.252 66.317 184.239 65.1111 182.906 64.0687C181.584 63.0311 179.416 61.2694 178.148 60.2377Z" fill="#A9503C"/>
<path fill-rule="evenodd" clip-rule="evenodd" d="M178.147 60.2358C179.412 61.2728 181.583 63.0294 182.905 64.0671C184.238 65.1095 186.248 66.3209 187.404 66.9824L187.407 66.9771C187.407 66.9771 186.572 62.5999 183.838 61.2629C181.163 59.9524 178.141 60.1944 178.141 60.1944L178.147 60.2358Z" fill="#BF604B"/>
<path fill-rule="evenodd" clip-rule="evenodd" d="M179.211 125.705C178.607 125.998 173.252 128.512 169.547 127.948C163.067 126.971 161.477 121.742 161.42 121.547C163.441 122.224 167.016 123.367 169.658 123.901C172.279 124.435 176.65 125.242 179.211 125.705Z" fill="#A9503C"/>
<path fill-rule="evenodd" clip-rule="evenodd" d="M179.209 125.711C176.648 125.248 172.281 124.433 169.656 123.907C167.014 123.373 163.435 122.238 161.418 121.553L161.421 121.545C161.421 121.545 167.262 118.472 171.779 120.3C176.203 122.087 179.263 125.681 179.263 125.681L179.209 125.711Z" fill="#BF604B"/>
<path fill-rule="evenodd" clip-rule="evenodd" d="M195.18 51.351C195.163 51.7447 194.974 55.2099 193.649 56.9641C191.335 60.0354 188.179 59.3955 188.062 59.3709C188.977 58.5169 190.567 56.991 191.58 55.7768C192.589 54.566 194.223 52.5393 195.18 51.351Z" fill="#A9503C"/>
<path fill-rule="evenodd" clip-rule="evenodd" d="M195.178 51.348C194.224 52.5401 192.584 54.5664 191.579 55.7737C190.565 56.9879 188.979 58.5175 188.061 59.3677L188.058 59.364C188.058 59.364 188.093 55.492 190.3 53.6712C192.46 51.8875 195.177 51.3117 195.177 51.3117L195.178 51.348Z" fill="#BF604B"/>
<path fill-rule="evenodd" clip-rule="evenodd" d="M142.524 140.896C141.073 138.536 139.819 134.468 136.815 131.894C133.811 129.319 129.424 129.279 129.424 129.279C129.424 129.279 130.36 132.337 133.887 135.264C135.758 136.813 139.68 139.201 141.526 140.301L142.524 140.896Z" fill="#BF604B"/>
<path fill-rule="evenodd" clip-rule="evenodd" d="M129.422 129.288C129.422 129.288 126.703 134.435 130.171 137.615C134.237 141.339 142.532 140.907 142.532 140.907L141.531 140.322C139.685 139.221 135.763 136.834 133.892 135.284C130.349 132.344 129.422 129.288 129.422 129.288Z" fill="#A9503C"/>
<path fill-rule="evenodd" clip-rule="evenodd" d="M182.107 115.086C180.021 114.619 177.094 113.125 174.058 113.4C171.021 113.675 168.649 116.073 168.649 116.073C168.649 116.073 170.846 117.2 174.358 116.826C176.219 116.626 179.644 115.745 181.243 115.317L182.107 115.086Z" fill="#BF604B"/>
<path fill-rule="evenodd" clip-rule="evenodd" d="M168.649 116.073C168.649 116.073 170.047 120.339 173.668 120.133C177.911 119.891 182.115 115.082 182.115 115.082L181.254 115.32C179.655 115.747 176.23 116.629 174.369 116.828C170.841 117.204 168.649 116.073 168.649 116.073Z" fill="#A9503C"/>
<path fill-rule="evenodd" clip-rule="evenodd" d="M166.828 130.631C164.958 129.236 162.708 126.445 159.559 125.365C156.411 124.286 152.976 125.618 152.976 125.618C152.976 125.618 154.663 127.72 158.329 128.912C160.273 129.542 164.079 130.19 165.864 130.477L166.828 130.631Z" fill="#BF604B"/>
<path fill-rule="evenodd" clip-rule="evenodd" d="M152.977 125.625C152.977 125.625 152.466 130.497 156.166 131.905C160.502 133.554 166.836 130.637 166.836 130.637L165.873 130.491C164.088 130.204 160.282 129.556 158.339 128.926C154.656 127.728 152.977 125.625 152.977 125.625Z" fill="#A9503C"/>
<path fill-rule="evenodd" clip-rule="evenodd" d="M156.799 111.621C156.87 113.607 157.74 116.535 156.966 119.263C156.193 121.991 153.582 123.751 153.582 123.751C153.582 123.751 152.924 121.551 153.87 118.406C154.373 116.739 155.77 113.76 156.438 112.371L156.799 111.621Z" fill="#BF604B"/>
<path fill-rule="evenodd" clip-rule="evenodd" d="M153.577 123.755C153.577 123.755 149.897 121.752 150.708 118.478C151.658 114.643 156.798 111.62 156.798 111.62L156.432 112.366C155.765 113.755 154.367 116.734 153.864 118.401C152.918 121.555 153.577 123.755 153.577 123.755Z" fill="#A9503C"/>
<path fill-rule="evenodd" clip-rule="evenodd" d="M139.843 126.695C141.039 126.843 145.979 127.102 148.342 121.594C149.872 118.024 148.635 114.296 148.514 111.727L143.748 119.438C142.418 121.584 139.587 126.653 139.587 126.653L139.843 126.695Z" fill="#BF604B"/>
<path fill-rule="evenodd" clip-rule="evenodd" d="M147.581 112.017C145.872 112.596 142.253 114.074 140.645 116.595C137.858 120.963 139.135 125.388 139.495 126.419L139.577 126.647C139.577 126.647 142.416 121.582 143.738 119.432C145.069 117.287 148.504 111.721 148.504 111.721L147.581 112.017Z" fill="#A9503C"/>
<path fill-rule="evenodd" clip-rule="evenodd" d="M184.267 86.0453C184.817 85.3122 186.471 82.4762 183.713 78.8417C181.922 76.483 179.354 75.5625 177.609 74.6774L180.925 80.7363C181.846 82.4252 184.141 86.2088 184.141 86.2088L184.267 86.0453Z" fill="#BF604B"/>
<path fill-rule="evenodd" clip-rule="evenodd" d="M177.455 75.3911C177.194 76.7385 176.807 79.6858 177.873 81.6996C179.719 85.1893 183.137 86.0181 183.957 86.1695L184.14 86.2016C184.14 86.2016 181.851 82.4138 180.924 80.7291C180.003 79.0402 177.607 74.6702 177.607 74.6702L177.455 75.3911Z" fill="#A9503C"/>
<path fill-rule="evenodd" clip-rule="evenodd" d="M180.249 101.863C180.885 102.718 183.742 106.035 188.718 104.184C191.943 102.984 193.575 99.9167 195.148 98.2716L187.29 99.9307C185.1 100.39 180.119 101.674 180.119 101.674L180.249 101.863Z" fill="#A9503C"/>
<path fill-rule="evenodd" clip-rule="evenodd" d="M194.39 97.8481C192.973 97.1088 189.812 95.6959 187.212 96.2068C182.707 97.0913 180.651 100.609 180.211 101.468L180.115 101.66C180.115 101.66 185.099 100.384 187.286 99.9173C189.475 99.4584 195.145 98.2582 195.145 98.2582L194.39 97.8481Z" fill="#BF604B"/>
<path fill-rule="evenodd" clip-rule="evenodd" d="M188.553 66.5107C189.294 66.8243 192.42 67.8916 194.949 64.7863C196.588 62.7734 196.477 60.154 196.872 58.4827L192.394 62.5641C191.145 63.699 188.396 66.4374 188.396 66.4374L188.553 66.5107Z" fill="#A9503C"/>
<path fill-rule="evenodd" clip-rule="evenodd" d="M196.218 58.4979C195.014 58.5582 192.417 58.8463 190.922 60.1718C188.33 62.4681 188.337 65.542 188.379 66.2692L188.39 66.4312C188.39 66.4312 191.144 63.6968 192.388 62.558C193.637 61.4231 196.865 58.4767 196.865 58.4767L196.218 58.4979Z" fill="#BF604B"/>
<path fill-rule="evenodd" clip-rule="evenodd" d="M180.727 95.8756C181.44 95.3238 183.196 92.3962 182.125 88.8186C181.287 86.0328 178.81 84.6495 177.383 83.3471L178.949 89.9626C179.382 91.8058 180.572 95.9954 180.572 95.9954L180.727 95.8756Z" fill="#BF604B"/>
<path fill-rule="evenodd" clip-rule="evenodd" d="M177.032 83.9905C176.434 85.2008 175.298 87.8963 175.784 90.0855C176.625 93.8791 179.651 95.5585 180.389 95.9163L180.554 95.9946C180.554 95.9946 179.371 91.8025 178.931 89.9618C178.498 88.1186 177.365 83.3463 177.365 83.3463L177.032 83.9905Z" fill="#A9503C"/>
<path fill-rule="evenodd" clip-rule="evenodd" d="M156.76 139.847C156.76 139.847 155.585 134.406 152.123 131.594C147.687 127.992 141.736 128.714 140.322 128.951L140.007 129.011C140.007 129.011 143.554 130.856 147.271 133.179C149.13 134.341 151.501 136.005 153.408 137.381L156.76 139.847Z" fill="#BF604B"/>
<path fill-rule="evenodd" clip-rule="evenodd" d="M140.16 130.062C140.515 132.013 141.616 136.145 144.75 137.985C148.933 140.443 156.763 139.838 156.763 139.838L153.411 137.373C151.504 135.996 149.124 134.329 147.275 133.17C143.557 130.847 140.01 129.002 140.01 129.002L140.16 130.062Z" fill="#A9503C"/>
<path fill-rule="evenodd" clip-rule="evenodd" d="M176.971 54.2973C176.971 54.2973 179.949 53.3354 182.289 54.2207C185.288 55.3559 186.608 58.4427 186.89 59.1942L186.95 59.3637C186.95 59.3637 185.056 58.1645 182.881 57.0173C181.793 56.4437 180.318 55.7637 179.112 55.2271L176.971 54.2973Z" fill="#BF604B"/>
<path fill-rule="evenodd" clip-rule="evenodd" d="M186.395 59.5924C185.346 59.9697 183.026 60.5991 181.25 59.5988C178.879 58.2638 176.974 54.3006 176.974 54.3006L179.115 55.2304C180.321 55.767 181.797 56.447 182.884 57.0206C185.059 58.1678 186.953 59.3669 186.953 59.3669L186.395 59.5924Z" fill="#A9503C"/>
<path fill-rule="evenodd" clip-rule="evenodd" d="M192.219 110.481C192.219 110.481 189.389 106.823 185.794 105.949C181.187 104.831 177 107.496 176.028 108.178L175.814 108.335C175.814 108.335 179.126 108.452 182.738 108.868C184.543 109.075 186.911 109.477 188.831 109.829L192.219 110.481Z" fill="#BF604B"/>
<path fill-rule="evenodd" clip-rule="evenodd" d="M176.305 109.074C177.27 110.41 179.576 113.114 182.577 113.376C186.585 113.725 192.218 110.48 192.218 110.48L188.829 109.827C186.91 109.476 184.534 109.075 182.736 108.866C179.125 108.451 175.813 108.334 175.813 108.334L176.305 109.074Z" fill="#A9503C"/>
<path fill-rule="evenodd" clip-rule="evenodd" d="M176.831 66.9083C176.831 66.9083 180.607 66.7107 183.066 68.4721C186.215 70.7298 186.796 74.7444 186.892 75.7095L186.908 75.9258C186.908 75.9258 185.069 73.9369 182.887 71.9214C181.795 70.9136 180.283 69.6609 179.042 68.6596L176.831 66.9083Z" fill="#BF604B"/>
<path fill-rule="evenodd" clip-rule="evenodd" d="M186.188 76.0212C184.846 76.1355 181.941 76.1492 180.179 74.4293C177.825 72.1336 176.83 66.9083 176.83 66.9083L179.041 68.6595C180.282 69.6609 181.794 70.9136 182.885 71.9213C185.068 73.9369 186.907 75.9258 186.907 75.9258L186.188 76.0212Z" fill="#A9503C"/>
<path fill-rule="evenodd" clip-rule="evenodd" d="M173.967 90.819C173.967 90.819 177.223 93.529 177.899 96.8434C178.763 101.09 176.174 104.826 175.515 105.69L175.364 105.88C175.364 105.88 175.371 102.85 175.116 99.5368C174.989 97.88 174.703 95.7027 174.448 93.9374L173.967 90.819Z" fill="#BF604B"/>
<path fill-rule="evenodd" clip-rule="evenodd" d="M174.702 105.406C173.511 104.478 171.111 102.28 170.976 99.529C170.794 95.8627 173.967 90.8191 173.967 90.8191L174.448 93.9375C174.703 95.7028 174.987 97.887 175.116 99.5369C175.371 102.851 175.364 105.881 175.364 105.881L174.702 105.406Z" fill="#A9503C"/>
<path fill-rule="evenodd" clip-rule="evenodd" d="M198.934 76.7745C198.934 76.7745 194.766 76.0208 191.786 77.6306C187.969 79.6943 186.757 84.0739 186.515 85.133L186.466 85.371C186.466 85.371 188.79 83.4207 191.499 81.4894C192.854 80.5238 194.71 79.3454 196.23 78.4081L198.934 76.7745Z" fill="#BF604B"/>
<path fill-rule="evenodd" clip-rule="evenodd" d="M187.255 85.5742C188.731 85.8912 191.957 86.3173 194.158 84.6552C197.096 82.4367 198.934 76.7757 198.934 76.7757L196.23 78.4093C194.71 79.3466 192.849 80.5306 191.499 81.4906C188.789 83.4219 186.466 85.3722 186.466 85.3722L187.255 85.5742Z" fill="#A9503C"/>
<path fill-rule="evenodd" clip-rule="evenodd" d="M163.391 102.604C163.391 102.604 166.369 106.277 166.386 110.056C166.407 114.897 162.753 118.431 161.841 119.236L161.634 119.412C161.634 119.412 162.304 116.093 162.748 112.406C162.969 110.563 163.131 108.115 163.237 106.125L163.391 102.604Z" fill="#BF604B"/>
<path fill-rule="evenodd" clip-rule="evenodd" d="M161.01 118.747C159.906 117.474 157.756 114.546 158.208 111.502C158.812 107.437 163.389 102.603 163.389 102.603L163.235 106.124C163.13 108.114 162.968 110.562 162.746 112.405C162.302 116.092 161.632 119.411 161.632 119.411L161.01 118.747Z" fill="#A9503C"/>
<path fill-rule="evenodd" clip-rule="evenodd" d="M23.6438 55.4903C22.9951 59.2608 22.1758 66.1738 22.9123 74.4298C23.4244 80.1205 24.6652 86.443 27.2062 92.8306C31.6635 103.994 39.3624 114.549 50.7871 121.047C60.2439 126.428 72.2542 129.028 87.0829 126.92C87.5203 126.861 87.9206 127.167 87.9796 127.603C88.0386 128.039 87.731 128.439 87.2937 128.499C72.0749 130.518 59.7837 127.734 50.145 122.142C38.5606 115.408 30.783 104.596 26.3418 93.1681C23.8217 86.6786 22.6109 80.2519 22.1473 74.4905C21.475 66.15 22.3591 59.1908 23.0455 55.3813C23.079 55.2184 23.2332 55.1098 23.394 55.134C23.5662 55.1648 23.6773 55.3274 23.6438 55.4903Z" fill="#A9503C"/>
<path fill-rule="evenodd" clip-rule="evenodd" d="M72.4766 111.043C73.1475 111.315 79.0167 113.781 80.9959 116.992C84.4666 122.602 80.8087 127.236 80.6714 127.408C79.9252 125.415 78.5562 121.925 77.2638 119.55C75.9763 117.193 73.7784 113.31 72.4766 111.043Z" fill="#A9503C"/>
<path fill-rule="evenodd" clip-rule="evenodd" d="M72.4803 111.04C73.7822 113.307 75.9801 117.19 77.2676 119.548C78.5599 121.923 79.938 125.41 80.6751 127.406L80.6661 127.408C80.6661 127.408 73.9653 124.934 72.5819 120.274C71.2249 115.714 72.4167 111.019 72.4167 111.019L72.4803 111.04Z" fill="#BF604B"/>
<path fill-rule="evenodd" clip-rule="evenodd" d="M27.0273 46.3656C26.6801 46.5433 23.6462 48.1438 22.731 49.96C21.125 53.1338 23.2955 55.4481 23.3768 55.5336C23.6864 54.4291 24.2621 52.492 24.8471 51.1565C25.4254 49.8299 26.4323 47.6435 27.0273 46.3656Z" fill="#BF604B"/>
<path fill-rule="evenodd" clip-rule="evenodd" d="M27.0246 46.3705C26.4296 47.6483 25.4277 49.8354 24.8446 51.1611C24.2596 52.4966 23.6791 54.4327 23.3745 55.538L23.3794 55.5389C23.3794 55.5389 26.8583 53.895 27.3886 51.3299C27.9092 48.819 27.0577 46.356 27.0577 46.356L27.0246 46.3705Z" fill="#A9503C"/>
<path fill-rule="evenodd" clip-rule="evenodd" d="M11.2617 66.2589C11.3411 66.8099 12.0997 71.6456 14.1378 73.7182C17.6965 77.349 21.8478 75.4819 22.0017 75.4113C20.6472 74.4846 18.2869 72.8152 16.7471 71.41C15.2198 70.0117 12.722 67.6448 11.2617 66.2589Z" fill="#A9503C"/>
<path fill-rule="evenodd" clip-rule="evenodd" d="M11.2616 66.255C12.7184 67.6471 15.2197 70.0077 16.7469 71.406C18.2866 72.8111 20.6435 74.4868 22.0015 75.4073L22.005 75.401C22.005 75.401 21.3948 69.9436 18.161 68.0463C14.9962 66.187 11.2573 66.2036 11.2573 66.2036L11.2616 66.255Z" fill="#BF604B"/>
<path fill-rule="evenodd" clip-rule="evenodd" d="M12.2109 87.3909C12.4769 87.9327 14.8746 92.6674 17.669 94.1247C22.5519 96.6813 26.2093 93.369 26.3445 93.2448C24.638 92.7412 21.6461 91.8075 19.5887 90.8723C17.5466 89.94 14.1799 88.3327 12.2109 87.3909Z" fill="#A9503C"/>
<path fill-rule="evenodd" clip-rule="evenodd" d="M12.2092 87.3892C14.1768 88.3387 17.5451 89.9386 19.5874 90.8709C21.6448 91.8062 24.6354 92.7477 26.3435 93.2437L26.345 93.236C26.345 93.236 23.8924 87.81 19.9233 86.9327C16.0382 86.0717 12.1877 87.3375 12.1877 87.3375L12.2092 87.3892Z" fill="#BF604B"/>
<path fill-rule="evenodd" clip-rule="evenodd" d="M39.6445 100.628C40.019 100.96 43.2751 103.917 43.8244 106.467C44.7926 110.927 41.34 113.114 41.211 113.195C41.1843 111.722 41.0968 109.129 40.8024 107.282C40.507 105.447 39.9702 102.407 39.6445 100.628Z" fill="#A9503C"/>
<path fill-rule="evenodd" clip-rule="evenodd" d="M39.6395 100.627C39.9651 102.406 40.502 105.446 40.7974 107.281C41.0918 109.128 41.1856 111.721 41.2059 113.193L41.1995 113.193C41.1995 113.193 37.4035 110.04 37.5764 106.68C37.7437 103.391 39.603 100.599 39.603 100.599L39.6395 100.627Z" fill="#BF604B"/>
<path fill-rule="evenodd" clip-rule="evenodd" d="M32.1035 60.2377C32.0048 60.6785 31.0888 64.5433 29.3111 66.0951C26.2066 68.8142 22.967 67.0503 22.847 66.9838C24.0002 66.317 26.0131 65.1111 27.346 64.0687C28.6683 63.0311 30.8361 61.2694 32.1035 60.2377Z" fill="#A9503C"/>
<path fill-rule="evenodd" clip-rule="evenodd" d="M32.1046 60.2358C30.8396 61.2728 28.6694 63.0294 27.347 64.0671C26.0141 65.1095 24.0035 66.3209 22.8479 66.9824L22.8455 66.9771C22.8455 66.9771 23.6803 62.5999 26.4139 61.2629C29.0892 59.9524 32.1113 60.1944 32.1113 60.1944L32.1046 60.2358Z" fill="#BF604B"/>
<path fill-rule="evenodd" clip-rule="evenodd" d="M31.041 125.705C31.6454 125.998 37.0003 128.512 40.7051 127.948C47.1853 126.971 48.7746 121.742 48.8322 121.547C46.811 122.224 43.2356 123.367 40.5939 123.901C37.9726 124.435 33.6017 125.242 31.041 125.705Z" fill="#A9503C"/>
<path fill-rule="evenodd" clip-rule="evenodd" d="M31.0429 125.711C33.6036 125.248 37.9713 124.433 40.596 123.907C43.2377 123.373 46.8165 122.238 48.8344 121.553L48.8312 121.545C48.8312 121.545 42.9899 118.472 38.4726 120.3C34.0494 122.087 30.9891 125.681 30.9891 125.681L31.0429 125.711Z" fill="#BF604B"/>
<path fill-rule="evenodd" clip-rule="evenodd" d="M15.0723 51.351C15.0887 51.7447 15.2778 55.2099 16.6034 56.9641C18.917 60.0354 22.0727 59.3955 22.1898 59.3709C21.2751 58.5169 19.6853 56.991 18.6718 55.7768C17.6626 54.566 16.0294 52.5393 15.0723 51.351Z" fill="#A9503C"/>
<path fill-rule="evenodd" clip-rule="evenodd" d="M15.0738 51.348C16.0279 52.5401 17.6683 54.5664 18.6732 55.7737C19.6866 56.9879 21.2734 58.5175 22.191 59.3677L22.194 59.364C22.194 59.364 22.1592 55.492 19.9519 53.6712C17.792 51.8875 15.0745 51.3117 15.0745 51.3117L15.0738 51.348Z" fill="#BF604B"/>
<path fill-rule="evenodd" clip-rule="evenodd" d="M67.7277 140.896C69.1786 138.536 70.4325 134.468 73.4367 131.894C76.4409 129.319 80.8281 129.279 80.8281 129.279C80.8281 129.279 79.8923 132.337 76.3651 135.264C74.4944 136.813 70.5721 139.201 68.7258 140.301L67.7277 140.896Z" fill="#BF604B"/>
<path fill-rule="evenodd" clip-rule="evenodd" d="M80.8295 129.288C80.8295 129.288 83.5494 134.435 80.0805 137.615C76.0148 141.339 67.7202 140.907 67.7202 140.907L68.7207 140.322C70.567 139.221 74.4893 136.834 76.3599 135.284C79.9028 132.344 80.8295 129.288 80.8295 129.288Z" fill="#A9503C"/>
<path fill-rule="evenodd" clip-rule="evenodd" d="M28.1446 115.086C30.2305 114.619 33.1575 113.125 36.1942 113.4C39.2309 113.675 41.6034 116.073 41.6034 116.073C41.6034 116.073 39.406 117.2 35.8941 116.826C34.0329 116.626 30.608 115.745 29.0088 115.317L28.1446 115.086Z" fill="#BF604B"/>
<path fill-rule="evenodd" clip-rule="evenodd" d="M41.6025 116.073C41.6025 116.073 40.2052 120.339 36.5838 120.133C32.3409 119.891 28.1374 115.082 28.1374 115.082L28.9979 115.32C30.5972 115.747 34.0221 116.629 35.8833 116.828C39.4112 117.204 41.6025 116.073 41.6025 116.073Z" fill="#A9503C"/>
<path fill-rule="evenodd" clip-rule="evenodd" d="M43.424 130.631C45.294 129.236 47.5443 126.445 50.6929 125.365C53.8414 124.286 57.276 125.618 57.276 125.618C57.276 125.618 55.5892 127.72 51.9227 128.912C49.9789 129.542 46.1728 130.19 44.3884 130.477L43.424 130.631Z" fill="#BF604B"/>
<path fill-rule="evenodd" clip-rule="evenodd" d="M57.2751 125.625C57.2751 125.625 57.7863 130.497 54.086 131.905C49.75 133.554 43.4157 130.637 43.4157 130.637L44.3792 130.491C46.1635 130.204 49.9696 129.556 51.9133 128.926C55.5962 127.728 57.2751 125.625 57.2751 125.625Z" fill="#A9503C"/>
<path fill-rule="evenodd" clip-rule="evenodd" d="M53.4535 111.621C53.3819 113.607 52.5122 116.535 53.2855 119.263C54.0588 121.991 56.6698 123.751 56.6698 123.751C56.6698 123.751 57.3282 121.551 56.3819 118.406C55.879 116.739 54.4815 113.76 53.8143 112.371L53.4535 111.621Z" fill="#BF604B"/>
<path fill-rule="evenodd" clip-rule="evenodd" d="M56.6751 123.755C56.6751 123.755 60.3548 121.752 59.5445 118.478C58.5937 114.643 53.4542 111.62 53.4542 111.62L53.8202 112.366C54.4873 113.755 55.8848 116.734 56.3877 118.401C57.3335 121.555 56.6751 123.755 56.6751 123.755Z" fill="#A9503C"/>
<path fill-rule="evenodd" clip-rule="evenodd" d="M70.4085 126.695C69.213 126.843 64.2728 127.102 61.9102 121.594C60.3799 118.024 61.6173 114.296 61.7376 111.727L66.5036 119.438C67.8342 121.584 70.6649 126.653 70.6649 126.653L70.4085 126.695Z" fill="#BF604B"/>
<path fill-rule="evenodd" clip-rule="evenodd" d="M62.6711 112.017C64.3802 112.596 67.9993 114.074 69.607 116.595C72.3935 120.963 71.1173 125.388 70.7572 126.419L70.6749 126.647C70.6749 126.647 67.8358 121.582 66.5137 119.432C65.1832 117.287 61.748 111.721 61.748 111.721L62.6711 112.017Z" fill="#A9503C"/>
<path fill-rule="evenodd" clip-rule="evenodd" d="M25.9852 86.0453C25.435 85.3122 23.781 82.4762 26.5392 78.8417C28.33 76.483 30.8975 75.5625 32.6433 74.6774L29.3268 80.7363C28.4056 82.4252 26.111 86.2088 26.111 86.2088L25.9852 86.0453Z" fill="#BF604B"/>
<path fill-rule="evenodd" clip-rule="evenodd" d="M32.7972 75.3911C33.0582 76.7385 33.4451 79.6858 32.3793 81.6996C30.5332 85.1893 27.1149 86.0181 26.2952 86.1695L26.1123 86.2016C26.1123 86.2016 28.4012 82.4138 29.3281 80.7291C30.2493 79.0402 32.6445 74.6702 32.6445 74.6702L32.7972 75.3911Z" fill="#A9503C"/>
<path fill-rule="evenodd" clip-rule="evenodd" d="M30.003 101.863C29.3669 102.718 26.5099 106.035 21.5338 104.184C18.3093 102.984 16.6766 99.9167 15.1037 98.2716L22.9624 99.9307C25.1519 100.39 30.1334 101.674 30.1334 101.674L30.003 101.863Z" fill="#A9503C"/>
<path fill-rule="evenodd" clip-rule="evenodd" d="M15.8615 97.8481C17.2789 97.1088 20.4403 95.6959 23.0402 96.2068C27.5454 97.0913 29.6008 100.609 30.041 101.468L30.1373 101.66C30.1373 101.66 25.153 100.384 22.9662 99.9173C20.7767 99.4584 15.1074 98.2582 15.1074 98.2582L15.8615 97.8481Z" fill="#BF604B"/>
<path fill-rule="evenodd" clip-rule="evenodd" d="M21.6987 66.5107C20.9581 66.8243 17.832 67.8916 15.3028 64.7863C13.6642 62.7734 13.7745 60.154 13.3801 58.4827L17.8577 62.5641C19.1065 63.699 21.8558 66.4374 21.8558 66.4374L21.6987 66.5107Z" fill="#A9503C"/>
<path fill-rule="evenodd" clip-rule="evenodd" d="M14.0339 58.4979C15.2383 58.5582 17.8345 58.8463 19.3302 60.1718C21.9224 62.4681 21.915 65.542 21.8729 66.2692L21.8621 66.4312C21.8621 66.4312 19.1081 63.6968 17.8641 62.558C16.6153 61.4231 13.3867 58.4767 13.3867 58.4767L14.0339 58.4979Z" fill="#BF604B"/>
<path fill-rule="evenodd" clip-rule="evenodd" d="M29.5247 95.8756C28.8117 95.3238 27.0558 92.3962 28.1271 88.8186C28.9649 86.0328 31.4415 84.6495 32.869 83.3471L31.3033 89.9626C30.8699 91.8058 29.6801 95.9954 29.6801 95.9954L29.5247 95.8756Z" fill="#BF604B"/>
<path fill-rule="evenodd" clip-rule="evenodd" d="M33.2195 83.9905C33.8183 85.2008 34.9537 87.8963 34.4679 90.0855C33.6269 93.8791 30.6009 95.5585 29.863 95.9163L29.6978 95.9946C29.6978 95.9946 30.8811 91.8025 31.321 89.9618C31.7544 88.1186 32.8867 83.3463 32.8867 83.3463L33.2195 83.9905Z" fill="#A9503C"/>
<path fill-rule="evenodd" clip-rule="evenodd" d="M53.4922 139.847C53.4922 139.847 54.6674 134.406 58.1287 131.594C62.5646 127.992 68.5164 128.714 69.9301 128.951L70.2451 129.011C70.2451 129.011 66.6982 130.856 62.9805 133.179C61.1216 134.341 58.7512 136.005 56.8438 137.381L53.4922 139.847Z" fill="#BF604B"/>
<path fill-rule="evenodd" clip-rule="evenodd" d="M70.092 130.062C69.7371 132.013 68.6357 136.145 65.5021 137.985C61.3189 140.443 53.4892 139.838 53.4892 139.838L56.8408 137.373C58.7482 135.996 61.1276 134.329 62.9774 133.17C66.6952 130.847 70.2421 129.002 70.2421 129.002L70.092 130.062Z" fill="#A9503C"/>
<path fill-rule="evenodd" clip-rule="evenodd" d="M33.2809 54.2973C33.2809 54.2973 30.3034 53.3354 27.9626 54.2207C24.9637 55.3559 23.6437 58.4427 23.3617 59.1942L23.3024 59.3637C23.3024 59.3637 25.1963 58.1645 27.3711 57.0173C28.4585 56.4437 29.9341 55.7637 31.1397 55.2271L33.2809 54.2973Z" fill="#BF604B"/>
<path fill-rule="evenodd" clip-rule="evenodd" d="M23.8569 59.5924C24.906 59.9697 27.2261 60.5991 29.0015 59.5988C31.3725 58.2638 33.2777 54.3006 33.2777 54.3006L31.1365 55.2304C29.9309 55.767 28.4553 56.447 27.3679 57.0206C25.1931 58.1678 23.2991 59.3669 23.2991 59.3669L23.8569 59.5924Z" fill="#A9503C"/>
<path fill-rule="evenodd" clip-rule="evenodd" d="M18.0325 110.481C18.0325 110.481 20.8625 106.823 24.4577 105.949C29.0646 104.831 33.2524 107.496 34.2239 108.178L34.4378 108.335C34.4378 108.335 31.1257 108.452 27.5143 108.868C25.7087 109.075 23.3405 109.477 21.4214 109.829L18.0325 110.481Z" fill="#BF604B"/>
<path fill-rule="evenodd" clip-rule="evenodd" d="M33.9469 109.074C32.9817 110.41 30.6763 113.114 27.6749 113.376C23.6674 113.725 18.0338 110.48 18.0338 110.48L21.4228 109.827C23.3418 109.476 25.7176 109.075 27.5157 108.866C31.1271 108.451 34.4392 108.334 34.4392 108.334L33.9469 109.074Z" fill="#A9503C"/>
<path fill-rule="evenodd" clip-rule="evenodd" d="M33.4209 66.9083C33.4209 66.9083 29.6445 66.7107 27.1864 68.4721C24.0373 70.7298 23.4558 74.7444 23.3603 75.7095L23.3436 75.9258C23.3436 75.9258 25.1825 73.9369 27.3654 71.9214C28.4568 70.9136 29.9685 69.6609 31.2096 68.6596L33.4209 66.9083Z" fill="#BF604B"/>
<path fill-rule="evenodd" clip-rule="evenodd" d="M24.0635 76.0212C25.406 76.1355 28.3112 76.1492 30.0734 74.4293C32.427 72.1336 33.4224 66.9083 33.4224 66.9083L31.2111 68.6595C29.9701 69.6609 28.4584 70.9136 27.3669 71.9213C25.184 73.9369 23.3452 75.9258 23.3452 75.9258L24.0635 76.0212Z" fill="#A9503C"/>
<path fill-rule="evenodd" clip-rule="evenodd" d="M36.2845 90.819C36.2845 90.819 33.0285 93.529 32.353 96.8434C31.4886 101.09 34.0778 104.826 34.7367 105.69L34.8883 105.88C34.8883 105.88 34.8806 102.85 35.1356 99.5368C35.263 97.88 35.5489 95.7027 35.8043 93.9374L36.2845 90.819Z" fill="#BF604B"/>
<path fill-rule="evenodd" clip-rule="evenodd" d="M35.5502 105.406C36.7414 104.478 39.1407 102.28 39.2756 99.529C39.4584 95.8627 36.2845 90.8191 36.2845 90.8191L35.8043 93.9375C35.5489 95.7028 35.2646 97.887 35.1356 99.5369C34.8806 102.851 34.8883 105.881 34.8883 105.881L35.5502 105.406Z" fill="#A9503C"/>
<path fill-rule="evenodd" clip-rule="evenodd" d="M11.3178 76.7745C11.3178 76.7745 15.4864 76.0208 18.466 77.6306C22.2833 79.6943 23.4947 84.0739 23.7367 85.133L23.7856 85.371C23.7856 85.371 21.4622 83.4207 18.7527 81.4894C17.398 80.5238 15.5417 79.3454 14.0217 78.4081L11.3178 76.7745Z" fill="#BF604B"/>
<path fill-rule="evenodd" clip-rule="evenodd" d="M22.9969 85.5742C21.5212 85.8912 18.2947 86.3173 16.0943 84.6552C13.1557 82.4367 11.3182 76.7757 11.3182 76.7757L14.0221 78.4093C15.5421 79.3466 17.4027 80.5306 18.7531 81.4906C21.4626 83.4219 23.786 85.3722 23.786 85.3722L22.9969 85.5742Z" fill="#A9503C"/>
<path fill-rule="evenodd" clip-rule="evenodd" d="M46.861 102.604C46.861 102.604 43.8826 106.277 43.8656 110.056C43.845 114.897 47.4994 118.431 48.4105 119.236L48.6182 119.412C48.6182 119.412 47.9483 116.093 47.5044 112.406C47.2825 110.563 47.1206 108.115 47.0152 106.125L46.861 102.604Z" fill="#BF604B"/>
<path fill-rule="evenodd" clip-rule="evenodd" d="M49.242 118.747C50.3456 117.474 52.4963 114.546 52.0437 111.502C51.4404 107.437 46.8627 102.603 46.8627 102.603L47.0169 106.124C47.1223 108.114 47.2842 110.562 47.5061 112.405C47.95 116.092 48.6199 119.411 48.6199 119.411L49.242 118.747Z" fill="#A9503C"/>
<path fill-rule="evenodd" clip-rule="evenodd" d="M93.0945 8.07959C93.4876 12.7094 95.2081 15.6146 98.062 17.0533C95.0958 18.5105 93.6203 21.7108 93.0945 26.027C92.6452 22.0613 91.2617 18.8425 88.127 17.0533C90.6337 15.4486 92.3134 12.4973 93.0945 8.07959Z" fill="#FEEDB4"/>
<path fill-rule="evenodd" clip-rule="evenodd" d="M106.365 8.08154C106.66 11.56 107.953 13.7427 110.097 14.8236C107.869 15.9184 106.76 18.3229 106.365 21.5657C106.027 18.5862 104.988 16.1679 102.633 14.8236C104.52 13.618 105.778 11.4006 106.365 8.08154Z" fill="#ECA400"/>
<path fill-rule="evenodd" clip-rule="evenodd" d="M119.203 0C119.694 5.78119 121.842 9.40883 125.406 11.2054C121.702 13.0249 119.86 17.0211 119.203 22.4107C118.642 17.4587 116.914 13.4395 113 11.2054C116.13 9.21305 118.228 5.52783 119.203 0Z" fill="#FEEDB4"/>
<path fill-rule="evenodd" clip-rule="evenodd" d="M74.4961 129.679C74.6821 124.202 92.1198 123.063 105.211 114.219C118.386 124.168 135.739 124.219 135.925 129.679V132.995H74.4961V129.679Z" fill="#FBCB22"/>
<path d="M131.315 130.253H79.1043C78.8747 130.253 78.6855 130.066 78.6855 129.828C78.6855 129.59 78.8747 129.403 79.1043 129.403H131.315C131.545 129.403 131.734 129.59 131.734 129.828C131.734 130.066 131.558 130.253 131.315 130.253Z" fill="#ECA400"/>
<path fill-rule="evenodd" clip-rule="evenodd" d="M97.2832 97.2323C97.2832 97.2323 99.0422 99.8854 100.497 104.545C100.97 106.076 101.461 107.692 101.444 109.427C101.427 111.178 100.886 112.76 100.395 114.308C98.9238 118.934 97.2832 121.621 97.2832 121.621C97.2832 126.026 113.148 126.026 113.148 121.621C113.148 121.621 111.49 118.917 110.036 114.308C109.545 112.777 109.004 111.178 108.987 109.427C108.97 107.692 109.461 106.076 109.934 104.545C111.389 99.8684 113.148 97.2323 113.148 97.2323C113.148 92.8274 109.596 89.2559 105.216 89.2559C100.835 89.2559 97.2832 92.8274 97.2832 97.2323Z" fill="#ECA400"/>
<path fill-rule="evenodd" clip-rule="evenodd" d="M74.3372 63.6276C56.463 62.3822 48.7874 57.0163 45.3471 49.2057C41.9221 41.4258 41.7692 30.1097 44.185 30.0329C45.5611 30.0636 47.8852 30.1405 49.0626 30.0329C51.8454 30.0175 49.5672 32.1239 53.5732 38.9043C59.4293 48.8367 70.9734 50.0052 70.9734 50.0052V41.5027C70.9734 41.5027 61.0042 43.4246 56.7077 35.368C52.4111 27.3268 55.0716 23.9289 52.2735 24.0058C48.3898 24.098 42.289 24.0673 39.1393 24.0058C35.5155 23.9289 36.8916 39.9345 40.3166 49.4209C43.7416 58.9074 56.4783 71.0692 74.3372 72.6067C74.3831 70.9462 74.3525 65.4418 74.3372 63.6276Z" fill="#ECA400"/>
<path fill-rule="evenodd" clip-rule="evenodd" d="M135.659 63.6276C153.533 62.3822 161.209 57.0163 164.649 49.2057C168.074 41.4258 168.227 30.1097 165.811 30.0329C164.435 30.0636 162.111 30.1405 160.934 30.0329C158.151 30.0329 160.429 32.1239 156.423 38.9197C150.567 48.852 139.023 50.0206 139.023 50.0206V41.5027C139.023 41.5027 148.992 43.4246 153.289 35.368C157.57 27.3268 154.925 23.9289 157.708 24.0058C161.591 24.098 167.692 24.0673 170.842 24.0058C174.481 23.9289 173.105 39.9345 169.664 49.4209C166.239 58.9074 153.518 71.0692 135.659 72.6067C135.598 70.9462 135.644 65.4418 135.659 63.6276Z" fill="#ECA400"/>
<path fill-rule="evenodd" clip-rule="evenodd" d="M65.3613 42.6216V31.9751C65.3613 29.8661 66.1901 27.8253 67.6785 26.3456C69.1668 24.849 71.1795 24.0156 73.2768 24.0156C88.4649 24.0156 121.514 24.0156 136.702 24.0156C138.799 24.0156 140.829 24.849 142.3 26.3456C143.788 27.8423 144.617 29.8661 144.617 31.9751C144.617 37.1113 144.617 42.8087 144.617 42.8087C144.549 75.1397 126.807 101.365 104.972 101.365C83.1203 101.365 65.3613 75.0376 65.3613 42.6216Z" fill="#FBCB22"/>
<path fill-rule="evenodd" clip-rule="evenodd" d="M147.307 28.3882C147.307 25.9626 145.358 23.9977 142.939 23.9977C128.389 23.9977 81.5997 23.9977 67.0501 23.9977C64.6493 23.9977 62.6816 25.9626 62.6816 28.3882C62.6816 30.8138 64.6312 32.7787 67.0501 32.7787C81.5997 32.7787 128.389 32.7787 142.939 32.7787C145.358 32.7651 147.307 30.8138 147.307 28.3882Z" fill="#FEEDB4"/>
<path d="M140.712 29.1511H69.7081C69.2857 29.1511 68.9551 28.811 68.9551 28.3858C68.9551 27.9606 69.304 27.6205 69.7081 27.6205H140.694C141.116 27.6205 141.447 27.9606 141.447 28.3858C141.465 28.811 141.135 29.1511 140.712 29.1511Z" fill="#FBCB22"/>
<path d="M77.6248 72.8572C77.0159 72.8572 76.4239 72.5001 76.1702 71.8878C69.2527 55.5267 69.9799 40.016 70.0138 39.3698C70.0645 38.4854 70.8087 37.8221 71.6882 37.8561C72.5677 37.9071 73.2273 38.6555 73.1935 39.5398C73.1766 39.7269 72.5 54.9995 79.1131 70.6463C79.4514 71.4626 79.0793 72.398 78.2675 72.7382C78.0307 72.8232 77.8277 72.8572 77.6248 72.8572Z" fill="#FEEDB4"/>
<path d="M84.7456 85.4596C84.2551 85.4596 83.7815 85.2385 83.4771 84.8133C81.8196 82.5683 80.2974 80.1533 78.9274 77.6192C78.5046 76.8539 78.7921 75.8845 79.5701 75.4593C80.3312 75.0341 81.2953 75.3232 81.7181 76.1055C83.0204 78.5036 84.4581 80.7996 86.031 82.9085C86.5553 83.6228 86.4031 84.6092 85.7097 85.1364C85.4052 85.3575 85.067 85.4596 84.7456 85.4596Z" fill="#FEEDB4"/>
<path fill-rule="evenodd" clip-rule="evenodd" d="M140.732 93C141.028 96.4784 142.32 98.6611 144.464 99.7421C142.236 100.837 141.127 103.241 140.732 106.484C140.395 103.505 139.355 101.086 137 99.7421C138.883 98.5433 140.145 96.326 140.732 93Z" fill="#ECA400"/>
<path fill-rule="evenodd" clip-rule="evenodd" d="M153.967 75C154.361 79.6298 156.081 82.535 158.935 83.9737C155.969 85.4309 154.493 88.6312 153.967 92.9475C153.518 88.9817 152.135 85.763 149 83.9737C151.507 82.369 153.186 79.4177 153.967 75Z" fill="#FEEDB4"/>
<path fill-rule="evenodd" clip-rule="evenodd" d="M62.7322 80C63.0275 83.4785 64.3202 85.6611 66.4644 86.7421C64.2358 87.8369 63.1273 90.2413 62.7322 93.4842C62.3946 90.5046 61.3551 88.0864 59 86.7421C60.8834 85.5364 62.1453 83.3191 62.7322 80Z" fill="#ECA400"/>
<path fill-rule="evenodd" clip-rule="evenodd" d="M68.0279 97C68.3466 100.754 69.7417 103.11 72.0558 104.276C69.6506 105.458 68.4543 108.053 68.0279 111.553C67.6636 108.337 66.5417 105.727 64 104.276C66.0367 102.975 67.3986 100.582 68.0279 97Z" fill="#FEEDB4"/>
</svg>
