<?xml version="1.0" standalone="no"?>
<!DOCTYPE svg PUBLIC "-//W3C//DTD SVG 20010904//EN"
 "http://www.w3.org/TR/2001/REC-SVG-20010904/DTD/svg10.dtd">
<svg version="1.0" xmlns="http://www.w3.org/2000/svg"
 width="260.000000pt" height="260.000000pt" viewBox="0 0 260.000000 260.000000"
 preserveAspectRatio="xMidYMid meet">
<metadata>
Created by potrace 1.14, written by Peter Selinger 2001-2017
</metadata>
<g transform="translate(0.000000,260.000000) scale(0.100000,-0.100000)"
fill="#000000" stroke="none">
<path d="M285 2121 c-75 -35 -147 -112 -172 -184 -17 -48 -18 -98 -18 -652 l0
-600 29 -62 c31 -69 88 -128 158 -165 l43 -23 970 0 970 0 57 28 c111 55 182
169 182 292 -1 65 -16 112 -202 644 -111 316 -213 592 -227 613 -14 21 -47 54
-73 73 -90 67 -64 65 -901 65 l-756 0 -60 -29z m830 -271 c75 -23 188 -85 219
-119 27 -30 36 -26 36 14 0 24 9 44 29 67 24 27 36 33 71 33 35 0 47 -6 71
-33 l29 -32 0 -519 0 -519 -25 -30 c-63 -76 -175 -32 -175 68 0 17 -3 30 -6
30 -3 0 -25 -16 -47 -36 -131 -111 -356 -160 -550 -119 -221 47 -414 232 -471
452 -20 77 -20 221 -1 298 48 188 198 362 369 428 138 52 315 59 451 17z"/>
<path d="M768 1671 c-115 -37 -208 -117 -260 -223 -105 -214 -16 -469 200
-575 l76 -38 131 0 131 0 76 38 c174 86 272 273 239 455 -31 168 -141 293
-302 343 -80 25 -213 25 -291 0z"/>
</g>
</svg>
